<?xml version="1.0" encoding="UTF-8"?>
<svg id="Layer_2" data-name="Layer 2" xmlns="http://www.w3.org/2000/svg" viewBox="0 0 1531.26 312.93">
  <defs>
    <style>
      .cls-1 {
        fill: #676767;
      }
    </style>
  </defs>
  <g id="Layer_1-2" data-name="Layer 1">
    <g>
      <g>
        <path class="cls-1" d="m345.72,123.51h129.58c2.95-39.47-3.95-66.69-20.76-89.09C437.78,12.02,411.06.64,374.49.37c-31.83-.26-57.92,9.54-78.2,29.35-20.34,19.87-30.62,46.01-30.88,78.31-.26,32.09,9.54,58.18,29.41,78.2,19.87,20.08,46.22,30.25,79.1,30.51,37.36.32,67.3-11.65,89.8-35.89l-27.61-29.25c-15.49,15.81-34.68,23.61-57.49,23.4-15.6-.11-28.77-4.53-39.47-13.23-9.75-8.01-16.49-18.71-20.03-32.15-.05-.05-.05-.16-.11-.26-.32-1.11-.58-2.21-.84-3.37-4.43-20.55-.9-34.62-.9-34.62,2.53-15.92,8.91-28.35,19.18-37.42,10.28-9.06,22.98-13.54,38.1-13.44,16.18.16,29.95,4.54,39.69,13.86,9.7,9.38,13.74,17.62,14.37,32.64h-61.81c-11.64,0-21.08,9.44-21.08,21.08v15.39Z"/>
        <path class="cls-1" d="m557.61,42.42v-19.87c.05-11.65-9.28-21.4-20.92-21.5h-30.62v215.05h28.88c11.64.09,21.83-9.26,21.92-20.91v-83.59c.16-19.6,6.85-35.15,20.08-46.53,9.29-8.03,20.73-12.86,34.33-14.52,10.55-1.28,18.55-10.1,18.64-20.73l.25-29.78c-33.67.26-57.76,14.39-72.57,42.37Z"/>
        <path class="cls-1" d="m803.89,118.1c-7.64-9.49-16.97-16.44-28.09-20.92-11.07-4.48-22.13-8.22-33.09-11.22-11.01-3-20.34-6.64-27.98-10.96-7.64-4.32-11.44-9.64-11.38-16.02.11-12.44,9.7-18.6,28.77-18.44,14.33.11,29.09,3.58,44.27,10.43,10.38,4.69,22.55.63,27.72-9.49l9.33-18.18C791.24,8.02,765.31.22,735.64,0c-23.08-.21-42.26,5.16-57.6,16.02-15.39,10.86-23.13,26.67-23.29,47.32-.11,14.07,3.58,25.72,11.07,34.89,7.48,9.22,16.65,15.86,27.46,19.92,10.86,4.11,21.71,7.69,32.57,10.8,10.8,3.16,20.03,6.96,27.56,11.38,7.48,4.43,11.22,10.22,11.17,17.39-.11,13.28-10.64,19.81-31.57,19.66-11.96-.11-24.56-2.53-37.73-7.27-5.69-2.06-11.01-4.43-15.97-7.11-10.43-5.59-23.4-1.95-28.72,8.59l-7.59,14.97c22.66,20.08,51.86,30.3,87.69,30.57,24.14.21,44.16-5.22,60.18-16.23,16.02-10.96,24.08-26.82,24.24-47.53.11-14.02-3.64-25.77-11.22-35.26Z"/>
        <path class="cls-1" d="m1037.48,30.89c-20.5-20.03-47.32-30.2-80.47-30.51-33.67-.26-60.97,9.49-81.79,29.2-20.87,19.71-31.41,45.64-31.67,77.68-.26,32.36,9.85,58.65,30.41,78.84,20.5,20.18,47.59,30.41,81.26,30.67,33.15.32,60.13-9.49,81-29.35,20.87-19.87,31.41-45.95,31.67-78.31.26-32.09-9.85-58.13-30.41-78.2Zm-38.79,125c-11.22,11.8-25.61,17.65-43.11,17.55-18.02-.16-32.57-6.27-43.63-18.29-11.01-12.02-16.44-27.56-16.28-46.64.16-19.13,5.85-34.57,17.07-46.43,11.22-11.86,25.87-17.71,43.9-17.55,17.5.16,31.78,6.22,42.79,18.29,11.07,12.02,16.49,27.56,16.34,46.64-.16,19.13-5.85,34.57-17.07,46.43Z"/>
        <path class="cls-1" d="m1285.35,23.39c-13.97-14.86-33.09-22.34-57.49-22.55-36.36.26-61.76,13.96-76.57,41.16v-19.7c.11-11.65-9.28-21.13-20.92-21.24h-32.36v215.06h30.62c11.65.11,21.87-9.01,21.98-20.66v-85.06c.11-17.76,5.22-32.3,15.23-43.63,10.07-11.33,23.71-17.02,40.95-17.18,14.54.16,26.09,4.53,34.46,13.23,8.43,8.7,12.6,20.45,12.44,35.31v117.99h30.09c11.65.11,22.08-9.28,22.19-20.92v-111.77c.16-25.19-6.69-45.22-20.61-60.02Z"/>
        <path class="cls-1" d="m1507.56,20.51c-15.12-13.39-36.52-20.18-64.08-20.39-18.29-.16-34.31,1.79-47.96,5.8-13.7,4.01-28.93,10.54-45.74,19.71l8.8,17.18c5.11,10.01,17.18,14.07,27.46,9.54,15.7-6.9,30.88-10.28,45.58-10.17,15.65.16,27.56,3.69,35.68,10.65,8.17,6.96,12.23,16.71,12.12,29.14l-.05,5.06h-62.03c-25.77.05-45.69,5.64-59.81,16.81-14.18,11.17-21.29,26.67-21.45,46.59-.16,19.34,6.43,35.26,19.87,47.69,13.44,12.44,31.41,18.76,53.96,18.92,30.99.26,54.02-8.96,69.04-27.67l-.05,4.8c-.11,11.59,9.27,21.13,20.92,21.24h30.57V76.42c-.05-23.87-7.69-42.53-22.82-55.91Zm-28.61,121.52c0,.4-.03.81-.09,1.21-1.57,10.06-7.6,18.5-18.04,25.27-10.64,6.96-23.4,10.38-38.26,10.22-11.7-.11-20.87-2.79-27.56-8.17-6.75-5.38-10.07-12.54-10.01-21.55.11-9.28,3.37-15.97,9.91-20.03,6.53-4.06,16.71-5.59,30.51-5.48h53.7l-.15,18.52Z"/>
      </g>
      <g>
        <path class="cls-1" d="m0,121.21h95.2v144.21c0,25.49-20.7,46.19-46.19,46.19H0V121.21h0Z"/>
        <path class="cls-1" d="m120.73,1.1h49.01c25.49,0,46.19,20.7,46.19,46.19v123.54c0,25.49-20.7,46.19-46.19,46.19h-49.01V1.1h0Z"/>
        <path class="cls-1" d="m46.19,1.1h49.01v94.58H0v-48.39C0,21.8,20.7,1.1,46.19,1.1Z"/>
      </g>
    </g>
    <g>
      <path class="cls-1" d="m318.9,292.95c0,6.04-2.12,10.71-6.36,13.99-4.24,3.28-10.3,4.92-18.18,4.92h-28.1v-61.62h26.17c16.36,0,24.54,4.97,24.54,14.91,0,2.15-.52,4.12-1.55,5.91-1.03,1.79-2.6,3.36-4.71,4.71-2.11,1.35-4.42,2.26-6.94,2.75v.17c2.92.34,5.54,1.21,7.86,2.6,2.32,1.39,4.11,3.12,5.37,5.2,1.26,2.08,1.89,4.23,1.89,6.47Zm-21.66-24.58c0-3.81-2.99-5.71-8.98-5.71h-3.44v11.64h5.37c2.06,0,3.75-.55,5.07-1.65,1.32-1.1,1.98-2.53,1.98-4.28Zm1.93,24.49c0-1.78-.64-3.24-1.93-4.38-1.29-1.15-2.99-1.72-5.11-1.72h-7.3v12.59h6.19c2.52,0,4.51-.58,5.97-1.74s2.19-2.74,2.19-4.75Z"/>
      <path class="cls-1" d="m405.59,283.71c0,9.88-2.26,17.22-6.77,22.02-4.51,4.8-11.47,7.2-20.86,7.2-8.77,0-15.42-2.4-19.96-7.2-4.54-4.8-6.81-12.02-6.81-21.68v-33.82h18.65v34.5c0,3.95.74,7,2.21,9.13,1.48,2.13,3.59,3.2,6.34,3.2s4.89-1,6.34-3.01c1.45-2,2.17-4.97,2.17-8.89v-34.93h18.69v33.47Z"/>
      <path class="cls-1" d="m484.63,293.2c0,4.1-1.1,7.66-3.29,10.7-2.19,3.04-5.26,5.3-9.22,6.79s-8.71,2.23-14.27,2.23c-6.45,0-12.35-1.09-17.7-3.27v-16.89c2.58,1.89,5.43,3.42,8.55,4.58,3.12,1.16,6.03,1.74,8.72,1.74,2.03,0,3.61-.37,4.73-1.1s1.68-1.8,1.68-3.2c0-1-.28-1.88-.84-2.64-.56-.76-1.4-1.47-2.54-2.13-1.13-.66-3.23-1.56-6.29-2.71-9.91-3.81-14.87-9.97-14.87-18.48,0-5.96,2.26-10.72,6.79-14.29,4.53-3.57,10.6-5.35,18.22-5.35,2.15,0,4.12.09,5.93.26s3.44.39,4.92.64c1.48.26,3.54.75,6.21,1.46v15.68c-5.19-2.84-10.28-4.25-15.3-4.25-2.06,0-3.72.39-4.98,1.16-1.26.77-1.89,1.83-1.89,3.18s.51,2.36,1.53,3.2c1.02.85,3.14,1.94,6.38,3.29,6.39,2.58,10.91,5.4,13.56,8.46,2.65,3.07,3.97,6.7,3.97,10.91Z"/>
      <path class="cls-1" d="m516.97,311.85v-61.62h18.56v61.62h-18.56Z"/>
      <path class="cls-1" d="m615.52,311.85l-21.74-29.73c-1.72-2.35-3.12-4.47-4.21-6.36h-.17c.17,3.04.26,6.45.26,10.23v25.87h-17.19v-61.62h17.53l20.84,28.27c.26.37.57.82.95,1.33.37.52.74,1.05,1.12,1.59.37.54.72,1.07,1.05,1.59.33.52.58.97.75,1.38h.17c-.17-1.26-.26-3.44-.26-6.53v-27.63h17.19v61.62h-16.29Z"/>
      <path class="cls-1" d="m668.74,311.85v-61.62h38.37v14.52h-19.81v8.98h18.61v14.52h-18.61v9.07h21.23v14.52h-39.79Z"/>
      <path class="cls-1" d="m784.9,293.2c0,4.1-1.1,7.66-3.29,10.7-2.19,3.04-5.26,5.3-9.22,6.79s-8.71,2.23-14.27,2.23c-6.45,0-12.35-1.09-17.7-3.27v-16.89c2.58,1.89,5.43,3.42,8.55,4.58,3.12,1.16,6.03,1.74,8.72,1.74,2.03,0,3.61-.37,4.73-1.1s1.68-1.8,1.68-3.2c0-1-.28-1.88-.84-2.64-.56-.76-1.4-1.47-2.54-2.13-1.13-.66-3.23-1.56-6.29-2.71-9.91-3.81-14.87-9.97-14.87-18.48,0-5.96,2.26-10.72,6.79-14.29,4.53-3.57,10.6-5.35,18.22-5.35,2.15,0,4.12.09,5.93.26s3.44.39,4.92.64c1.48.26,3.54.75,6.21,1.46v15.68c-5.19-2.84-10.28-4.25-15.3-4.25-2.06,0-3.72.39-4.98,1.16-1.26.77-1.89,1.83-1.89,3.18s.51,2.36,1.53,3.2c1.02.85,3.14,1.94,6.38,3.29,6.39,2.58,10.91,5.4,13.56,8.46,2.65,3.07,3.97,6.7,3.97,10.91Z"/>
      <path class="cls-1" d="m860.04,293.2c0,4.1-1.1,7.66-3.29,10.7-2.19,3.04-5.26,5.3-9.22,6.79s-8.71,2.23-14.27,2.23c-6.45,0-12.35-1.09-17.7-3.27v-16.89c2.58,1.89,5.43,3.42,8.55,4.58,3.12,1.16,6.03,1.74,8.72,1.74,2.03,0,3.61-.37,4.73-1.1s1.68-1.8,1.68-3.2c0-1-.28-1.88-.84-2.64-.56-.76-1.4-1.47-2.54-2.13-1.13-.66-3.23-1.56-6.29-2.71-9.91-3.81-14.87-9.97-14.87-18.48,0-5.96,2.26-10.72,6.79-14.29,4.53-3.57,10.6-5.35,18.22-5.35,2.15,0,4.12.09,5.93.26s3.44.39,4.92.64c1.48.26,3.54.75,6.21,1.46v15.68c-5.19-2.84-10.28-4.25-15.3-4.25-2.06,0-3.72.39-4.98,1.16-1.26.77-1.89,1.83-1.89,3.18s.51,2.36,1.53,3.2c1.02.85,3.14,1.94,6.38,3.29,6.39,2.58,10.91,5.4,13.56,8.46,2.65,3.07,3.97,6.7,3.97,10.91Z"/>
      <path class="cls-1" d="m980.27,311.85l-2.71-11.34h-18.39l-2.92,11.34h-20.07l21.23-61.62h23.03l19.98,61.62h-20.15Zm-11.69-48.21h-.43c-.06.69-.26,1.82-.6,3.39-.34,1.58-2.08,8.34-5.2,20.28h11.77l-4.3-16.76c-.6-2.46-1.02-4.77-1.25-6.92Z"/>
      <path class="cls-1" d="m1078.3,310.18c-5.1,1.83-10.99,2.75-17.66,2.75s-12.22-1.25-16.97-3.76c-4.76-2.51-8.39-6.07-10.89-10.7-2.51-4.63-3.76-9.96-3.76-16.01,0-6.5,1.4-12.29,4.21-17.36,2.81-5.07,6.77-8.99,11.9-11.75,5.13-2.76,11.03-4.15,17.7-4.15,5.33,0,10.48.64,15.47,1.93v17.14c-1.72-1.03-3.77-1.83-6.14-2.41-2.38-.57-4.78-.86-7.22-.86-5.04,0-9.02,1.45-11.92,4.34-2.91,2.89-4.36,6.82-4.36,11.77s1.45,8.82,4.36,11.67c2.91,2.85,6.8,4.28,11.67,4.28,4.5,0,9.04-1.15,13.62-3.44v16.54Z"/>
      <path class="cls-1" d="m1151.33,311.85l-2.71-11.34h-18.39l-2.92,11.34h-20.07l21.23-61.62h23.03l19.98,61.62h-20.15Zm-11.69-48.21h-.43c-.06.69-.26,1.82-.6,3.39-.34,1.58-2.08,8.34-5.2,20.28h11.77l-4.3-16.76c-.6-2.46-1.02-4.77-1.25-6.92Z"/>
      <path class="cls-1" d="m1261.61,280.27c0,6.25-1.31,11.77-3.93,16.56-2.62,4.8-6.37,8.5-11.24,11.11-4.87,2.61-10.48,3.91-16.84,3.91h-26.08v-61.62h25.52c21.71,0,32.57,10.01,32.57,30.04Zm-19.72.17c0-3.01-.61-5.71-1.83-8.12-1.22-2.41-2.96-4.27-5.22-5.59-2.26-1.32-4.93-1.98-7.99-1.98h-4.77v32.57h5.2c4.44,0,7.98-1.53,10.63-4.58,2.65-3.05,3.97-7.15,3.97-12.31Z"/>
      <path class="cls-1" d="m1295.1,311.85v-61.62h38.37v14.52h-19.81v8.98h18.61v14.52h-18.61v9.07h21.23v14.52h-39.79Z"/>
      <path class="cls-1" d="m1424.89,311.85v-33.77c0-3.18.1-6.67.3-10.48l.13-2.84h-.52c-.92,4.84-1.62,8.19-2.11,10.05l-9.07,37.04h-17.45l-9.5-36.61c-.26-.92-.93-4.41-2.02-10.48h-.52c.4,9.62.6,15.64.6,18.05v29.05h-16.29v-61.62h27.8l8.46,33.47c.2.69.47,2.08.79,4.19.33,2.11.54,3.73.62,4.88h.26c.31-2.61.82-5.69,1.5-9.24l7.91-33.3h27.37v61.62h-18.3Z"/>
      <path class="cls-1" d="m1511.63,290.45v21.4h-18.56v-21.14l-18.99-40.48h21.31l6.66,19.38c.46,1.32.78,2.46.97,3.44.19.97.39,1.96.62,2.96h.17c.37-2.61.79-4.63,1.25-6.06l6.57-19.72h19.64l-19.64,40.22Z"/>
    </g>
  </g>
</svg>