<svg width="25" height="24" viewBox="0 0 25 24" fill="none" xmlns="http://www.w3.org/2000/svg">
<path d="M13.2 17.925C12.9667 18.0583 12.7583 18.0377 12.575 17.863C12.3917 17.6877 12.3667 17.4833 12.5 17.25L14.925 13H3.5C3.21667 13 2.97933 12.904 2.788 12.712C2.596 12.5206 2.5 12.2833 2.5 12C2.5 11.7167 2.596 11.479 2.788 11.287C2.97933 11.0956 3.21667 11 3.5 11H14.925L12.5 6.74998C12.3667 6.51665 12.3917 6.31232 12.575 6.13698C12.7583 5.96232 12.9667 5.94165 13.2 6.07498L21.175 11.15C21.4917 11.35 21.65 11.6333 21.65 12C21.65 12.3667 21.4917 12.65 21.175 12.85L13.2 17.925Z" fill="#222222"/>
</svg>
