<svg width="12" height="11" viewBox="0 0 12 11" fill="none" xmlns="http://www.w3.org/2000/svg">
<g id="Show">
<path id="Show_2" fill-rule="evenodd" clip-rule="evenodd" d="M3.7239 5.50004C3.7239 6.74449 4.7426 7.75701 6.00033 7.75701C7.25236 7.75701 8.27106 6.74449 8.27106 5.50004C8.27106 4.24994 7.25236 3.23741 6.00033 3.23741C4.7426 3.23741 3.7239 4.24994 3.7239 5.50004ZM9.34667 2.02691C10.3426 2.7962 11.1906 3.92186 11.7995 5.33034C11.845 5.43782 11.845 5.56226 11.7995 5.66408C10.5816 8.48105 8.41333 10.1667 6.00033 10.1667H5.99463C3.58732 10.1667 1.41902 8.48105 0.201139 5.66408C0.15561 5.56226 0.15561 5.43782 0.201139 5.33034C1.41902 2.51337 3.58732 0.833374 5.99463 0.833374H6.00033C7.20683 0.833374 8.35073 1.25196 9.34667 2.02691ZM6.00101 6.90728C6.78068 6.90728 7.41808 6.27375 7.41808 5.4988C7.41808 4.71819 6.78068 4.08466 6.00101 4.08466C5.93272 4.08466 5.86442 4.09031 5.80182 4.10162C5.77906 4.72385 5.26686 5.22162 4.63515 5.22162H4.6067C4.58963 5.31213 4.57824 5.40264 4.57824 5.4988C4.57824 6.27375 5.21564 6.90728 6.00101 6.90728Z" fill="#5B5B5B"/>
</g>
</svg>
