<svg width="23" height="20" viewBox="0 0 23 20" fill="none" xmlns="http://www.w3.org/2000/svg">
<path d="M19.8083 2H14.3615C13.8187 2.0004 13.2847 2.13743 12.8087 2.39845C12.3328 2.65948 11.9302 3.0361 11.6381 3.49362C11.3459 3.0361 10.9434 2.65948 10.4674 2.39845C9.99148 2.13743 9.45749 2.0004 8.91466 2H3.46786C3.15185 2 2.84879 2.12553 2.62535 2.34898C2.4019 2.57243 2.27637 2.87549 2.27637 3.19149V14.0851C2.27637 14.4011 2.4019 14.7042 2.62535 14.9276C2.84879 15.1511 3.15185 15.2766 3.46786 15.2766H8.91466C9.50153 15.2766 10.0644 15.5097 10.4793 15.9247C10.8943 16.3397 11.1274 16.9025 11.1274 17.4894C11.1274 17.6248 11.1812 17.7547 11.277 17.8504C11.3728 17.9462 11.5026 18 11.6381 18C11.7735 18 11.9034 17.9462 11.9991 17.8504C12.0949 17.7547 12.1487 17.6248 12.1487 17.4894C12.1487 16.9025 12.3818 16.3397 12.7968 15.9247C13.2118 15.5097 13.7746 15.2766 14.3615 15.2766H19.8083C20.1243 15.2766 20.4273 15.1511 20.6508 14.9276C20.8742 14.7042 20.9998 14.4011 20.9998 14.0851V3.19149C20.9998 2.87549 20.8742 2.57243 20.6508 2.34898C20.4273 2.12553 20.1243 2 19.8083 2ZM8.91466 14.2553H3.46786C3.42271 14.2553 3.37942 14.2374 3.3475 14.2055C3.31558 14.1735 3.29764 14.1302 3.29764 14.0851V3.19149C3.29764 3.14635 3.31558 3.10305 3.3475 3.07113C3.37942 3.03921 3.42271 3.02128 3.46786 3.02128H8.91466C9.50153 3.02128 10.0644 3.25441 10.4793 3.66938C10.8943 4.08436 11.1274 4.64718 11.1274 5.23404V15.1328C10.5289 14.5686 9.73721 14.2546 8.91466 14.2553ZM19.9785 14.0851C19.9785 14.1302 19.9606 14.1735 19.9286 14.2055C19.8967 14.2374 19.8534 14.2553 19.8083 14.2553H14.3615C13.5388 14.255 12.7472 14.5692 12.1487 15.1336V5.23404C12.1487 4.64718 12.3818 4.08436 12.7968 3.66938C13.2118 3.25441 13.7746 3.02128 14.3615 3.02128H19.8083C19.8534 3.02128 19.8967 3.03921 19.9286 3.07113C19.9606 3.10305 19.9785 3.14635 19.9785 3.19149V14.0851Z" fill="#222222"/>
</svg>
