<svg width="56" height="55" viewBox="0 0 56 55" fill="none" xmlns="http://www.w3.org/2000/svg">
<path d="M20.8389 6.64609L40.1462 25.8961C40.3753 26.1253 40.5373 26.3735 40.632 26.6409C40.7282 26.9082 40.7764 27.1947 40.7764 27.5003C40.7764 27.8058 40.7282 28.0923 40.632 28.3596C40.5373 28.627 40.3753 28.8753 40.1462 29.1044L20.8389 48.4117C20.3041 48.9464 19.6357 49.2138 18.8337 49.2138C18.0316 49.2138 17.3441 48.9273 16.7712 48.3544C16.1982 47.7815 15.9118 47.1131 15.9118 46.3492C15.9118 45.5853 16.1982 44.9169 16.7712 44.344L33.6149 27.5003L16.7712 10.6565C16.2364 10.1218 15.9691 9.46332 15.9691 8.68109C15.9691 7.89734 16.2555 7.21901 16.8285 6.64609C17.4014 6.07318 18.0698 5.78672 18.8337 5.78672C19.5976 5.78672 20.266 6.07318 20.8389 6.64609Z" fill="black"/>
</svg>
