<svg width="21" height="16" viewBox="0 0 21 16" fill="none" xmlns="http://www.w3.org/2000/svg">
<path d="M16.9822 0.510112C17.3297 0.179306 17.7921 -0.00357696 18.2718 5.30217e-05C18.7516 0.00368301 19.2112 0.193543 19.5536 0.529569C19.896 0.865595 20.0945 1.3215 20.1072 1.8011C20.1199 2.28069 19.9457 2.74645 19.6215 3.1001L9.77958 15.4087C9.61035 15.591 9.40609 15.7373 9.17903 15.8388C8.95197 15.9404 8.70676 15.9951 8.45807 15.9997C8.20938 16.0043 7.96232 15.9587 7.73165 15.8656C7.50099 15.7726 7.29146 15.634 7.11559 15.4581L0.588812 8.93128C0.407052 8.76192 0.261267 8.55768 0.160154 8.33075C0.0590407 8.10382 0.00467063 7.85884 0.000287908 7.61044C-0.00409481 7.36204 0.0415997 7.11531 0.134645 6.88495C0.227689 6.65459 0.366179 6.44534 0.541851 6.26967C0.717524 6.09399 0.92678 5.9555 1.15714 5.86246C1.38749 5.76941 1.63423 5.72372 1.88263 5.7281C2.13103 5.73248 2.376 5.78685 2.60293 5.88797C2.82986 5.98908 3.0341 6.13487 3.20347 6.31663L8.36865 11.4793L16.9354 0.564379C16.9508 0.545388 16.9648 0.527271 16.9822 0.510112Z" fill="#059669"/>
</svg>
