<svg width="20" height="20" viewBox="0 0 20 20" fill="none" xmlns="http://www.w3.org/2000/svg">
<path fill-rule="evenodd" clip-rule="evenodd" d="M0.833984 2.50008C0.833984 2.03984 1.20708 1.66675 1.66732 1.66675H6.66732C7.77239 1.66675 8.83219 2.10573 9.6136 2.88714C10.395 3.66854 10.834 4.72835 10.834 5.83342V17.5001C10.834 17.9603 10.4609 18.3334 10.0007 18.3334C9.54041 18.3334 9.16732 17.9603 9.16732 17.5001C9.16732 17.0581 8.99172 16.6341 8.67916 16.3216C8.3666 16.009 7.94268 15.8334 7.50065 15.8334H1.66732C1.20708 15.8334 0.833984 15.4603 0.833984 15.0001V2.50008ZM9.16732 14.6133V5.83342C9.16732 5.17037 8.90392 4.53449 8.43508 4.06565C7.96624 3.59681 7.33036 3.33341 6.66732 3.33341H2.50065V14.1667H7.50065C8.09084 14.1667 8.6649 14.3233 9.16732 14.6133Z" fill="#222222"/>
<path fill-rule="evenodd" clip-rule="evenodd" d="M10.3864 2.88714C11.1678 2.10573 12.2276 1.66675 13.3327 1.66675H18.3327C18.7929 1.66675 19.166 2.03984 19.166 2.50008V15.0001C19.166 15.4603 18.7929 15.8334 18.3327 15.8334H12.4993C12.0573 15.8334 11.6334 16.009 11.3208 16.3216C11.0083 16.6341 10.8327 17.0581 10.8327 17.5001C10.8327 17.9603 10.4596 18.3334 9.99935 18.3334C9.53911 18.3334 9.16602 17.9603 9.16602 17.5001V5.83342C9.16602 4.72835 9.605 3.66854 10.3864 2.88714ZM10.8327 14.6133C11.3351 14.3233 11.9092 14.1667 12.4993 14.1667H17.4993V3.33341H13.3327C12.6696 3.33341 12.0338 3.59681 11.5649 4.06565C11.0961 4.53449 10.8327 5.17037 10.8327 5.83342V14.6133Z" fill="#222222"/>
</svg>
