<svg width="56" height="55" viewBox="0 0 56 55" fill="none" xmlns="http://www.w3.org/2000/svg">
<path d="M35.1611 48.3538L15.8538 29.1038C15.6247 28.8747 15.4627 28.6264 15.368 28.3591C15.2718 28.0917 15.2236 27.8052 15.2236 27.4997C15.2236 27.1941 15.2718 26.9077 15.368 26.6403C15.4627 26.3729 15.6247 26.1247 15.8538 25.8955L35.1611 6.58822C35.6959 6.05349 36.3643 5.78613 37.1663 5.78613C37.9684 5.78613 38.6559 6.07259 39.2288 6.64551C39.8018 7.21842 40.0882 7.88683 40.0882 8.65072C40.0882 9.41461 39.8018 10.083 39.2288 10.6559L22.3851 27.4997L39.2288 44.3434C39.7636 44.8782 40.0309 45.5366 40.0309 46.3188C40.0309 47.1026 39.7445 47.7809 39.1716 48.3538C38.5986 48.9268 37.9302 49.2132 37.1663 49.2132C36.4025 49.2132 35.734 48.9268 35.1611 48.3538Z" fill="black"/>
</svg>
