<svg width="25" height="24" viewBox="0 0 25 24" fill="none" xmlns="http://www.w3.org/2000/svg">
<g clip-path="url(#clip0_4844_19165)">
<path d="M22.25 3H2.75C1.50725 3 0.5 4.00725 0.5 5.25V17.25C0.5 18.4928 1.50725 19.5 2.75 19.5H9.5V21.75H8.375C8.168 21.75 8 21.918 8 22.125C8 22.332 8.168 22.5 8.375 22.5H16.625C16.832 22.5 17 22.332 17 22.125C17 21.918 16.832 21.75 16.625 21.75H15.5V19.5H22.25C23.4928 19.5 24.5 18.4928 24.5 17.25V5.25C24.5 4.00725 23.4928 3 22.25 3ZM14.75 21.75H10.25V19.5H14.75V21.75ZM23.75 17.25C23.75 18.0787 23.0788 18.75 22.25 18.75H2.75C1.92125 18.75 1.25 18.0787 1.25 17.25V5.25C1.25 4.42125 1.92125 3.75 2.75 3.75H22.25C23.0788 3.75 23.75 4.42125 23.75 5.25V17.25ZM19.8538 6.7725C19.2673 6.657 18.7475 6.9975 18.569 7.5H14V6.75H11V7.5H6.431C6.2525 6.9975 5.732 6.657 5.14625 6.7725C4.7165 6.85725 4.36625 7.2015 4.27625 7.6305C4.1225 8.35875 4.67375 9 5.375 9C5.864 9 6.2765 8.68575 6.431 8.25H11V8.418C7.709 9.09075 5.19125 11.9115 5.0105 15.3525C4.99925 15.5677 5.17025 15.75 5.38625 15.75C5.5835 15.75 5.74925 15.597 5.759 15.3998C5.91575 12.351 8.1095 9.84225 11 9.183V9.75H14V9.18225C16.8905 9.84225 19.0843 12.351 19.241 15.399C19.2515 15.597 19.4165 15.75 19.6138 15.75C19.8298 15.75 20.0007 15.5677 19.9895 15.3525C19.8088 11.9115 17.291 9.09075 14 8.418V8.25H18.569C18.7242 8.68575 19.136 9 19.625 9C20.3263 9 20.8775 8.35875 20.7245 7.6305C20.6337 7.2015 20.2835 6.85725 19.8538 6.7725ZM5.375 8.25C5.168 8.25 5 8.082 5 7.875C5 7.668 5.168 7.5 5.375 7.5C5.582 7.5 5.75 7.668 5.75 7.875C5.75 8.082 5.582 8.25 5.375 8.25ZM13.25 9H11.75V7.5H13.25V9ZM19.625 8.25C19.418 8.25 19.25 8.082 19.25 7.875C19.25 7.668 19.418 7.5 19.625 7.5C19.832 7.5 20 7.668 20 7.875C20 8.082 19.832 8.25 19.625 8.25Z" fill="#222222"/>
</g>
<defs>
<clipPath id="clip0_4844_19165">
<rect width="24" height="24" fill="white" transform="translate(0.5)"/>
</clipPath>
</defs>
</svg>
