<svg width="30" height="30" viewBox="0 0 30 30" fill="none" xmlns="http://www.w3.org/2000/svg">
<g id="design-svgrepo-com 1" clip-path="url(#clip0_3828_35809)">
<g id="Group">
<path id="Vector" d="M27.6064 7.34074C27.8708 7.34074 28.0851 7.12647 28.0851 6.86202V4.78723H29.5213C29.7857 4.78723 30 4.57296 30 4.30851V0.478723C30 0.214277 29.7857 0 29.5213 0H25.6915C25.4271 0 25.2128 0.214277 25.2128 0.478723V1.91489H4.78723V0.478723C4.78723 0.214277 4.57289 0 4.30851 0H0.478723C0.21434 0 0 0.214277 0 0.478723V4.30851C0 4.57296 0.21434 4.78723 0.478723 4.78723H1.91489V25.2128H0.478723C0.21434 25.2128 0 25.427 0 25.6915V29.5213C0 29.7857 0.21434 30 0.478723 30H4.30851C4.57289 30 4.78723 29.7857 4.78723 29.5213V28.0851H25.2128V29.5213C25.2128 29.7857 25.4271 30 25.6915 30H29.5213C29.7857 30 30 29.7857 30 29.5213V25.6915C30 25.427 29.7857 25.2128 29.5213 25.2128H28.0851V8.77692C28.0851 8.51247 27.8708 8.29819 27.6064 8.29819C27.342 8.29819 27.1277 8.51247 27.1277 8.77692V25.2128H25.6915C25.4271 25.2128 25.2128 25.427 25.2128 25.6915V27.1277H4.78723V25.6915C4.78723 25.427 4.57289 25.2128 4.30851 25.2128H2.87234V4.78723H4.30851C4.57289 4.78723 4.78723 4.57296 4.78723 4.30851V2.87234H25.2128V4.30851C25.2128 4.57296 25.4271 4.78723 25.6915 4.78723H27.1277V6.86202C27.1277 7.1264 27.342 7.34074 27.6064 7.34074ZM26.1702 26.1702H29.0426V29.0426H26.1702V26.1702ZM3.82979 29.0426H0.957447V26.1702H3.82979V29.0426ZM3.82979 3.82979H0.957447V0.957447H3.82979V3.82979ZM26.1702 0.957447H29.0426V3.82979H26.1702V0.957447Z" fill="#222222"/>
<path id="Vector_2" d="M23.617 6.86202C23.617 6.59758 23.4027 6.3833 23.1383 6.3833H6.86172C6.59734 6.3833 6.383 6.59758 6.383 6.86202V14.9999C6.383 15.2644 6.59734 15.4787 6.86172 15.4787H23.1383C23.4027 15.4787 23.617 15.2644 23.617 14.9999V6.86202ZM7.34044 7.6366L13.9295 10.931L7.34044 14.2254V7.6366ZM8.88965 7.34075H21.1103L15 10.3958L8.88965 7.34075ZM15 11.4662L21.1104 14.5212H8.88965L15 11.4662ZM16.0705 10.931L22.6596 7.6366V14.2254L16.0705 10.931Z" fill="#222222"/>
<path id="Vector_3" d="M14.0426 22.6597H6.86172C6.59734 22.6597 6.383 22.8739 6.383 23.1384C6.383 23.4028 6.59734 23.6171 6.86172 23.6171H14.0426C14.307 23.6171 14.5213 23.4028 14.5213 23.1384C14.5213 22.8739 14.307 22.6597 14.0426 22.6597Z" fill="#222222"/>
<path id="Vector_4" d="M23.1383 22.6597H15.9574C15.693 22.6597 15.4787 22.8739 15.4787 23.1384C15.4787 23.4028 15.693 23.6171 15.9574 23.6171H23.1383C23.4027 23.6171 23.617 23.4028 23.617 23.1384C23.617 22.8739 23.4027 22.6597 23.1383 22.6597Z" fill="#222222"/>
<path id="Vector_5" d="M14.0426 20.625H6.86172C6.59734 20.625 6.383 20.8393 6.383 21.1037C6.383 21.3682 6.59734 21.5824 6.86172 21.5824H14.0426C14.307 21.5824 14.5213 21.3682 14.5213 21.1037C14.5213 20.8393 14.307 20.625 14.0426 20.625Z" fill="#222222"/>
<path id="Vector_6" d="M23.1383 20.625H15.9574C15.693 20.625 15.4787 20.8393 15.4787 21.1037C15.4787 21.3682 15.693 21.5824 15.9574 21.5824H23.1383C23.4027 21.5824 23.617 21.3682 23.617 21.1037C23.617 20.8393 23.4027 20.625 23.1383 20.625Z" fill="#222222"/>
<path id="Vector_7" d="M14.0426 18.5903H6.86172C6.59734 18.5903 6.383 18.8046 6.383 19.0691C6.383 19.3335 6.59734 19.5478 6.86172 19.5478H14.0426C14.307 19.5478 14.5213 19.3335 14.5213 19.0691C14.5213 18.8046 14.307 18.5903 14.0426 18.5903Z" fill="#222222"/>
<path id="Vector_8" d="M23.1383 18.5903H15.9574C15.693 18.5903 15.4787 18.8046 15.4787 19.0691C15.4787 19.3335 15.693 19.5478 15.9574 19.5478H23.1383C23.4027 19.5478 23.617 19.3335 23.617 19.0691C23.617 18.8046 23.4027 18.5903 23.1383 18.5903Z" fill="#222222"/>
<path id="Vector_9" d="M23.1383 16.5557H6.86172C6.59734 16.5557 6.383 16.7699 6.383 17.0344C6.383 17.2988 6.59734 17.5131 6.86172 17.5131H23.1383C23.4027 17.5131 23.617 17.2988 23.617 17.0344C23.617 16.7699 23.4027 16.5557 23.1383 16.5557Z" fill="#222222"/>
</g>
</g>
<defs>
<clipPath id="clip0_3828_35809">
<rect width="30" height="30" fill="white"/>
</clipPath>
</defs>
</svg>
