<svg width="31" height="30" viewBox="0 0 31 30" fill="none" xmlns="http://www.w3.org/2000/svg">
<g id="design-svgrepo-com (1) 1" clip-path="url(#clip0_3828_35865)">
<path id="Vector" d="M27.6875 3.75H3.3125C1.75906 3.75 0.5 5.00906 0.5 6.5625V21.5625C0.5 23.1159 1.75906 24.375 3.3125 24.375H11.75V27.1875H10.3438C10.085 27.1875 9.875 27.3975 9.875 27.6562C9.875 27.915 10.085 28.125 10.3438 28.125H20.6562C20.915 28.125 21.125 27.915 21.125 27.6562C21.125 27.3975 20.915 27.1875 20.6562 27.1875H19.25V24.375H27.6875C29.2409 24.375 30.5 23.1159 30.5 21.5625V6.5625C30.5 5.00906 29.2409 3.75 27.6875 3.75ZM18.3125 27.1875H12.6875V24.375H18.3125V27.1875ZM29.5625 21.5625C29.5625 22.5984 28.7234 23.4375 27.6875 23.4375H3.3125C2.27656 23.4375 1.4375 22.5984 1.4375 21.5625V6.5625C1.4375 5.52656 2.27656 4.6875 3.3125 4.6875H27.6875C28.7234 4.6875 29.5625 5.52656 29.5625 6.5625V21.5625ZM24.6922 8.46562C23.9591 8.32125 23.3094 8.74687 23.0862 9.375H17.375V8.4375H13.625V9.375H7.91375C7.69063 8.74687 7.04 8.32125 6.30781 8.46562C5.77063 8.57156 5.33281 9.00187 5.22031 9.53813C5.02812 10.4484 5.71719 11.25 6.59375 11.25C7.205 11.25 7.72062 10.8572 7.91375 10.3125H13.625V10.5225C9.51125 11.3634 6.36406 14.8894 6.13812 19.1906C6.12406 19.4597 6.33781 19.6875 6.60781 19.6875C6.85437 19.6875 7.06156 19.4963 7.07375 19.2497C7.26969 15.4388 10.0119 12.3028 13.625 11.4788V12.1875H17.375V11.4778C20.9881 12.3028 23.7303 15.4387 23.9263 19.2487C23.9394 19.4962 24.1456 19.6875 24.3922 19.6875C24.6622 19.6875 24.8759 19.4597 24.8619 19.1906C24.6359 14.8894 21.4888 11.3634 17.375 10.5225V10.3125H23.0862C23.2803 10.8572 23.795 11.25 24.4062 11.25C25.2828 11.25 25.9719 10.4484 25.7806 9.53813C25.6672 9.00187 25.2294 8.57156 24.6922 8.46562ZM6.59375 10.3125C6.335 10.3125 6.125 10.1025 6.125 9.84375C6.125 9.585 6.335 9.375 6.59375 9.375C6.8525 9.375 7.0625 9.585 7.0625 9.84375C7.0625 10.1025 6.8525 10.3125 6.59375 10.3125ZM16.4375 11.25H14.5625V9.375H16.4375V11.25ZM24.4062 10.3125C24.1475 10.3125 23.9375 10.1025 23.9375 9.84375C23.9375 9.585 24.1475 9.375 24.4062 9.375C24.665 9.375 24.875 9.585 24.875 9.84375C24.875 10.1025 24.665 10.3125 24.4062 10.3125Z" fill="#0B1719"/>
</g>
<defs>
<clipPath id="clip0_3828_35865">
<rect width="30" height="30" fill="white" transform="translate(0.5)"/>
</clipPath>
</defs>
</svg>
