<svg width="63" height="62" viewBox="0 0 63 62" fill="none" xmlns="http://www.w3.org/2000/svg">
<rect x="0.5" width="62" height="62" rx="7.05882" fill="#C3E7F7"/>
<g clip-path="url(#clip0_2602_33082)">
<path d="M37.5125 20.0083H36.0094C35.3019 20.0083 34.7095 20.5102 34.5692 21.1765C33.4153 21.7539 27.7521 24.4353 20.2949 25.4168C19.8762 25.4719 19.5166 25.6995 19.2841 26.0208H17.9718C17.1602 26.0208 16.5 26.6811 16.5 27.4927V30.4989C16.5 31.3105 17.1602 31.9707 17.9718 31.9707H19.2842C19.5166 32.292 19.8763 32.5196 20.295 32.5747C20.3699 32.5846 20.4444 32.595 20.519 32.6053L22.8269 40.9137C23.0032 41.5484 23.5863 41.9916 24.245 41.9916H26.9889C26.9895 41.9916 26.9899 41.9917 26.9904 41.9917C26.9911 41.9917 26.9916 41.9916 26.9923 41.9916H27.4917C27.7511 41.9916 27.9615 41.7813 27.9615 41.5219C27.9615 41.2624 27.7512 41.0521 27.4917 41.0521H27.3478L25.2518 33.5071C30.18 34.708 33.6884 36.3744 34.5693 36.815C34.7095 37.4814 35.3019 37.9833 36.0094 37.9833H37.5125C38.3241 37.9833 38.9844 37.323 38.9844 36.5115V21.4801C38.9844 20.6685 38.3241 20.0083 37.5125 20.0083ZM19.0052 31.0313H17.9718C17.6783 31.0313 17.4394 30.7924 17.4394 30.4989V27.4926C17.4394 27.199 17.6783 26.9602 17.9718 26.9602H19.0052V31.0313ZM26.3726 41.0521H24.245C24.0068 41.0521 23.7959 40.8918 23.7322 40.6622L21.5358 32.7561C22.4607 32.9043 23.3537 33.0766 24.2095 33.2653L26.3726 41.0521ZM38.0449 36.5115C38.0449 36.805 37.806 37.0438 37.5125 37.0438H36.0094C35.7158 37.0438 35.477 36.805 35.477 36.5115V36.5109C35.477 36.5098 35.477 36.5088 35.477 36.5077V25.4887C35.477 25.2293 35.2667 25.0189 35.0072 25.0189C34.7478 25.0189 34.5375 25.2292 34.5375 25.4887V35.7553C32.6881 34.8771 27.2967 32.5488 20.4175 31.6433C20.1479 31.6079 19.9446 31.3807 19.9446 31.115V26.8766C19.9446 26.6109 20.1479 26.3838 20.4175 26.3483C27.2967 25.4429 32.6881 23.1145 34.5375 22.2364V23.4845C34.5375 23.7439 34.7478 23.9542 35.0072 23.9542C35.2667 23.9542 35.477 23.7439 35.477 23.4845V21.4834C35.477 21.4828 35.477 21.4822 35.477 21.4816V21.4801C35.477 21.1866 35.7158 20.9477 36.0094 20.9477H37.5125C37.806 20.9477 38.0449 21.1866 38.0449 21.4801V36.5115Z" fill="#222222"/>
<path d="M46.0303 28.5261H41.0198C40.7604 28.5261 40.55 28.7364 40.55 28.9959C40.55 29.2553 40.7603 29.4656 41.0198 29.4656H46.0303C46.2897 29.4656 46.5 29.2553 46.5 28.9959C46.5 28.7364 46.2897 28.5261 46.0303 28.5261Z" fill="#222222"/>
<path d="M44.9589 23.8004C44.8567 23.5619 44.5805 23.4515 44.3421 23.5537L43.841 23.7685C43.6026 23.8707 43.4921 24.1468 43.5943 24.3852C43.6707 24.5634 43.8441 24.67 44.0263 24.67C44.088 24.67 44.1508 24.6578 44.2111 24.6319L44.7122 24.4172C44.9506 24.315 45.0611 24.0389 44.9589 23.8004Z" fill="#222222"/>
<path d="M42.9547 24.6593C42.8525 24.4209 42.5763 24.3104 42.3379 24.4126L40.8348 25.0568C40.5964 25.159 40.4859 25.4352 40.5881 25.6736C40.6645 25.8517 40.8379 25.9584 41.0201 25.9584C41.0818 25.9584 41.1446 25.9461 41.2049 25.9203L42.708 25.276C42.9464 25.1739 43.0569 24.8977 42.9547 24.6593Z" fill="#222222"/>
<path d="M44.7121 33.5745L44.2096 33.3592C43.9712 33.2569 43.6951 33.3674 43.5929 33.6058C43.4907 33.8443 43.6011 34.1204 43.8396 34.2226L44.3421 34.4379C44.4024 34.4638 44.4651 34.476 44.5269 34.476C44.7091 34.476 44.8825 34.3693 44.9588 34.1912C45.0611 33.9528 44.9507 33.6767 44.7121 33.5745Z" fill="#222222"/>
<path d="M42.7073 32.7152L41.2049 32.0713C40.9665 31.9691 40.6902 32.0795 40.5881 32.318C40.4859 32.5564 40.5964 32.8325 40.8348 32.9347L42.3372 33.5786C42.3975 33.6044 42.4602 33.6167 42.522 33.6167C42.7043 33.6167 42.8776 33.51 42.954 33.3319C43.0562 33.0935 42.9457 32.8174 42.7073 32.7152Z" fill="#222222"/>
</g>
<defs>
<clipPath id="clip0_2602_33082">
<rect width="30" height="30" fill="white" transform="translate(16.5 16)"/>
</clipPath>
</defs>
</svg>
