<?xml version="1.0" encoding="utf-8"?>
<!-- Generator: Adobe Illustrator 24.3.0, SVG Export Plug-In . SVG Version: 6.00 Build 0)  -->
<svg version="1.1" id="Layer_1" xmlns="http://www.w3.org/2000/svg" xmlns:xlink="http://www.w3.org/1999/xlink" x="0px" y="0px"
	 viewBox="0 0 28 28" enable-background="new 0 0 28 28" xml:space="preserve">
<g>
	<g>
		<path fill="#212121" d="M21.51,22.71c0,1.14,0,2.25,0,3.38c-0.01,0.53-0.04,0.98-0.68,0.97c-0.79,0.01-1.59,0.02-2.38,0
			c-0.51-0.01-0.71-0.19-0.72-0.7c-0.03-1.22-0.02-2.42-0.02-3.64c-1.05-0.03-2.1,0-3.15-0.01c-0.44,0-0.64-0.2-0.64-0.64
			c0-0.84,0-1.67,0-2.51c0-0.48,0.19-0.66,0.67-0.66c1.03,0,2.05,0,3.09,0c0-0.75,0-1.49,0-2.25c-1.03,0-2.05,0-3.07,0
			c-0.52,0-0.69-0.17-0.7-0.68c0-0.82,0-1.64,0-2.46c0-0.48,0.18-0.66,0.67-0.66c1.03,0,2.06,0,3.1,0c0.05-1.16,0.03-2.32,0.01-3.48
			c-0.08-2.35-1.99-4.3-4.33-4.41c-1.03-0.05-2.07-0.07-3.09,0.05C8.04,5.29,6.35,7.28,6.33,9.55c-0.01,0.7,0,1.4,0,2.1
			c0.01,0.58-0.03,1.13-0.74,1.12c-0.81,0.02-1.62,0.02-2.43,0c-0.44-0.01-0.61-0.2-0.61-0.71c-0.01-0.89-0.04-1.79,0.04-2.68
			C2.91,5.62,5.5,2.39,9.12,1.39c5.97-1.94,12.45,2.43,12.39,8.85c0.01,0.87,0,1.73,0,2.61c1.11,0,2.19,0,3.3,0
			c0.47,0,0.65,0.18,0.65,0.65c0,0.84,0,1.69,0,2.53c0,0.43-0.19,0.62-0.63,0.62c-1.11,0-2.2,0-3.31,0c0,0.76,0,1.49,0,2.25
			c1.09,0,2.18,0,3.27,0c0.48,0,0.66,0.18,0.67,0.66c0,0.84,0,1.67,0,2.51c0,0.45-0.19,0.64-0.64,0.64
			C23.71,22.71,22.62,22.71,21.51,22.71z"/>
	</g>
</g>
</svg>
