<svg width="18" height="15" viewBox="0 0 18 15" fill="none" xmlns="http://www.w3.org/2000/svg">
<path d="M16.7041 6.63611C17.0986 7.1521 17.0986 7.84868 16.7041 8.36383C15.4616 9.98586 12.4805 13.3256 9.00013 13.3256C5.51971 13.3256 2.53864 9.98586 1.29611 8.36383C1.10419 8.11677 1 7.81282 1 7.49997C1 7.18712 1.10419 6.88317 1.29611 6.63611C2.53864 5.01408 5.51971 1.67432 9.00013 1.67432C12.4805 1.67432 15.4616 5.01408 16.7041 6.63611V6.63611Z" stroke="#5B5B5B" stroke-width="1.42613" stroke-linecap="round" stroke-linejoin="round"/>
<path d="M9.00062 9.99659C10.3795 9.99659 11.4973 8.87878 11.4973 7.49988C11.4973 6.12099 10.3795 5.00317 9.00062 5.00317C7.62172 5.00317 6.50391 6.12099 6.50391 7.49988C6.50391 8.87878 7.62172 9.99659 9.00062 9.99659Z" stroke="#5B5B5B" stroke-width="1.42613" stroke-linecap="round" stroke-linejoin="round"/>
</svg>
