<svg width="18" height="15" viewBox="0 0 18 15" fill="none" xmlns="http://www.w3.org/2000/svg">
<path d="M16.7041 6.63611C17.0986 7.1521 17.0986 7.84868 16.7041 8.36383C15.4616 9.98586 12.4805 13.3256 9.00013 13.3256C5.51971 13.3256 2.53864 9.98586 1.29611 8.36383C1.10419 8.11677 1 7.81282 1 7.49997C1 7.18712 1.10419 6.88317 1.29611 6.63611C2.53864 5.01408 5.51971 1.67432 9.00013 1.67432C12.4805 1.67432 15.4616 5.01408 16.7041 6.63611V6.63611Z" stroke="#858585" stroke-width="1.42613" stroke-linecap="round" stroke-linejoin="round"/>
<path d="M9.00022 9.99667C10.3791 9.99667 11.4969 8.87885 11.4969 7.49996C11.4969 6.12107 10.3791 5.00325 9.00022 5.00325C7.62132 5.00325 6.50351 6.12107 6.50351 7.49996C6.50351 8.87885 7.62132 9.99667 9.00022 9.99667Z" stroke="#858585" stroke-width="1.42613" stroke-linecap="round" stroke-linejoin="round"/>
</svg>
