<svg width="20" height="20" viewBox="0 0 20 20" fill="none" xmlns="http://www.w3.org/2000/svg">
<path fill-rule="evenodd" clip-rule="evenodd" d="M3.28886 3.125C3.2888 3.125 3.28893 3.125 3.28886 3.125H16.7107C16.9532 3.12508 17.1906 3.19567 17.3937 3.32818C17.5967 3.46068 17.7569 3.64938 17.8546 3.87129C17.9523 4.0932 17.9833 4.33873 17.9439 4.57798C17.9047 4.81676 17.7969 5.039 17.6338 5.21771C17.6334 5.21806 17.6331 5.2184 17.6328 5.21875L12.4998 10.8674V15.2867C12.5012 15.4946 12.4503 15.6995 12.3519 15.8827C12.2536 16.0655 12.1111 16.2209 11.9374 16.3344L9.43986 17.9968L9.43733 17.9985C9.24978 18.122 9.03241 18.1928 8.80806 18.2032C8.58373 18.2137 8.36071 18.1636 8.16246 18.058C7.96421 17.9525 7.79805 17.7955 7.68145 17.6036C7.56485 17.4117 7.50211 17.1918 7.49983 16.9673L7.49977 16.9609L7.4998 10.8674L7.49815 10.8657L2.36679 5.21875C2.36651 5.21844 2.36623 5.21814 2.36595 5.21783C2.20276 5.0391 2.09496 4.81682 2.05565 4.57798C2.01628 4.33873 2.04734 4.0932 2.14505 3.87129C2.24275 3.64938 2.40288 3.46068 2.60594 3.32818C2.80886 3.19576 3.04589 3.12517 3.28819 3.125M16.7105 4.375H3.28906L3.29048 4.37655L8.42089 10.0223C8.63429 10.2527 8.75192 10.5556 8.7498 10.8696V16.9546L11.2498 15.2905L11.2498 15.2891L11.2498 10.8696C11.2477 10.5556 11.3653 10.2527 11.5787 10.0223L16.7091 4.37655L16.7105 4.375Z" fill="#222222"/>
</svg>
