<?xml version="1.0" encoding="utf-8"?>
<!-- Generator: Adobe Illustrator 27.9.0, SVG Export Plug-In . SVG Version: 6.00 Build 0)  -->
<svg version="1.1" id="Layer_1" xmlns="http://www.w3.org/2000/svg" xmlns:xlink="http://www.w3.org/1999/xlink" x="0px" y="0px"
	 viewBox="0 0 108 108" style="enable-background:new 0 0 108 108;" xml:space="preserve">
<style type="text/css">
	.st0{fill:#45266A;}
	.st1{fill:#F7921E;}
	.st2{fill:#3BB2E6;}
	.st3{fill:#01213A;}
	.st4{fill:#303646;}
	.st5{fill:#00ACEE;}
	.st6{fill:#FFFFFF;}
	.st7{clip-path:url(#SVGID_00000118357202415873554950000006775340351354369465_);fill:none;}
	.st8{clip-path:url(#SVGID_00000118357202415873554950000006775340351354369465_);}
	.st9{fill:#C6203C;}
	.st10{fill:#DCDCDC;}
	.st11{fill:#EE3F48;}
	.st12{fill:#FBCAB9;}
	.st13{fill:#3D3938;}
	.st14{fill:#43B3E6;}
	.st15{fill:#494646;}
	.st16{fill:#1C0E2A;}
	.st17{fill:#212222;}
	.st18{fill-rule:evenodd;clip-rule:evenodd;fill:#19171C;}
	.st19{fill-rule:evenodd;clip-rule:evenodd;fill:#43B3E6;}
	.st20{fill-rule:evenodd;clip-rule:evenodd;fill:#FFFFFF;}
	.st21{fill:none;stroke:#000000;stroke-width:0.75;stroke-linecap:square;stroke-miterlimit:10;}
	.st22{clip-path:url(#SVGID_00000129203960774591943380000008666508840559111089_);fill:none;}
	.st23{clip-path:url(#SVGID_00000129203960774591943380000008666508840559111089_);}
	.st24{fill:#E2B6AA;}
	.st25{fill:none;stroke:#1C0E2A;stroke-miterlimit:10;}
	.st26{fill:#E8CCBE;}
	.st27{fill:url(#SVGID_00000163063302837731734050000012740082608337117371_);}
	.st28{fill:#231F20;}
	.st29{fill:url(#SVGID_00000061466284495679411230000015929339831682446763_);}
	.st30{fill:#021A32;}
	.st31{fill:#0A0A0A;}
	.st32{fill:#F2F2EA;}
	.st33{fill:url(#SVGID_00000036952318197703664110000006405547957395279244_);}
	.st34{fill:url(#SVGID_00000109708522418778045980000002904207743720933286_);}
	.st35{fill:#DFA894;}
	.st36{fill:#A6461C;}
	.st37{fill:#8B5200;}
	.st38{fill:#4C1707;}
	.st39{fill:url(#SVGID_00000108311415948910270240000008922695262584922810_);}
	.st40{fill:url(#SVGID_00000009580135472495053700000005833255159416143293_);}
	.st41{fill:url(#SVGID_00000183225738967225965650000012479596902345562276_);}
	.st42{fill:url(#SVGID_00000126314480442589158360000018019999933721049763_);}
	.st43{fill:url(#SVGID_00000009581655774489265770000017775822344909643144_);}
	.st44{fill:url(#SVGID_00000097499639619784783310000017650462517822492090_);}
	.st45{fill:url(#SVGID_00000016779368352707200140000007644478728246379666_);}
	.st46{fill:url(#SVGID_00000161600010664632098220000008518134643210346625_);}
	.st47{fill:url(#SVGID_00000134945868729403562080000003072127366581678738_);}
</style>
<rect x="43.69" y="87.42" class="st0" width="19.59" height="4.55"/>
<g>
	<g>
		<defs>
			<circle id="SVGID_00000028325558515056432870000001505220969521440680_" cx="54" cy="54" r="53.3"/>
		</defs>
		<clipPath id="SVGID_00000169559948979262752330000004624438879693555334_">
			<use xlink:href="#SVGID_00000028325558515056432870000001505220969521440680_"  style="overflow:visible;"/>
		</clipPath>
		
			<circle style="clip-path:url(#SVGID_00000169559948979262752330000004624438879693555334_);fill:none;" cx="54" cy="54" r="53.3"/>
		<g style="clip-path:url(#SVGID_00000169559948979262752330000004624438879693555334_);">
			<g id="XMLID_00000170971916824794875360000010839020571818247599_">
				<path id="XMLID_00000132785096588379022450000016542308984916059046_" class="st9" d="M48.77,80.76
					c0.01,0.01,0.02,0.02,0.02,0.03c0.26,0.55,0.55,1.09,0.89,1.61c3.47-1.7,6.44-2.6,10.3-1.64c0.05,0.01,0.09,0.04,0.13,0.06
					c0.16-0.35,0.32-0.69,0.49-1.03c0.02-0.04,0.05-0.05,0.09-0.06c-0.24-0.27-0.49-0.54-0.73-0.8c-3.24,1.16-7.06,1.24-10.54,0.9
					C49.22,80.16,49,80.46,48.77,80.76z"/>
				<path id="XMLID_00000055707896104162915300000010615657412352072861_" class="st10" d="M61.67,79.52
					c0.02-0.23,0.04-0.46,0.05-0.7c0.02-0.23,0.02-0.46,0.05-0.68c-0.3,0.16-0.61,0.31-0.93,0.45
					C61.12,78.9,61.39,79.21,61.67,79.52z"/>
				<path id="XMLID_00000053536280812800959600000000514326211819319737_" class="st10" d="M58.86,83.01
					c-0.37-0.24-0.77-0.41-1.19-0.54c0.13,0.54,0.34,1.03,0.5,1.56c0.29-0.3,0.54-0.63,0.77-0.99
					C58.91,83.03,58.89,83.03,58.86,83.01z"/>
				<path id="XMLID_00000164487030167634197740000013223606576133009055_" class="st11" d="M57.09,82.16
					c-0.04-0.2,0.12-0.35,0.31-0.31c0.62,0.12,1.19,0.35,1.72,0.69c0.03,0.02,0.06,0.05,0.07,0.07c0.2-0.34,0.39-0.69,0.56-1.06
					c-0.03-0.01-0.07-0.01-0.1-0.04c-2.97-1.92-6.88-0.1-9.75,1.24c0.21,0.3,0.43,0.58,0.67,0.85c0.27-0.47,0.87-0.87,1.23-1.16
					c0.17-0.13,0.38-0.05,0.41,0.17c0.1,0.82,0.14,1.63,0.29,2.45c0,0.01,0,0.02,0,0.03c0.94,0.45,2.01,0.61,3.25,0.32
					c0.93-0.22,1.63-0.66,2.21-1.21C57.47,83.68,57.23,82.86,57.09,82.16z"/>
				<path id="XMLID_00000137841947532670735420000009101412167984659131_" class="st10" d="M51.73,83.18
					c-0.14,0.13-0.29,0.25-0.42,0.38c-0.13,0.14-0.24,0.28-0.38,0.39c0.29,0.28,0.6,0.54,0.92,0.76
					C51.78,84.21,51.73,83.69,51.73,83.18z"/>
				<path id="XMLID_00000178172151681327710010000014950221710382136978_" class="st10" d="M48.8,103.18
					c0.49,0.78,1.03,1.51,1.58,2.23c-0.29-1.35-0.11-2.87-0.14-4.23c-0.02-1.04-0.11-1.89-0.59-2.84c-0.25-0.5-0.49-0.81-0.63-1.33
					c-0.04,0-0.07,0-0.11,0c0.02,0.18-0.05,0.36-0.26,0.48c-0.71,0.41-1.43,0.78-2.17,1.13C47.19,100.17,47.88,101.72,48.8,103.18z"
					/>
				<path id="XMLID_00000047747719012714135400000007559273784587119011_" class="st13" d="M61.18,99.62
					c-0.41,1.67-2.08,3.31-3.22,4.39c-1.42,1.33-3.6,3.47-5.52,3.89c-0.09,0.02-0.18-0.02-0.25-0.07c0.41,2.75,0.17,5.64,0.18,8.41
					c0,0.94,0,1.87,0,2.81c2.1-2.64,4.27-5.22,6.41-7.83c1.64-2,3.37-3.72,3.55-6.42c0.11-1.61-0.1-3.2-0.08-4.8
					C61.89,99.87,61.53,99.75,61.18,99.62z"/>
				<path id="XMLID_00000087373694601031447810000016208598290820987269_" class="st1" d="M52.62,97.04
					c-1.03,0.04-2.06,0.04-3.09-0.01c0.48,0.65,0.9,1.23,1.18,1.9c1.04-0.41,2.48-0.61,3.43-0.1c0.17,0.09,0.08,0.33-0.09,0.34
					c-0.58,0.05-1.16-0.12-1.74-0.11c-0.5,0-1,0.07-1.5,0.14c0.11,0.32,0.18,0.66,0.21,1.05c0.12,1.78,0.46,4.05-0.06,5.77
					c-0.01,0.04-0.03,0.06-0.06,0.08c0.32,0.43,0.64,0.86,0.94,1.3c0.09-0.04,0.2-0.01,0.26,0.07c0,0,0-0.01,0-0.01
					c0.71-0.99,1.9-1.73,3.04-2.47c-0.9-2.25-1.28-6.73,1.2-7.83c-0.01-0.05-0.02-0.11-0.01-0.16
					C55.1,97.09,53.86,97.09,52.62,97.04z"/>
				<path id="XMLID_00000032612941230112838050000010749395539079153038_" class="st10" d="M56.54,97.44
					c-0.42,1.19-1.04,2.13-1.1,3.47c-0.06,1.24,0.31,2.4,0.46,3.6c0.36-0.25,0.71-0.5,1.02-0.76c0.81-0.71,1.59-1.46,2.27-2.3
					c0.51-0.64,0.87-1.4,1.36-2.05c-1.36-0.53-2.68-1.17-3.95-1.89C56.57,97.48,56.56,97.46,56.54,97.44z"/>
				<path id="XMLID_00000010297151695577887550000012625776952977371271_" class="st15" d="M126.03,140.63
					c-0.05-0.03-0.09-0.07-0.14-0.11c-0.09-0.06-0.15-0.14-0.17-0.24c-4.93-5.54-7.55-12.95-9.41-20.03
					c-1.17-4.46-2.04-9-2.85-13.54c-0.87-4.91-2-10.05-2.06-15.05c-1.37,1.14-2.83,2.19-4.11,3.16c1.89,17.38-3.92,34.33-7.03,51.23
					c-1.57,8.52-2.48,17.22-1.51,25.86c0.82,7.25,2.87,16.19,8.09,21.74c0.46-9.51,4.16-18.46,9.25-26.44
					c2.82-4.43,6.32-8.38,9.1-12.83c1.91-3.06,4.61-8.68,2.39-12.19C127.04,141.69,126.53,141.17,126.03,140.63z"/>
				<path id="XMLID_00000040559110370111222150000003958744412758003593_" class="st13" d="M42.48,106.06
					c0.41,2.38,1.93,3.84,3.4,5.62c2.11,2.53,4.34,5.37,5.62,8.44c0-1.29,0-2.58,0-3.88c0-2.72-0.22-5.56,0.16-8.26
					c-2.69-2.15-4.79-5.76-5.88-9.05c-1.35,0.6-2.76,1.09-4.19,1.48C42.23,102.2,42.16,104.18,42.48,106.06z"/>
				<path id="XMLID_00000042008183192694675510000010844694588505019298_" class="st13" d="M93.87,89.88
					c-2.13,2.14-4.03,4.49-6.46,6.32c-2.72,2.04-5.86,3.54-9.14,4.4c-4.97,1.29-10.29,1.1-15.23-0.35c-0.11,3.27,0.43,6.1-1.78,8.99
					c-2.8,3.65-5.84,7.22-8.89,10.69c0,1.81,0.01,3.62,0.01,5.43c-0.01,5.9,0.38,11.97-0.18,17.85c0.14,0,0.28,0.01,0.42,0.01
					c1.84-0.06,3.69-0.12,5.55-0.14c0.15,0,0.21,0.13,0.19,0.25c2.42-0.01,4.85-0.11,7.3-0.43c2.33-0.3,2.13-0.11,2.05-2.1
					c-0.04-1.04-0.06-2.08-0.06-3.12c-0.02-2.19,0.05-4.38,0.15-6.57c0.4-9,1.46-17.92,2.32-26.87c-0.4-0.04-0.38-0.65,0.04-0.68
					c0.01,0,0.02,0,0.03,0c0,0,0-0.01,0-0.01c0.02-0.19,0.31-0.2,0.31-0.01c4.29-0.3,8.6-0.44,12.89-0.59
					c4.12-0.15,9.34,0.52,13.01-1.63c3.57-2.09,6.94-4.85,10.19-7.39c1.6-1.25,3.16-2.55,4.68-3.9c1.2-1.07,2.29-2.31,3.64-3.18
					c-0.01-0.01-0.01,0-0.02-0.01c-1.32-1.12-2.23-2.87-3.13-4.34c-0.81-1.34-1.65-2.72-2.14-4.22c-0.06-0.01-0.11-0.03-0.14-0.07
					c-1.8,2.09-4.71,3.37-6.94,4.97c-2.96,2.12-5.66,4.55-8.52,6.8C93.96,90.01,93.87,89.96,93.87,89.88z"/>
				<path id="XMLID_00000048474137718054210550000002813715352909453480_" class="st15" d="M52.62,96.06
					c4.57-0.41,9.08-0.5,13.55-1.91c4.6-1.45,8.74-4.03,12.49-7.03c0.04-0.03,0.08-0.07,0.12-0.1c-2.59,1.55-5.32,2.86-8.19,3.9
					c-5.33,1.95-12.25,3.73-17.96,2.54c-5.71,1.18-12.62-0.6-17.96-2.54c-2.86-1.04-5.6-2.34-8.18-3.89
					c0.04,0.03,0.07,0.06,0.11,0.09c3.86,3.1,8.13,5.72,12.9,7.15C43.82,95.57,48.19,95.67,52.62,96.06z"/>
				<path id="XMLID_00000127731258781649812770000008973585985359298463_" class="st15" d="M16.55,94.12
					c2.75,2.42,6.03,4.12,9.55,5.12c7.24,2.06,14.53,0.68,21.24-2.35c-7.27-0.72-14.25-3.51-20.1-7.95c-0.14-0.1-0.27-0.22-0.4-0.32
					c-0.89,0.96-2.28,1.39-3.58,1.25c-0.72-0.08-1.36-0.42-2.04-0.63c-1.16-0.35-2.21-0.1-3.34-0.29c-1.55-0.25-3.02-1.73-4.44-2.39
					c-2.26-1.05-4.59-1.63-7.05-1.61c1.08,0.9,2.12,1.83,3.11,2.83C12.32,89.3,14.18,92.03,16.55,94.12z"/>
				<path id="XMLID_00000101065151530831849820000006474576196639829384_" class="st15" d="M57.9,96.89
					c1.51,0.68,3.04,1.28,4.59,1.77c0.22-0.13,0.54-0.07,0.61,0.18c5.2,1.55,10.61,1.92,16.04,0.4c3.65-1.03,7.04-2.83,9.85-5.39
					c2.24-2.04,4.06-4.61,6.76-6.07c0.98-0.99,2.03-1.93,3.1-2.83c-2.59-0.03-5.06,0.63-7.42,1.78c-1.4,0.69-2.8,2.11-4.4,2.21
					c-1.37,0.08-2.39,0.11-3.71,0.55c-0.67,0.22-1.17,0.38-1.87,0.33c-1.07-0.08-2.13-0.57-2.92-1.31
					c-0.18,0.14-0.35,0.29-0.54,0.43C72.14,93.37,65.17,96.17,57.9,96.89z"/>
				<path id="XMLID_00000000922334860270327610000006085596024349823144_" class="st0" d="M39.26,158.25
					c-0.8-4.71-1.86-9.73-1.84-14.52c-0.25-0.04-0.5-0.07-0.75-0.11c-0.23-0.04-0.44-0.33-0.42-0.56
					c0.89-12.91-1.1-25.92-1.48-38.83c-4.93,0-9.88-0.21-14.81-0.38c-3.54-0.12-7.72,0.34-11-1.26c-3.67-1.8-7.09-4.75-10.32-7.24
					c-0.08-0.07-0.17-0.13-0.26-0.2c-0.7,18.89,5.65,36.7,8.48,55.16c0.29,1.89,0.53,3.79,0.73,5.69
					c16.27,5.28,21.04,25.75,36.62,32.24c0.07,0.03,0.12,0.07,0.17,0.11c-0.63-4.9-1.47-9.77-2.35-14.63
					C41.12,168.56,40.13,163.41,39.26,158.25z"/>
				<path id="XMLID_00000158710423002711404630000009260135675750423215_" class="st15" d="M-2.05,94.82
					c-1.29-0.97-2.75-2.02-4.11-3.16c-0.07,5.16-1.24,10.45-2.14,15.52c-0.78,4.38-1.63,8.76-2.76,13.07
					c-1.86,7.09-4.47,14.5-9.41,20.04c-0.02,0.09-0.08,0.18-0.17,0.24c-0.05,0.03-0.09,0.07-0.14,0.11
					c-0.5,0.54-1.01,1.07-1.56,1.57c-2.28,3.61,0.66,9.43,2.62,12.52c2.74,4.31,6.13,8.17,8.88,12.49
					c5.09,7.99,8.79,16.93,9.25,26.44c5.31-5.64,7.36-14.79,8.14-22.16c0.89-8.51-0.01-17.05-1.55-25.44
					C1.88,129.16-3.94,112.2-2.05,94.82z"/>
				<path id="XMLID_00000072262415025986316750000003320117402481944974_" class="st13" d="M-1.35,93.91
					c3.25,2.54,6.63,5.3,10.19,7.39c3.67,2.15,8.88,1.48,13.01,1.63c4.3,0.16,8.6,0.29,12.89,0.59c0-0.2,0.29-0.19,0.31,0.01
					c0,0,0,0.01,0,0.01c0.01,0,0.02,0,0.03,0c0.42,0.03,0.44,0.64,0.04,0.68c0.87,8.95,1.92,17.87,2.32,26.87
					c0.1,2.3,0.17,4.59,0.15,6.89c-0.01,1.03-0.03,2.06-0.07,3.09c-0.01,0.25-0.19,1.27-0.08,1.43c0.26,0.37,1.78,0.33,2.15,0.38
					c2.45,0.31,4.88,0.42,7.3,0.43c-0.02-0.12,0.05-0.25,0.19-0.25c1.54,0.02,3.07,0.07,4.6,0.12c-0.57-5.88-0.18-11.95-0.18-17.84
					c0-1.48,0-2.96,0-4.44c-0.03,0.03-0.06,0.06-0.08,0.09c-0.18,0.2-0.53-0.07-0.37-0.29c0.03-0.04,0.06-0.07,0.09-0.11
					c0,0,0,0,0,0c-1.36-1.83-2.44-3.87-3.79-5.72c-1.31-1.79-2.91-3.36-4.22-5.14c-1.72-2.33-2.23-6.43-1.76-9.27
					c-4.7,1.24-9.7,1.34-14.38,0.12c-3.29-0.86-6.43-2.35-9.14-4.4c-2.43-1.82-4.33-4.18-6.46-6.32c-0.01,0.07-0.09,0.12-0.17,0.06
					c-2.86-2.25-5.56-4.68-8.52-6.8c-2.22-1.59-5.13-2.87-6.94-4.97c-0.03,0.04-0.08,0.06-0.14,0.07c-0.49,1.5-1.32,2.88-2.14,4.22
					c-0.44,0.72-0.89,1.52-1.38,2.27c0,0,0,0,0,0c-0.51,0.77-1.07,1.5-1.74,2.07c-0.01,0.01-0.01,0-0.02,0.01
					c1.35,0.87,2.44,2.11,3.64,3.18C-4.51,91.36-2.95,92.66-1.35,93.91z"/>
				<path id="XMLID_00000141436601577570512690000008848820925145502376_" class="st0" d="M35.63,90.4c3,0.96,6.09,1.67,9.22,2.06
					c1.03,0.13,2.07,0.2,3.11,0.26c-4.92-1.54-9.49-5.33-12.59-8.84c-2.62-2.97-4.82-6.48-6.31-10.24
					c-1.76,3.67-6.87,0.44-8.48-2.09c-1.72-2.7-1.72-5.89-1.08-9.07c-4.43,1.28-8.8,2.67-13.11,4.32
					c5.6,6.26,11.23,12.63,17.59,18.15C27.62,87.23,31.53,89.09,35.63,90.4z"/>
				<path id="XMLID_00000000213781597928172690000007433534885553297558_" class="st0" d="M106.86,95.15
					c-0.09,0.07-0.18,0.13-0.26,0.2c-3.22,2.49-6.66,5.45-10.32,7.24c-3.28,1.61-7.45,1.15-11,1.26c-4.93,0.16-9.87,0.38-14.81,0.38
					c-0.38,12.9-2.37,25.92-1.48,38.83c0.02,0.23-0.19,0.52-0.42,0.56c-0.25,0.04-0.5,0.07-0.75,0.11
					c0.02,4.95-1.09,10.12-1.92,14.98c-0.85,5.01-1.81,10.01-2.71,15.01c-0.87,4.86-1.71,9.73-2.34,14.63
					c0.05-0.04,0.1-0.08,0.17-0.11c15.58-6.49,20.35-26.96,36.62-32.24c0.2-1.9,0.44-3.8,0.73-5.69
					C101.21,131.85,107.56,114.03,106.86,95.15z"/>
				<path id="XMLID_00000162340039183121341010000017254791811106571419_" class="st12" d="M85.22,64.67
					c-0.01-0.06-0.01-0.11-0.02-0.17c-0.03-0.24-0.06-0.47-0.09-0.7c-0.46-2.98-1.5-5.87-2.25-8.79c-0.81,1.67-1.91,3.18-2.78,4.81
					c-0.44,0.82-0.73,1.68-1.01,2.54c-0.26,0.8-0.5,1.61-0.83,2.38c0,0.01,0,0.01-0.01,0.02c-0.03,0.5-0.08,1.01-0.14,1.51
					c-0.24,2.02-0.72,4.02-1.39,5.97c0.01,0.01,0.02,0.01,0.03,0.02c0.1,0.06,0.17,0.16,0.2,0.3c0.06,0.26,0.14,0.49,0.24,0.69
					c0.96,2.06,3.41,1.03,4.6,0.24c1-0.67,1.82-1.63,2.42-2.66c0.58-1,0.91-2.07,1.05-3.17C85.35,66.67,85.33,65.67,85.22,64.67z
					 M81.19,69.96c-0.55,1.47-1.85,0.42-2.05-0.68c-0.03-0.17-0.06-0.34-0.08-0.51v0c0-0.03-0.01-0.07-0.01-0.1
					c-0.01-0.07-0.01-0.13-0.02-0.2c-0.01-0.1-0.01-0.2-0.02-0.3c0-0.04,0-0.09,0-0.13c0-0.11-0.01-0.21-0.01-0.32
					c0-0.11,0-0.21,0.01-0.32c0-0.17,0.01-0.34,0.03-0.51c0.01-0.14,0.02-0.28,0.04-0.42c0.01-0.06,0.01-0.12,0.02-0.17
					c0.01-0.08,0.02-0.17,0.03-0.25c0.03-0.22,0.07-0.45,0.11-0.67c0.03-0.16,0.06-0.32,0.1-0.48c0-0.02,0.01-0.04,0.01-0.05v0
					c0.17-0.77,0.4-1.53,0.67-2.26c0.34-0.95,0.76-1.85,1.2-2.66c0.07-0.14,0.15-0.27,0.23-0.4c0.1-0.17,0.2-0.34,0.3-0.51
					l0.09,0.04c-0.29,0.76-0.59,1.51-0.86,2.28c-0.05,0.15-0.1,0.3-0.15,0.44c-0.01,0.02-0.01,0.04-0.02,0.06
					c-0.04,0.13-0.09,0.27-0.13,0.4c-0.05,0.15-0.1,0.31-0.13,0.46c-0.04,0.13-0.07,0.26-0.11,0.39c-0.04,0.15-0.07,0.31-0.11,0.46
					c-0.09,0.43-0.16,0.87-0.22,1.32c-0.02,0.13-0.03,0.25-0.04,0.38c-0.02,0.2-0.04,0.4-0.05,0.59c-0.02,0.26-0.03,0.51-0.04,0.77
					c0,0.06,0,0.65,0.04,1.29c0.02,0.33,0.05,0.68,0.1,0.97c0.01,0.06,0.02,0.12,0.03,0.17c0,0.02,0.01,0.03,0.01,0.05
					c0.01,0.03,0.01,0.07,0.02,0.1c0.04,0.17,0.09,0.3,0.14,0.38c0.01,0.02,0.03,0.04,0.04,0.05c0.06,0.06,0.13,0.06,0.22-0.02
					C80.82,69.37,81.32,69.59,81.19,69.96z"/>
				<path class="st13" d="M81.6,39.09c-0.15,3.02-0.84,5.98-1.51,8.92c-1.06,4.62-2.07,9.32-2.33,14.07
					c-0.04,0.71-0.07,1.42-0.07,2.13c-0.34-0.34-0.65-0.67-0.95-1.02c-0.45-0.52-0.85-1.04-1.22-1.57v0
					c-1.54-2.24-2.37-4.68-2.63-7.41c-0.03-0.24-0.04-0.49-0.06-0.74c-0.06-0.88-0.05-1.8,0-2.75c0.19-3.21,0.27-8-3.41-9.39
					c-2.31-0.87-5.06-0.68-7.68,0.23c-0.83,0.29-1.65,0.64-2.43,1.06c-3.1,1.65-5.71,4.25-6.7,7.09c-1.25-3.58-5.06-6.77-9.19-8.18
					c-0.74-0.25-1.49-0.45-2.24-0.58c0,0,0,0,0,0c-1.88-0.34-3.74-0.25-5.39,0.37c-3.5,1.32-3.6,5.8-3.44,8.92
					c0.23,4.55-0.45,8.27-2.85,11.65c-0.56,0.79-1.21,1.55-1.97,2.31c0-0.63-0.02-1.25-0.05-1.88c-0.24-4.83-1.27-9.62-2.35-14.32
					c-0.64-2.8-1.3-5.62-1.49-8.49c-0.11-1.66-0.07-3.35,0.3-4.97c0.46-2.05,2.1-5.14,4.52-3.91c0.07,0.11,0.22,0.16,0.35,0.15
					c0.19,0.03,0.38-0.15,0.31-0.34c0.33-1.85,0.77-3.68,1.63-5.34c0.72-0.1,1.4-0.33,1.97-0.81c0.97-0.82,1.38-2.15,1.88-3.37
					c0.94-0.65,1.95-1.21,2.95-1.73c3.68-1.94,7.49-3.02,11.51-3.14c0.76,0.36,1.39,1,1.55,1.82c0.1,0.47,0.05,0.99,0.28,1.4
					c0.26,0.44,0.77,0.65,1.25,0.77c1.46,0.37,3.02,0.31,4.45-0.18c1.58-0.55,3.67-1.46,4.63-0.04c0.2,0.29,0.3,0.65,0.45,0.98
					c0.81,1.8,2.94,2.53,4.86,2.49c1.91-0.03,3.78-0.65,5.69-0.7c0.12,0,0.24,0,0.36,0c0.29,0.29,0.56,0.6,0.81,0.92
					c1.57,2.03,2.23,4.46,2.68,6.95c-0.07,0.19,0.12,0.37,0.31,0.34c0.14,0.01,0.3-0.05,0.36-0.17
					C80.99,28.36,81.72,36.63,81.6,39.09z"/>
				<path id="XMLID_00000134950912079627435440000013854617740885527947_" class="st0" d="M84.67,71.54
					c-1.61,2.53-6.73,5.76-8.48,2.09c-1.49,3.77-3.7,7.28-6.31,10.24c-3.1,3.52-7.68,7.3-12.59,8.84c1.04-0.06,2.08-0.13,3.11-0.26
					c3.12-0.39,6.22-1.1,9.22-2.06c4.11-1.32,8.02-3.18,11.66-5.47c6.36-5.52,11.98-11.88,17.58-18.14
					c-4.31-1.65-8.68-3.04-13.11-4.32C86.38,65.65,86.38,68.84,84.67,71.54z"/>
				<path id="XMLID_00000177448319914855106160000012950541780689359525_" class="st12" d="M27.63,69.04
					c-0.26-1.16-0.45-2.34-0.56-3.51v0c-0.02-0.25-0.04-0.51-0.06-0.76c-0.3-0.7-0.53-1.43-0.76-2.16
					c-0.31-0.94-0.62-1.89-1.09-2.78c-0.87-1.64-1.97-3.15-2.78-4.81c-0.29,1.16-0.64,2.31-0.97,3.46
					c-0.54,1.85-1.05,3.71-1.32,5.61c-0.03,0.2-0.05,0.39-0.07,0.59c-0.04,0.36-0.07,0.72-0.08,1.07c-0.03,0.68,0,1.36,0.09,2.02
					c0.14,1.06,0.47,2.09,1.03,3.04c0.59,1,1.45,2.02,2.42,2.66c1.27,0.83,3.98,1.96,4.78-0.71c0.02-0.07,0.04-0.14,0.06-0.22
					c0.04-0.15,0.12-0.25,0.23-0.31C28.18,71.18,27.88,70.11,27.63,69.04z M26.16,68.9c-0.02,0.13-0.04,0.25-0.06,0.38
					c-0.21,1.1-1.51,2.15-2.05,0.68c-0.13-0.37,0.37-0.59,0.62-0.36c0.03,0.03,0.05,0.04,0.08,0.04c0.01,0,0.03,0,0.04-0.01
					c0.01-0.01,0.03-0.01,0.04-0.03c0.04-0.03,0.07-0.1,0.1-0.17c0.01-0.02,0.02-0.04,0.02-0.06c0.02-0.05,0.03-0.1,0.05-0.16
					c0.01-0.05,0.02-0.1,0.03-0.15c0.01-0.03,0.01-0.06,0.02-0.09c0.01-0.03,0.01-0.07,0.02-0.1c0.02-0.1,0.04-0.21,0.05-0.32
					c0.02-0.13,0.04-0.28,0.05-0.42c0.01-0.05,0.01-0.1,0.02-0.14c0-0.05,0.01-0.09,0.01-0.14c0-0.05,0.01-0.1,0.01-0.14
					c0.05-0.52,0.07-0.98,0.06-1.11c-0.03-0.6-0.07-1.21-0.15-1.81c-0.05-0.42-0.12-0.84-0.21-1.25c-0.04-0.2-0.09-0.4-0.14-0.6
					c-0.04-0.17-0.09-0.34-0.14-0.51c-0.01-0.02-0.01-0.04-0.02-0.06c-0.05-0.18-0.11-0.36-0.17-0.54
					c-0.21-0.63-0.44-1.25-0.68-1.87c-0.12-0.3-0.24-0.61-0.35-0.91l0.09-0.04c0.34,0.53,0.66,1.13,0.97,1.77
					c0.05,0.11,0.1,0.21,0.15,0.32c0.1,0.22,0.2,0.45,0.29,0.68c0.05,0.12,0.1,0.24,0.14,0.36c0.09,0.22,0.17,0.45,0.25,0.68
					c0.06,0.18,0.12,0.36,0.18,0.55c0.03,0.11,0.07,0.22,0.1,0.33c0.02,0.08,0.05,0.15,0.07,0.23c0.05,0.18,0.1,0.37,0.15,0.56
					c0.05,0.18,0.09,0.37,0.13,0.56c0.03,0.11,0.05,0.23,0.07,0.34c0.01,0.02,0.01,0.04,0.01,0.07c0.02,0.1,0.04,0.19,0.05,0.29
					c0.02,0.11,0.03,0.22,0.05,0.33c0.03,0.18,0.05,0.36,0.07,0.54c0.01,0.12,0.02,0.23,0.03,0.35c0.01,0.15,0.02,0.3,0.02,0.45
					c0,0.11,0.01,0.21,0.01,0.32c0,0.11,0,0.23-0.01,0.34c0,0.07,0,0.13-0.01,0.2c0,0.09-0.01,0.18-0.02,0.27
					c-0.01,0.11-0.02,0.21-0.03,0.31C26.17,68.85,26.17,68.88,26.16,68.9z"/>
				<path id="XMLID_00000132798999487158759430000015525557793100335014_" class="st17" d="M25.27,66.61c0.02,0.36-0.17,3.4-0.6,3
					c-0.25-0.23-0.75-0.01-0.62,0.36c0.54,1.47,1.85,0.42,2.05-0.68c0.61-3.23-0.91-7.58-2.6-10.27l-0.09,0.04
					c0.56,1.47,1.17,2.94,1.5,4.49C25.13,64.54,25.23,65.58,25.27,66.61z"/>
				<path id="XMLID_00000020369427704122067760000007899323741415757216_" class="st17" d="M79.13,69.28
					c0.21,1.09,1.51,2.15,2.05,0.68c0.14-0.37-0.37-0.59-0.62-0.36c-0.6,0.56-0.61-2.86-0.6-3c0.04-1.02,0.14-2.07,0.36-3.07
					c0.33-1.55,0.94-3.02,1.5-4.49l-0.09-0.04C80.04,61.7,78.53,66.05,79.13,69.28z"/>
				<path id="XMLID_00000042719208561399307280000013641156382852842391_" class="st16" d="M33.85,82.01
					c-0.06-0.14-0.12-0.28-0.17-0.42c-0.05-0.12-0.1-0.25-0.13-0.38c-0.08-0.23-0.16-0.46-0.22-0.69c-0.1,0.09-0.23,0.19-0.38,0.28
					c0.15,0.21,0.3,0.42,0.46,0.63c0.15,0.21,0.31,0.41,0.47,0.62C33.86,82.03,33.86,82.02,33.85,82.01z M69.44,41.33
					c-2.31-0.87-5.06-0.68-7.68,0.23c-0.83,0.29-1.65,0.64-2.43,1.06c-3.1,1.65-5.71,4.25-6.7,7.09c-1.25-3.58-5.06-6.77-9.19-8.18
					c0.03,0.04,0.06,0.08,0.08,0.12c0.02,0.02,0.03,0.04,0.04,0.06c0.01,0.02,0.02,0.03,0.03,0.05c0.02,0.04,0.04,0.08,0.06,0.11
					c0.02,0.04,0.04,0.09,0.06,0.13c0.04,0.09,0.06,0.19,0.08,0.28c0,0.02,0.01,0.03,0.01,0.05c0.01,0.05,0.02,0.1,0.02,0.14
					c0.01,0.06,0.01,0.12,0.01,0.18c0,0.02,0,0.04,0,0.05c3.98,1.48,6,4.28,8.75,7.29l0.06-0.04l0.06,0.04
					c0.01-0.01,0.02-0.02,0.03-0.03c2.3-2.52,4.09-4.92,7.02-6.49c0.47-0.26,0.97-0.49,1.51-0.7c0.16-0.06,0.32-0.12,0.49-0.18
					c1.53-0.54,3.16-0.83,4.78-0.79c0.34,0.01,0.67,0.03,0.98,0.08c2.63,0.37,4.04,2.05,4.42,4.89c0.26,1.94,0.1,3.84,0.05,5.74v0
					c0.02,0.07,0.04,0.13,0.07,0.19c0.03,0.08,0.08,0.16,0.12,0.24v0c0.16,0.25,0.4,0.44,0.69,0.5h0c-0.06-0.88-0.05-1.8,0-2.75
					C73.03,47.51,73.11,42.72,69.44,41.33z M33.87,82.06c0.01,0.01,0.02,0.02,0.02,0.03C33.89,82.07,33.88,82.07,33.87,82.06
					C33.87,82.06,33.87,82.06,33.87,82.06z M33.85,82.01c-0.06-0.14-0.12-0.28-0.17-0.42c-0.05-0.12-0.1-0.25-0.13-0.38
					c-0.08-0.23-0.16-0.46-0.22-0.69c-0.1,0.09-0.23,0.19-0.38,0.28c0.15,0.21,0.3,0.42,0.46,0.63c0.15,0.21,0.31,0.41,0.47,0.62
					C33.86,82.03,33.86,82.02,33.85,82.01z M19.99,70.47C20,70.47,20,70.48,20,70.48C20,70.48,19.99,70.47,19.99,70.47L19.99,70.47z
					 M5.22,65.97c-0.42,0.16-0.28,0.43,0.03,0.78c0.36,0.4,0.43,1,0.79,1.41c6.4,7.06,12.88,14.3,20.42,20.16
					c-0.14,0.09-0.28,0.16-0.41,0.23c-1.92,0.98-3.28,0.18-5.32-0.34c-0.78-0.2-1.45-0.03-2.2-0.13c-1.25-0.17-2.14-0.94-3.19-1.54
					c-3.06-1.73-6.37-2.74-9.9-2.48c-0.05,0-0.08,0.02-0.12,0.03C4.96,83.8,4.6,83.5,4.23,83.22c-2.63-2.01-5.62-3.58-8.1-5.76
					c-0.2-0.18-0.43-0.11-0.55,0.04c-0.02,0.01-0.04,0.01-0.05,0.03c-0.01,0.01-0.02,0.03-0.04,0.05c-0.47-0.64-1.26-1.33-2.01-1.4
					c-0.01-0.04-0.03-0.08-0.09-0.08c-0.05,0-0.08,0.03-0.09,0.07c-0.12,0.01-0.24,0.04-0.36,0.09c0.55-0.79,0.92-1.72,1.42-2.54
					c0.68-1.13,1.47-2.19,2.33-3.19c0.1,0,0.2-0.07,0.2-0.19c0.01-1.85-0.21-4.03-0.71-5.85c0.03-0.01,0.06-0.02,0.09-0.04
					c0.09-0.05,0.08-0.18,0-0.23c-0.06-0.03-0.11-0.05-0.17-0.07c0-0.01-0.01-0.02-0.01-0.03c-0.05-0.17-0.25-0.17-0.33-0.05
					c-0.79-0.07-1.67,0.57-2.1,1.16c-0.28,0.39-0.58,1.01-0.76,1.66c-0.2-0.18-0.4-0.35-0.57-0.49c-0.39-0.3-0.78-0.5-1.19-0.63
					c0-0.05,0-0.11,0-0.16c0-0.88-0.2-1.71-0.39-2.57c-0.19-0.87-0.33-1.74-0.79-2.51c0.13-0.19,0.25-0.39,0.34-0.57
					c0.25-0.47,0.57-1.16,0.32-1.68c0.07,0.06,0.17,0.1,0.26,0.08c1.55-0.23,2.3-2.44,2.01-3.78C-7.43,53.16-9,52.83-9.9,53.76
					c-0.09-0.66-0.31-1.29-0.69-1.8c-0.17-0.23-0.49-0.32-0.71-0.09c-0.63,0.62-1.48,1.24-1.92,2.04c0.06-0.8-0.13-1.6-0.56-2.29
					c-0.1-0.15-0.24-0.21-0.38-0.2c0.01-0.04,0.03-0.07,0.04-0.1c0.05-0.19-0.22-0.31-0.32-0.13c-0.77,1.29-2.04,2.2-2.78,3.43
					c-0.52,0.85-0.51,1.98-0.73,2.92c-0.31,1.27-1.49,2.81-1.48,4.07c0.01,0.75,0.59,1.72,0.93,2.42c-0.12,0.45-0.29,0.9-0.37,1.35
					c-0.07,0-0.14,0.06-0.12,0.14c0.03,0.08,0.05,0.16,0.07,0.24c0,0.01,0,0.02,0,0.03c0,0.04,0.02,0.07,0.04,0.1
					c0.7,2.35,0.69,5.02,2.19,6.96c1.2,1.55,2.49,3.02,3.6,4.65c0.78,1.14,1.4,2.4,2.35,3.39c-0.24,0.31-0.48,0.63-0.71,0.94
					c-0.12,0.16-0.06,0.42,0.07,0.56c0.76,0.78,1.55,1.51,2.37,2.22c-0.41,0.61-0.78,1.23-1.06,1.87c-0.01,0.03,0,0.05-0.01,0.08
					c-0.17-0.05-0.31,0.13-0.23,0.29c0.81,1.65,2.22,3.14,3.8,4.5c-0.1,0.02-0.18,0.07-0.21,0.19c-0.98,4.93-1.51,9.95-2.5,14.9
					c-0.85,4.26-1.69,8.53-2.76,12.74c-1.93,7.55-4.9,14.45-9.35,20.77c-3.09,1.45-3.54,5.15-2.87,8.27
					c1.14,5.25,4.99,9.68,8.14,13.86C-8.81,171.7-3,182.83-2.82,195.12c0.01,0.57,0.68,0.82,1.09,0.45
					c5.58-5.06,8.03-13.77,9.11-20.96c0.89-5.91,0.86-11.88,0.3-17.8c15.63,6.6,20.68,25.55,36.08,32.52
					c0.33,0.15,0.6,0.04,0.75-0.16c0.01,0.11,0.03,0.22,0.04,0.33c0.66,5.36,0.65,10.73,1.11,16.1c0,0.01,0.01,0.01,0.01,0.02
					c0.02,0.19,0.07,0.38,0.14,0.54c-2.75-0.77-6.17,0.53-8.7,1.4c-1.67,0.57-3.32,1.19-5.04,1.6c-1.8,0.43-3.59,0.32-5.39,0.59
					c-0.22,0.03-0.28,0.35-0.14,0.51c-0.89,2.75,5.84,3.83,7.49,3.81c2.77-0.04,5.46-0.82,8.14-1.4c3.14-0.68,6.58-0.59,9.61-1.58
					c0.13-0.04,0.2-0.17,0.22-0.29c0.11-0.1,0.18-0.25,0.15-0.46c-0.11-0.66-0.21-1.32-0.33-1.98c-0.04-0.23-0.05-0.49-0.11-0.73
					c0.11-0.07,0.19-0.16,0.22-0.29c0.15-0.86,0.16-1.74-0.32-2.49c-0.02-0.03-0.05-0.05-0.07-0.08c0.3-3.98,0.12-8.08,0.08-12.06
					c0-0.43-0.01-0.85-0.02-1.28c0.64,0.15,1.43,0.06,2.04,0.09c0,0.24-0.01,0.47-0.01,0.71c-0.05,4.13-0.24,8.39,0.08,12.53
					c-0.03,0.02-0.05,0.04-0.07,0.08c-0.48,0.76-0.46,1.64-0.32,2.49c0.02,0.13,0.11,0.23,0.22,0.29c-0.06,0.24-0.07,0.5-0.11,0.73
					c-0.11,0.66-0.22,1.32-0.33,1.98c-0.04,0.21,0.04,0.36,0.14,0.46c0.01,0.13,0.09,0.25,0.22,0.3c2.9,0.95,6.16,0.86,9.16,1.48
					c2.84,0.59,5.68,1.46,8.6,1.49c1.66,0.02,8.38-1.06,7.49-3.81c0.14-0.15,0.09-0.47-0.14-0.51c-1.68-0.26-3.35-0.14-5.03-0.51
					c-1.84-0.4-3.62-1.08-5.4-1.69c-2.53-0.86-5.96-2.17-8.71-1.39c0.07-0.16,0.12-0.34,0.14-0.53c0-0.01,0.02-0.02,0.02-0.04
					c0.44-5.22,0.43-10.43,1.05-15.64c0.03-0.26,0.07-0.52,0.11-0.78c0.15,0.2,0.41,0.31,0.75,0.16
					c15.4-6.97,20.45-25.92,36.08-32.52c-0.56,5.93-0.59,11.9,0.3,17.8c1.08,7.19,3.53,15.91,9.11,20.96
					c0.4,0.37,1.08,0.12,1.09-0.45c0.18-12.3,5.99-23.43,13.25-33.05c3.1-4.12,6.81-8.42,8.06-13.55c0.78-3.18,0.4-7.07-2.8-8.57
					c-4.45-6.32-7.42-13.22-9.35-20.77c-1.08-4.21-1.92-8.48-2.76-12.74c-0.98-4.94-1.52-9.96-2.5-14.9
					c-0.02-0.12-0.11-0.17-0.2-0.19c1.58-1.36,2.99-2.85,3.8-4.5c0.08-0.16-0.06-0.34-0.23-0.29c0-0.03,0-0.05-0.01-0.08
					c-0.28-0.64-0.65-1.26-1.05-1.87c0.82-0.71,1.61-1.45,2.37-2.22c0.13-0.13,0.2-0.4,0.07-0.56c-0.24-0.31-0.47-0.63-0.71-0.94
					c0.95-1,1.57-2.25,2.35-3.39c1.11-1.63,2.38-3.1,3.6-4.65c1.51-1.92,1.5-4.63,2.19-6.96c0.02-0.03,0.04-0.06,0.04-0.1
					c0-0.01,0-0.02,0-0.02c0.02-0.08,0.04-0.16,0.07-0.24c0.03-0.09-0.04-0.14-0.11-0.14c-0.08-0.43-0.25-0.84-0.36-1.27
					c-0.01-0.03-0.01-0.06-0.02-0.09c0.34-0.69,0.95-1.69,0.94-2.42c-0.02-1.27-1.18-2.8-1.48-4.07c-0.23-0.94-0.22-2.07-0.73-2.92
					c-0.75-1.23-2.01-2.14-2.78-3.43c-0.11-0.17-0.37-0.06-0.32,0.13c0.01,0.04,0.03,0.07,0.03,0.1c-0.14-0.01-0.29,0.04-0.38,0.2
					c-0.43,0.7-0.62,1.49-0.56,2.29c-0.43-0.8-1.29-1.42-1.92-2.04c-0.23-0.22-0.54-0.14-0.71,0.09c-0.38,0.51-0.61,1.14-0.69,1.8
					c-0.9-0.93-2.48-0.61-2.79,0.81c-0.28,1.33,0.46,3.55,2.01,3.78c0.09,0.01,0.18-0.03,0.26-0.09c-0.26,0.52,0.07,1.21,0.32,1.68
					c0.09,0.17,0.2,0.37,0.34,0.57c-0.46,0.77-0.6,1.64-0.79,2.51c-0.2,0.91-0.41,1.8-0.38,2.73c-0.41,0.13-0.8,0.33-1.19,0.63
					c-0.18,0.14-0.38,0.3-0.57,0.48c-0.19-0.65-0.48-1.26-0.77-1.65c-0.43-0.59-1.3-1.23-2.09-1.16c-0.08-0.12-0.28-0.12-0.33,0.05
					c0,0.01-0.01,0.02-0.01,0.03c-0.06,0.02-0.12,0.04-0.17,0.07c-0.08,0.05-0.09,0.18,0,0.23c0.03,0.01,0.06,0.02,0.09,0.04
					c-0.51,1.82-0.73,4.01-0.71,5.85c0,0.12,0.1,0.19,0.2,0.19c0.86,1,1.64,2.06,2.33,3.19c0.49,0.82,0.87,1.75,1.41,2.54
					c-0.12-0.05-0.23-0.08-0.36-0.09c-0.01-0.04-0.04-0.07-0.09-0.07c-0.05,0-0.08,0.03-0.09,0.08c-0.76,0.07-1.54,0.77-2.02,1.41
					c-0.01-0.02-0.02-0.03-0.03-0.05c-0.02-0.02-0.04-0.02-0.05-0.03c-0.12-0.15-0.35-0.21-0.55-0.04
					c-2.48,2.18-5.47,3.75-8.09,5.76c-0.37,0.28-0.73,0.58-1.09,0.87c-0.04-0.01-0.07-0.03-0.12-0.03
					c-3.67-0.26-7.12,0.84-10.26,2.69c-1.23,0.72-2.1,1.05-3.49,1.26c-0.56,0.09-0.98,0.06-1.55,0.21c-1.28,0.32-2.08,1.03-3.5,0.81
					c-0.41-0.06-0.8-0.19-1.18-0.37c-0.3-0.13-0.59-0.3-0.87-0.48c7.53-5.9,14.03-13.17,20.44-20.24c0.3-0.33,0.6-0.66,0.9-0.99
					c0.32-0.35,0.16-0.82-0.26-0.99c-2.9-1.14-5.86-2.15-8.87-3c-1.34-0.38-2.68-0.72-4.04-1.02c-0.52-0.12-1.04-0.23-1.56-0.34
					c-0.61-2.59-1.58-5.14-2.34-7.35c-0.09-0.25-0.39-0.22-0.49-0.04c-0.04,0.01-0.08,0.04-0.11,0.08c-1.19,1.5-2.91,3.82-3.96,6.18
					c0.38-3.22,0.87-6.41,1.58-9.59c0.84-3.76,2.05-7.49,2.33-11.36c0.2-2.85,0.08-6.87-2.06-9.07c-1.1-1.13-2.63-1.49-3.8-0.63
					c-0.22-1.37-0.57-2.61-1.06-3.75c-0.64-0.42-1.16-1-1.43-1.73c-0.2-0.52-0.29-1.13-0.71-1.46c-0.25-0.21-0.57-0.28-0.89-0.3
					c0.29,0.29,0.56,0.6,0.81,0.92c1.57,2.03,2.23,4.46,2.68,6.95c-0.07,0.19,0.12,0.37,0.31,0.34c0.14,0.01,0.3-0.05,0.36-0.17
					c4.22-2.26,4.95,6.01,4.83,8.47c-0.15,3.02-0.84,5.98-1.51,8.92c-1.06,4.62-2.07,9.32-2.33,14.07
					c-0.04,0.71-0.07,1.42-0.07,2.13c-0.34-0.34-0.65-0.67-0.95-1.02c-0.45-0.52-0.85-1.04-1.22-1.57v0
					c-1.54-2.24-2.37-4.68-2.63-7.41c-0.03-0.24-0.04-0.49-0.06-0.74c-0.06-0.88-0.05-1.8,0-2.75c0.19-3.21,0.27-8-3.41-9.39
					c-2.31-0.87-5.06-0.68-7.68,0.23c-0.83,0.29-1.65,0.64-2.43,1.06c-3.1,1.65-5.71,4.25-6.7,7.09c-1.25-3.58-5.06-6.77-9.19-8.18
					c-0.74-0.25-1.49-0.45-2.24-0.58c0,0,0,0,0,0c-1.88-0.34-3.74-0.25-5.39,0.37c-3.5,1.32-3.6,5.8-3.44,8.92
					c0.23,4.55-0.45,8.27-2.85,11.65c-0.56,0.79-1.21,1.55-1.97,2.31c0-0.63-0.02-1.25-0.05-1.88c-0.24-4.83-1.27-9.62-2.35-14.32
					c-0.64-2.8-1.3-5.62-1.49-8.49c-0.11-1.66-0.07-3.35,0.3-4.97c0.46-2.05,2.1-5.14,4.52-3.91c0.07,0.11,0.22,0.16,0.35,0.15
					c0.19,0.03,0.38-0.15,0.31-0.34c0.33-1.85,0.77-3.68,1.63-5.34c-0.25,0.03-0.5,0.05-0.76,0.06c-0.71,1.38-1.2,2.92-1.48,4.65
					c-1.17-0.86-2.7-0.5-3.8,0.63c-2.15,2.2-2.26,6.23-2.06,9.07c0.27,3.87,1.48,7.59,2.32,11.36c0.32,1.44,0.6,2.88,0.84,4.33
					c0.1,0.55,0.18,1.1,0.27,1.65c0.18,1.2,0.34,2.41,0.48,3.62c-0.5-1.13-1.16-2.24-1.83-3.26c-0.22-0.34-0.45-0.67-0.67-0.99
					c-0.52-0.73-1.03-1.39-1.46-1.93c-0.03-0.05-0.07-0.07-0.11-0.08c-0.1-0.18-0.4-0.21-0.49,0.04c-0.04,0.12-0.08,0.24-0.12,0.36
					c-0.29,0.83-0.6,1.7-0.92,2.61c0,0,0,0,0,0c-0.48,1.41-0.95,2.89-1.3,4.38c-0.42,0.09-0.83,0.17-1.24,0.27 M111.28,73.21
					c-0.7-1.14-1.5-2.2-2.38-3.21c-0.02-0.02-0.04-0.03-0.06-0.05c0.41-1.67,0.7-3.59,0.68-5.31c0.19,0.07,0.37,0.13,0.55,0.25
					c0.51,0.34,0.89,0.88,1.1,1.44c0.22,0.57,0.2,1.28,0.34,1.9c0,0.04-0.01,0.07-0.01,0.11c0,0.13,0.06,0.23,0.15,0.3
					c0.05,0.12,0.12,0.24,0.2,0.34c0.03,0.19,0.19,0.36,0.44,0.32c0.85-0.18,1.75-0.17,2.59,0.09c0.61,0.19,1.12,0.55,1.68,0.81
					c-0.59,0.36-1.11,0.86-1.47,1.5c-0.82,1.45-0.84,3.67,0.65,4.67c0.11,0.07,0.23-0.05,0.2-0.16c-0.32-1.36-0.81-2.74-0.07-4.06
					c0.7-1.26,2.07-1.9,3.45-2.05c0.21-0.02,0.3-0.35,0.05-0.4c-0.77-0.16-1.53-0.07-2.22,0.21c-0.83-1.48-3.13-1.74-4.69-1.4
					c0-0.01,0-0.02,0.01-0.04c0.4-0.34,0.72-0.86,1.11-1.19c0.55-0.45,1.17-0.91,1.77-1.28c0.19-0.12,0.12-0.45-0.12-0.44
					c-0.17,0.01-0.32,0.03-0.48,0.05c0.33-0.82,0.49-1.68,0.66-2.55c0.13-0.7,0.28-1.37,0.27-2.06c0.18,0.18,0.39,0.32,0.62,0.36
					c0.21,0.04,0.45-0.14,0.37-0.37c-0.19-0.55-0.74-0.95-1.03-1.46c-0.26-0.45-0.37-1.05-0.8-1.38l-0.15,0.04
					c0.05-0.08,0.07-0.17,0-0.26c-0.52-0.69-1.14-1.15-1.36-2.04c-0.1-0.41-0.14-0.96,0.04-1.35c0.41-0.86,1.15-0.16,1.61,0.16
					c0.05,0.03,0.1,0.05,0.15,0.05c0.13,1.3,0.86,2.49,2.2,2.83c-0.09,0.49,0.06,1.07,0.19,1.51c0.16,0.54,0.38,1.08,0.81,1.45
					c-0.66,0.67-1.05,1.62-1.42,2.48c-0.32,0.76-0.71,1.45-0.52,2.28l0.21,0.09c0.69-0.49,0.88-1.27,1.21-2.03
					c0.35-0.82,0.81-1.69,0.93-2.58c0-0.02-0.01-0.04-0.01-0.06c0.12-0.05,0.2-0.18,0.18-0.32c-0.1-0.58-0.44-1.06-0.61-1.62
					c-0.12-0.41-0.13-0.89-0.28-1.29c0.09-0.14,0.09-0.32-0.1-0.44c-0.75-0.48-1.45-0.92-1.78-1.79c-0.32-0.81-0.2-1.62,0.18-2.34
					c0.6,0.63,1.25,1.36,2.06,1.61c0.07,0.02,0.15,0,0.2-0.05c0.02,0.1,0.03,0.21,0.06,0.31c0.26,0.83,0.93,1.86,1.89,1.89
					l0.08-0.14c-0.38-0.69-0.93-1.18-1.15-1.98c-0.22-0.81-0.13-1.62,0.27-2.35c0.71,1.45,2.07,2.44,2.43,4.07
					c0.45,2.03,1.45,4.27,1.37,6.4c-0.04-0.27-0.08-0.54-0.1-0.82c-0.07-0.72-0.18-1.25-1.03-1.19c-0.41,0.03-0.77,0.19-1.06,0.43
					c0.02-0.1,0.05-0.2,0.08-0.31c0.03-0.13-0.04-0.23-0.12-0.3c0-0.01,0.01-0.01,0.01-0.02c0.14-0.53-0.26-1.09-0.42-1.59
					c-0.21-0.65-0.29-1.31-0.4-1.98c-0.06-0.35-0.6-0.25-0.61,0.08c-0.02,0.74,0.12,1.5,0.33,2.21c0.14,0.47,0.28,1.02,0.68,1.3
					c-0.02,0.02-0.05,0.02-0.06,0.05c-1.05,1.94-1.92,4.69-1.58,6.9c0.02,0.12,0.22,0.14,0.27,0.04c0.49-1,0.65-2.04,0.92-3.11
					c0.01-0.05,0.03-0.09,0.04-0.14c0.09,0.3,0.23,0.58,0.43,0.8c0.06,0.07,0.14,0.05,0.2,0c-0.06,0.54,0.01,1.14,0.42,1.54
					c-0.25,0.29-0.41,0.68-0.59,1.01c-0.2,0.38-0.44,0.72-0.44,1.16c0,0.17,0.18,0.25,0.32,0.18c0.42-0.21,0.62-0.63,0.81-1.04
					c0.17-0.36,0.37-0.8,0.35-1.22c0.11-0.06,0.19-0.18,0.13-0.34c-0.17-0.49-0.51-0.91-0.67-1.41c-0.04-0.13-0.16-0.14-0.25-0.09
					c0.15-0.77-0.22-1.53-0.02-2.33c0.12-0.48,0.39-0.96,0.9-1.1c0.73-0.2,0.67,0.18,0.74,0.8c0.11,1.12,0.27,2.69,1.02,3.6
					c-1.43,2.61-1.62,5.46-3.51,7.88c-1.6,2.04-3.73,4.5-4.44,7.04c-0.55-0.72-1.1-1.45-1.65-2.17c-0.43-0.57-0.9-1.49-1.47-2.02
					c0.01-0.02,0.02-0.04,0.02-0.06C112.61,75.3,111.88,74.19,111.28,73.21z M111.2,77.44c0.38-0.5,0.77-0.45,1.17,0.16
					c0.23,0.32,0.47,0.63,0.7,0.94c0.87,1.16,1.74,2.32,2.62,3.48c-0.63,0.63-1.29,1.24-1.96,1.83c-0.49-0.69-1-1.38-1.42-2.08
					c-0.74-1.22-1.38-2.5-2.2-3.67C110.5,77.9,110.75,77.6,111.2,77.44z M102.55,83.15c2.22-1.59,5.13-2.87,6.93-4.97
					c0.03,0.04,0.08,0.07,0.14,0.07c0.49,1.5,1.32,2.88,2.14,4.22c0.9,1.47,1.8,3.22,3.13,4.34c0.01,0.01,0.02,0,0.02,0.01
					c-1.35,0.87-2.45,2.12-3.64,3.18c-1.51,1.35-3.07,2.65-4.68,3.91c-3.25,2.54-6.62,5.3-10.19,7.39
					c-3.67,2.15-8.89,1.47-13.01,1.63c-4.3,0.16-8.6,0.29-12.89,0.59c0-0.2-0.29-0.19-0.31,0.01v0.01h-0.03
					c-0.42,0.03-0.44,0.64-0.04,0.68c-0.87,8.96-1.92,17.87-2.32,26.87c-0.1,2.19-0.17,4.38-0.15,6.57
					c0.01,1.04,0.02,2.08,0.07,3.12c0.08,1.99,0.28,1.8-2.05,2.1c-2.45,0.32-4.88,0.42-7.3,0.43c0.02-0.11-0.04-0.25-0.19-0.25
					c-1.86,0.02-3.71,0.09-5.55,0.14c-0.14,0-0.28-0.01-0.42-0.01c0.57-5.88,0.18-11.95,0.18-17.85c0-1.81,0-3.62-0.01-5.43
					c3.05-3.47,6.08-7.03,8.89-10.69c2.21-2.89,1.68-5.72,1.78-8.99c4.94,1.45,10.26,1.65,15.23,0.35c3.29-0.86,6.43-2.35,9.14-4.4
					c2.43-1.82,4.33-4.18,6.46-6.31c0.01,0.07,0.09,0.12,0.17,0.06C96.89,87.7,99.59,85.27,102.55,83.15z M51.51,116.23
					c0,1.29,0,2.58,0,3.87c-1.27-3.06-3.51-5.9-5.62-8.44c-1.47-1.77-2.99-3.24-3.4-5.62c-0.33-1.87-0.25-3.85-0.88-5.65
					c1.43-0.39,2.83-0.88,4.19-1.48c1.09,3.29,3.19,6.9,5.88,9.05C51.28,110.68,51.51,113.51,51.51,116.23z M46.15,93.73
					c0.21,0.02,0.42,0.04,0.63,0.05c0.15,0.01,0.3,0.02,0.45,0.03c0.03,0,0.05,0,0.07,0c0.14,0.01,0.28,0.01,0.42,0.02h0.05
					c0.12,0.01,0.23,0.01,0.34,0.01c0.18,0,0.35,0.01,0.52,0.01c0.34,0,0.68-0.01,1.02-0.02c0.34-0.01,0.67-0.04,1-0.07
					c0.66-0.06,1.31-0.16,1.95-0.29c0.66,0.14,1.34,0.24,2.03,0.3c0.29,0.03,0.57,0.05,0.86,0.06c0.36,0.02,0.72,0.03,1.08,0.03
					c0.17,0,0.34,0,0.51-0.01c0.17,0,0.35-0.01,0.52-0.02c0.17-0.01,0.35-0.02,0.52-0.03c0.17-0.01,0.35-0.02,0.52-0.04
					c0.26-0.02,0.52-0.04,0.78-0.07c0.25-0.03,0.51-0.06,0.76-0.09c0.01,0,0.01,0,0.02,0c0.2-0.03,0.4-0.05,0.59-0.08
					c0.1-0.02,0.2-0.03,0.3-0.05c0.04-0.01,0.08-0.01,0.12-0.02c0.18-0.03,0.36-0.06,0.54-0.09c0.26-0.05,0.52-0.09,0.78-0.14
					c0.26-0.05,0.52-0.1,0.77-0.16c0.17-0.04,0.34-0.07,0.5-0.11c0.15-0.03,0.31-0.07,0.46-0.11c0.3-0.07,0.59-0.14,0.88-0.22
					c0.02-0.01,0.05-0.01,0.07-0.02c0.27-0.07,0.54-0.14,0.8-0.22c1.6-0.44,3.13-0.95,4.56-1.47c2.87-1.05,5.6-2.35,8.19-3.9
					c-0.04,0.03-0.08,0.07-0.12,0.1c-3.74,3.01-7.88,5.58-12.49,7.03c-4.46,1.4-8.97,1.5-13.55,1.91c-4.42-0.39-8.8-0.48-13.13-1.78
					c-4.77-1.43-9.04-4.06-12.9-7.15c-0.04-0.03-0.07-0.06-0.11-0.09c2.59,1.55,5.32,2.85,8.18,3.89c0.39,0.14,0.79,0.28,1.19,0.42
					c0.13,0.05,0.27,0.09,0.4,0.14c0.18,0.06,0.36,0.12,0.54,0.18c0.18,0.06,0.36,0.11,0.55,0.17c0.23,0.07,0.46,0.14,0.7,0.22
					c0.24,0.07,0.47,0.14,0.71,0.21c0.18,0.05,0.35,0.1,0.54,0.15c0.12,0.04,0.25,0.07,0.37,0.1c0.18,0.05,0.35,0.1,0.54,0.14
					c0.2,0.05,0.41,0.1,0.62,0.15c0.2,0.05,0.41,0.1,0.62,0.14c0.3,0.07,0.59,0.13,0.9,0.19c0.04,0.01,0.07,0.02,0.11,0.02
					c0.03,0.01,0.05,0.01,0.08,0.02c0.16,0.03,0.32,0.06,0.49,0.09c0.02,0.01,0.04,0.01,0.06,0.01c0.07,0.01,0.13,0.02,0.2,0.04
					c0.02,0,0.04,0.01,0.06,0.01c0.19,0.04,0.39,0.07,0.58,0.1c0.12,0.02,0.25,0.04,0.37,0.06c0.12,0.02,0.25,0.04,0.37,0.06
					c0.16,0.02,0.32,0.04,0.48,0.06c0.12,0.02,0.25,0.03,0.37,0.05C45.72,93.68,45.93,93.71,46.15,93.73z M56.6,97.49
					c1.26,0.73,2.58,1.36,3.95,1.9c-0.49,0.65-0.85,1.41-1.36,2.05c-0.68,0.84-1.45,1.6-2.27,2.31c-0.31,0.27-0.65,0.52-1.02,0.76
					c-0.15-1.2-0.52-2.36-0.47-3.6c0.06-1.34,0.68-2.27,1.1-3.47C56.56,97.46,56.57,97.48,56.6,97.49z M48.9,97.01
					c0.04,0,0.07,0,0.11,0c0.14,0.52,0.38,0.83,0.63,1.33c0.48,0.95,0.57,1.8,0.59,2.84c0.03,1.36-0.15,2.88,0.14,4.23
					c-0.55-0.73-1.09-1.46-1.58-2.23c-0.92-1.46-1.61-3.01-2.33-4.57c0.74-0.34,1.47-0.72,2.17-1.13
					C48.85,97.37,48.92,97.19,48.9,97.01z M50.9,106.11c0.02-0.02,0.05-0.04,0.06-0.08c0.52-1.72,0.18-3.99,0.06-5.77
					c-0.03-0.39-0.1-0.73-0.21-1.05c0.5-0.07,1-0.13,1.5-0.14c0.58-0.01,1.16,0.16,1.74,0.11c0.17-0.01,0.27-0.25,0.09-0.34
					c-0.95-0.51-2.39-0.31-3.43,0.1c-0.27-0.67-0.7-1.25-1.18-1.9c1.03,0.04,2.06,0.05,3.09,0c1.25,0.05,2.48,0.05,3.72-0.03
					c-0.01,0.06,0,0.11,0.01,0.16c-2.49,1.1-2.1,5.58-1.2,7.83c-1.14,0.73-2.33,1.47-3.04,2.47c0,0,0,0,0,0
					c-0.01-0.01-0.02-0.02-0.03-0.03c-0.01-0.01-0.03-0.02-0.04-0.03c-0.02-0.01-0.03-0.01-0.05-0.02
					c-0.04-0.01-0.09-0.01-0.13,0.01C51.54,106.97,51.22,106.54,50.9,106.11z M52.44,107.89c1.92-0.42,4.1-2.55,5.52-3.89
					c1.15-1.08,2.81-2.72,3.22-4.39c0.35,0.13,0.71,0.25,1.07,0.37c-0.02,1.6,0.18,3.2,0.08,4.8c-0.18,2.71-1.9,4.42-3.55,6.43
					c-2.14,2.61-4.31,5.19-6.41,7.83c0-0.94,0-1.87,0-2.81c0-2.77,0.23-5.67-0.18-8.41C52.26,107.88,52.35,107.91,52.44,107.89z
					 M79.11,88.97c0.03,0.02,0.06,0.04,0.09,0.06c0.06,0.04,0.12,0.08,0.18,0.11c0.05,0.03,0.1,0.06,0.14,0.08
					c0.06,0.03,0.12,0.07,0.18,0.1c0.05,0.02,0.1,0.05,0.15,0.07c0.06,0.03,0.11,0.05,0.17,0.08c0.08,0.03,0.16,0.06,0.24,0.09
					c0.07,0.02,0.13,0.04,0.19,0.06c0.04,0.01,0.08,0.02,0.12,0.03c0.05,0.01,0.09,0.03,0.13,0.04c0.05,0.01,0.1,0.02,0.14,0.03
					c0,0,0,0,0.01,0c0.09,0.02,0.17,0.04,0.26,0.05c0.02,0,0.05,0.01,0.07,0.01c0.09,0.01,0.17,0.02,0.26,0.03
					c0.71,0.05,1.2-0.11,1.88-0.33c1.31-0.44,2.34-0.46,3.71-0.55c1.6-0.1,2.99-1.52,4.4-2.21c2.35-1.15,4.83-1.81,7.42-1.78
					c-1.08,0.89-2.12,1.83-3.1,2.83c-2.71,1.46-4.53,4.04-6.76,6.07c-2.81,2.56-6.2,4.36-9.85,5.39c-5.42,1.52-10.84,1.15-16.03-0.4
					c-0.07-0.25-0.39-0.31-0.61-0.18c-1.55-0.49-3.08-1.09-4.59-1.77c0.29-0.03,0.58-0.06,0.87-0.1c0.21-0.03,0.41-0.05,0.62-0.08
					c0.04-0.01,0.07-0.01,0.11-0.01c0.23-0.04,0.46-0.07,0.68-0.11c0.25-0.04,0.5-0.08,0.76-0.13c0.17-0.03,0.34-0.06,0.5-0.1
					c0.22-0.04,0.44-0.09,0.66-0.13c0.22-0.05,0.45-0.1,0.67-0.15c0.15-0.03,0.3-0.07,0.44-0.11c0.42-0.1,0.84-0.21,1.25-0.33
					c0.14-0.04,0.29-0.08,0.43-0.12c0.16-0.05,0.33-0.1,0.49-0.14c0.17-0.05,0.34-0.11,0.52-0.16c0.3-0.1,0.59-0.19,0.89-0.3
					c0.03-0.01,0.06-0.02,0.09-0.03c0.03-0.01,0.06-0.02,0.08-0.03c0.21-0.08,0.42-0.15,0.63-0.23c0.09-0.03,0.18-0.07,0.27-0.1
					c0.15-0.06,0.31-0.11,0.46-0.18c0.07-0.03,0.13-0.05,0.2-0.08c0.15-0.06,0.3-0.12,0.44-0.18c0.26-0.11,0.51-0.21,0.77-0.33
					c0.28-0.12,0.55-0.24,0.82-0.37c0.05-0.02,0.09-0.04,0.13-0.06c0.21-0.09,0.41-0.19,0.61-0.29c0.14-0.07,0.28-0.13,0.42-0.21
					c0.16-0.08,0.32-0.16,0.47-0.24c0.2-0.11,0.4-0.21,0.6-0.32c0.18-0.1,0.36-0.19,0.55-0.3c0.01,0,0.01-0.01,0.02-0.01
					c0.01-0.01,0.03-0.01,0.04-0.02c0.2-0.11,0.4-0.23,0.59-0.34c0.13-0.08,0.27-0.16,0.4-0.24c0.11-0.06,0.21-0.13,0.32-0.19
					c0.15-0.09,0.3-0.18,0.45-0.28c0.19-0.12,0.38-0.25,0.58-0.37c0.38-0.25,0.75-0.5,1.12-0.77c0.11-0.08,0.23-0.16,0.35-0.25
					c0.26-0.19,0.52-0.38,0.78-0.57c0.18-0.14,0.35-0.29,0.54-0.43c0.1,0.09,0.2,0.18,0.31,0.26c0,0.01,0.01,0.01,0.01,0.01
					C78.94,88.85,79.02,88.91,79.11,88.97z M87.05,62.85c0.5,0.14,1,0.29,1.49,0.44c0.35,0.11,0.71,0.21,1.06,0.33
					c0.4,0.12,0.79,0.25,1.19,0.37c0.59,0.19,1.18,0.38,1.77,0.57c0.42,0.14,0.84,0.28,1.26,0.42c0.07,0.02,0.14,0.05,0.21,0.07
					c0.34,0.11,0.68,0.23,1.01,0.35c0.13,0.05,0.26,0.09,0.39,0.14c0.13,0.05,0.27,0.09,0.39,0.14c0.55,0.19,1.09,0.39,1.63,0.59
					c0.46,0.17,0.92,0.34,1.38,0.52c-0.23,0.25-0.45,0.5-0.68,0.76c-0.12,0.14-0.25,0.28-0.37,0.42c-0.35,0.39-0.7,0.79-1.05,1.18
					c-1.46,1.63-2.93,3.26-4.42,4.87c-0.5,0.54-1,1.07-1.49,1.6c-0.26,0.28-0.53,0.56-0.79,0.84c-0.27,0.29-0.55,0.57-0.82,0.85
					c-0.36,0.37-0.72,0.74-1.08,1.11c-0.33,0.34-0.66,0.67-1,1.01c-0.05,0.06-0.11,0.11-0.16,0.16c-0.36,0.36-0.72,0.72-1.08,1.07
					c-0.38,0.37-0.76,0.74-1.14,1.1c-0.35,0.34-0.71,0.67-1.07,1c-0.01,0.01-0.02,0.02-0.03,0.03c-0.79,0.74-1.59,1.46-2.41,2.16
					c-3.65,2.29-7.56,4.15-11.66,5.47c-3,0.96-6.09,1.67-9.22,2.06c-0.19,0.03-0.38,0.05-0.57,0.07c-0.09,0.01-0.17,0.02-0.26,0.03
					c-0.28,0.03-0.56,0.05-0.83,0.07c-0.48,0.04-0.96,0.07-1.45,0.1c0.15-0.05,0.31-0.1,0.46-0.15c0.15-0.05,0.3-0.11,0.45-0.16
					c0.14-0.05,0.28-0.11,0.42-0.16c0.04-0.01,0.07-0.03,0.11-0.04c0.13-0.05,0.25-0.11,0.38-0.16c0.24-0.1,0.49-0.21,0.73-0.33
					c0.12-0.06,0.25-0.11,0.37-0.18c0.53-0.26,1.04-0.54,1.55-0.84c0.19-0.11,0.38-0.23,0.57-0.34c0.02-0.01,0.03-0.02,0.05-0.03
					c0.01-0.01,0.03-0.02,0.04-0.03c0.21-0.13,0.42-0.26,0.62-0.4c0,0,0,0,0.01-0.01c0.21-0.14,0.41-0.28,0.62-0.42
					c0.07-0.05,0.13-0.1,0.2-0.14c0.17-0.12,0.35-0.25,0.52-0.38c0,0,0,0,0,0c0.15-0.11,0.29-0.22,0.44-0.33
					c0.29-0.22,0.57-0.44,0.84-0.67c0.71-0.58,1.38-1.18,2.02-1.79c0.23-0.22,0.45-0.43,0.66-0.65c0.22-0.22,0.43-0.43,0.63-0.65
					c0.2-0.21,0.4-0.43,0.59-0.64c0.1-0.11,0.2-0.22,0.3-0.33c0.18-0.21,0.36-0.42,0.55-0.63c0.14-0.17,0.28-0.34,0.42-0.51
					c0.16-0.19,0.31-0.39,0.46-0.58c0.1-0.13,0.2-0.26,0.3-0.39c0.09-0.11,0.17-0.23,0.26-0.34c0.01-0.02,0.02-0.03,0.03-0.05
					c0.11-0.14,0.21-0.29,0.31-0.43c0.15-0.2,0.29-0.41,0.43-0.62c0.11-0.15,0.21-0.31,0.32-0.47c0.07-0.1,0.13-0.19,0.19-0.29
					c0.11-0.17,0.22-0.34,0.33-0.52c0.11-0.17,0.21-0.34,0.31-0.51c0.04-0.07,0.08-0.14,0.12-0.21c0.11-0.19,0.22-0.38,0.33-0.57
					c0.09-0.15,0.17-0.31,0.25-0.46c0.08-0.15,0.16-0.29,0.24-0.44c0.03-0.06,0.06-0.11,0.09-0.17c0.08-0.14,0.15-0.29,0.23-0.44
					c0.18-0.36,0.35-0.72,0.52-1.09c0.06-0.13,0.12-0.27,0.18-0.4c0.02-0.04,0.04-0.08,0.05-0.11c0.02-0.04,0.03-0.08,0.05-0.12
					c0,0,0,0,0,0c0.05-0.12,0.1-0.24,0.15-0.35c0.07-0.17,0.14-0.34,0.21-0.51c0.05,0.11,0.11,0.21,0.17,0.31
					c0.04,0.06,0.07,0.12,0.11,0.17c0.02,0.03,0.04,0.05,0.06,0.08c0.02,0.03,0.04,0.06,0.06,0.08c0.03,0.03,0.05,0.06,0.07,0.09
					c0.03,0.03,0.05,0.06,0.08,0.09c0.03,0.04,0.07,0.07,0.1,0.11c0.07,0.07,0.14,0.12,0.21,0.18c0.04,0.03,0.08,0.06,0.12,0.09
					c0.01,0.01,0.02,0.02,0.04,0.02c0.04,0.03,0.09,0.06,0.13,0.08c0.02,0.01,0.03,0.02,0.05,0.03c0.06,0.03,0.11,0.06,0.17,0.08
					c0.04,0.02,0.07,0.03,0.11,0.05c0.01,0,0.02,0.01,0.02,0.01c0.04,0.02,0.08,0.03,0.12,0.04c0.05,0.02,0.1,0.03,0.15,0.04
					c0.03,0.01,0.06,0.02,0.09,0.02c0.01,0,0.02,0.01,0.03,0.01c0.04,0.01,0.08,0.02,0.12,0.02c0.06,0.01,0.11,0.02,0.17,0.02h0
					c0.05,0.01,0.1,0.01,0.15,0.01c0.06,0,0.13,0.01,0.19,0.01c0,0,0,0,0.01,0c0.07,0,0.13,0,0.2-0.01c0.06,0,0.12-0.01,0.19-0.02
					c0.08-0.01,0.15-0.02,0.23-0.03c0.12-0.02,0.24-0.04,0.36-0.07c0.06-0.01,0.12-0.03,0.19-0.05c0.05-0.01,0.1-0.03,0.14-0.04
					c0.12-0.04,0.25-0.08,0.37-0.13c0.14-0.05,0.29-0.11,0.43-0.17c0.43-0.2,0.85-0.44,1.26-0.71c0.06-0.04,0.12-0.08,0.17-0.12
					c0.39-0.27,0.76-0.57,1.09-0.87c0.05-0.04,0.09-0.08,0.13-0.12c0.09-0.08,0.17-0.17,0.26-0.25c0.16-0.16,0.31-0.33,0.44-0.49
					c0.09-0.11,0.18-0.22,0.26-0.33c0.08-0.11,0.15-0.22,0.22-0.33c0.06-0.09,0.11-0.17,0.15-0.25c0.04-0.07,0.08-0.13,0.11-0.19
					c0.01-0.02,0.02-0.04,0.04-0.06c0.03-0.06,0.06-0.11,0.09-0.17c0.08-0.15,0.15-0.31,0.22-0.47c0.05-0.11,0.09-0.21,0.13-0.32
					c0.05-0.13,0.1-0.26,0.15-0.39c0.03-0.08,0.06-0.16,0.08-0.24c0.03-0.08,0.05-0.16,0.08-0.24c0.02-0.08,0.05-0.16,0.07-0.24
					c0.02-0.07,0.04-0.13,0.05-0.2c0-0.01,0.01-0.03,0.01-0.04c0-0.02,0.01-0.03,0.01-0.05c0.02-0.08,0.04-0.15,0.05-0.22
					c0.01-0.07,0.03-0.13,0.04-0.2c0.02-0.1,0.04-0.21,0.05-0.31c0.01-0.07,0.02-0.14,0.03-0.22c0.02-0.13,0.03-0.26,0.05-0.39
					c0.01-0.13,0.03-0.27,0.03-0.4c0.01-0.15,0.02-0.3,0.02-0.45c0-0.14,0.01-0.28,0.01-0.42c0-0.22-0.01-0.43-0.02-0.65
					c-0.01-0.15-0.02-0.31-0.03-0.46c-0.01-0.13-0.02-0.27-0.04-0.41c0-0.04-0.01-0.08-0.01-0.11c0-0.01,0-0.02,0-0.03
					c-0.01-0.12-0.03-0.25-0.05-0.38c-0.02-0.13-0.03-0.26-0.05-0.39c-0.02-0.18-0.05-0.35-0.09-0.53
					c-0.01-0.08-0.03-0.16-0.04-0.24c-0.02-0.13-0.05-0.26-0.07-0.39C86.18,62.6,86.62,62.72,87.05,62.85z M80.08,59.82
					c0.87-1.64,1.97-3.14,2.78-4.81c0.75,2.92,1.79,5.81,2.25,8.79c0.04,0.23,0.07,0.47,0.09,0.7c0.01,0.06,0.02,0.11,0.02,0.17
					c0.11,1,0.13,2,0.01,2.97c-0.14,1.1-0.47,2.16-1.05,3.17c-0.6,1.03-1.43,1.99-2.42,2.66c-1.19,0.79-3.63,1.83-4.6-0.24
					c-0.1-0.2-0.17-0.43-0.24-0.69c-0.03-0.14-0.11-0.23-0.2-0.3c-0.01-0.01-0.02-0.01-0.03-0.02c0.67-1.94,1.14-3.95,1.39-5.97
					c0.06-0.5,0.11-1.01,0.14-1.51c0-0.01,0-0.01,0.01-0.02c0.33-0.77,0.57-1.58,0.83-2.38C79.34,61.5,79.64,60.64,80.08,59.82z
					 M30.54,62.11C30.54,62.11,30.54,62.11,30.54,62.11c0.13-0.17,0.26-0.33,0.37-0.5c0,0,0,0,0,0c0,0,0-0.01,0.01-0.01
					c0.27-0.39,0.53-0.8,0.75-1.22c0,0,0,0,0.01-0.01c0.32-0.59,0.59-1.21,0.83-1.85c0.13-0.35,0.24-0.71,0.33-1.06
					c0.02-0.06,0.03-0.12,0.05-0.19c0.07-0.26,0.12-0.52,0.16-0.79v0c0.56-3.22-0.15-6.38,0.29-9.7c0.39-2.99,1.92-4.81,5.05-4.95
					c0.59-0.03,1.19-0.01,1.78,0.04c0.06,0.01,0.13,0.01,0.19,0.02c0.13,0.01,0.26,0.03,0.39,0.05c0.32,0.05,0.63,0.1,0.94,0.16
					c0.67,0.14,1.33,0.33,1.98,0.57c0.05,0.02,0.09,0.03,0.14,0.05c3.98,1.48,6,4.28,8.75,7.29l0.06-0.04l0.06,0.04
					c0.01-0.01,0.02-0.02,0.03-0.03c2.3-2.52,4.09-4.92,7.02-6.49c0.47-0.26,0.97-0.49,1.51-0.7c0.16-0.06,0.32-0.12,0.49-0.18
					c1.53-0.54,3.16-0.83,4.78-0.79c0.34,0.01,0.67,0.03,0.98,0.08c2.63,0.37,4.04,2.05,4.42,4.89c0.26,1.94,0.1,3.84,0.05,5.74v0
					c-0.01,0.29-0.01,0.57-0.01,0.86v0c-0.01,1.59,0.12,3.17,0.67,4.77c0.27,0.77,0.58,1.52,0.97,2.22c0,0,0,0,0,0.01
					c0.17,0.33,0.36,0.64,0.57,0.95v0c0.24,0.36,0.5,0.71,0.79,1.04c0,0,0.01,0.01,0.01,0.01c0.49,0.58,1.05,1.11,1.68,1.57
					c0.31,0.22,0.62,0.43,0.96,0.62c-0.02,0.11-0.04,0.23-0.06,0.34c-0.12,0.78-0.27,1.54-0.43,2.3c-0.51,2.38-1.2,4.69-2.11,6.9
					c-1.26,3.07-2.96,5.96-5.2,8.61c-2.13,2.53-4.63,4.74-7.44,6.49c-0.56,0.34-1.1,0.65-1.65,0.92c-0.66,0.33-1.32,0.61-1.98,0.85
					c-1.95,0.71-3.93,1.06-6.08,1.37c-0.01,0-0.02,0-0.02,0c-2.3-0.33-4.42-0.72-6.52-1.53c-0.3-0.12-0.6-0.24-0.9-0.38
					c0,0-0.01,0-0.01,0c-0.77-0.34-1.53-0.75-2.3-1.24c-2.81-1.76-5.3-3.97-7.44-6.49c-3.44-4.07-5.59-8.69-6.87-13.69
					c-0.26-1.01-0.48-2.02-0.67-3.06c-0.09-0.47-0.17-0.93-0.24-1.41C28.81,63.95,29.76,63.1,30.54,62.11z M21.41,58.46
					c0.34-1.15,0.68-2.3,0.97-3.46c0.81,1.67,1.91,3.18,2.78,4.81c0.48,0.9,0.79,1.84,1.09,2.78c0.23,0.73,0.46,1.46,0.76,2.16
					c0.02,0.25,0.04,0.51,0.06,0.76v0c0.11,1.18,0.3,2.35,0.56,3.51c0.24,1.07,0.55,2.14,0.91,3.19c-0.11,0.06-0.19,0.16-0.23,0.31
					c-0.02,0.08-0.04,0.15-0.06,0.22c-0.79,2.67-3.51,1.54-4.78,0.71c-0.97-0.64-1.83-1.66-2.42-2.66
					c-0.57-0.95-0.89-1.98-1.03-3.04c-0.1-0.67-0.12-1.35-0.09-2.02c0.01-0.36,0.04-0.72,0.08-1.07c0.02-0.2,0.05-0.4,0.07-0.59
					C20.36,62.18,20.87,60.32,21.41,58.46z M23.98,84.94c-0.93-0.8-1.84-1.63-2.74-2.47c-0.32-0.29-0.63-0.58-0.94-0.88
					c-0.4-0.38-0.8-0.77-1.19-1.15c-0.29-0.28-0.57-0.56-0.85-0.84c-0.07-0.07-0.14-0.14-0.21-0.21c-0.28-0.28-0.56-0.56-0.83-0.84
					c-0.02-0.02-0.03-0.03-0.05-0.05c-0.07-0.07-0.13-0.13-0.2-0.2c-0.33-0.34-0.66-0.67-0.98-1.01c-1.47-1.52-2.9-3.07-4.32-4.63
					c-0.36-0.39-0.71-0.78-1.06-1.17c-0.45-0.5-0.9-1-1.35-1.5c-0.61-0.68-1.22-1.35-1.82-2.03c-0.06-0.07-0.12-0.13-0.18-0.2
					c-0.29-0.33-0.58-0.65-0.87-0.97c0.4-0.15,0.8-0.31,1.21-0.45c0.1-0.04,0.2-0.08,0.3-0.11c0.16-0.06,0.33-0.12,0.5-0.18
					c0.28-0.1,0.56-0.2,0.84-0.3c0.16-0.06,0.32-0.11,0.48-0.17c0.16-0.06,0.32-0.11,0.48-0.17c0.33-0.11,0.65-0.23,0.98-0.34
					c0.42-0.14,0.85-0.29,1.27-0.42c0.46-0.15,0.92-0.3,1.38-0.45c0.09-0.03,0.17-0.06,0.26-0.08c0.37-0.12,0.74-0.24,1.11-0.35
					c0.18-0.06,0.36-0.11,0.54-0.17c0.34-0.1,0.67-0.2,1.01-0.31c0.54-0.16,1.07-0.32,1.61-0.48c0.08-0.02,0.16-0.05,0.25-0.07
					c0.3-0.09,0.6-0.17,0.9-0.26c-0.12,0.61-0.22,1.23-0.29,1.83c-0.03,0.3-0.06,0.59-0.08,0.89c-0.02,0.41-0.03,0.81-0.02,1.21
					c0,0.1,0.01,0.2,0.01,0.3c0,0.08,0.01,0.15,0.01,0.23c0,0.01,0,0.01,0,0.02c0,0.02,0,0.04,0,0.05c0,0,0,0,0,0
					c0.01,0.15,0.02,0.3,0.04,0.45c0,0.01,0,0.02,0,0.03c0.02,0.14,0.04,0.27,0.06,0.41c0.03,0.17,0.06,0.34,0.09,0.52
					c0.02,0.1,0.04,0.2,0.07,0.3c0.01,0.03,0.01,0.06,0.02,0.09c0.03,0.11,0.06,0.23,0.09,0.34c0.01,0.03,0.02,0.06,0.03,0.09
					c0.04,0.13,0.08,0.26,0.12,0.39c0.03,0.07,0.05,0.15,0.08,0.22c0.02,0.06,0.04,0.11,0.07,0.17c0.01,0.02,0.01,0.04,0.02,0.06
					c0.04,0.11,0.09,0.23,0.14,0.34c0,0.01,0.01,0.03,0.02,0.04v0.01C20,70.47,20,70.48,20,70.48l0,0c0.04,0.08,0.08,0.16,0.12,0.25
					c0.05,0.09,0.09,0.18,0.14,0.27c0.02,0.05,0.05,0.09,0.07,0.13c0.03,0.05,0.05,0.09,0.08,0.13c0.05,0.09,0.11,0.18,0.16,0.27
					c0.55,0.85,1.49,1.79,2.57,2.51c0.47,0.32,0.97,0.59,1.47,0.8c0.65,0.27,1.3,0.43,1.91,0.43c0.07,0,0.13,0,0.19-0.01
					c0.05,0,0.1-0.01,0.15-0.01c0.05-0.01,0.1-0.01,0.15-0.02c0.05-0.01,0.1-0.02,0.14-0.03c0.05-0.01,0.1-0.02,0.14-0.04
					c0.05-0.01,0.09-0.02,0.13-0.04c0.06-0.02,0.12-0.04,0.19-0.07c0.06-0.03,0.12-0.05,0.18-0.09c0.04-0.02,0.08-0.04,0.12-0.07
					c0.03-0.02,0.06-0.03,0.09-0.05c0.05-0.03,0.1-0.07,0.14-0.1c0.03-0.02,0.05-0.04,0.07-0.06l0.07-0.06
					c0.05-0.04,0.09-0.08,0.13-0.12c0.07-0.07,0.13-0.14,0.19-0.22c0.03-0.04,0.06-0.08,0.09-0.12c0.03-0.04,0.06-0.08,0.09-0.12
					c0.04-0.06,0.08-0.12,0.11-0.18c0.05-0.08,0.1-0.17,0.14-0.26c0.09,0.24,0.19,0.47,0.29,0.7c0.2,0.47,0.41,0.93,0.62,1.39
					c0.11,0.23,0.22,0.46,0.34,0.68c0.1,0.19,0.19,0.38,0.29,0.56c0.09,0.16,0.17,0.33,0.26,0.49c0.11,0.19,0.21,0.39,0.33,0.58
					c0.01,0.02,0.02,0.03,0.03,0.05c0.07,0.12,0.13,0.24,0.21,0.35c0.09,0.16,0.18,0.31,0.28,0.46c0.04,0.07,0.08,0.13,0.12,0.2
					c0.18,0.29,0.36,0.57,0.55,0.86c0.16,0.24,0.32,0.48,0.49,0.72c0.03,0.04,0.05,0.08,0.08,0.12c0.15,0.21,0.3,0.42,0.46,0.63
					c0.15,0.21,0.31,0.41,0.47,0.62c0,0,0,0,0,0v0.01c0,0,0,0,0,0.01c0.01,0.01,0.02,0.02,0.02,0.03c0.02,0.02,0.03,0.04,0.05,0.06
					c0.14,0.19,0.29,0.37,0.44,0.56c0.07,0.09,0.15,0.18,0.22,0.27c0.12,0.15,0.24,0.29,0.36,0.44c0.13,0.15,0.26,0.31,0.4,0.46
					c0.89,1.02,1.91,2.05,3.02,3.05c0.14,0.12,0.28,0.25,0.42,0.37c0.14,0.12,0.29,0.25,0.43,0.37c0.14,0.12,0.29,0.24,0.44,0.36
					c0.15,0.12,0.3,0.24,0.45,0.36c0.15,0.12,0.3,0.23,0.45,0.35c0,0,0,0,0,0c0.2,0.15,0.41,0.31,0.62,0.46
					c0.06,0.04,0.12,0.09,0.18,0.13c0.19,0.14,0.39,0.28,0.59,0.41c0.16,0.11,0.33,0.22,0.5,0.33c0.16,0.11,0.33,0.21,0.5,0.32
					c0.03,0.02,0.05,0.03,0.08,0.05c0.21,0.12,0.41,0.25,0.62,0.37c0.24,0.13,0.47,0.27,0.71,0.39c0.12,0.07,0.24,0.13,0.35,0.19
					c0.11,0.06,0.22,0.11,0.33,0.16c0.16,0.09,0.33,0.16,0.5,0.24c0.14,0.07,0.29,0.13,0.43,0.19c0.03,0.02,0.07,0.03,0.1,0.05
					c0.61,0.26,1.23,0.5,1.86,0.69c-0.31-0.02-0.61-0.04-0.91-0.06c-0.29-0.02-0.58-0.04-0.86-0.07c-0.02,0-0.03,0-0.05,0
					c-0.01,0-0.02,0-0.04,0c-0.16-0.01-0.32-0.03-0.48-0.04c-0.26-0.02-0.52-0.05-0.78-0.09c-3.12-0.39-6.22-1.1-9.22-2.06
					C31.53,89.09,27.62,87.22,23.98,84.94z M13.44,86.55c1.42,0.66,2.89,2.13,4.44,2.39c1.13,0.18,2.18-0.06,3.34,0.29
					c0.69,0.21,1.32,0.55,2.04,0.63c0.17,0.02,0.34,0.03,0.5,0.03c0.13,0,0.26-0.01,0.38-0.02c0.15-0.01,0.31-0.04,0.47-0.07
					c0.07-0.01,0.14-0.03,0.21-0.05c0.06-0.01,0.12-0.03,0.19-0.05c0.08-0.02,0.15-0.05,0.23-0.07c0.07-0.02,0.13-0.05,0.2-0.08
					c0.06-0.02,0.12-0.05,0.19-0.08c0.14-0.07,0.29-0.14,0.42-0.23c0.05-0.03,0.1-0.06,0.14-0.09c0.14-0.1,0.27-0.19,0.39-0.31
					c0.09-0.08,0.17-0.16,0.26-0.25c0.13,0.11,0.27,0.22,0.4,0.32c0.28,0.21,0.56,0.42,0.85,0.62c0.2,0.14,0.4,0.28,0.6,0.42
					c0.07,0.05,0.13,0.09,0.2,0.14c0.07,0.05,0.14,0.09,0.2,0.14c0,0,0.01,0,0.01,0.01c0.34,0.23,0.68,0.45,1.02,0.67
					c0.34,0.22,0.7,0.43,1.05,0.64c0.02,0.01,0.05,0.03,0.07,0.04c0.29,0.17,0.58,0.34,0.87,0.5c0.34,0.19,0.68,0.37,1.02,0.55
					c0.12,0.06,0.24,0.12,0.35,0.18c0.13,0.07,0.26,0.13,0.39,0.19c0.18,0.09,0.37,0.18,0.56,0.27c0.26,0.12,0.52,0.25,0.79,0.36
					c0.11,0.05,0.22,0.1,0.33,0.14c0.31,0.13,0.61,0.26,0.92,0.39c0.02,0.01,0.04,0.01,0.05,0.02c0.3,0.12,0.59,0.24,0.89,0.35
					c0.01,0,0.03,0.01,0.04,0.01c0.27,0.1,0.54,0.2,0.81,0.3c0.11,0.04,0.22,0.08,0.33,0.11c0.27,0.09,0.53,0.18,0.8,0.27
					c0.14,0.04,0.28,0.09,0.42,0.13c0.01,0,0.02,0.01,0.03,0.01c0.12,0.04,0.25,0.08,0.37,0.11c0.18,0.06,0.35,0.11,0.54,0.15
					c0.89,0.25,1.79,0.47,2.69,0.65c0.14,0.03,0.28,0.06,0.42,0.09c0.15,0.03,0.31,0.06,0.47,0.09c0.17,0.03,0.35,0.06,0.52,0.09
					c0.16,0.03,0.33,0.05,0.5,0.08c0.13,0.02,0.27,0.04,0.4,0.06c0.02,0,0.04,0.01,0.06,0.01c0.11,0.02,0.23,0.03,0.34,0.05
					c0.2,0.03,0.4,0.05,0.61,0.08c0.2,0.02,0.41,0.05,0.61,0.07c-6.71,3.02-13.99,4.4-21.23,2.35c-3.52-1-6.8-2.7-9.56-5.12
					c-2.37-2.09-4.23-4.82-7.06-6.34c-0.98-1-2.03-1.93-3.1-2.83C8.85,84.92,11.18,85.51,13.44,86.55z M-15.07,73.68
					c-1.9-2.42-2.09-5.27-3.51-7.88c0.75-0.91,0.91-2.47,1.02-3.6c0.03-0.34-0.05-0.82,0.39-0.94c0.62-0.16,1.13,0.79,1.25,1.24
					c0.2,0.79-0.16,1.56-0.02,2.33c-0.09-0.05-0.21-0.04-0.25,0.09c-0.16,0.5-0.5,0.92-0.67,1.41c-0.06,0.16,0.02,0.28,0.13,0.34
					c-0.02,0.41,0.18,0.85,0.35,1.22c0.19,0.41,0.39,0.83,0.81,1.04c0.14,0.07,0.32-0.01,0.32-0.18c0-0.44-0.24-0.78-0.44-1.16
					c-0.17-0.33-0.34-0.73-0.58-1.01c0.42-0.39,0.48-1,0.42-1.54c0.06,0.05,0.14,0.07,0.2,0c0.2-0.22,0.34-0.5,0.43-0.8
					c0.01,0.05,0.03,0.09,0.04,0.14c0.26,1.07,0.43,2.11,0.92,3.11c0.05,0.11,0.25,0.09,0.27-0.04c0.34-2.2-0.53-4.96-1.57-6.9
					c-0.02-0.03-0.04-0.03-0.06-0.05c0.4-0.28,0.55-0.84,0.68-1.3c0.21-0.71,0.35-1.47,0.33-2.21c-0.01-0.33-0.55-0.44-0.6-0.08
					c-0.11,0.67-0.19,1.33-0.4,1.98c-0.16,0.51-0.56,1.06-0.42,1.59c0,0.01,0.01,0.01,0.01,0.02c-0.08,0.07-0.14,0.17-0.12,0.3
					c0.02,0.11,0.05,0.21,0.07,0.31c-0.29-0.24-0.65-0.4-1.06-0.43c-0.74-0.05-0.96,0.35-1.02,1.02c-0.03,0.34-0.07,0.67-0.11,1
					c-0.09-2.13,0.91-4.38,1.36-6.42c0.36-1.63,1.72-2.62,2.43-4.07c0.4,0.73,0.48,1.54,0.26,2.35c-0.21,0.8-0.76,1.29-1.15,1.98
					l0.08,0.14c0.96-0.03,1.62-1.06,1.89-1.89c0.03-0.11,0.04-0.21,0.06-0.31c0.05,0.05,0.13,0.08,0.2,0.05
					c0.8-0.25,1.45-0.97,2.06-1.61c0.38,0.72,0.49,1.53,0.17,2.34c-0.34,0.87-1.03,1.31-1.78,1.79c-0.19,0.12-0.19,0.31-0.11,0.44
					c-0.14,0.4-0.16,0.88-0.28,1.29c-0.17,0.56-0.51,1.04-0.61,1.62c-0.02,0.14,0.06,0.27,0.18,0.32c0,0.02-0.01,0.04-0.01,0.06
					c0.12,0.89,0.58,1.76,0.93,2.58c0.32,0.75,0.52,1.54,1.21,2.03l0.21-0.09c0.2-0.83-0.2-1.52-0.52-2.28
					c-0.36-0.85-0.75-1.81-1.42-2.48c0.43-0.37,0.64-0.91,0.81-1.45c0.13-0.43,0.28-1.02,0.19-1.51c1.34-0.34,2.07-1.53,2.2-2.83
					c0.05-0.01,0.1-0.02,0.15-0.05c0.45-0.31,1.01-0.85,1.55-0.33c0.3,0.3,0.2,1.14,0.11,1.51c-0.21,0.89-0.84,1.36-1.36,2.04
					c-0.07,0.1-0.06,0.19,0,0.26l-0.15-0.04c-0.42,0.33-0.54,0.93-0.8,1.38c-0.29,0.51-0.84,0.91-1.03,1.46
					c-0.09,0.23,0.16,0.41,0.37,0.37c0.23-0.05,0.44-0.19,0.62-0.36c-0.02,0.69,0.13,1.36,0.27,2.06c0.17,0.87,0.33,1.73,0.66,2.55
					c-0.15-0.02-0.31-0.04-0.48-0.05c-0.24-0.01-0.31,0.32-0.12,0.44c0.6,0.37,1.23,0.83,1.77,1.28c0.39,0.33,0.71,0.85,1.11,1.19
					c0,0.01,0,0.02,0,0.04c-1.56-0.35-3.86-0.09-4.69,1.4c-0.69-0.28-1.46-0.36-2.23-0.21c-0.24,0.05-0.16,0.38,0.06,0.4
					c1.38,0.15,2.75,0.79,3.45,2.05c0.73,1.32,0.24,2.71-0.07,4.06c-0.03,0.11,0.1,0.23,0.2,0.16c1.49-1.01,1.47-3.22,0.65-4.67
					c-0.36-0.64-0.87-1.14-1.47-1.5c0.56-0.27,1.07-0.62,1.68-0.81c0.84-0.26,1.74-0.26,2.59-0.09c0.25,0.05,0.41-0.12,0.44-0.32
					c0.09-0.11,0.15-0.22,0.2-0.34c0.08-0.07,0.15-0.17,0.15-0.3c0-0.04-0.01-0.08-0.01-0.11c0.14-0.62,0.12-1.33,0.34-1.9
					c0.2-0.51,0.52-0.96,0.95-1.31c0.22-0.18,0.46-0.28,0.7-0.37c-0.02,1.72,0.27,3.64,0.68,5.3c-0.02,0.02-0.04,0.03-0.07,0.05
					c-0.87,1.01-1.67,2.07-2.37,3.21c-0.6,0.98-1.32,2.1-1.48,3.25c0,0.02,0.01,0.04,0.02,0.06c-0.57,0.52-1.08,1.49-1.48,2.02
					c-0.55,0.73-1.1,1.45-1.65,2.17C-11.34,78.19-13.48,75.7-15.07,73.68z M-10.46,82.01c0.87-1.16,1.74-2.32,2.61-3.48
					c0.24-0.31,0.47-0.62,0.71-0.94c0.4-0.6,0.79-0.65,1.17-0.16c0.45,0.17,0.71,0.46,1.08,0.66c-0.82,1.17-1.46,2.45-2.2,3.67
					c-0.42,0.7-0.93,1.38-1.42,2.08C-9.17,83.25-9.82,82.64-10.46,82.01z M-9.67,86.82c0.01-0.01,0.01,0,0.02-0.01
					c0.67-0.56,1.23-1.29,1.74-2.06c0,0,0,0,0-0.01c0.5-0.75,0.94-1.55,1.38-2.27c0.81-1.34,1.65-2.72,2.14-4.22
					c0.06,0,0.11-0.03,0.14-0.07c1.8,2.09,4.72,3.38,6.93,4.97c2.96,2.12,5.66,4.55,8.52,6.8c0.07,0.06,0.16,0.01,0.16-0.06
					c2.13,2.14,4.03,4.49,6.46,6.31c2.72,2.04,5.86,3.54,9.15,4.4c4.69,1.22,9.69,1.11,14.39-0.12c-0.47,2.84,0.04,6.93,1.76,9.27
					c1.31,1.78,2.91,3.35,4.22,5.14c1.35,1.85,2.43,3.89,3.79,5.72c0,0,0,0,0,0c-0.03,0.04-0.06,0.07-0.09,0.11
					c-0.16,0.21,0.19,0.49,0.37,0.29c0.03-0.03,0.06-0.06,0.08-0.1c0,1.48-0.01,2.96,0,4.44c0,5.89-0.38,11.96,0.18,17.84
					c-1.53-0.05-3.06-0.1-4.6-0.11c-0.14,0-0.21,0.13-0.19,0.25c-2.42-0.01-4.85-0.11-7.3-0.43c-0.37-0.05-1.89-0.01-2.15-0.38
					c-0.11-0.16,0.07-1.18,0.08-1.43c0.05-1.03,0.06-2.06,0.07-3.09c0.03-2.3-0.05-4.6-0.15-6.89c-0.4-9-1.46-17.92-2.32-26.87
					c0.4-0.04,0.38-0.65-0.04-0.68h-0.03c0-0.01,0-0.01,0-0.01c-0.02-0.2-0.31-0.2-0.31-0.01c-4.29-0.3-8.6-0.44-12.9-0.59
					c-4.13-0.15-9.33,0.52-13.01-1.63c-3.56-2.09-6.94-4.85-10.19-7.39c-1.6-1.25-3.16-2.55-4.68-3.91
					C-7.22,88.94-8.32,87.69-9.67,86.82z M6.54,171.49c-0.77,7.37-2.83,16.52-8.13,22.16c-0.46-9.51-4.16-18.46-9.25-26.44
					c-2.75-4.31-6.14-8.18-8.88-12.49c-1.97-3.09-4.9-8.91-2.62-12.52c0.55-0.5,1.06-1.03,1.56-1.57c0.05-0.03,0.09-0.07,0.14-0.11
					c0.09-0.06,0.15-0.14,0.17-0.24c4.93-5.54,7.55-12.95,9.41-20.04c1.13-4.31,1.98-8.69,2.76-13.07
					c0.91-5.07,2.08-10.36,2.15-15.52c1.37,1.15,2.83,2.19,4.11,3.16c-1.89,17.38,3.93,34.33,7.03,51.23
					C6.53,154.44,7.43,162.98,6.54,171.49z M44.21,188.24c-15.58-6.49-20.35-26.96-36.62-32.24c-0.2-1.9-0.44-3.8-0.73-5.69
					c-2.84-18.46-9.18-36.27-8.49-55.16c0.09,0.07,0.18,0.13,0.26,0.2c3.23,2.49,6.65,5.45,10.32,7.24c3.28,1.6,7.46,1.15,11,1.26
					c4.93,0.16,9.87,0.38,14.81,0.38c0.38,12.9,2.37,25.92,1.48,38.83c-0.02,0.23,0.19,0.52,0.42,0.56c0.25,0.04,0.5,0.07,0.75,0.11
					c-0.02,4.8,1.04,9.82,1.84,14.52c0.87,5.17,1.86,10.31,2.78,15.47c0.87,4.87,1.71,9.73,2.35,14.63
					C44.33,188.31,44.28,188.27,44.21,188.24z M40.51,211.84c-2.26,0.54-4.51,1.21-6.85,1.24c-1.92,0.02-5.41-0.4-6.36-2.52
					c2.64,0.72,5.86-0.47,8.31-1.3c1.68-0.57,3.32-1.22,5.03-1.71c1.82-0.53,3.66-0.59,5.49-0.95c0.02,0.01,0.03,0.03,0.05,0.05
					c0.57,0.39,1.71,0.39,2.36,0.52c0.79,0.16,1.59,0.32,2.38,0.47c-0.01,0.27,0.05,0.57,0.08,0.84c0.06,0.65,0.13,1.29,0.2,1.93
					C47.78,209.96,43.74,211.07,40.51,211.84z M54.01,165.04c-0.06,4.61-0.14,9.22-0.21,13.84c-0.06,3.82-0.1,7.65-0.14,11.47
					c-0.62,0.04-1.42-0.05-2.07,0.11c-0.04-3.86-0.09-7.72-0.14-11.57c-0.07-4.45-0.14-8.91-0.2-13.36
					c-0.03-1.99-0.07-3.99,0.1-5.98c0.17-1.95,0.77-3.63,1.28-5.42c0.48,1.65,1.06,3.23,1.24,5
					C54.06,161.09,54.03,163.07,54.01,165.04z M64.61,207.55c1.7,0.49,3.35,1.14,5.03,1.71c2.46,0.84,5.66,2.02,8.31,1.3
					c-0.95,2.13-4.41,2.53-6.36,2.52c-2.34-0.02-4.6-0.7-6.85-1.24c-3.24-0.78-7.27-1.89-10.67-1.44c0.07-0.64,0.14-1.29,0.2-1.93
					c0.03-0.27,0.09-0.57,0.08-0.84c0.79-0.16,1.59-0.32,2.38-0.47c0.6-0.12,1.85-0.14,2.36-0.52c0.02-0.01,0.03-0.03,0.05-0.05
					C60.95,206.95,62.8,207.02,64.61,207.55z M59.71,189.5c-0.51,4.74-1.08,9.73-0.75,14.54c-0.22,0.29-0.23,0.4-0.25,0.79
					c-0.03,0.89-0.01,0.84-0.91,1.02c-1.17,0.23-2.34,0.47-3.51,0.7c0.01-0.45,0.11-0.88,0.19-1.35c0.04-0.22-0.07-0.41-0.22-0.51
					c0.44-4.27,0.37-8.67,0.45-12.94c0.09-4.93,0.18-9.86,0.26-14.79c0.07-4.68,0.21-9.36,0.19-14.04
					c-0.01-3.3-0.02-7.78-2.31-10.42c-0.02-0.02-0.05-0.02-0.07-0.04c-0.02-0.01-0.03-0.02-0.05-0.03
					c-0.04-0.02-0.09-0.04-0.13-0.03c-0.05,0-0.09,0.01-0.13,0.03c-0.02,0.01-0.03,0.02-0.05,0.03c-0.02,0.02-0.05,0.01-0.07,0.04
					c-2.21,2.54-2.27,6.8-2.31,9.99c-0.06,4.82,0.12,9.65,0.19,14.46c0.07,4.77,0.16,9.54,0.25,14.31c0.08,4.43,0,8.99,0.46,13.42
					c-0.15,0.1-0.26,0.28-0.22,0.51c0.08,0.47,0.18,0.9,0.19,1.35c-1.17-0.23-2.34-0.47-3.51-0.7c-0.73-0.15-0.89-0.05-0.91-0.84
					c-0.01-0.5,0.02-0.63-0.25-0.98c0.32-4.66-0.22-9.48-0.7-14.08c-0.53-5.09-1.3-10.15-2.17-15.19
					c-0.89-5.16-1.88-10.31-2.76-15.48c-0.87-5.1-1.27-10.37-2.32-15.44c4.63,0.64,9.55,1.02,14.28,0.58
					c4.74,0.44,9.65,0.06,14.29-0.58c-1.01,4.92-1.4,10.03-2.24,14.98c-0.9,5.32-1.93,10.61-2.84,15.93
					C60.99,179.66,60.24,184.57,59.71,189.5z M97.65,155.99c-16.27,5.28-21.04,25.75-36.62,32.24c-0.07,0.03-0.12,0.07-0.17,0.11
					c0.63-4.9,1.47-9.77,2.34-14.63c0.9-5.01,1.85-10,2.71-15.01c0.83-4.86,1.94-10.03,1.92-14.98c0.25-0.04,0.51-0.07,0.76-0.11
					c0.23-0.04,0.44-0.33,0.42-0.56c-0.89-12.91,1.1-25.92,1.48-38.83c4.93,0,9.87-0.21,14.81-0.38c3.55-0.12,7.71,0.34,10.99-1.26
					c3.67-1.79,7.1-4.76,10.32-7.24c0.09-0.07,0.17-0.13,0.26-0.2c0.7,18.88-5.65,36.7-8.48,55.16
					C98.09,152.19,97.84,154.09,97.65,155.99z M125.19,154.38c-2.78,4.45-6.27,8.4-9.1,12.83c-5.09,7.99-8.79,16.93-9.25,26.44
					c-5.22-5.54-7.28-14.49-8.09-21.74c-0.98-8.64-0.06-17.34,1.5-25.86c3.11-16.9,8.93-33.85,7.03-51.23
					c1.29-0.97,2.75-2.01,4.11-3.16c0.07,5.01,1.19,10.14,2.06,15.05c0.8,4.54,1.68,9.07,2.84,13.53c1.86,7.09,4.47,14.5,9.41,20.04
					c0.02,0.1,0.08,0.18,0.17,0.24c0.06,0.03,0.09,0.07,0.14,0.11c0.5,0.54,1.01,1.06,1.55,1.56
					C129.79,145.69,127.09,151.32,125.19,154.38z M49.09,16.05c-0.28-0.13-0.58-0.23-0.88-0.28c-1.12-0.19-2.24,0.09-3.33,0.36
					c-2.04,0.52-4.08,1.02-6.11,1.54c-0.81,0.38-1.6,0.79-2.36,1.23c-0.37,0.21-0.73,0.43-1.08,0.65c-0.27,0.42-0.49,0.89-0.68,1.38
					c0.94-0.65,1.95-1.21,2.95-1.73C41.26,17.25,45.07,16.17,49.09,16.05z M69.44,41.33c-2.31-0.87-5.06-0.68-7.68,0.23
					c-0.83,0.29-1.65,0.64-2.43,1.06c-3.1,1.65-5.71,4.25-6.7,7.09c-1.25-3.58-5.06-6.77-9.19-8.18c0.03,0.04,0.06,0.08,0.08,0.12
					c0.02,0.02,0.03,0.04,0.04,0.06c0.01,0.02,0.02,0.03,0.03,0.05c0.02,0.04,0.04,0.08,0.06,0.11c0.02,0.04,0.04,0.09,0.06,0.13
					c0.04,0.09,0.06,0.19,0.08,0.28c0,0.02,0.01,0.03,0.01,0.05c0.01,0.05,0.02,0.1,0.02,0.14c0.01,0.06,0.01,0.12,0.01,0.18
					c0,0.02,0,0.04,0,0.05c3.98,1.48,6,4.28,8.75,7.29l0.06-0.04l0.06,0.04c0.01-0.01,0.02-0.02,0.03-0.03
					c2.3-2.52,4.09-4.92,7.02-6.49c0.47-0.26,0.97-0.49,1.51-0.7c0.16-0.06,0.32-0.12,0.49-0.18c1.53-0.54,3.16-0.83,4.78-0.79
					c0.34,0.01,0.67,0.03,0.98,0.08c2.63,0.37,4.04,2.05,4.42,4.89c0.26,1.94,0.1,3.84,0.05,5.74v0c0.02,0.07,0.04,0.13,0.07,0.19
					c0.03,0.08,0.08,0.16,0.12,0.24v0c0.16,0.25,0.4,0.44,0.69,0.5h0c-0.06-0.88-0.05-1.8,0-2.75
					C73.03,47.51,73.11,42.72,69.44,41.33z M33.85,82.01c-0.06-0.14-0.12-0.28-0.17-0.42c-0.05-0.12-0.1-0.25-0.13-0.38
					c-0.08-0.23-0.16-0.46-0.22-0.69c-0.1,0.09-0.23,0.19-0.38,0.28c0.15,0.21,0.3,0.42,0.46,0.63c0.15,0.21,0.31,0.41,0.47,0.62
					C33.86,82.03,33.86,82.02,33.85,82.01z M33.87,82.05C33.87,82.06,33.87,82.06,33.87,82.05c0.01,0.02,0.02,0.03,0.03,0.03
					C33.89,82.07,33.88,82.07,33.87,82.05z"/>
			</g>
			<g>
				<path class="st18" d="M46.7,63.55c0,2.63-2.14,4.76-4.77,4.76c-2.64,0-4.77-2.14-4.77-4.77c0-1.38,0.58-2.62,1.51-3.5
					L46.7,63.55z"/>
				<path class="st19" d="M41.81,61.42l4.11,1.8l0.04,0.46c0,1.49-1.2,2.69-2.69,2.69c-1.49,0-2.69-1.2-2.69-2.69
					C40.59,62.73,41.08,61.89,41.81,61.42z"/>
				<ellipse class="st18" cx="43.27" cy="63.89" rx="0.49" ry="1.04"/>
			</g>
			<path class="st18" d="M45.42,75.77c1.94,1.34,4.56,2,7.19,2c2.63,0,5.25-0.67,7.19-2c-1.36,1.9-1.24,7.46-7.19,7.88
				C46.66,83.22,46.78,77.66,45.42,75.77z"/>
			<g>
				<path class="st18" d="M58.52,63.45c0,2.63,2.14,4.76,4.77,4.76c2.64,0,4.77-2.14,4.77-4.77c0-1.38-0.58-2.62-1.51-3.5
					L58.52,63.45z"/>
				<path class="st19" d="M63.41,61.31l-4.11,1.8l-0.04,0.46c0,1.49,1.2,2.69,2.69,2.69c1.49,0,2.69-1.2,2.69-2.69
					C64.63,62.62,64.15,61.79,63.41,61.31z"/>
				<ellipse class="st18" cx="61.95" cy="63.78" rx="0.49" ry="1.04"/>
			</g>
			<path class="st20" d="M47.07,76.61c0.52,0.23,1.07,0.42,1.63,0.58l0.08,0.02l-0.28,0.81l-0.03,0.1l-0.09,0.32
				c-0.28,1.02-0.4,1.89-0.4,1.89C47.38,79.19,47.14,77.79,47.07,76.61z"/>
			<path class="st20" d="M58.15,76.61c-0.52,0.23-1.07,0.42-1.63,0.58l-0.08,0.02l0.28,0.81l0.03,0.1l0.09,0.32
				c0.28,1.02,0.39,1.89,0.39,1.89C57.84,79.19,58.08,77.79,58.15,76.61z"/>
		</g>
		<g style="clip-path:url(#SVGID_00000169559948979262752330000004624438879693555334_);">
			<path class="st24" d="M46.28,89.98H58.9v0.08c0,2.07-1.68,3.76-3.76,3.76h-5.11c-2.07,0-3.76-1.68-3.76-3.76V89.98z"/>
			<path class="st25" d="M5.14,65.97c0,0,26.94-9.36,48.14-9.36s47.62,9.36,47.62,9.36s-2.52,3.33-6.76,7.93
				c-7.56,8.19-21.32,19.85-41.12,19.85C22.12,93.74,5.14,65.97,5.14,65.97z"/>
			<g>
				<path class="st12" d="M80.32,80.77c-5.23,1.73-3.37-0.68-6.7-1.47c0,0.01-0.01,0.02-0.01,0.03l-0.01,0.04
					c-2.45,6.25-9.6,10.78-16.5,10.78H46.69c-6.34,0-11.69-4.24-13.36-10.03c-0.68,0.61-2.31,1.19-6.04,1.19
					c-7.49,0-12.06-13.52-6.67-16.45c0,0,0,0,0.01,0c0.22-0.12,0.46-0.22,0.71-0.31c2.85-0.92,5.36,0.1,7.26,1.54
					c1.26,0.94,2.09,1.13,2.75,1.99l-0.89-5.15c0-2.28,0.73-4.46,1.93-6.32c1.61,1.92,4.68,2.51,6.86,1.24
					c0.12-0.08,0.24-0.15,0.39-0.17c0.44-0.06,0.72,0.43,0.92,0.83c0.66,1.38,1.75,2.64,3.19,3.14c1.45,0.51,3.26,0.09,4.11-1.19
					c0.44-0.66,0.58-1.48,0.94-2.19c0.36-0.7,1.12-1.34,1.89-1.15c0.7,0.18,1.07,0.94,1.67,1.35c1.03,0.7,2.46,0.23,3.48-0.47
					c1.03-0.71,1.97-1.65,3.18-1.9c0.89-0.19,1.85,0.01,2.71-0.24c1.28-0.37,2.09-1.65,2.62-2.86c0.37-0.82,0.69-1.7,1.16-2.46
					c1.66,0.17,3.21,0.67,4.6,1.44c-0.02,0.27-0.06,0.54-0.07,0.8c-0.09,1.9,0.9,3.66,1.68,5.39c1.53,3.4,2.33,7.13,2.34,10.86
					c0,0.23,0,0.46,0.01,0.69c0.02,0.23,0.06,0.46,0.11,0.67c0.07,0.14,0.17,0.38,0.31,0.58c0.14,0.32,0.31,0.33,0.49,0.37
					c0.01,0.01,0.02,0.01,0.03,0.01l-0.13,0.79l0.4-0.76c-0.01,0-0.02,0-0.03-0.01l0.52-2.89v-0.02c0,0,4.18-6.62,9.66-4.26
					c0.4,0.17,0.74,0.39,1.02,0.67C90.19,68.38,85.27,79.12,80.32,80.77z"/>
			</g>
			<path class="st26" d="M50.45,71.94c0,2.34-0.98,4.37-2.45,5.48c-0.55-0.38-1.47-0.69-2.48-0.69c-1.07,0-1.93,0.32-2.42,0.72
				c-1.5-1.08-2.51-3.14-2.51-5.51c0-3.5,2.21-6.34,4.93-6.34C48.25,65.61,50.45,68.44,50.45,71.94z"/>
			<path class="st26" d="M65.81,50.56c-0.47,0.76-0.79,1.64-1.16,2.46c-0.54,1.22-1.34,2.49-2.62,2.87
				c-0.87,0.25-1.82,0.05-2.71,0.24c-1.22,0.25-2.15,1.19-3.18,1.9c-1.02,0.7-2.45,1.17-3.48,0.47c-0.59-0.41-0.97-1.17-1.67-1.35
				c-0.77-0.19-1.53,0.45-1.89,1.15c-0.36,0.7-0.51,1.53-0.94,2.19c-0.85,1.28-2.66,1.7-4.11,1.2c-1.45-0.51-2.54-1.76-3.2-3.14
				c-0.2-0.41-0.48-0.9-0.92-0.83c-0.14,0.01-0.26,0.09-0.38,0.16c-2.19,1.27-5.25,0.68-6.86-1.24c2.36-3.63,6.59-6.14,11.04-6.14
				h20.85C64.98,50.5,65.4,50.52,65.81,50.56z"/>
			<path class="st26" d="M65.46,71.94c0,2.34-0.98,4.37-2.45,5.48c-0.55-0.38-1.47-0.69-2.48-0.69c-1.07,0-1.93,0.32-2.42,0.72
				c-1.5-1.08-2.51-3.14-2.51-5.51c0-3.5,2.21-6.34,4.93-6.34S65.46,68.44,65.46,71.94z"/>
			<path class="st26" d="M76.76,62.7l-0.96,5.77v0.02l-0.48,2.9c-0.01,0-0.02,0-0.03-0.01c-0.19-0.04-0.35-0.05-0.49-0.37
				c-0.14-0.2-0.24-0.44-0.31-0.58c-0.05-0.21-0.09-0.44-0.11-0.67c-0.01-0.23-0.01-0.46-0.01-0.69c-0.01-3.73-0.81-7.46-2.34-10.86
				c-0.78-1.74-1.77-3.49-1.68-5.39c0.01-0.26,0.04-0.53,0.07-0.8C74.19,54.07,76.76,58.09,76.76,62.7z"/>
			<g>
				
					<radialGradient id="SVGID_00000176740545243957076550000011511697989973888406_" cx="45.7494" cy="71.8361" r="1.6988" gradientUnits="userSpaceOnUse">
					<stop  offset="0" style="stop-color:#DDCFC6"/>
					<stop  offset="1" style="stop-color:#F3F0EB"/>
				</radialGradient>
				<path style="fill:url(#SVGID_00000176740545243957076550000011511697989973888406_);" d="M50.45,71.94
					c0,2.34-0.98,4.37-2.45,5.48c-0.55-0.38-1.47-0.69-2.48-0.69c-1.07,0-1.93,0.32-2.42,0.72c-1.5-1.08-2.51-3.14-2.51-5.51
					c0-3.5,2.21-6.34,4.93-6.34C48.25,65.61,50.45,68.44,50.45,71.94z"/>
				<path class="st28" d="M50.46,71.94c0,2.06-0.78,4.22-2.45,5.5c-0.72-0.48-1.6-0.68-2.46-0.69c-0.85,0.01-1.76,0.18-2.44,0.73
					c-2.89-2.15-3.27-6.64-1.42-9.59c1.41-2.3,4.34-3.16,6.49-1.32C49.74,67.87,50.45,69.96,50.46,71.94L50.46,71.94z M50.45,71.94
					c0.04-2.87-1.85-6.37-5.06-6.29c-2.05,0.06-3.65,1.78-4.3,3.62c-1,2.76-0.41,6.34,2.03,8.16c1.21-1.01,3.58-0.93,4.87-0.03
					C49.66,76.14,50.44,73.99,50.45,71.94L50.45,71.94z"/>
			</g>
			<g>
				
					<linearGradient id="SVGID_00000073711143456208969040000000707617592864713097_" gradientUnits="userSpaceOnUse" x1="43.9069" y1="74.6487" x2="48.6939" y2="70.7624">
					<stop  offset="0" style="stop-color:#AECEE3"/>
					<stop  offset="1" style="stop-color:#021A32"/>
				</linearGradient>
				<path style="fill:url(#SVGID_00000073711143456208969040000000707617592864713097_);" d="M43.79,72.85
					c0-1.85,1.04-3.36,2.33-3.36c1.29,0,2.33,1.5,2.33,3.36s-1.04,3.36-2.33,3.36c-0.76,0-1.51-0.62-1.83-1.28
					c-0.06-0.12-0.1-0.24-0.15-0.36C43.92,74.01,43.79,73.47,43.79,72.85z"/>
				<path class="st30" d="M43.78,72.85c-0.1-1.76,1.43-4.35,3.39-3.02c1.75,1.37,1.75,4.67,0.01,6.05
					c-0.99,0.79-2.35,0.18-2.88-0.85C43.99,74.35,43.78,73.61,43.78,72.85L43.78,72.85z M43.79,72.85c0,0.75,0.23,1.49,0.56,2.15
					c0.52,0.98,1.85,1.57,2.8,0.81c1.71-1.35,1.71-4.59,0-5.94C45.22,68.55,43.7,71.11,43.79,72.85L43.79,72.85z"/>
			</g>
			<ellipse class="st31" cx="46.12" cy="72.85" rx="1.74" ry="2.51"/>
			<path class="st32" d="M46.47,71.65c-0.08-0.07-0.15-0.17-0.16-0.28c0-0.03,0-0.06,0.02-0.09c0.01-0.02,0.03-0.02,0.05-0.03
				c0.06-0.01,0.12-0.01,0.17,0c0.06,0,0.12,0,0.17-0.03c0.05-0.03,0.07-0.1,0.04-0.15c0.22-0.01,0.43,0.18,0.45,0.4
				c0.01,0.1-0.01,0.2,0.02,0.3c0.04,0.09,0.14,0.16,0.15,0.26c0.02,0.16-0.19,0.25-0.22,0.4c-0.01,0.04-0.01,0.08-0.03,0.11
				c-0.16,0.19-0.26-0.33-0.27-0.41C46.85,71.83,46.67,71.82,46.47,71.65z"/>
			<g>
				
					<radialGradient id="SVGID_00000010293707955218083120000006767025928251144881_" cx="60.7605" cy="71.8361" r="1.6988" gradientUnits="userSpaceOnUse">
					<stop  offset="0" style="stop-color:#DDCFC6"/>
					<stop  offset="1" style="stop-color:#F3F0EB"/>
				</radialGradient>
				<path style="fill:url(#SVGID_00000010293707955218083120000006767025928251144881_);" d="M65.46,71.94
					c0,2.34-0.98,4.37-2.45,5.48c-0.55-0.38-1.47-0.69-2.48-0.69c-1.07,0-1.93,0.32-2.42,0.72c-1.5-1.08-2.51-3.14-2.51-5.51
					c0-3.5,2.21-6.34,4.93-6.34S65.46,68.44,65.46,71.94z"/>
				<path class="st28" d="M65.47,71.94c0,2.06-0.78,4.22-2.45,5.5c-0.72-0.48-1.6-0.68-2.46-0.69c-0.86-0.01-1.77,0.23-2.45,0.72
					c-3.26-2.46-3.36-7.98-0.44-10.73c1.49-1.46,3.95-1.56,5.52-0.17C64.75,67.87,65.47,69.96,65.47,71.94L65.47,71.94z
					 M65.46,71.94c0.04-2.87-1.85-6.37-5.06-6.29c-2.05,0.06-3.65,1.78-4.3,3.62c-1,2.76-0.41,6.34,2.03,8.16
					c1.21-1.01,3.58-0.93,4.87-0.03C64.67,76.14,65.45,73.99,65.46,71.94L65.46,71.94z"/>
			</g>
			<g>
				
					<linearGradient id="SVGID_00000109019595648725952740000007846381473119941285_" gradientUnits="userSpaceOnUse" x1="58.9243" y1="74.6487" x2="63.7114" y2="70.7624">
					<stop  offset="0" style="stop-color:#AECEE3"/>
					<stop  offset="1" style="stop-color:#021A32"/>
				</linearGradient>
				<path style="fill:url(#SVGID_00000109019595648725952740000007846381473119941285_);" d="M58.81,72.85
					c0-1.85,1.04-3.36,2.33-3.36c1.29,0,2.33,1.5,2.33,3.36s-1.04,3.36-2.33,3.36c-0.76,0-1.51-0.62-1.83-1.28
					c-0.06-0.12-0.1-0.24-0.15-0.36C58.94,74.01,58.81,73.47,58.81,72.85z"/>
				<path class="st30" d="M58.8,72.85c-0.1-1.76,1.43-4.35,3.39-3.02c1.75,1.37,1.75,4.67,0.01,6.05c-0.99,0.79-2.35,0.18-2.88-0.85
					C59.01,74.35,58.79,73.61,58.8,72.85L58.8,72.85z M58.81,72.85c0,0.75,0.23,1.49,0.56,2.15c0.52,0.98,1.85,1.57,2.8,0.81
					c1.71-1.35,1.71-4.59,0-5.94C60.24,68.55,58.72,71.11,58.81,72.85L58.81,72.85z"/>
			</g>
			<ellipse class="st31" cx="61.14" cy="72.85" rx="1.74" ry="2.51"/>
			<path class="st32" d="M61.49,71.65c-0.08-0.07-0.15-0.17-0.16-0.28c0-0.03,0-0.06,0.02-0.09c0.01-0.02,0.03-0.02,0.05-0.03
				c0.06-0.01,0.12-0.01,0.17,0c0.06,0,0.12,0,0.17-0.03s0.07-0.1,0.04-0.15c0.22-0.01,0.43,0.18,0.45,0.4
				c0.01,0.1-0.01,0.2,0.02,0.3c0.04,0.09,0.14,0.16,0.15,0.26c0.02,0.16-0.19,0.25-0.22,0.4c-0.01,0.04-0.01,0.08-0.03,0.11
				c-0.16,0.19-0.26-0.33-0.27-0.41C61.87,71.83,61.68,71.82,61.49,71.65z"/>
			<circle class="st35" cx="52.18" cy="79.02" r="1.75"/>
			<path class="st36" d="M56.83,62.37c1.85-1.36,4.98-2.18,7.24-1.69c1.83,0.41,3.03,2.39,2.94,4.14c0,0-0.06,0.01-0.06,0.01
				c-0.32-1.72-1.56-3.41-3.39-3.61c-2.28-0.14-4.6,0.33-6.7,1.22C56.86,62.43,56.83,62.37,56.83,62.37L56.83,62.37z"/>
			<path class="st36" d="M50.2,63c-2.08-0.58-4.17-1.15-6.3-1.28c-0.48-0.01-1-0.05-1.46,0.07c-1.53,0.32-2.44,1.58-3.1,3.04
				c0,0-0.06-0.01-0.06-0.01c0.43-2.36,2.19-4.05,4.67-3.74c2.2,0.17,4.33,0.88,6.29,1.87C50.23,62.94,50.2,63,50.2,63L50.2,63z"/>
			<path d="M26.84,78.94c1.03,0.11,2.9,0.24,3-1.16c-0.16-0.44-0.6-1.05-1.07-1.36c-0.24-0.15-0.57-0.39-0.32-0.7
				c0.42-0.44,0.67-0.96,0.51-1.58c-0.43-2.19-3.29-3.97-5.46-3.78c0,0-0.01-0.03-0.01-0.03c0.97-0.27,2.01,0.02,2.9,0.43
				c1.35,0.61,2.61,1.8,2.83,3.34c0.14,0.66-0.13,1.3-0.6,1.75c-0.06,0.09-0.07,0.12-0.01,0.19c0.13,0.14,0.38,0.28,0.56,0.45
				c0.37,0.35,0.66,0.78,0.82,1.27c-0.01,0.33-0.15,0.67-0.42,0.88c-0.78,0.57-1.84,0.45-2.75,0.33
				C26.84,78.98,26.84,78.94,26.84,78.94L26.84,78.94z"/>
			<path d="M78.08,78.98c-1.09,0.18-3.05,0.31-3.17-1.19c0.19-0.62,0.6-1.16,1.12-1.54c0.1-0.09,0.32-0.19,0.29-0.32
				c-0.2-0.27-0.59-0.66-0.64-1.06c-0.09-0.44-0.02-0.89,0.11-1.29c0.25-0.79,0.58-1.57,1.12-2.24c0.5-0.7,1.46-1.05,2.27-0.73
				c0,0-0.01,0.03-0.01,0.03c-0.82-0.17-1.59,0.19-2.05,0.87c-0.46,0.64-0.75,1.41-1.02,2.17c-0.13,0.37-0.21,0.76-0.14,1.13
				c0.05,0.28,0.2,0.53,0.39,0.74c0.1,0.11,0.29,0.33,0.19,0.52c-0.03,0.08-0.08,0.11-0.12,0.16c-0.59,0.39-1.11,0.89-1.34,1.57
				C75.16,79.18,77.08,79,78.08,78.98L78.08,78.98z"/>
			<g>
				<path class="st37" d="M93.74,59.84c-0.71,1.04-1.96,1.67-2.59,2.72c-0.11,0.17-0.19,0.36-0.26,0.56
					c-0.05,0.15-0.08,0.31-0.1,0.47c-0.06,0.42-0.07,0.86-0.15,1.28c-0.02,0.09-0.04,0.18-0.07,0.26c-0.38,1.29-1.56,1.91-2.9,2.12
					c-0.54,0.09-1.11,0.1-1.65,0.07c-0.21-0.01-0.42-0.03-0.63-0.06c-0.06,0-0.11-0.01-0.17-0.02c-0.01,0-0.01,0-0.02,0
					c-1.74-0.27-3.76-0.6-5.2,0.26c-0.27,0.16-0.52,0.36-0.75,0.62c-0.07,0.08-0.14,0.16-0.2,0.25v0c-0.43,0.6-0.65,1.33-0.86,2.08
					c-0.02,0.05-0.03,0.11-0.05,0.16c-0.07,0.23-0.13,0.47-0.2,0.7c-0.09,0.48-0.19,0.77-0.31,0.81c-0.11,0.19-0.28,0.48-0.47,0.72
					c-0.01,0.01-0.01,0.02-0.02,0.03c-0.2,0.09-0.44,0.57-0.69,0.57c-0.04,0.04-0.07,0.08-0.11,0.11c-0.12,0.11-0.25,0.17-0.38,0.2
					c-0.02,0.01-0.05,0.01-0.07,0.01c-0.07,0.01-0.14,0.01-0.22,0.01c-0.17,0.05-0.33,0-0.49-0.03c-0.07-0.01-0.14-0.01-0.21,0
					c-0.02,0-0.04,0.01-0.05,0.02c-0.04-0.02-0.09-0.05-0.13-0.07c-0.01,0-0.02,0-0.03-0.01c-0.18-0.05-0.34-0.06-0.47-0.37
					c-0.13-0.19-0.23-0.43-0.29-0.57c-0.05-0.21-0.08-0.43-0.11-0.66c-0.01-0.23-0.01-0.46-0.01-0.68
					c-0.01-3.68-0.77-7.36-2.22-10.71c-0.03-0.07-0.06-0.13-0.09-0.2c-0.72-1.65-1.59-3.32-1.51-5.12c0.01-0.26,0.04-0.52,0.06-0.79
					c0.02-0.14,0.03-0.27,0.05-0.41v0c0.06-0.56,0.09-1.11-0.1-1.6v-0.01c-0.05-0.12-0.11-0.24-0.18-0.35
					c-0.7-1.09-2.4-0.93-3.35-0.04c-0.31,0.29-0.56,0.63-0.78,1c-0.45,0.75-0.75,1.62-1.1,2.43c-0.51,1.2-1.27,2.46-2.49,2.83
					c-0.82,0.25-1.73,0.05-2.58,0.24c-0.26,0.06-0.5,0.14-0.73,0.25h-0.01c-0.82,0.4-1.52,1.07-2.29,1.62
					c-0.97,0.69-2.32,1.16-3.3,0.46c-0.57-0.4-0.92-1.16-1.59-1.33c-0.73-0.18-1.45,0.44-1.79,1.14c-0.27,0.55-0.41,1.17-0.67,1.72
					c-0.07,0.15-0.14,0.29-0.23,0.43c-0.54,0.84-1.48,1.31-2.45,1.38c-0.26,0.02-0.53,0.01-0.79-0.03h0
					c-0.22-0.03-0.44-0.09-0.65-0.16c-0.5-0.18-0.96-0.46-1.36-0.81c-0.26-0.22-0.5-0.47-0.71-0.73c-0.33-0.4-0.61-0.85-0.84-1.32
					c-0.02-0.03-0.03-0.06-0.05-0.1c-0.02-0.05-0.05-0.1-0.07-0.14c-0.19-0.4-0.46-0.89-0.88-0.82c-0.13,0.01-0.25,0.09-0.36,0.16
					c-0.08,0.05-0.15,0.09-0.23,0.13c-0.9,0.48-1.93,0.63-2.93,0.49c-0.67-0.09-1.33-0.31-1.92-0.64c-0.54-0.3-1.03-0.71-1.43-1.2
					c-0.11-0.14-0.22-0.28-0.31-0.43c-0.71,0.04-1.35,0.34-1.89,0.81c-0.16,0.14-0.31,0.29-0.45,0.45c0,0,0,0-0.01,0.01
					c-0.3,0.36-0.56,0.78-0.75,1.22c0,0.01-0.01,0.01-0.01,0.01c-0.08,0.18-0.15,0.37-0.2,0.56c-0.09,0.27-0.15,0.54-0.19,0.82
					c-0.02,0.13-0.03,0.27-0.04,0.41v0c-0.13,1.69,0.36,3.37,0.86,5c0.02,0.08,0.05,0.15,0.07,0.23c-0.31,0.09-0.62,0.16-0.95,0.23
					c-0.56,0.11-1.13,0.17-1.7,0.19c-0.07,0.01-0.13,0.01-0.19,0.01c-0.32,0.01-0.63,0-0.95-0.02c-0.49-0.04-0.98-0.11-1.46-0.21
					c-0.36-0.08-0.71-0.17-1.06-0.28c-0.38-0.12-0.75-0.27-1.12-0.43c-0.35-0.16-0.72-0.34-1.09-0.47c-0.01,0-0.01,0-0.01,0
					c-0.22-0.08-0.45-0.13-0.68-0.13c-0.58-0.01-1.15,0.24-1.74,0.28c-0.15,0.01-0.3,0-0.45-0.03c-0.42-0.09-0.8-0.34-0.89-0.75
					c0,0,0,0,0,0s0,0,0,0c-0.01-0.02-0.01-0.05-0.01-0.07l0.01,0l0.72,0.12c-0.24-0.11-0.46-0.29-0.63-0.51
					c-0.04-0.05-0.08-0.1-0.11-0.15c-0.21-0.32-0.36-0.69-0.42-1.06c-0.05-0.29-0.07-0.59-0.07-0.88c-0.01-0.57,0.04-1.16-0.02-1.73
					c-0.01-0.08-0.02-0.16-0.03-0.24c-0.03-0.21-0.08-0.42-0.13-0.63c-0.71-2.54-3.25-4.81-2.23-7.19c0.23-0.52,0.61-0.97,0.66-1.54
					c0.04-0.43-0.12-0.85-0.31-1.24c-0.76-1.61-1.81-3.07-2.38-4.78c-0.56-1.69-0.53-3.78,0.68-5.05c0.43-0.44,0.98-0.76,1.4-1.21
					c1.33-1.4,1.17-3.63,1.28-5.6c0.11-1.96,1.07-4.33,2.97-4.39c0.5-0.01,1.04,0.15,1.51-0.06c1.11-0.5,0.63-2.22,0.93-3.44
					c0.44-1.84,2.7-2.42,4.52-2.33c0.83,0.04,1.71,0.14,2.56,0.11c0.26,0,0.51-0.02,0.76-0.06c0.72-0.1,1.4-0.33,1.97-0.81
					c0.97-0.82,1.38-2.15,1.88-3.37c0.2-0.49,0.41-0.96,0.68-1.38c0.26-0.4,0.57-0.76,0.97-1.02c0.53-0.37,1.17-0.53,1.79-0.68
					c0.23-0.06,0.46-0.11,0.68-0.17c2.04-0.51,4.07-1.02,6.11-1.54c1.09-0.27,2.22-0.55,3.33-0.36c0.3,0.05,0.6,0.14,0.88,0.28
					c0.76,0.36,1.39,1,1.55,1.82c0.1,0.47,0.05,0.99,0.28,1.4c0.26,0.44,0.77,0.65,1.25,0.77c1.46,0.37,3.02,0.31,4.45-0.18
					c1.58-0.55,3.67-1.46,4.63-0.04c0.2,0.29,0.3,0.65,0.45,0.98c0.81,1.8,2.94,2.53,4.86,2.49c1.91-0.03,3.78-0.65,5.69-0.7
					c0.12,0,0.24,0,0.36,0c0.32,0.02,0.64,0.09,0.89,0.3c0.42,0.34,0.51,0.94,0.71,1.46c0.28,0.73,0.8,1.3,1.43,1.73
					c0.77,0.51,1.71,0.8,2.62,0.88c1.68,0.14,3.35-0.24,5.02-0.28c0.36-0.01,0.81,0.03,0.99,0.37c0.19,0.37-0.05,0.8-0.16,1.2
					c-0.36,1.31,0.86,2.6,2.16,2.88c1.29,0.27,2.61-0.11,3.93-0.25c1.31-0.14,2.82,0.08,3.59,1.18c1,1.42,0.26,3.43,0.61,5.15
					c0.45,2.2,2.63,3.69,3.01,5.9c0.54,3.11-2.65,5.59-3.21,8.71C93.69,54.23,95.35,57.5,93.74,59.84z"/>
				<g>
					<path d="M93.57,59.74c-0.84,1.2-2.4,1.86-2.87,3.33c-0.25,0.78-0.1,1.64-0.47,2.39c-0.31,0.64-0.89,1.07-1.54,1.32
						c-1.53,0.59-3.13,0.28-4.7,0.08c-1.48-0.19-3.18-0.27-4.44,0.69c-1.2,0.92-1.53,2.57-1.88,3.98c-0.13,0.53-0.56,1-0.91,1.38
						c-0.13,0.14-0.22,0.22-0.37,0.32c-0.13,0.08-0.24,0.22-0.39,0.28c-0.29,0.11-0.76,0.06-1.05,0.02c-0.1-0.01,0.1,0.02-0.02-0.01
						c-0.03-0.01-0.08-0.03-0.11-0.05c-0.17-0.08-0.23-0.1-0.35-0.28c-0.26-0.39-0.35-0.8-0.37-1.27c-0.04-0.9-0.02-1.79-0.1-2.69
						c-0.15-1.8-0.47-3.58-0.96-5.32c-0.48-1.68-1.17-3.26-1.86-4.86c-0.37-0.86-0.72-1.76-0.85-2.7c-0.12-0.85,0.02-1.67,0.09-2.52
						c0.05-0.69-0.02-1.42-0.49-1.96c-0.36-0.43-0.9-0.63-1.45-0.66c-1.45-0.06-2.48,1-3.1,2.2c-0.73,1.41-1.07,3.11-2.29,4.21
						c-0.7,0.63-1.52,0.69-2.42,0.7c-0.71,0.01-1.39,0.11-2.03,0.43c-1.43,0.74-2.56,2.41-4.33,2.34c-0.88-0.04-1.26-0.69-1.84-1.23
						c-0.44-0.41-0.99-0.6-1.57-0.37c-1.55,0.62-1.36,2.58-2.35,3.67c-1.25,1.37-3.36,1.09-4.67-0.02c-0.67-0.57-1.18-1.31-1.57-2.1
						c-0.23-0.47-0.54-1.16-1.18-1.06c-0.33,0.05-0.61,0.3-0.91,0.44c-0.47,0.21-0.98,0.33-1.49,0.37c-0.93,0.07-1.87-0.12-2.7-0.55
						c-0.76-0.39-1.39-0.95-1.86-1.66c-0.04-0.06-0.1-0.11-0.18-0.1c-1.86,0.16-3.13,1.78-3.58,3.49c-0.55,2.09,0.17,4.31,0.79,6.3
						c0.05-0.08,0.1-0.17,0.14-0.25c-2.2,0.61-4.54,0.55-6.69-0.26c-0.92-0.35-1.8-0.96-2.82-0.84c-0.55,0.07-1.09,0.31-1.65,0.25
						c-0.26-0.03-0.54-0.12-0.72-0.33c-0.1-0.11-0.09-0.19-0.15-0.3c-0.02-0.04-0.03-0.13-0.02-0.08c-0.08,0.08-0.17,0.17-0.25,0.25
						c0.23,0.08,0.49,0.09,0.73,0.13c0.21,0.04,0.38-0.26,0.16-0.38c-1.59-0.78-1-2.93-1.17-4.33c-0.16-1.27-0.83-2.41-1.44-3.51
						c-0.58-1.04-1.27-2.2-1.17-3.44c0.06-0.69,0.45-1.2,0.71-1.81c0.25-0.59,0.2-1.16-0.04-1.74c-1.1-2.55-3.23-4.89-2.76-7.86
						c0.1-0.65,0.34-1.28,0.75-1.8c0.44-0.54,1.08-0.88,1.55-1.39c0.83-0.88,1.11-2.07,1.22-3.24c0.12-1.25,0.02-2.54,0.31-3.77
						c0.25-1.04,0.76-2.24,1.78-2.73c0.97-0.47,2.36,0.31,3.01-0.83c0.51-0.9,0.19-2.05,0.42-3.01c0.28-1.14,1.34-1.75,2.41-2.01
						c1.33-0.32,2.66-0.07,4-0.05c1.34,0.02,2.72-0.21,3.67-1.24c0.9-0.98,1.24-2.31,1.76-3.5c0.28-0.63,0.62-1.27,1.15-1.73
						c0.59-0.52,1.34-0.7,2.08-0.89c1.6-0.4,3.2-0.8,4.8-1.21c0.8-0.2,1.6-0.41,2.4-0.6c0.81-0.19,1.65-0.36,2.49-0.28
						c0.77,0.08,1.54,0.41,2.05,1c0.51,0.57,0.49,1.2,0.62,1.91c0.25,1.27,1.71,1.51,2.79,1.61c1.46,0.13,2.77-0.2,4.13-0.68
						c0.97-0.34,2.45-0.92,3.34-0.13c0.48,0.43,0.58,1.12,0.91,1.66c0.28,0.46,0.66,0.84,1.1,1.16c2.21,1.59,4.99,0.94,7.46,0.54
						c0.78-0.13,1.63-0.28,2.42-0.19c0.91,0.1,1.02,0.89,1.29,1.6c0.44,1.15,1.44,1.95,2.57,2.38c1.42,0.55,2.95,0.44,4.43,0.29
						c0.79-0.08,1.58-0.2,2.38-0.19c0.41,0,0.81,0.12,0.74,0.63c-0.05,0.33-0.22,0.63-0.26,0.97c-0.14,1.13,0.72,2.15,1.69,2.61
						c1.33,0.63,2.85,0.24,4.23,0.04c1.22-0.17,2.73-0.18,3.65,0.8c0.99,1.06,0.68,2.67,0.67,3.98c-0.01,1.24,0.33,2.31,0.99,3.35
						c0.66,1.04,1.51,1.99,1.94,3.16c0.9,2.46-0.88,4.66-1.99,6.71c-0.57,1.04-1.01,2.13-1.11,3.33c-0.11,1.32,0.15,2.64,0.27,3.95
						C94.32,57.29,94.31,58.62,93.57,59.74c-0.15,0.22,0.21,0.43,0.35,0.21c1.53-2.31,0.25-5.22,0.41-7.76
						c0.16-2.59,2.09-4.51,2.98-6.84c0.41-1.07,0.52-2.22,0.15-3.32c-0.4-1.18-1.21-2.14-1.89-3.17c-0.35-0.53-0.67-1.09-0.86-1.7
						c-0.2-0.67-0.21-1.36-0.19-2.05c0.04-1.24,0.18-2.63-0.63-3.68c-0.73-0.94-1.96-1.22-3.1-1.21c-1.54,0.03-3.16,0.71-4.69,0.23
						c-0.66-0.21-1.28-0.67-1.61-1.29c-0.16-0.28-0.25-0.61-0.23-0.93c0.02-0.38,0.21-0.72,0.27-1.1c0.22-1.5-1.99-1.05-2.82-0.97
						c-1.58,0.16-3.22,0.41-4.76-0.1c-0.73-0.24-1.42-0.63-1.94-1.2c-0.49-0.54-0.64-1.18-0.9-1.84c-0.56-1.37-2.11-1.1-3.31-0.93
						c-1.56,0.22-3.12,0.64-4.7,0.57c-1.23-0.05-2.53-0.43-3.44-1.29c-0.48-0.46-0.73-0.99-0.98-1.59c-0.21-0.5-0.53-0.93-1.04-1.15
						c-1.01-0.44-2.23-0.02-3.2,0.32c-0.65,0.22-1.28,0.47-1.96,0.59c-0.82,0.15-1.68,0.17-2.51,0.05c-0.68-0.1-1.68-0.25-1.94-1.01
						c-0.21-0.61-0.11-1.24-0.42-1.82c-0.64-1.2-2.06-1.7-3.35-1.66c-0.8,0.03-1.58,0.22-2.35,0.41c-0.83,0.21-1.66,0.42-2.49,0.63
						c-1.62,0.41-3.24,0.78-4.85,1.22c-0.63,0.17-1.23,0.42-1.72,0.86c-0.51,0.45-0.87,1.07-1.15,1.68
						c-0.56,1.23-0.89,2.7-1.89,3.68c-1.22,1.19-3.06,1.02-4.62,0.91c-1.19-0.08-2.38-0.08-3.5,0.38c-0.92,0.38-1.69,1.06-1.93,2.05
						c-0.13,0.55-0.12,1.12-0.14,1.67c-0.02,0.51-0.04,1.17-0.48,1.52c-0.53,0.43-1.36,0.09-1.98,0.19
						c-0.47,0.08-0.89,0.31-1.24,0.62c-0.81,0.73-1.24,1.85-1.44,2.89c-0.24,1.23-0.14,2.5-0.28,3.74c-0.08,0.69-0.22,1.4-0.55,2.02
						c-0.35,0.65-0.88,1.07-1.45,1.53c-2.15,1.73-1.75,4.69-0.7,6.92c0.33,0.7,0.71,1.36,1.08,2.04c0.37,0.66,0.82,1.35,1.03,2.08
						c0.23,0.81-0.29,1.37-0.59,2.07c-0.23,0.54-0.29,1.12-0.21,1.69c0.16,1.18,0.81,2.24,1.38,3.27c0.34,0.61,0.67,1.22,0.91,1.87
						c0.27,0.75,0.34,1.5,0.33,2.3c-0.02,1.27,0.02,2.84,1.33,3.49c0.05-0.13,0.11-0.25,0.16-0.38c-0.23-0.04-0.5-0.05-0.73-0.13
						c-0.16-0.05-0.28,0.11-0.25,0.25c0.01,0.04,0.11,0.26,0.04,0.09c-0.07-0.17,0.01,0.09,0.03,0.14c0.08,0.19,0.21,0.34,0.37,0.46
						c0.37,0.28,0.84,0.35,1.3,0.3c0.64-0.08,1.27-0.36,1.92-0.22c0.58,0.13,1.1,0.44,1.65,0.66c2.3,0.96,4.86,1.07,7.25,0.4
						c0.1-0.03,0.18-0.15,0.14-0.25c-0.56-1.81-1.19-3.75-0.87-5.67c0.28-1.66,1.46-3.45,3.27-3.6c-0.06-0.03-0.12-0.07-0.18-0.1
						c0.89,1.36,2.37,2.22,3.98,2.39c0.83,0.09,1.68-0.02,2.45-0.33c0.33-0.13,0.92-0.62,1.24-0.37c0.28,0.23,0.41,0.68,0.58,0.99
						c0.74,1.42,2.02,2.76,3.68,3c1.39,0.2,2.87-0.39,3.55-1.66c0.4-0.75,0.5-1.66,1.02-2.34c0.25-0.32,0.6-0.63,1.02-0.66
						c0.45-0.04,0.78,0.28,1.07,0.59c0.46,0.5,0.89,0.96,1.6,1.08c0.69,0.11,1.39-0.09,2-0.4c0.76-0.38,1.38-0.99,2.07-1.48
						c0.7-0.51,1.39-0.82,2.27-0.85c0.81-0.03,1.62,0.03,2.36-0.36c0.6-0.31,1.07-0.84,1.44-1.4c0.94-1.43,1.19-3.3,2.39-4.56
						c0.96-1.01,3.04-1.25,3.42,0.43c0.19,0.85-0.09,1.77-0.1,2.63c-0.01,0.89,0.19,1.76,0.49,2.59c0.61,1.71,1.47,3.32,2.03,5.06
						c0.58,1.8,0.97,3.67,1.16,5.55c0.1,0.94,0.13,1.87,0.14,2.82c0,0.74,0.07,1.48,0.56,2.09c0.29,0.36,0.91,0.37,1.32,0.38
						c0.57,0,1.06-0.29,1.44-0.7c0.18-0.19,0.35-0.35,0.5-0.56c0.15-0.22,0.35-0.46,0.46-0.7c0.15-0.31,0.19-0.68,0.28-1.01
						c0.13-0.45,0.25-0.9,0.4-1.34c0.14-0.42,0.33-0.84,0.59-1.2c0.02-0.03,0.01-0.08,0.03-0.1c-0.08,0.11,0.06-0.02,0.07-0.03
						c0.17-0.19,0.34-0.37,0.55-0.52c0.7-0.5,1.57-0.66,2.41-0.67c1.66-0.02,3.28,0.51,4.94,0.36c1.28-0.11,2.7-0.58,3.33-1.8
						c0.38-0.73,0.3-1.53,0.47-2.31c0.17-0.8,0.75-1.38,1.34-1.9c0.55-0.49,1.12-0.96,1.55-1.57
						C94.07,59.73,93.72,59.52,93.57,59.74z"/>
				</g>
			</g>
			<path d="M86.2,68.24c0.03,0,0.01,0.01,0.01,0.03c0.06,0.55,0.1,1.11,0.09,1.66c-0.02,1.74-0.7,3.39-1.45,4.93
				c-1.04,2.07-3.07,3.59-5.28,4.19c0,0-0.01-0.03-0.01-0.03c2.52-1.21,4.9-3.08,5.9-5.77c0.42-1.35,0.56-2.77,0.67-4.18
				c0.02-0.23,0.02-0.61,0.06-0.83c0,0,0-0.04,0.04-0.02L86.2,68.24L86.2,68.24z"/>
			<path d="M20.02,68.69c0.09,1.53,0.18,3.04,0.47,4.54c0.66,2.44,2.32,4.56,4.54,5.78c0,0-0.01,0.03-0.01,0.03
				c-2.65-0.81-4.04-3.23-4.63-5.78C19.94,71.82,19.65,70.12,20.02,68.69L20.02,68.69z"/>
			<path d="M55.36,32.71c-0.37-0.82-0.22-2.11,0.78-2.43c0.48-0.15,0.94-0.04,1.35,0.01c0.22,0.04,0.41,0.02,0.65,0.08
				c0.25,0.06,0.41,0.33,0.49,0.54c0.38,0.91,0.86,2.72-0.24,3.31c-0.31,0.14-0.7,0.03-0.9-0.22c-0.36-0.42-0.23-0.97-0.01-1.38
				c0,0,0.06,0.01,0.06,0.01c0.02,0.36,0.01,0.8,0.31,1c0.26,0.15,0.34-0.05,0.43-0.3c0.18-0.75,0.06-1.55-0.01-2.32
				c-0.03-0.2-0.07-0.37-0.22-0.43c-0.88-0.24-2.02,0.04-2.37,0.94c-0.14,0.34-0.19,0.75-0.28,1.18L55.36,32.71L55.36,32.71z"/>
			<path d="M29.65,36.49c-2.91-0.94-4.97-4.08-1.08-5.45c0.91-0.32,2.16-0.71,3.03,0.03c0.6,0.51,0.69,1.33,0.65,2.03
				c-0.04,0.39,0,1.03-0.52,1.1c-0.84,0.03-1.45-0.63-1.49-1.3l0.06-0.01c0.22,0.59,0.88,0.9,1.33,0.81c0.03-0.02-0.03,0.01-0.02,0
				c0.01-0.47,0.01-1.03-0.11-1.47c-0.3-1.32-1.78-0.99-2.84-0.85c-0.86,0.1-1.91,0.66-1.86,1.64c0.11,0.9,0.83,1.51,1.44,2.17
				c0.44,0.44,0.93,0.83,1.43,1.23L29.65,36.49L29.65,36.49z"/>
			<path d="M39.96,43.81c-0.42-0.92-0.51-2.23,0.35-2.96c1.26-1.08,3.59-0.55,3.8,1.24c0.2,1.79-1.67,1.98-2.4,0.58
				c-0.26-0.46-0.31-1.21,0.19-1.52c0,0,0.05,0.05,0.05,0.05c-0.35,0.59,0.15,1.3,0.67,1.58c0.3,0.14,0.6,0.24,0.77-0.09
				c0.26-0.57,0.06-1.23-0.35-1.72c-1.09-1.24-2.68,0.13-2.88,1.4c-0.09,0.44-0.08,0.93-0.13,1.43L39.96,43.81L39.96,43.81z"/>
			<path d="M84.05,45.78c0.49-0.89,1.48-1.74,2.59-1.49c1.62,0.36,2.58,2.55,1.28,3.79c-1.31,1.23-2.58-0.15-1.9-1.58
				c0.12-0.25,0.3-0.48,0.54-0.64c0.23-0.16,0.55-0.22,0.79-0.12l-0.01,0.06c-0.68,0.08-0.95,0.9-0.87,1.48
				c0.07,0.32,0.17,0.62,0.53,0.56c0.61-0.13,1.02-0.68,1.17-1.31c0.34-1.61-1.71-2.07-2.85-1.47c-0.41,0.19-0.79,0.49-1.22,0.75
				L84.05,45.78L84.05,45.78z"/>
			<path d="M30.24,47.74c-1-0.17-2.14-0.83-2.26-1.95c-0.19-1.65,1.55-3.28,3.16-2.46c1.6,0.83,0.71,2.49-0.86,2.32
				c-0.53-0.05-1.17-0.42-1.15-1.01c0,0,0.06-0.01,0.06-0.01c0.3,0.62,1.16,0.6,1.68,0.33c0.28-0.17,0.53-0.36,0.36-0.68
				c-0.32-0.53-0.98-0.74-1.62-0.68c-1.63,0.21-1.39,2.29-0.45,3.17c0.31,0.32,0.72,0.58,1.11,0.91L30.24,47.74L30.24,47.74z"/>
			<g>
				<path d="M75.94,67.33c-0.31,0-0.59-0.23-0.73-0.61c-0.2-0.54-0.16-1.11-0.12-1.65c0.01-0.14,0.02-0.28,0.03-0.42
					c0.07-1.86-0.8-3.73-2.28-4.87l0.4-0.52c1.64,1.27,2.61,3.34,2.53,5.42c-0.01,0.15-0.02,0.3-0.03,0.45
					c-0.04,0.49-0.07,0.96,0.08,1.37c0.03,0.08,0.07,0.14,0.1,0.17c0.04-0.1,0.04-0.33,0.04-0.44l0-0.05
					c0.01-0.63,0.37-1.27,0.95-1.67c0.47-0.33,1.08-0.51,1.77-0.53c0.28-0.01,0.63,0.01,0.91,0.24c0.51,0.42,0.37,1.15,0.31,1.47
					l-0.04,0.19l-0.18,0.06c-0.38,0.13-0.82,0.05-1.15-0.19l0.39-0.53c0.1,0.08,0.23,0.12,0.36,0.12c0.03-0.24,0.02-0.5-0.12-0.61
					c-0.11-0.09-0.32-0.1-0.47-0.09c-0.56,0.02-1.05,0.16-1.41,0.41c-0.4,0.28-0.66,0.72-0.66,1.14l0,0.05
					c0,0.35-0.01,1.01-0.59,1.1C76,67.33,75.97,67.33,75.94,67.33z"/>
			</g>
			<path d="M87.75,64.17c-0.4,0.01-0.62-0.45-0.72-0.77c-0.37-1.01-0.4-2.36,0.52-3.12c0.3-0.26,0.71-0.4,1.1-0.39
				c0.65,0.03,1.42,0.35,1.73-0.4c0.43-0.86,0.15-1.99-0.45-2.66c-0.31-0.38-0.93-0.71-1.33-0.39c-0.38,0.32-0.35,0.93,0.07,1.26
				c0.29,0.3,1.24,0.53,1.18-0.11c0,0,0.09,0.06,0.09,0.06c-0.22-0.06-0.43-0.12-0.65-0.19l0.01-0.06c0.24,0,0.48,0.01,0.72,0.01
				c0.18,0.2,0.16,0.5,0.02,0.71c-0.75,0.87-2.32,0.04-2.37-1.02c-0.11-0.99,0.9-1.77,1.8-1.36c1.11,0.44,1.61,1.75,1.44,2.83
				c-0.12,0.68-0.4,1.57-1.2,1.65c-0.36,0.05-0.72,0.03-1.02,0.07c-0.92,0.18-1.37,1.17-1.37,2.04c0,0.46,0.02,0.99,0.16,1.45
				c0.05,0.14,0.14,0.27,0.3,0.32L87.75,64.17L87.75,64.17z"/>
			<path d="M43.55,56.91c0.35,1.07,0.67,2.11,1,3.18c0.15,0.51,0.24,1.08,0.68,1.41c1.68,0.97,1.79-2.5,2.06-3.48
				c0.17-0.74,0.83-3.19,1.93-2.54c0,0-0.03,0.06-0.03,0.06c-0.13-0.04-0.25-0.01-0.36,0.04c-0.32,0.21-0.38,0.62-0.51,0.99
				c-0.15,0.52-0.25,1.05-0.35,1.6c-0.24,1.09-0.41,2.35-1.19,3.23c-1.09,1.19-2.31,0.01-2.75-1.11c-0.45-1.05-0.65-2.22-0.55-3.36
				C43.49,56.92,43.55,56.91,43.55,56.91L43.55,56.91z"/>
			<path d="M64.25,51.7c0.52-1.11,1.27-2.16,2.33-2.82c1.35-0.69,3.09-1.09,4.55-0.49c1,0.41,1.16,1.77,1.09,2.63
				c-0.05,0.79-0.03,1.75,0.83,1.88c0.24,0.01,0.52-0.11,0.63-0.38l0.06,0.01c0,0.34-0.31,0.63-0.66,0.7
				c-0.77,0.16-1.38-0.6-1.49-1.27c-0.19-0.84,0.08-1.85-0.24-2.57c-0.48-0.92-1.96-1.25-2.96-0.93c-1.13,0.38-1.95,1.24-2.81,2.01
				c-0.42,0.41-0.83,0.85-1.28,1.26L64.25,51.7L64.25,51.7z"/>
			<path d="M55.59,42.84c-0.36-1.41,0.75-2.9,1.75-3.8c0.88-0.73,2.12-0.68,3.17-0.45c0.82,0.17,1.32,0.73,1.39,1.57
				c0.19,1.08,0.31,2.18-0.13,3.26c-0.24,0.69-1.1,1.32-1.72,0.6c-0.59-0.7-1.18-1.62-0.9-2.58c0,0,0.04-0.13,0.04-0.13
				c0.34,0.04,0.69,0.07,1.03,0.12l0,0.07c-0.31,0.05-0.61,0.08-0.92,0.13l0.15-0.12c-0.06,0.8,0.54,1.51,1.08,2.06
				c0.11,0.1,0.14,0.1,0.18,0.09c0.04-0.01,0.14-0.07,0.22-0.16c0.66-0.91,0.55-2.18,0.53-3.29c-0.01-0.35-0.01-0.67-0.19-0.91
				c-0.17-0.26-0.48-0.43-0.8-0.51c-0.96-0.27-2.05-0.02-2.75,0.69c-0.88,0.92-1.94,2-2.05,3.35
				C55.65,42.83,55.59,42.84,55.59,42.84L55.59,42.84z"/>
			<path d="M38.66,25.91c-0.36-1.41,0.75-2.9,1.75-3.8c0.88-0.73,2.12-0.68,3.17-0.45c0.82,0.17,1.32,0.73,1.39,1.57
				c0.19,1.08,0.31,2.18-0.13,3.26c-0.24,0.69-1.1,1.32-1.72,0.6c-0.59-0.7-1.18-1.62-0.9-2.58l0.04-0.13
				c0.34,0.04,0.69,0.07,1.03,0.12l0,0.07c-0.31,0.05-0.61,0.08-0.92,0.13l0.15-0.12c-0.06,0.8,0.54,1.51,1.08,2.06
				c0.11,0.1,0.14,0.1,0.18,0.09c0.04-0.01,0.14-0.07,0.22-0.16c0.66-0.91,0.55-2.18,0.53-3.29c-0.01-0.35-0.01-0.67-0.19-0.91
				c-0.17-0.26-0.48-0.43-0.8-0.51c-0.96-0.27-2.05-0.02-2.75,0.69c-0.88,0.92-1.94,2-2.05,3.35C38.72,25.9,38.66,25.91,38.66,25.91
				L38.66,25.91z"/>
			<path d="M24.09,60.56c-1.45-0.06-2.56-1.56-3.13-2.77c-0.44-1.06-0.04-2.22,0.48-3.17c0.4-0.74,1.08-1.05,1.91-0.88
				c1.09,0.13,2.18,0.34,3.08,1.07c0.59,0.43,0.94,1.44,0.07,1.82c-0.84,0.36-1.89,0.66-2.73,0.12l-0.12-0.08
				c0.14-0.32,0.26-0.64,0.41-0.95l0.06,0.02c-0.04,0.31-0.1,0.61-0.15,0.92l-0.07-0.17c0.75,0.29,1.6-0.08,2.29-0.44
				c0.13-0.07,0.13-0.1,0.14-0.14c0.01-0.04-0.03-0.15-0.09-0.26c-0.68-0.89-1.93-1.16-2.99-1.46c-0.34-0.1-0.64-0.18-0.93-0.08
				c-0.29,0.09-0.55,0.34-0.72,0.62c-0.53,0.84-0.61,1.95-0.13,2.84c0.62,1.11,1.35,2.43,2.62,2.93
				C24.1,60.49,24.09,60.56,24.09,60.56L24.09,60.56z"/>
			<path d="M73.72,31.69c1.27-0.5,3.2-0.52,3.88,0.93c0.33,0.68,0.33,1.39,0.41,2.06c0.08,0.83,0.22,2.02-0.68,2.49
				c-0.87,0.38-1.93,0.3-2.71-0.28c-0.64-0.5-0.97-1.42-0.63-2.2c0.05-0.13,0.16-0.3,0.31-0.36c0.28-0.11,0.62-0.02,0.89-0.02
				c1.18,0,1.17,0.56,1.09,1.54c0,0-0.06,0.01-0.06,0.01c-0.12-0.3-0.09-0.67-0.28-0.92c-0.19-0.26-0.46-0.11-0.75-0.12
				c0,0-0.51,0.03-0.51,0.03c-0.09,0-0.14,0.02-0.12,0.02c0.05-0.02,0.03-0.03,0.02,0.04c-0.24,0.82,0.4,1.64,1.23,1.83
				c0.51,0.1,1.3,0.19,1.69-0.2c0.86-1.07,0.07-3.58-0.97-4.3c-0.82-0.55-1.8-0.47-2.79-0.5L73.72,31.69L73.72,31.69z"/>
		</g>
	</g>
	<g>
		<path class="st16" d="M53.24,94.54c-6.01,0-10.24-1.31-10.49-1.39l0-1.04c0.09,0.03,8.75,2.15,19.27,0.33l0.42,1.03
			C59.14,94.26,56,94.54,53.24,94.54z"/>
	</g>
	<path class="st20" d="M50.11,85.1c0.23,0.12,0.47,0.22,0.72,0.31l0.03,0.01l-0.15,0.36l-0.02,0.05l-0.05,0.14
		c-0.15,0.45-0.23,0.84-0.23,0.84C50.17,86.27,50.11,85.63,50.11,85.1z"/>
	<path class="st20" d="M54.97,85.07c-0.21,0.14-0.44,0.27-0.68,0.39l-0.03,0.02l0.19,0.34l0.02,0.04l0.07,0.13
		c0.2,0.43,0.33,0.81,0.33,0.81C55.04,86.24,55.03,85.6,54.97,85.07z"/>
	<path class="st38" d="M47.44,83.54c1.13-0.44,1.78,0.87,2.63,1.34c0.85,0.53,1.88,0.69,2.89,0.7c0.5,0.01,0.98-0.08,1.4-0.33
		c0.91-0.47,1.46-1.5,2.5-1.8c0.47-0.07,0.91-0.07,1.37-0.03c0.06,0.01,0.14,0.01,0.18,0.06c-0.04-0.04-0.12-0.03-0.18-0.04
		c-0.44,0.01-0.91,0.06-1.33,0.16c-0.97,0.36-1.46,1.42-2.39,1.92c-1.3,0.73-3.38,0.38-4.58-0.43
		C49.08,84.58,48.6,83.26,47.44,83.54L47.44,83.54z"/>
</g>
</svg>
