<?xml version="1.0" encoding="utf-8"?>
<!-- Generator: Adobe Illustrator 27.9.0, SVG Export Plug-In . SVG Version: 6.00 Build 0)  -->
<svg version="1.1" id="Layer_1" xmlns="http://www.w3.org/2000/svg" xmlns:xlink="http://www.w3.org/1999/xlink" x="0px" y="0px"
	 viewBox="0 0 108 108" style="enable-background:new 0 0 108 108;" xml:space="preserve">
<style type="text/css">
	.st0{fill:#45266A;}
	.st1{fill:#F7921E;}
	.st2{fill:#3BB2E6;}
	.st3{fill:#01213A;}
	.st4{fill:#303646;}
	.st5{fill:#00ACEE;}
	.st6{fill:#FFFFFF;}
	.st7{clip-path:url(#SVGID_00000003817720465908918190000017626205209522540718_);fill:none;}
	.st8{clip-path:url(#SVGID_00000003817720465908918190000017626205209522540718_);}
	.st9{fill:#C6203C;}
	.st10{fill:#DCDCDC;}
	.st11{fill:#EE3F48;}
	.st12{fill:#FBCAB9;}
	.st13{fill:#3D3938;}
	.st14{fill:#43B3E6;}
	.st15{fill:#494646;}
	.st16{fill:#1C0E2A;}
	.st17{fill:#212222;}
	.st18{fill-rule:evenodd;clip-rule:evenodd;fill:#19171C;}
	.st19{fill-rule:evenodd;clip-rule:evenodd;fill:#43B3E6;}
	.st20{fill-rule:evenodd;clip-rule:evenodd;fill:#FFFFFF;}
	.st21{fill:none;stroke:#000000;stroke-width:0.75;stroke-linecap:square;stroke-miterlimit:10;}
	.st22{clip-path:url(#SVGID_00000137113347105959632400000015412613696145521849_);fill:none;}
	.st23{clip-path:url(#SVGID_00000137113347105959632400000015412613696145521849_);}
	.st24{fill:#E2B6AA;}
	.st25{fill:none;stroke:#1C0E2A;stroke-miterlimit:10;}
	.st26{fill:#E8CCBE;}
	.st27{fill:url(#SVGID_00000031183495816129427340000010458927983514747776_);}
	.st28{fill:#231F20;}
	.st29{fill:url(#SVGID_00000088812932191498212980000017659939088223652488_);}
	.st30{fill:#021A32;}
	.st31{fill:#0A0A0A;}
	.st32{fill:#F2F2EA;}
	.st33{fill:url(#SVGID_00000132778742542553203980000015854113561144341635_);}
	.st34{fill:url(#SVGID_00000140005861140268760240000003587371056606963075_);}
	.st35{fill:#DFA894;}
	.st36{fill:#A6461C;}
	.st37{fill:#8B5200;}
	.st38{fill:#4C1707;}
	.st39{fill:url(#SVGID_00000115484380886407601360000017871781063504091011_);}
	.st40{fill:url(#SVGID_00000158000977036143174960000016833906864874636714_);}
	.st41{fill:url(#SVGID_00000131369789016372072000000005207574405746245310_);}
	.st42{fill:url(#SVGID_00000119795988153557097280000003635717909291708038_);}
	.st43{fill:url(#SVGID_00000041278710084242485870000007213823850152765111_);}
	.st44{fill:url(#SVGID_00000145746461388829530470000000627530479816916642_);}
	.st45{fill:url(#SVGID_00000123403324790597109110000003610348861493848212_);}
	.st46{fill:url(#SVGID_00000029005047716798258960000014417308913914426004_);}
	.st47{fill:url(#SVGID_00000065791941664348895210000014848028679851806358_);}
</style>
<g>
	<defs>
		<circle id="SVGID_1_" cx="54" cy="54" r="53.3"/>
	</defs>
	<clipPath id="SVGID_00000029741924278005967760000011778291063264083903_">
		<use xlink:href="#SVGID_1_"  style="overflow:visible;"/>
	</clipPath>
	<circle style="clip-path:url(#SVGID_00000029741924278005967760000011778291063264083903_);fill:none;" cx="54" cy="54" r="53.3"/>
	<g style="clip-path:url(#SVGID_00000029741924278005967760000011778291063264083903_);">
		<g id="XMLID_2_">
			<path id="XMLID_158_" class="st9" d="M50.92,80.57c0.01,0.01,0.02,0.02,0.02,0.03c0.26,0.55,0.55,1.09,0.89,1.61
				c3.47-1.7,6.44-2.6,10.3-1.64c0.05,0.01,0.09,0.04,0.13,0.06c0.16-0.35,0.32-0.69,0.49-1.03c0.02-0.04,0.05-0.05,0.09-0.06
				c-0.24-0.27-0.49-0.54-0.73-0.8c-3.24,1.16-7.06,1.24-10.54,0.9C51.36,79.96,51.15,80.27,50.92,80.57z"/>
			<path id="XMLID_157_" class="st10" d="M63.82,79.32c0.02-0.23,0.04-0.46,0.05-0.7c0.02-0.23,0.02-0.46,0.05-0.68
				c-0.3,0.16-0.61,0.31-0.93,0.45C63.27,78.7,63.54,79.01,63.82,79.32z"/>
			<path id="XMLID_156_" class="st10" d="M61,82.81c-0.37-0.24-0.77-0.41-1.19-0.54c0.13,0.54,0.34,1.03,0.5,1.56
				c0.29-0.3,0.54-0.63,0.77-0.99C61.06,82.84,61.03,82.83,61,82.81z"/>
			<path id="XMLID_155_" class="st11" d="M59.24,81.97c-0.04-0.2,0.12-0.35,0.31-0.31c0.62,0.12,1.19,0.35,1.72,0.69
				c0.03,0.02,0.06,0.05,0.07,0.07c0.2-0.34,0.39-0.69,0.56-1.06c-0.03-0.01-0.07-0.01-0.1-0.04c-2.97-1.92-6.88-0.1-9.75,1.24
				c0.21,0.3,0.43,0.58,0.67,0.85c0.27-0.47,0.87-0.87,1.23-1.16c0.17-0.13,0.38-0.05,0.41,0.17c0.1,0.82,0.14,1.63,0.29,2.45
				c0,0.01,0,0.02,0,0.03c0.94,0.45,2.01,0.61,3.25,0.32c0.93-0.22,1.63-0.66,2.21-1.21C59.62,83.48,59.38,82.67,59.24,81.97z"/>
			<path id="XMLID_154_" class="st10" d="M53.87,82.99c-0.14,0.13-0.29,0.25-0.42,0.38c-0.13,0.14-0.24,0.28-0.38,0.39
				c0.29,0.28,0.6,0.54,0.92,0.76C53.93,84.02,53.87,83.5,53.87,82.99z"/>
			<path id="XMLID_152_" class="st12" d="M45.24,89.07c3.2,2.01,6.25,2.65,9.73,3.14c3.49-0.5,6.5-1.13,9.73-3.14
				c2.81-1.75,5.31-3.97,7.44-6.5c4.44-5.26,6.74-11.44,7.79-18.15c-2.48-1.39-4.05-3.74-4.97-6.42c-1.31-3.81-0.2-7.51-0.71-11.38
				c-0.42-3.17-2.13-4.9-5.39-4.96c-1.8-0.04-3.6,0.32-5.27,0.97c-3.89,1.51-5.88,4.29-8.56,7.22l-0.06-0.04l-0.06,0.04
				c-2.78-3.05-4.81-5.87-8.89-7.34c-1.69-0.61-3.48-0.92-5.28-0.84c-3.13,0.14-4.66,1.96-5.05,4.95
				c-0.53,4.01,0.62,7.81-0.83,11.74c-0.94,2.54-2.48,4.74-4.85,6.07c1.06,6.71,3.35,12.9,7.79,18.15
				C39.94,85.1,42.44,87.31,45.24,89.07z"/>
			<path id="XMLID_151_" class="st10" d="M50.95,102.99c0.49,0.78,1.03,1.51,1.58,2.23c-0.29-1.35-0.11-2.87-0.14-4.23
				c-0.02-1.04-0.11-1.89-0.59-2.84c-0.25-0.5-0.49-0.81-0.63-1.33c-0.04,0-0.07,0-0.11,0C51.07,97,51,97.18,50.79,97.3
				c-0.71,0.41-1.43,0.78-2.17,1.13C49.34,99.98,50.03,101.53,50.95,102.99z"/>
			<path id="XMLID_150_" class="st13" d="M63.32,99.43c-0.41,1.67-2.08,3.31-3.22,4.39c-1.42,1.33-3.6,3.47-5.52,3.89
				c-0.09,0.02-0.18-0.02-0.25-0.07c0.41,2.75,0.17,5.64,0.18,8.41c0,0.94,0,1.87,0,2.81c2.1-2.64,4.27-5.22,6.41-7.83
				c1.64-2,3.37-3.72,3.55-6.42c0.11-1.61-0.1-3.2-0.08-4.8C64.03,99.68,63.68,99.56,63.32,99.43z"/>
			<path id="XMLID_148_" class="st14" d="M54.77,96.85c-1.03,0.04-2.06,0.04-3.09-0.01c0.48,0.65,0.9,1.23,1.18,1.9
				c1.04-0.41,2.48-0.61,3.43-0.1c0.17,0.09,0.08,0.33-0.09,0.34c-0.58,0.05-1.16-0.12-1.74-0.11c-0.5,0-1,0.07-1.5,0.14
				c0.11,0.32,0.18,0.66,0.21,1.05c0.12,1.78,0.46,4.05-0.06,5.77c-0.01,0.04-0.03,0.06-0.06,0.08c0.32,0.43,0.64,0.86,0.94,1.3
				c0.09-0.04,0.2-0.01,0.26,0.07c0,0,0-0.01,0-0.01c0.71-0.99,1.9-1.73,3.04-2.47c-0.9-2.25-1.28-6.73,1.2-7.83
				c-0.01-0.05-0.02-0.11-0.01-0.16C57.25,96.89,56.01,96.9,54.77,96.85z"/>
			<path id="XMLID_147_" class="st10" d="M58.69,97.25c-0.42,1.19-1.04,2.13-1.1,3.47c-0.06,1.24,0.31,2.4,0.46,3.6
				c0.36-0.25,0.71-0.5,1.02-0.76c0.81-0.71,1.59-1.46,2.27-2.3c0.51-0.64,0.87-1.4,1.36-2.05c-1.36-0.53-2.68-1.17-3.95-1.89
				C58.72,97.28,58.71,97.26,58.69,97.25z"/>
			<path id="XMLID_144_" class="st15" d="M128.18,140.44c-0.05-0.03-0.09-0.07-0.14-0.11c-0.09-0.06-0.15-0.14-0.17-0.24
				c-4.93-5.54-7.55-12.95-9.41-20.03c-1.17-4.46-2.04-9-2.85-13.54c-0.87-4.91-2-10.05-2.06-15.05c-1.37,1.14-2.83,2.19-4.11,3.16
				c1.89,17.38-3.92,34.33-7.03,51.23c-1.57,8.52-2.48,17.22-1.51,25.86c0.82,7.25,2.87,16.19,8.09,21.74
				c0.46-9.51,4.16-18.46,9.25-26.44c2.82-4.43,6.32-8.38,9.1-12.83c1.91-3.06,4.61-8.68,2.39-12.19
				C129.18,141.5,128.67,140.97,128.18,140.44z"/>
			<path id="XMLID_143_" class="st13" d="M44.63,105.86c0.41,2.38,1.93,3.84,3.4,5.62c2.11,2.53,4.34,5.37,5.62,8.44
				c0-1.29,0-2.58,0-3.88c0-2.72-0.22-5.56,0.16-8.26c-2.69-2.15-4.79-5.76-5.88-9.05c-1.35,0.6-2.76,1.09-4.19,1.48
				C44.38,102.01,44.3,103.99,44.63,105.86z"/>
			<path id="XMLID_142_" class="st13" d="M96.01,89.69c-2.13,2.14-4.03,4.49-6.46,6.32c-2.72,2.04-5.86,3.54-9.14,4.4
				c-4.97,1.29-10.29,1.1-15.23-0.35c-0.11,3.27,0.43,6.1-1.78,8.99c-2.8,3.65-5.84,7.22-8.89,10.69c0,1.81,0.01,3.62,0.01,5.43
				c-0.01,5.9,0.38,11.97-0.18,17.85c0.14,0,0.28,0.01,0.42,0.01c1.84-0.06,3.69-0.12,5.55-0.14c0.15,0,0.21,0.13,0.19,0.25
				c2.42-0.01,4.85-0.11,7.3-0.43c2.33-0.3,2.13-0.11,2.05-2.1c-0.04-1.04-0.06-2.08-0.06-3.12c-0.02-2.19,0.05-4.38,0.15-6.57
				c0.4-9,1.46-17.92,2.32-26.87c-0.4-0.04-0.38-0.65,0.04-0.68c0.01,0,0.02,0,0.03,0c0,0,0-0.01,0-0.01
				c0.02-0.19,0.31-0.2,0.31-0.01c4.29-0.3,8.6-0.44,12.89-0.59c4.12-0.15,9.34,0.52,13.01-1.63c3.57-2.09,6.94-4.85,10.19-7.39
				c1.6-1.25,3.16-2.55,4.68-3.9c1.2-1.07,2.29-2.31,3.64-3.18c-0.01-0.01-0.01,0-0.02-0.01c-1.32-1.12-2.23-2.87-3.13-4.34
				c-0.81-1.34-1.65-2.72-2.14-4.22c-0.06-0.01-0.11-0.03-0.14-0.07c-1.8,2.09-4.71,3.37-6.94,4.97c-2.96,2.12-5.66,4.55-8.52,6.8
				C96.11,89.81,96.02,89.76,96.01,89.69z"/>
			<path id="XMLID_141_" class="st15" d="M54.77,95.86c4.57-0.41,9.08-0.5,13.55-1.91c4.6-1.45,8.74-4.03,12.49-7.03
				c0.04-0.03,0.08-0.07,0.12-0.1c-2.59,1.55-5.32,2.86-8.19,3.9c-5.33,1.95-12.25,3.73-17.96,2.54c-5.71,1.18-12.62-0.6-17.96-2.54
				c-2.86-1.04-5.6-2.34-8.18-3.89c0.04,0.03,0.07,0.06,0.11,0.09c3.86,3.1,8.13,5.72,12.9,7.15
				C45.97,95.38,50.34,95.47,54.77,95.86z"/>
			<path id="XMLID_140_" class="st15" d="M18.7,93.92c2.75,2.42,6.03,4.12,9.55,5.12c7.24,2.06,14.53,0.68,21.24-2.35
				c-7.27-0.72-14.25-3.51-20.1-7.95c-0.14-0.1-0.27-0.22-0.4-0.32c-0.89,0.96-2.28,1.39-3.58,1.25c-0.72-0.08-1.36-0.42-2.04-0.63
				c-1.16-0.35-2.21-0.1-3.34-0.29c-1.55-0.25-3.02-1.73-4.44-2.39c-2.26-1.05-4.59-1.63-7.05-1.61c1.08,0.9,2.12,1.83,3.11,2.83
				C14.47,89.11,16.33,91.84,18.7,93.92z"/>
			<path id="XMLID_139_" class="st15" d="M60.04,96.69c1.51,0.68,3.04,1.28,4.59,1.77c0.22-0.13,0.54-0.07,0.61,0.18
				c5.2,1.55,10.61,1.92,16.04,0.4c3.65-1.03,7.04-2.83,9.85-5.39c2.24-2.04,4.06-4.61,6.76-6.07c0.98-0.99,2.03-1.93,3.1-2.83
				c-2.59-0.03-5.06,0.63-7.42,1.78c-1.4,0.69-2.8,2.11-4.4,2.21c-1.37,0.08-2.39,0.11-3.71,0.55c-0.67,0.22-1.17,0.38-1.87,0.33
				c-1.07-0.08-2.13-0.57-2.92-1.31c-0.18,0.14-0.35,0.29-0.54,0.43C74.29,93.18,67.32,95.98,60.04,96.69z"/>
			<path id="XMLID_134_" class="st0" d="M41.41,158.05c-0.8-4.71-1.86-9.73-1.84-14.52c-0.25-0.04-0.5-0.07-0.75-0.11
				c-0.23-0.04-0.44-0.33-0.42-0.56c0.89-12.91-1.1-25.92-1.48-38.83c-4.93,0-9.88-0.21-14.81-0.38c-3.54-0.12-7.72,0.34-11-1.26
				c-3.67-1.8-7.09-4.75-10.32-7.24c-0.08-0.07-0.17-0.13-0.26-0.2c-0.7,18.89,5.65,36.7,8.48,55.16c0.29,1.89,0.53,3.79,0.73,5.69
				c16.27,5.28,21.04,25.75,36.62,32.24c0.07,0.03,0.12,0.07,0.17,0.11c-0.63-4.9-1.47-9.77-2.35-14.63
				C43.26,168.37,42.28,163.22,41.41,158.05z"/>
			<path id="XMLID_133_" class="st15" d="M0.1,94.63c-1.29-0.97-2.75-2.02-4.11-3.16c-0.07,5.16-1.24,10.45-2.14,15.52
				c-0.78,4.38-1.63,8.76-2.76,13.07c-1.86,7.09-4.47,14.5-9.41,20.04c-0.02,0.09-0.08,0.18-0.17,0.24
				c-0.05,0.03-0.09,0.07-0.14,0.11c-0.5,0.54-1.01,1.07-1.56,1.57c-2.28,3.61,0.66,9.43,2.62,12.52c2.74,4.31,6.13,8.17,8.88,12.49
				c5.09,7.99,8.79,16.93,9.25,26.44c5.31-5.64,7.36-14.79,8.14-22.16c0.89-8.51-0.01-17.05-1.55-25.44
				C4.02,128.96-1.79,112.01,0.1,94.63z"/>
			<path id="XMLID_131_" class="st13" d="M0.8,93.72c3.25,2.54,6.63,5.3,10.19,7.39c3.67,2.15,8.88,1.48,13.01,1.63
				c4.3,0.16,8.6,0.29,12.89,0.59c0-0.2,0.29-0.19,0.31,0.01c0,0,0,0.01,0,0.01c0.01,0,0.02,0,0.03,0c0.42,0.03,0.44,0.64,0.04,0.68
				c0.87,8.95,1.92,17.87,2.32,26.87c0.1,2.3,0.17,4.59,0.15,6.89c-0.01,1.03-0.03,2.06-0.07,3.09c-0.01,0.25-0.19,1.27-0.08,1.43
				c0.26,0.37,1.78,0.33,2.15,0.38c2.45,0.31,4.88,0.42,7.3,0.43c-0.02-0.12,0.05-0.25,0.19-0.25c1.54,0.02,3.07,0.07,4.6,0.12
				c-0.57-5.88-0.18-11.95-0.18-17.84c0-1.48,0-2.96,0-4.44c-0.03,0.03-0.06,0.06-0.08,0.09c-0.18,0.2-0.53-0.07-0.37-0.29
				c0.03-0.04,0.06-0.07,0.09-0.11c0,0,0,0,0,0c-1.36-1.83-2.44-3.87-3.79-5.72c-1.31-1.79-2.91-3.36-4.22-5.14
				c-1.72-2.33-2.23-6.43-1.76-9.27c-4.7,1.24-9.7,1.34-14.38,0.12c-3.29-0.86-6.43-2.35-9.14-4.4c-2.43-1.82-4.33-4.18-6.46-6.32
				c-0.01,0.07-0.09,0.12-0.17,0.06c-2.86-2.25-5.56-4.68-8.52-6.8c-2.22-1.59-5.13-2.87-6.94-4.97c-0.03,0.04-0.08,0.06-0.14,0.07
				c-0.49,1.5-1.32,2.88-2.14,4.22C-4.81,83-5.26,83.8-5.76,84.55c0,0,0,0,0,0c-0.51,0.77-1.07,1.5-1.74,2.07
				c-0.01,0.01-0.01,0-0.02,0.01c1.35,0.87,2.44,2.11,3.64,3.18C-2.37,91.17-0.8,92.46,0.8,93.72z"/>
			<path id="XMLID_130_" class="st0" d="M37.78,90.2c3,0.96,6.09,1.67,9.22,2.06c1.03,0.13,2.07,0.2,3.11,0.26
				c-4.92-1.54-9.49-5.33-12.59-8.84c-2.62-2.97-4.82-6.48-6.31-10.24c-1.76,3.67-6.87,0.44-8.48-2.09
				c-1.72-2.7-1.72-5.89-1.08-9.07c-4.43,1.28-8.8,2.67-13.11,4.32c5.6,6.26,11.23,12.63,17.59,18.15
				C29.77,87.03,33.68,88.89,37.78,90.2z"/>
			<path id="XMLID_129_" class="st0" d="M109.01,94.95c-0.09,0.07-0.18,0.13-0.26,0.2c-3.22,2.49-6.66,5.45-10.32,7.24
				c-3.28,1.61-7.45,1.15-11,1.26c-4.93,0.16-9.87,0.38-14.81,0.38c-0.38,12.9-2.37,25.92-1.48,38.83c0.02,0.23-0.19,0.52-0.42,0.56
				c-0.25,0.04-0.5,0.07-0.75,0.11c0.02,4.95-1.09,10.12-1.92,14.98c-0.85,5.01-1.81,10.01-2.71,15.01
				c-0.87,4.86-1.71,9.73-2.34,14.63c0.05-0.04,0.1-0.08,0.17-0.11c15.58-6.49,20.35-26.96,36.62-32.24c0.2-1.9,0.44-3.8,0.73-5.69
				C103.36,131.65,109.7,113.84,109.01,94.95z"/>
			<path id="XMLID_124_" class="st12" d="M78.85,72.04c0.11,0.06,0.19,0.16,0.23,0.31c0.71,2.96,3.53,1.8,4.83,0.93
				c0.99-0.67,1.82-1.63,2.42-2.66c1.1-1.89,1.28-4.01,1.04-6.14c-0.36-3.29-1.55-6.46-2.37-9.66c-0.81,1.67-1.91,3.18-2.78,4.81
				c-0.85,1.59-1.17,3.33-1.85,4.94C80.21,67.09,79.68,69.61,78.85,72.04z M83.88,58.82l0.09,0.04c-0.56,1.47-1.18,2.94-1.5,4.49
				c-0.21,1-0.31,2.05-0.36,3.07c-0.01,0.14,0,3.55,0.6,3c0.25-0.23,0.75-0.01,0.62,0.36c-0.54,1.47-1.85,0.42-2.05-0.68
				C80.68,65.86,82.19,61.51,83.88,58.82z"/>
			<path id="XMLID_122_" class="st13" d="M34.51,50.06c-0.16-3.11-0.06-7.6,3.44-8.92c5.93-2.24,14.78,2.55,16.82,8.39
				c2.03-5.84,10.89-10.63,16.82-8.39c3.67,1.39,3.6,6.18,3.41,9.39c-0.31,5.39,1.03,9.68,4.85,13.49c0.03-5.47,1.18-10.89,2.4-16.2
				c0.67-2.94,1.36-5.9,1.51-8.92c0.12-2.46-0.61-10.73-4.83-8.47c-0.07,0.12-0.22,0.18-0.36,0.17c-0.19,0.03-0.38-0.15-0.31-0.34
				c-0.44-2.49-1.11-4.91-2.68-6.95c-1.48-1.92-3.63-3.19-5.76-4.31c-4.72-2.49-9.65-3.55-14.96-3.02c-0.03,0-0.06,0-0.08-0.01
				c-0.03,0.01-0.05,0.01-0.08,0.01c-5.3-0.54-10.24,0.53-14.96,3.02c-2.32,1.22-4.7,2.64-6.18,4.86c-1.29,1.93-1.85,4.15-2.25,6.39
				c0.07,0.19-0.12,0.37-0.31,0.34c-0.14,0.01-0.28-0.04-0.35-0.15c-2.42-1.22-4.06,1.86-4.52,3.91c-0.37,1.62-0.41,3.32-0.3,4.97
				c0.19,2.87,0.85,5.69,1.49,8.49c1.22,5.31,2.37,10.73,2.4,16.2C33.7,60.02,34.8,55.66,34.51,50.06z"/>
			<path id="XMLID_121_" class="st0" d="M86.81,71.34c-1.61,2.53-6.73,5.76-8.48,2.09c-1.49,3.77-3.7,7.28-6.31,10.24
				c-3.1,3.52-7.68,7.3-12.59,8.84c1.04-0.06,2.08-0.13,3.11-0.26c3.12-0.39,6.22-1.1,9.22-2.06c4.11-1.32,8.02-3.18,11.66-5.47
				C89.77,79.22,95.4,72.85,101,66.59c-4.31-1.65-8.68-3.04-13.11-4.32C88.53,65.45,88.53,68.65,86.81,71.34z"/>
			<path id="XMLID_116_" class="st12" d="M23.21,70.62c0.59,1,1.45,2.02,2.42,2.66c1.3,0.86,4.12,2.02,4.83-0.93
				c0.04-0.15,0.12-0.25,0.23-0.31c-0.83-2.43-1.37-4.94-1.53-7.47c-0.68-1.61-1-3.35-1.85-4.94c-0.87-1.64-1.97-3.15-2.78-4.81
				c-0.82,3.21-2,6.37-2.37,9.66C21.93,66.58,22.1,68.76,23.21,70.62z M25.65,58.82c1.7,2.69,3.21,7.05,2.6,10.27
				c-0.21,1.09-1.51,2.15-2.05,0.68c-0.14-0.37,0.37-0.59,0.62-0.36c0.43,0.4,0.62-2.63,0.6-3c-0.04-1.02-0.14-2.07-0.36-3.07
				c-0.33-1.55-0.94-3.02-1.5-4.49L25.65,58.82z"/>
			<path id="XMLID_115_" class="st17" d="M27.42,66.41c0.02,0.36-0.17,3.4-0.6,3c-0.25-0.23-0.75-0.01-0.62,0.36
				c0.54,1.47,1.85,0.42,2.05-0.68c0.61-3.23-0.91-7.58-2.6-10.27l-0.09,0.04c0.56,1.47,1.17,2.94,1.5,4.49
				C27.28,64.35,27.37,65.39,27.42,66.41z"/>
			<path id="XMLID_114_" class="st17" d="M81.28,69.09c0.21,1.09,1.51,2.15,2.05,0.68c0.14-0.37-0.37-0.59-0.62-0.36
				c-0.6,0.56-0.61-2.86-0.6-3c0.04-1.02,0.14-2.07,0.36-3.07c0.33-1.55,0.94-3.02,1.5-4.49l-0.09-0.04
				C82.19,61.51,80.68,65.86,81.28,69.09z"/>
			<path id="XMLID_50_" class="st16" d="M128.72,139.76c-4.45-6.32-7.42-13.22-9.35-20.77c-1.08-4.21-1.91-8.48-2.76-12.74
				c-0.98-4.94-1.52-9.96-2.5-14.9c-0.02-0.12-0.11-0.17-0.21-0.19c1.58-1.36,2.99-2.85,3.8-4.51c0.08-0.16-0.06-0.34-0.23-0.29
				c0-0.03,0-0.05-0.01-0.08c-0.28-0.64-0.65-1.26-1.06-1.87c0.82-0.71,1.61-1.45,2.37-2.22c0.13-0.13,0.19-0.4,0.07-0.56
				c-0.24-0.31-0.47-0.63-0.71-0.94c0.95-1,1.57-2.26,2.35-3.4c1.11-1.62,2.38-3.1,3.6-4.64c1.51-1.92,1.5-4.63,2.19-6.97
				c0.02-0.03,0.04-0.06,0.04-0.1c0-0.01,0-0.02,0-0.02c0.02-0.08,0.04-0.16,0.07-0.24c0.03-0.08-0.04-0.14-0.11-0.14
				c-0.08-0.43-0.25-0.84-0.36-1.27c-0.01-0.03-0.01-0.06-0.02-0.09c0.34-0.69,0.94-1.69,0.93-2.42c-0.02-1.27-1.18-2.8-1.48-4.07
				c-0.23-0.94-0.22-2.07-0.73-2.92c-0.74-1.23-2.01-2.14-2.78-3.43c-0.1-0.17-0.37-0.06-0.32,0.14c0.01,0.04,0.03,0.07,0.03,0.1
				c-0.14-0.01-0.29,0.04-0.38,0.2c-0.43,0.7-0.62,1.49-0.56,2.29c-0.43-0.8-1.29-1.42-1.92-2.04c-0.23-0.22-0.54-0.14-0.71,0.09
				c-0.38,0.51-0.61,1.14-0.69,1.8c-0.9-0.93-2.48-0.61-2.79,0.82c-0.28,1.33,0.46,3.55,2.01,3.78c0.09,0.01,0.18-0.03,0.26-0.08
				c-0.26,0.52,0.07,1.21,0.31,1.68c0.09,0.17,0.21,0.37,0.34,0.57c-0.46,0.77-0.6,1.64-0.79,2.51c-0.2,0.91-0.41,1.79-0.38,2.73
				c-0.41,0.13-0.8,0.33-1.19,0.63c-0.18,0.14-0.38,0.3-0.57,0.48c-0.19-0.65-0.48-1.27-0.76-1.65c-0.43-0.59-1.3-1.23-2.09-1.16
				c-0.08-0.12-0.28-0.12-0.33,0.05c0,0.01,0,0.02-0.01,0.03c-0.06,0.02-0.12,0.03-0.17,0.07c-0.08,0.05-0.09,0.19,0,0.23
				c0.03,0.01,0.06,0.02,0.09,0.04c-0.51,1.82-0.73,4.01-0.71,5.85c0,0.12,0.1,0.19,0.2,0.19c0.86,1,1.64,2.06,2.32,3.19
				c0.49,0.82,0.87,1.75,1.42,2.54c-0.12-0.05-0.24-0.08-0.36-0.09c-0.01-0.04-0.04-0.07-0.09-0.07c-0.05,0-0.08,0.04-0.09,0.08
				c-0.75,0.07-1.54,0.77-2.01,1.41c-0.01-0.02-0.02-0.03-0.03-0.05c-0.02-0.02-0.03-0.02-0.05-0.03c-0.12-0.15-0.35-0.21-0.55-0.03
				c-2.48,2.18-5.47,3.75-8.1,5.76c-0.37,0.28-0.73,0.58-1.09,0.86c-0.04-0.01-0.07-0.03-0.12-0.03c-3.67-0.26-7.12,0.84-10.26,2.69
				c-1.23,0.72-2.09,1.05-3.49,1.26c-0.56,0.08-0.98,0.06-1.55,0.2c-1.28,0.32-2.08,1.03-3.5,0.82c-0.73-0.11-1.43-0.44-2.06-0.84
				c7.88-6.17,14.63-13.84,21.33-21.22c0.32-0.35,0.16-0.82-0.26-0.99c-4.69-1.84-9.53-3.36-14.47-4.37
				c-0.61-2.59-1.58-5.14-2.34-7.35c-0.09-0.25-0.39-0.23-0.49-0.04c-0.04,0.01-0.08,0.04-0.11,0.08c-1.19,1.5-2.91,3.82-3.96,6.18
				c0.38-3.22,0.87-6.41,1.59-9.59c0.84-3.76,2.05-7.49,2.32-11.36c0.2-2.85,0.08-6.87-2.06-9.07c-1.1-1.13-2.63-1.49-3.8-0.63
				c-0.8-5.01-3.4-8.4-7.85-10.92c-4.86-2.76-10.63-4.6-16.22-3.34c-5.59-1.26-11.36,0.58-16.22,3.34
				c-4.46,2.53-7.05,5.91-7.85,10.93c-1.17-0.86-2.7-0.5-3.8,0.63c-2.14,2.2-2.26,6.23-2.06,9.07c0.27,3.87,1.48,7.6,2.32,11.36
				c0.71,3.18,1.2,6.37,1.58,9.59c-1.05-2.36-2.78-4.68-3.96-6.18c-0.03-0.04-0.07-0.07-0.11-0.08c-0.1-0.18-0.4-0.21-0.49,0.04
				c-0.76,2.22-1.73,4.76-2.35,7.35c-4.94,1.01-9.78,2.53-14.47,4.37c-0.42,0.16-0.58,0.64-0.26,0.99
				c6.76,7.43,13.55,15.17,21.51,21.36c-2.15,1.33-3.55,0.44-5.73-0.11c-0.78-0.2-1.44-0.03-2.2-0.13
				c-1.25-0.17-2.14-0.94-3.19-1.54c-3.06-1.73-6.37-2.74-9.9-2.49c-0.04,0-0.08,0.02-0.12,0.03c-0.36-0.29-0.73-0.58-1.09-0.86
				c-2.63-2.01-5.62-3.58-8.1-5.76c-0.2-0.18-0.43-0.12-0.55,0.03c-0.02,0.01-0.04,0.01-0.05,0.03c-0.01,0.02-0.02,0.03-0.03,0.05
				c-0.48-0.64-1.26-1.33-2.01-1.4c-0.01-0.04-0.03-0.08-0.09-0.08c-0.05,0-0.08,0.03-0.09,0.07c-0.12,0.01-0.24,0.04-0.36,0.08
				c0.55-0.79,0.92-1.72,1.42-2.54c0.68-1.13,1.47-2.19,2.32-3.19c0.1,0,0.2-0.07,0.2-0.19c0.02-1.85-0.2-4.03-0.71-5.85
				c0.03-0.01,0.06-0.02,0.09-0.04c0.09-0.05,0.08-0.18,0-0.23c-0.05-0.03-0.11-0.04-0.17-0.07c0-0.01,0-0.02-0.01-0.03
				c-0.05-0.17-0.25-0.17-0.33-0.05c-0.79-0.07-1.67,0.58-2.09,1.16c-0.28,0.39-0.58,1.01-0.76,1.66c-0.19-0.18-0.4-0.35-0.57-0.48
				c-0.39-0.3-0.78-0.5-1.19-0.63l0,0c0.03-0.94-0.18-1.82-0.38-2.73c-0.19-0.87-0.33-1.74-0.79-2.51c0.13-0.2,0.25-0.39,0.34-0.57
				c0.25-0.47,0.57-1.16,0.31-1.68c0.07,0.06,0.17,0.1,0.26,0.08c1.55-0.23,2.3-2.44,2.01-3.78c-0.31-1.42-1.89-1.75-2.79-0.82
				c-0.08-0.66-0.31-1.29-0.69-1.8c-0.17-0.23-0.49-0.32-0.71-0.09c-0.63,0.62-1.49,1.24-1.92,2.04c0.06-0.8-0.13-1.6-0.56-2.29
				c-0.1-0.16-0.24-0.21-0.38-0.2c0.01-0.04,0.03-0.07,0.03-0.1c0.05-0.19-0.22-0.31-0.32-0.14c-0.77,1.29-2.04,2.2-2.78,3.43
				c-0.52,0.85-0.51,1.98-0.73,2.92c-0.31,1.28-1.49,2.81-1.48,4.07c0.01,0.75,0.59,1.73,0.93,2.42c-0.12,0.45-0.29,0.9-0.38,1.35
				c-0.07,0-0.14,0.06-0.11,0.14c0.03,0.08,0.05,0.16,0.07,0.24c0,0.01,0,0.02,0,0.03c0,0.04,0.02,0.07,0.04,0.1
				c0.7,2.35,0.69,5.02,2.19,6.96c1.2,1.55,2.49,3.02,3.6,4.64c0.78,1.14,1.4,2.4,2.35,3.39c-0.24,0.31-0.47,0.63-0.71,0.94
				c-0.12,0.16-0.06,0.43,0.07,0.56c0.76,0.78,1.55,1.52,2.37,2.22c-0.41,0.61-0.78,1.22-1.06,1.87c-0.01,0.03,0,0.05-0.01,0.08
				c-0.17-0.05-0.31,0.13-0.23,0.29c0.81,1.65,2.22,3.14,3.8,4.51c-0.09,0.02-0.18,0.07-0.2,0.19c-0.98,4.93-1.52,9.95-2.5,14.9
				c-0.85,4.26-1.68,8.53-2.76,12.74c-1.93,7.55-4.9,14.45-9.35,20.77c-3.09,1.45-3.54,5.15-2.87,8.27
				c1.13,5.25,4.99,9.68,8.14,13.86c7.26,9.62,13.07,20.75,13.25,33.05c0.01,0.57,0.68,0.82,1.09,0.45
				c5.58-5.05,8.03-13.77,9.11-20.96c0.89-5.91,0.86-11.87,0.3-17.8c15.63,6.6,20.68,25.55,36.08,32.52
				c0.33,0.15,0.6,0.04,0.75-0.17c0.01,0.11,0.03,0.22,0.04,0.33c0.66,5.37,0.65,10.73,1.11,16.1c0,0.01,0.01,0.01,0.01,0.02
				c0.02,0.19,0.07,0.38,0.14,0.54c-2.75-0.77-6.17,0.53-8.7,1.4c-1.67,0.57-3.32,1.19-5.04,1.6c-1.8,0.43-3.59,0.32-5.39,0.59
				c-0.22,0.03-0.28,0.35-0.14,0.51c-0.89,2.75,5.84,3.83,7.49,3.81c2.76-0.04,5.46-0.82,8.14-1.4c3.14-0.68,6.58-0.59,9.61-1.58
				c0.13-0.04,0.2-0.17,0.22-0.29c0.11-0.1,0.18-0.25,0.15-0.46c-0.11-0.66-0.21-1.32-0.33-1.98c-0.04-0.23-0.05-0.5-0.11-0.73
				c0.11-0.06,0.19-0.16,0.22-0.29c0.15-0.86,0.16-1.74-0.32-2.49c-0.02-0.03-0.05-0.05-0.07-0.08c0.3-3.98,0.12-8.08,0.08-12.06
				c0-0.43-0.01-0.85-0.02-1.28c0.64,0.15,1.42,0.06,2.04,0.09c0,0.24-0.01,0.47-0.01,0.71c-0.05,4.13-0.24,8.39,0.07,12.53
				c-0.02,0.03-0.05,0.05-0.07,0.08c-0.48,0.76-0.46,1.63-0.32,2.49c0.02,0.13,0.11,0.23,0.22,0.29c-0.06,0.23-0.07,0.5-0.11,0.73
				c-0.11,0.66-0.22,1.32-0.33,1.98c-0.03,0.21,0.04,0.36,0.15,0.46c0.01,0.13,0.09,0.25,0.22,0.3c2.9,0.94,6.16,0.86,9.16,1.48
				c2.84,0.59,5.68,1.46,8.6,1.49c1.66,0.02,8.38-1.06,7.49-3.81c0.14-0.15,0.08-0.47-0.14-0.51c-1.68-0.26-3.35-0.14-5.03-0.51
				c-1.85-0.4-3.62-1.08-5.4-1.69c-2.53-0.86-5.96-2.17-8.71-1.39c0.07-0.16,0.12-0.34,0.14-0.53c0-0.01,0.02-0.02,0.02-0.04
				c0.44-5.22,0.43-10.43,1.05-15.64c0.03-0.26,0.07-0.52,0.1-0.78c0.15,0.2,0.42,0.31,0.75,0.16c15.4-6.97,20.45-25.92,36.08-32.52
				c-0.56,5.93-0.59,11.9,0.3,17.8c1.08,7.19,3.53,15.9,9.11,20.96c0.41,0.37,1.08,0.12,1.09-0.45c0.18-12.3,5.99-23.43,13.25-33.05
				c3.11-4.12,6.81-8.42,8.06-13.55C132.29,145.15,131.92,141.26,128.72,139.76z M111.06,69.81c-0.02-0.02-0.04-0.03-0.06-0.05
				c0.41-1.67,0.7-3.59,0.68-5.31c0.19,0.07,0.37,0.14,0.54,0.25c0.51,0.34,0.89,0.89,1.1,1.44c0.22,0.57,0.2,1.29,0.34,1.9
				c0,0.04-0.01,0.07-0.01,0.11c0,0.13,0.06,0.23,0.15,0.3c0.05,0.12,0.12,0.24,0.2,0.34c0.03,0.19,0.19,0.36,0.44,0.31
				c0.85-0.18,1.75-0.17,2.59,0.09c0.61,0.19,1.12,0.55,1.68,0.81c-0.6,0.36-1.11,0.86-1.47,1.5c-0.82,1.45-0.84,3.67,0.65,4.67
				c0.1,0.07,0.23-0.05,0.2-0.15c-0.32-1.36-0.81-2.74-0.07-4.07c0.7-1.26,2.07-1.9,3.45-2.05c0.21-0.02,0.3-0.35,0.05-0.4
				c-0.77-0.16-1.53-0.07-2.23,0.21c-0.83-1.48-3.13-1.74-4.69-1.4c0-0.01,0-0.02,0.01-0.03c0.4-0.34,0.72-0.86,1.11-1.19
				c0.54-0.45,1.17-0.91,1.77-1.28c0.19-0.12,0.12-0.45-0.12-0.44c-0.17,0.01-0.32,0.03-0.48,0.05c0.33-0.82,0.49-1.68,0.66-2.55
				c0.13-0.7,0.28-1.37,0.27-2.06c0.19,0.18,0.39,0.32,0.62,0.37c0.21,0.04,0.45-0.14,0.37-0.37c-0.19-0.54-0.74-0.95-1.03-1.46
				c-0.26-0.45-0.38-1.05-0.8-1.38l-0.15,0.04c0.05-0.08,0.07-0.17,0-0.26c-0.52-0.69-1.14-1.15-1.36-2.04
				c-0.1-0.41-0.14-0.95,0.05-1.35c0.41-0.86,1.15-0.15,1.61,0.16c0.05,0.03,0.1,0.05,0.15,0.05c0.13,1.3,0.86,2.49,2.2,2.83
				c-0.09,0.49,0.06,1.07,0.19,1.51c0.16,0.54,0.38,1.08,0.81,1.45c-0.67,0.67-1.05,1.62-1.42,2.48c-0.32,0.75-0.71,1.45-0.52,2.28
				l0.21,0.08c0.69-0.49,0.88-1.27,1.21-2.03c0.35-0.83,0.81-1.69,0.93-2.58c0-0.02-0.01-0.04-0.01-0.06
				c0.12-0.05,0.2-0.18,0.18-0.32c-0.1-0.58-0.44-1.06-0.61-1.62c-0.12-0.4-0.13-0.88-0.28-1.29c0.09-0.14,0.09-0.32-0.1-0.44
				c-0.75-0.48-1.44-0.92-1.78-1.79c-0.32-0.81-0.21-1.62,0.18-2.34c0.61,0.63,1.25,1.36,2.06,1.61c0.07,0.02,0.15,0,0.2-0.05
				c0.02,0.1,0.03,0.21,0.06,0.31c0.26,0.83,0.93,1.86,1.88,1.89l0.08-0.14c-0.38-0.69-0.93-1.18-1.15-1.98
				c-0.22-0.81-0.14-1.62,0.26-2.35c0.71,1.45,2.07,2.44,2.43,4.07c0.45,2.03,1.45,4.27,1.36,6.4c-0.04-0.27-0.07-0.54-0.1-0.82
				c-0.07-0.72-0.18-1.25-1.03-1.19c-0.42,0.03-0.77,0.19-1.07,0.43c0.02-0.1,0.05-0.21,0.07-0.31c0.03-0.13-0.04-0.23-0.12-0.3
				c0-0.01,0.01-0.01,0.01-0.02c0.14-0.53-0.26-1.09-0.42-1.59c-0.21-0.65-0.29-1.31-0.4-1.98c-0.06-0.36-0.6-0.25-0.61,0.08
				c-0.02,0.74,0.12,1.5,0.33,2.21c0.14,0.46,0.28,1.02,0.68,1.3c-0.02,0.02-0.05,0.02-0.06,0.05c-1.04,1.94-1.92,4.69-1.57,6.9
				c0.02,0.12,0.22,0.15,0.27,0.04c0.49-1,0.65-2.04,0.92-3.11c0.01-0.05,0.03-0.09,0.04-0.14c0.09,0.3,0.23,0.58,0.43,0.8
				c0.06,0.07,0.14,0.04,0.2,0c-0.06,0.54,0.01,1.14,0.42,1.54c-0.25,0.29-0.41,0.68-0.59,1.01c-0.2,0.38-0.44,0.72-0.44,1.16
				c0,0.17,0.18,0.25,0.32,0.18c0.42-0.21,0.62-0.63,0.81-1.04c0.17-0.37,0.37-0.8,0.35-1.22c0.11-0.06,0.19-0.18,0.13-0.34
				c-0.17-0.49-0.51-0.91-0.67-1.41c-0.04-0.13-0.16-0.14-0.25-0.09c0.15-0.77-0.22-1.53-0.02-2.33c0.12-0.48,0.39-0.96,0.9-1.1
				c0.73-0.2,0.67,0.18,0.74,0.8c0.11,1.12,0.27,2.69,1.02,3.6c-1.43,2.61-1.61,5.46-3.51,7.88c-1.6,2.04-3.72,4.5-4.44,7.04
				c-0.55-0.73-1.1-1.45-1.65-2.18c-0.43-0.57-0.9-1.49-1.48-2.02c0.01-0.02,0.02-0.04,0.02-0.06c-0.15-1.16-0.88-2.27-1.48-3.25
				C112.73,71.88,111.93,70.82,111.06,69.81z M113.35,77.24c0.38-0.5,0.77-0.45,1.17,0.16c0.23,0.32,0.47,0.63,0.7,0.94
				c0.87,1.16,1.74,2.32,2.62,3.47c-0.63,0.63-1.29,1.24-1.96,1.83c-0.49-0.69-0.99-1.38-1.42-2.07c-0.74-1.22-1.38-2.5-2.2-3.67
				C112.64,77.7,112.9,77.41,113.35,77.24z M104.7,82.96c2.22-1.59,5.13-2.87,6.94-4.97c0.03,0.04,0.08,0.06,0.14,0.07
				c0.49,1.5,1.32,2.88,2.14,4.22c0.9,1.47,1.8,3.22,3.13,4.34c0.01,0.01,0.01,0,0.02,0.01c-1.35,0.87-2.45,2.12-3.64,3.18
				c-1.52,1.35-3.08,2.65-4.68,3.9c-3.25,2.54-6.63,5.3-10.19,7.39c-3.67,2.15-8.89,1.48-13.01,1.63c-4.3,0.16-8.6,0.29-12.89,0.59
				c0-0.2-0.29-0.19-0.31,0.01c0,0,0,0.01,0,0.01c-0.01,0-0.02,0-0.03,0c-0.42,0.03-0.44,0.64-0.04,0.68
				c-0.87,8.95-1.92,17.87-2.32,26.87c-0.1,2.19-0.17,4.38-0.15,6.57c0.01,1.04,0.02,2.08,0.06,3.12c0.08,1.99,0.28,1.8-2.05,2.1
				c-2.45,0.31-4.88,0.42-7.3,0.43c0.02-0.12-0.04-0.25-0.19-0.25c-1.86,0.02-3.71,0.09-5.55,0.14c-0.14,0-0.28-0.01-0.42-0.01
				c0.57-5.88,0.18-11.96,0.18-17.85c0-1.81,0-3.62-0.01-5.43c3.05-3.47,6.08-7.03,8.89-10.69c2.21-2.89,1.68-5.72,1.78-8.99
				c4.94,1.45,10.26,1.65,15.23,0.35c3.29-0.86,6.43-2.35,9.14-4.4c2.43-1.82,4.33-4.18,6.46-6.32c0.01,0.07,0.09,0.12,0.17,0.06
				C99.04,87.51,101.73,85.08,104.7,82.96z M28.73,86.93c-0.04-0.03-0.07-0.06-0.11-0.09c2.58,1.55,5.32,2.85,8.18,3.89
				c5.34,1.94,12.25,3.73,17.96,2.54c5.71,1.18,12.62-0.6,17.96-2.54c2.87-1.05,5.6-2.35,8.19-3.9c-0.04,0.03-0.08,0.07-0.12,0.1
				c-3.75,3-7.88,5.58-12.49,7.03c-4.46,1.4-8.98,1.5-13.55,1.91c-4.43-0.39-8.8-0.48-13.13-1.78
				C36.86,92.65,32.6,90.03,28.73,86.93z M29.81,64.4c2.37-1.33,3.91-3.53,4.85-6.07c1.45-3.92,0.3-7.73,0.83-11.74
				c0.39-2.99,1.92-4.81,5.05-4.95c1.8-0.08,3.59,0.23,5.28,0.84c4.08,1.47,6.1,4.29,8.89,7.34l0.06-0.04l0.06,0.04
				c2.68-2.94,4.67-5.72,8.56-7.22c1.67-0.65,3.47-1.01,5.27-0.97c3.27,0.06,4.98,1.8,5.39,4.96c0.51,3.87-0.6,7.58,0.71,11.38
				c0.92,2.68,2.49,5.02,4.97,6.42c-1.06,6.72-3.35,12.9-7.79,18.15c-2.13,2.53-4.63,4.74-7.44,6.5c-3.23,2.02-6.24,2.64-9.73,3.14
				c-3.48-0.5-6.53-1.13-9.73-3.14c-2.8-1.76-5.3-3.97-7.44-6.5C33.16,77.3,30.86,71.11,29.81,64.4z M64.47,104.6
				c-0.18,2.71-1.9,4.42-3.55,6.42c-2.14,2.61-4.31,5.19-6.41,7.83c0-0.94,0-1.87,0-2.81c0-2.77,0.23-5.67-0.18-8.41
				c0.07,0.06,0.16,0.09,0.25,0.07c1.92-0.42,4.09-2.55,5.52-3.89c1.15-1.08,2.81-2.72,3.22-4.39c0.35,0.13,0.71,0.25,1.07,0.37
				C64.37,101.4,64.58,102.99,64.47,104.6z M61.33,101.24c-0.68,0.84-1.45,1.6-2.27,2.3c-0.31,0.27-0.66,0.52-1.02,0.76
				c-0.15-1.19-0.52-2.36-0.46-3.6c0.06-1.34,0.68-2.27,1.1-3.47c0.02,0.02,0.03,0.04,0.06,0.05c1.26,0.73,2.58,1.36,3.95,1.89
				C62.2,99.84,61.84,100.6,61.33,101.24z M58.49,96.98c-2.49,1.1-2.1,5.58-1.2,7.83c-1.14,0.73-2.33,1.47-3.04,2.47
				c0,0,0,0.01,0,0.01c-0.06-0.08-0.17-0.11-0.26-0.07c-0.31-0.44-0.62-0.87-0.94-1.3c0.02-0.02,0.05-0.04,0.06-0.08
				c0.51-1.72,0.18-3.99,0.06-5.77c-0.03-0.39-0.1-0.73-0.21-1.05c0.5-0.07,1-0.14,1.5-0.14c0.58-0.01,1.16,0.16,1.74,0.11
				c0.17-0.01,0.27-0.25,0.09-0.34c-0.95-0.51-2.39-0.31-3.43,0.1c-0.28-0.67-0.7-1.25-1.18-1.9c1.03,0.04,2.06,0.05,3.09,0.01
				c1.24,0.05,2.48,0.04,3.72-0.03C58.48,96.88,58.48,96.93,58.49,96.98z M51.05,96.82c0.04,0,0.07,0,0.11,0
				c0.14,0.52,0.38,0.83,0.63,1.33c0.48,0.95,0.57,1.8,0.59,2.84c0.03,1.36-0.15,2.88,0.14,4.23c-0.55-0.73-1.09-1.46-1.58-2.23
				c-0.92-1.46-1.61-3.01-2.33-4.56c0.74-0.35,1.47-0.72,2.17-1.13C51,97.18,51.07,97,51.05,96.82z M47.93,98.73
				c1.09,3.29,3.19,6.9,5.88,9.05c-0.38,2.7-0.15,5.54-0.16,8.26c0,1.29,0,2.58,0,3.88c-1.27-3.07-3.51-5.9-5.62-8.44
				c-1.47-1.77-2.99-3.24-3.4-5.62c-0.33-1.87-0.25-3.85-0.88-5.65C45.18,99.82,46.58,99.33,47.93,98.73z M83.6,89.63
				c0.71,0.05,1.2-0.11,1.87-0.33c1.32-0.44,2.34-0.46,3.71-0.55c1.6-0.1,2.99-1.52,4.4-2.21c2.35-1.15,4.82-1.81,7.42-1.78
				c-1.08,0.89-2.12,1.83-3.1,2.83c-2.71,1.46-4.52,4.03-6.76,6.07c-2.81,2.56-6.2,4.36-9.85,5.39c-5.42,1.52-10.84,1.15-16.04-0.4
				c-0.07-0.26-0.39-0.31-0.61-0.18c-1.55-0.49-3.08-1.09-4.59-1.77c7.27-0.72,14.25-3.51,20.1-7.95c0.18-0.14,0.35-0.29,0.54-0.43
				C81.47,89.05,82.53,89.55,83.6,89.63z M101,66.59c-5.6,6.26-11.23,12.63-17.58,18.14c-3.65,2.29-7.56,4.15-11.66,5.47
				c-3,0.96-6.09,1.67-9.22,2.06c-1.03,0.13-2.07,0.2-3.11,0.26c4.92-1.54,9.49-5.33,12.59-8.84c2.62-2.97,4.82-6.48,6.31-10.24
				c1.76,3.67,6.87,0.44,8.48-2.09c1.72-2.7,1.72-5.89,1.08-9.07C92.32,63.55,96.69,64.95,101,66.59z M85,54.81
				c0.82,3.2,2,6.37,2.37,9.66c0.24,2.13,0.06,4.25-1.04,6.14c-0.6,1.03-1.43,1.99-2.42,2.66c-1.3,0.88-4.12,2.03-4.83-0.93
				c-0.04-0.15-0.12-0.25-0.23-0.31c0.83-2.43,1.37-4.94,1.53-7.47c0.68-1.61,1-3.35,1.85-4.94C83.1,57.99,84.19,56.48,85,54.81z
				 M25.81,39.32c-0.11-1.66-0.07-3.35,0.3-4.97c0.46-2.05,2.1-5.14,4.52-3.91c0.07,0.11,0.22,0.16,0.35,0.15
				c0.19,0.03,0.38-0.15,0.31-0.34c0.4-2.25,0.97-4.47,2.25-6.39c1.49-2.22,3.86-3.64,6.18-4.86c4.71-2.49,9.65-3.55,14.96-3.02
				c0.03,0,0.06,0,0.08-0.01c0.03,0.01,0.05,0.01,0.08,0.01c5.3-0.54,10.24,0.53,14.96,3.02c2.12,1.12,4.27,2.39,5.76,4.31
				c1.57,2.03,2.23,4.46,2.68,6.95c-0.07,0.19,0.12,0.37,0.31,0.34c0.14,0.01,0.3-0.05,0.36-0.17c4.22-2.26,4.95,6.01,4.83,8.47
				c-0.15,3.02-0.84,5.98-1.51,8.92c-1.22,5.31-2.37,10.73-2.4,16.2c-3.82-3.81-5.16-8.09-4.85-13.49c0.19-3.21,0.27-8-3.41-9.39
				c-5.93-2.24-14.78,2.55-16.82,8.39c-2.03-5.84-10.89-10.63-16.82-8.39c-3.5,1.32-3.6,5.81-3.44,8.92
				c0.28,5.6-0.82,9.96-4.82,13.95c-0.03-5.47-1.18-10.89-2.4-16.2C26.65,45.02,26,42.19,25.81,39.32z M24.53,54.81
				c0.81,1.67,1.91,3.18,2.78,4.81c0.85,1.59,1.17,3.33,1.85,4.94c0.16,2.53,0.69,5.05,1.53,7.47c-0.11,0.06-0.19,0.16-0.23,0.31
				c-0.71,2.95-3.53,1.78-4.83,0.93c-0.97-0.64-1.83-1.66-2.42-2.66c-1.11-1.86-1.28-4.04-1.04-6.14
				C22.53,61.18,23.71,58.02,24.53,54.81z M8.53,66.59c4.31-1.65,8.68-3.04,13.11-4.32C21,65.45,21,68.65,22.72,71.34
				c1.61,2.53,6.73,5.76,8.48,2.09c1.49,3.77,3.7,7.28,6.31,10.24c3.1,3.51,7.67,7.3,12.59,8.84c-1.04-0.06-2.07-0.13-3.11-0.26
				c-3.13-0.39-6.22-1.11-9.22-2.06c-4.1-1.31-8.01-3.17-11.65-5.46C19.77,79.23,14.14,72.86,8.53,66.59z M15.58,86.36
				c1.42,0.66,2.89,2.13,4.44,2.39c1.13,0.19,2.18-0.06,3.34,0.29c0.69,0.21,1.32,0.55,2.04,0.63c1.3,0.15,2.69-0.29,3.58-1.25
				c0.14,0.1,0.27,0.22,0.4,0.32c5.86,4.44,12.83,7.23,20.1,7.95c-6.71,3.02-13.99,4.4-21.24,2.35c-3.52-1-6.8-2.7-9.55-5.12
				c-2.37-2.09-4.23-4.82-7.06-6.34c-0.98-1-2.03-1.93-3.11-2.83C10.99,84.73,13.33,85.32,15.58,86.36z M-12.92,73.48
				c-1.9-2.42-2.09-5.27-3.51-7.88c0.75-0.91,0.91-2.47,1.02-3.6c0.03-0.34-0.05-0.82,0.39-0.94c0.62-0.16,1.13,0.79,1.24,1.24
				c0.2,0.79-0.16,1.56-0.02,2.33c-0.09-0.05-0.21-0.04-0.25,0.09c-0.16,0.5-0.5,0.92-0.67,1.41c-0.06,0.16,0.02,0.28,0.13,0.34
				c-0.02,0.41,0.18,0.85,0.35,1.22c0.19,0.41,0.39,0.83,0.81,1.04c0.14,0.07,0.32-0.01,0.32-0.18c0-0.44-0.24-0.78-0.44-1.16
				c-0.17-0.33-0.34-0.72-0.59-1.01c0.42-0.39,0.48-0.99,0.42-1.54c0.06,0.05,0.15,0.07,0.2,0c0.2-0.23,0.34-0.5,0.43-0.8
				c0.01,0.05,0.03,0.09,0.04,0.14c0.26,1.07,0.43,2.11,0.92,3.11c0.05,0.11,0.25,0.09,0.27-0.04c0.34-2.2-0.53-4.96-1.57-6.9
				c-0.02-0.03-0.04-0.03-0.06-0.05c0.4-0.28,0.54-0.84,0.68-1.3c0.21-0.71,0.35-1.47,0.33-2.21c-0.01-0.33-0.55-0.44-0.61-0.08
				c-0.1,0.67-0.19,1.33-0.4,1.98c-0.16,0.5-0.56,1.06-0.42,1.59c0,0.01,0.01,0.01,0.01,0.01c-0.08,0.07-0.15,0.17-0.12,0.3
				c0.02,0.1,0.05,0.21,0.07,0.31c-0.3-0.24-0.65-0.4-1.06-0.43c-0.74-0.05-0.96,0.36-1.02,1.02c-0.03,0.34-0.07,0.67-0.11,1
				c-0.09-2.13,0.91-4.38,1.36-6.42c0.36-1.63,1.72-2.63,2.43-4.07c0.4,0.73,0.48,1.54,0.26,2.35c-0.21,0.8-0.76,1.29-1.15,1.98
				l0.08,0.14c0.96-0.03,1.62-1.06,1.88-1.89c0.03-0.1,0.04-0.21,0.06-0.31c0.05,0.05,0.13,0.08,0.2,0.05
				c0.8-0.25,1.45-0.97,2.06-1.61c0.38,0.72,0.49,1.53,0.18,2.34c-0.34,0.86-1.04,1.31-1.78,1.79c-0.19,0.12-0.19,0.3-0.1,0.44
				c-0.14,0.4-0.16,0.88-0.28,1.29c-0.17,0.56-0.51,1.05-0.61,1.62c-0.02,0.14,0.06,0.27,0.18,0.32c0,0.02-0.01,0.04-0.01,0.06
				c0.12,0.89,0.58,1.76,0.93,2.58c0.32,0.75,0.52,1.54,1.21,2.03l0.21-0.08c0.2-0.83-0.2-1.52-0.52-2.28
				c-0.37-0.86-0.76-1.81-1.42-2.48c0.43-0.37,0.64-0.91,0.81-1.45c0.13-0.43,0.28-1.02,0.19-1.51c1.34-0.34,2.07-1.53,2.2-2.83
				c0.05-0.01,0.1-0.02,0.15-0.05c0.45-0.31,1.01-0.85,1.55-0.32c0.3,0.3,0.2,1.14,0.11,1.51c-0.21,0.89-0.84,1.36-1.36,2.04
				c-0.07,0.1-0.05,0.19,0,0.26l-0.15-0.04c-0.42,0.32-0.54,0.93-0.8,1.38c-0.29,0.51-0.84,0.91-1.03,1.46
				c-0.08,0.23,0.16,0.42,0.37,0.37c0.23-0.05,0.43-0.19,0.62-0.36c-0.02,0.69,0.13,1.36,0.27,2.06c0.17,0.87,0.33,1.73,0.66,2.55
				c-0.16-0.02-0.31-0.04-0.48-0.05c-0.24-0.01-0.31,0.32-0.12,0.44c0.6,0.37,1.23,0.83,1.77,1.28c0.39,0.33,0.71,0.85,1.11,1.19
				c0,0.01,0,0.02,0.01,0.03c-1.56-0.35-3.86-0.08-4.69,1.4c-0.69-0.27-1.46-0.37-2.23-0.21c-0.25,0.05-0.16,0.38,0.05,0.4
				c1.38,0.15,2.75,0.79,3.45,2.05c0.73,1.32,0.24,2.71-0.07,4.07c-0.03,0.11,0.1,0.23,0.2,0.15c1.49-1,1.47-3.22,0.65-4.67
				c-0.36-0.64-0.87-1.14-1.47-1.5c0.56-0.27,1.07-0.63,1.68-0.81c0.84-0.26,1.74-0.26,2.59-0.09c0.25,0.05,0.42-0.12,0.44-0.31
				c0.08-0.11,0.15-0.22,0.2-0.34c0.08-0.07,0.15-0.17,0.15-0.3c0-0.04-0.01-0.07-0.01-0.11c0.14-0.62,0.12-1.33,0.34-1.9
				c0.2-0.51,0.52-0.96,0.95-1.31c0.22-0.18,0.46-0.28,0.7-0.37c-0.02,1.72,0.27,3.64,0.68,5.3c-0.02,0.01-0.04,0.03-0.06,0.05
				c-0.87,1.01-1.67,2.07-2.37,3.21c-0.6,0.98-1.32,2.1-1.48,3.25c0,0.02,0.01,0.04,0.02,0.06c-0.57,0.52-1.08,1.49-1.48,2.02
				c-0.55,0.73-1.1,1.45-1.65,2.18C-9.2,77.99-11.33,75.51-12.92,73.48z M-8.31,81.81c0.87-1.16,1.75-2.31,2.62-3.47
				c0.24-0.31,0.47-0.63,0.7-0.94c0.4-0.6,0.79-0.65,1.17-0.16c0.45,0.17,0.71,0.46,1.08,0.66c-0.82,1.16-1.46,2.45-2.2,3.67
				c-0.42,0.7-0.93,1.38-1.42,2.07C-7.02,83.05-7.68,82.45-8.31,81.81z M-7.52,86.63c0.01-0.01,0.01,0,0.02-0.01
				c0.67-0.56,1.23-1.29,1.74-2.07c0,0,0,0,0,0c0.5-0.75,0.94-1.55,1.38-2.27c0.82-1.34,1.65-2.72,2.14-4.22
				c0.06-0.01,0.11-0.03,0.14-0.07c1.8,2.09,4.72,3.38,6.94,4.97c2.96,2.12,5.66,4.55,8.52,6.8c0.07,0.06,0.16,0.01,0.17-0.06
				c2.13,2.14,4.03,4.49,6.46,6.32c2.72,2.04,5.85,3.54,9.14,4.4c4.69,1.22,9.69,1.11,14.38-0.12c-0.47,2.84,0.04,6.93,1.76,9.27
				c1.31,1.78,2.91,3.35,4.22,5.14c1.35,1.85,2.43,3.89,3.79,5.72c0,0,0,0,0,0c-0.03,0.04-0.06,0.07-0.09,0.11
				c-0.16,0.21,0.19,0.49,0.37,0.29c0.03-0.03,0.06-0.06,0.08-0.09c0,1.48-0.01,2.96,0,4.44c0.01,5.89-0.38,11.96,0.18,17.84
				c-1.53-0.05-3.06-0.1-4.6-0.12c-0.15,0-0.21,0.13-0.19,0.25c-2.42-0.01-4.85-0.11-7.3-0.43c-0.37-0.05-1.89-0.01-2.15-0.38
				c-0.11-0.16,0.07-1.18,0.08-1.43c0.05-1.03,0.06-2.06,0.07-3.09c0.03-2.3-0.05-4.6-0.15-6.89c-0.4-9-1.45-17.92-2.32-26.87
				c0.4-0.04,0.38-0.65-0.04-0.68c-0.01,0-0.02,0-0.03,0c0,0,0-0.01,0-0.01c-0.02-0.19-0.31-0.2-0.31-0.01
				c-4.29-0.3-8.6-0.44-12.89-0.59c-4.13-0.15-9.33,0.52-13.01-1.63c-3.57-2.09-6.94-4.85-10.19-7.39c-1.6-1.25-3.16-2.55-4.68-3.9
				C-5.08,88.74-6.17,87.5-7.52,86.63z M8.68,171.3c-0.77,7.37-2.83,16.52-8.14,22.16C0.09,183.95-3.61,175-8.7,167.02
				c-2.75-4.31-6.13-8.18-8.88-12.49c-1.97-3.09-4.9-8.91-2.62-12.52c0.55-0.5,1.06-1.03,1.56-1.57c0.05-0.03,0.09-0.07,0.14-0.11
				c0.09-0.06,0.15-0.14,0.17-0.24c4.93-5.54,7.55-12.95,9.41-20.04c1.13-4.31,1.98-8.69,2.76-13.07
				c0.91-5.06,2.08-10.36,2.14-15.52c1.37,1.14,2.83,2.19,4.11,3.16c-1.89,17.38,3.92,34.33,7.03,51.23
				C8.68,154.25,9.58,162.79,8.68,171.3z M46.36,188.04c-15.58-6.49-20.35-26.96-36.62-32.24c-0.2-1.9-0.44-3.8-0.73-5.69
				c-2.84-18.46-9.18-36.27-8.48-55.16c0.09,0.07,0.18,0.13,0.26,0.2c3.23,2.49,6.65,5.45,10.32,7.24c3.28,1.6,7.46,1.15,11,1.26
				c4.93,0.16,9.87,0.38,14.81,0.38c0.38,12.9,2.37,25.92,1.48,38.83c-0.02,0.23,0.19,0.52,0.42,0.56c0.25,0.04,0.5,0.07,0.75,0.11
				c-0.02,4.8,1.04,9.82,1.84,14.52c0.87,5.17,1.86,10.31,2.78,15.47c0.87,4.86,1.71,9.73,2.35,14.63
				C46.48,188.12,46.43,188.07,46.36,188.04z M42.65,211.65c-2.26,0.54-4.51,1.21-6.85,1.23c-1.92,0.02-5.41-0.4-6.36-2.52
				c2.64,0.72,5.86-0.47,8.31-1.3c1.68-0.57,3.33-1.22,5.03-1.71c1.81-0.53,3.66-0.59,5.49-0.95c0.02,0.01,0.03,0.03,0.05,0.05
				c0.57,0.39,1.71,0.39,2.36,0.52c0.79,0.16,1.59,0.32,2.38,0.47c-0.01,0.27,0.05,0.57,0.08,0.84c0.06,0.65,0.14,1.29,0.2,1.94
				C49.93,209.76,45.88,210.87,42.65,211.65z M53.74,190.25c-0.04-3.86-0.09-7.72-0.15-11.57c-0.07-4.45-0.14-8.91-0.2-13.36
				c-0.03-1.99-0.07-3.99,0.1-5.98c0.17-1.96,0.77-3.63,1.28-5.42c0.48,1.65,1.06,3.23,1.24,5c0.2,1.97,0.17,3.95,0.15,5.92
				c-0.06,4.61-0.14,9.22-0.21,13.84c-0.06,3.82-0.1,7.65-0.14,11.47C55.18,190.19,54.39,190.1,53.74,190.25z M66.76,207.35
				c1.7,0.49,3.35,1.14,5.03,1.71c2.46,0.84,5.66,2.02,8.31,1.3c-0.94,2.12-4.41,2.53-6.36,2.52c-2.34-0.02-4.6-0.69-6.85-1.23
				c-3.24-0.78-7.27-1.89-10.67-1.44c0.07-0.65,0.14-1.29,0.2-1.94c0.03-0.27,0.09-0.57,0.08-0.84c0.79-0.16,1.59-0.32,2.38-0.47
				c0.6-0.12,1.85-0.14,2.36-0.52c0.02-0.01,0.03-0.03,0.04-0.05C63.1,206.76,64.94,206.82,66.76,207.35z M61.11,203.85
				c-0.22,0.29-0.23,0.4-0.25,0.79c-0.03,0.89-0.01,0.84-0.91,1.02c-1.17,0.23-2.34,0.47-3.51,0.7c0.01-0.46,0.11-0.88,0.19-1.35
				c0.04-0.23-0.07-0.41-0.22-0.51c0.45-4.27,0.37-8.67,0.45-12.94c0.09-4.93,0.18-9.86,0.26-14.79c0.07-4.68,0.21-9.36,0.2-14.04
				c-0.01-3.3-0.02-7.78-2.31-10.42c-0.02-0.02-0.05-0.02-0.07-0.04c-0.02-0.01-0.03-0.02-0.05-0.03c-0.04-0.02-0.08-0.04-0.13-0.03
				c-0.05,0-0.09,0.02-0.13,0.04c-0.02,0.01-0.03,0.01-0.05,0.03c-0.02,0.02-0.05,0.01-0.07,0.04c-2.21,2.54-2.27,6.8-2.31,9.99
				c-0.06,4.82,0.12,9.65,0.19,14.46c0.07,4.77,0.16,9.54,0.25,14.31c0.08,4.43,0,8.99,0.46,13.42c-0.15,0.1-0.26,0.28-0.22,0.51
				c0.08,0.47,0.18,0.89,0.19,1.35c-1.17-0.23-2.34-0.47-3.51-0.7c-0.74-0.15-0.9-0.05-0.91-0.84c-0.01-0.5,0.02-0.63-0.25-0.98
				c0.32-4.66-0.22-9.48-0.7-14.08c-0.53-5.09-1.3-10.15-2.17-15.19c-0.89-5.16-1.88-10.31-2.76-15.47
				c-0.87-5.11-1.27-10.37-2.31-15.44c4.63,0.64,9.55,1.01,14.28,0.58c4.73,0.43,9.65,0.06,14.28-0.58
				c-1.01,4.92-1.4,10.03-2.24,14.98c-0.9,5.32-1.92,10.61-2.84,15.93c-0.84,4.89-1.59,9.8-2.12,14.73
				C61.35,194.05,60.78,199.04,61.11,203.85z M63.17,188.04c-0.07,0.03-0.12,0.07-0.17,0.11c0.64-4.9,1.47-9.77,2.34-14.63
				c0.9-5.01,1.85-10,2.71-15.01c0.83-4.86,1.94-10.03,1.92-14.98c0.25-0.04,0.5-0.07,0.75-0.11c0.23-0.04,0.44-0.33,0.42-0.56
				c-0.89-12.91,1.1-25.92,1.48-38.83c4.93,0,9.88-0.21,14.81-0.38c3.55-0.12,7.71,0.34,11-1.26c3.66-1.79,7.1-4.76,10.32-7.24
				c0.08-0.07,0.17-0.13,0.26-0.2c0.7,18.88-5.65,36.7-8.48,55.16c-0.29,1.89-0.53,3.79-0.73,5.69
				C83.53,161.08,78.76,181.55,63.17,188.04z M127.33,154.18c-2.78,4.45-6.27,8.41-9.1,12.83c-5.09,7.99-8.79,16.93-9.25,26.44
				c-5.22-5.54-7.28-14.49-8.09-21.74c-0.97-8.65-0.06-17.34,1.51-25.86c3.11-16.9,8.92-33.85,7.03-51.23
				c1.29-0.97,2.75-2.02,4.11-3.16c0.07,5,1.19,10.14,2.06,15.05c0.81,4.54,1.68,9.07,2.85,13.54c1.86,7.09,4.47,14.5,9.41,20.03
				c0.02,0.09,0.08,0.18,0.17,0.24c0.05,0.03,0.09,0.07,0.14,0.11c0.5,0.54,1.01,1.06,1.55,1.56
				C131.94,145.5,129.24,151.13,127.33,154.18z"/>
		</g>
		<g>
			<path class="st18" d="M48.85,63.36c0,2.63-2.14,4.76-4.77,4.76c-2.64,0-4.77-2.14-4.77-4.77c0-1.38,0.58-2.62,1.51-3.5
				L48.85,63.36z"/>
			<path class="st19" d="M43.96,61.22l4.11,1.8l0.04,0.46c0,1.49-1.2,2.69-2.69,2.69c-1.49,0-2.69-1.2-2.69-2.69
				C42.74,62.53,43.22,61.7,43.96,61.22z"/>
			<ellipse class="st18" cx="45.42" cy="63.69" rx="0.49" ry="1.04"/>
		</g>
		<path class="st18" d="M47.57,75.57c1.94,1.34,4.56,2,7.19,2c2.63,0,5.25-0.67,7.19-2c-1.36,1.9-1.24,7.46-7.19,7.88
			C48.81,83.03,48.93,77.47,47.57,75.57z"/>
		<g>
			<path class="st18" d="M60.67,63.25c0,2.63,2.14,4.76,4.77,4.76c2.64,0,4.77-2.14,4.77-4.77c0-1.38-0.58-2.62-1.51-3.5
				L60.67,63.25z"/>
			<path class="st19" d="M65.56,61.12l-4.11,1.8l-0.04,0.46c0,1.49,1.2,2.69,2.69,2.69c1.49,0,2.69-1.2,2.69-2.69
				C66.78,62.43,66.29,61.59,65.56,61.12z"/>
			<ellipse class="st18" cx="64.09" cy="63.59" rx="0.49" ry="1.04"/>
		</g>
		<path class="st20" d="M49.22,76.42c0.52,0.23,1.07,0.42,1.63,0.58l0.08,0.02l-0.28,0.81l-0.03,0.1l-0.09,0.32
			c-0.28,1.02-0.4,1.89-0.4,1.89C49.52,79,49.29,77.59,49.22,76.42z"/>
		<path class="st20" d="M60.3,76.42c-0.52,0.23-1.07,0.42-1.63,0.58l-0.08,0.02l0.28,0.81l0.03,0.1l0.09,0.32
			c0.28,1.02,0.39,1.89,0.39,1.89C59.99,79,60.22,77.59,60.3,76.42z"/>
	</g>
</g>
</svg>
