<svg width="109" height="108" viewBox="0 0 109 108" fill="none" xmlns="http://www.w3.org/2000/svg">
<g clip-path="url(#clip0_1614_74529)">
<path d="M25.4518 46.5518V55.1513C25.4518 56.4591 24.5988 57.6142 23.3486 57.9989L10.2924 62.016C7.79234 62.7855 6.08627 65.0955 6.08627 67.7111V89.3792C6.08627 93.4927 9.42098 96.8274 13.5345 96.8274H17.2586H56.362V46.5518H25.4518Z" fill="#D29B6E"/>
<path d="M35.8793 68.8967C28.6699 68.8967 22.3137 65.1123 18.6607 59.4414L10.2924 62.0163C7.79234 62.7856 6.08627 65.0956 6.08627 67.7112V89.3794C6.08627 93.4929 9.42098 96.8276 13.5345 96.8276H17.2586H56.362V48.4138C56.3622 59.6794 47.1448 68.8967 35.8793 68.8967Z" fill="#59D8FF"/>
<path d="M56.3622 48.4138C56.3622 59.6794 47.1449 68.8965 35.8795 68.8965C28.6701 68.8965 22.3139 65.1121 18.6609 59.4412L14.9731 60.5758C19.1688 67.7716 26.9493 72.6206 35.8795 72.6206C44.5176 72.6206 52.0783 68.0818 56.3622 61.2732V48.4138Z" fill="#00C3F0"/>
<path d="M37.7415 87.5173H19.1208C18.0924 87.5173 17.2586 86.6834 17.2586 85.6551V76.7966C17.2586 75.3152 16.6699 73.8941 15.6226 72.8463L7.13487 64.3586C6.47485 65.3254 6.0863 66.4807 6.0863 67.7111V89.3792C6.0863 93.4927 9.42101 96.8274 13.5345 96.8274H17.2586H43.3275V93.1033C43.3275 90.0181 40.8267 87.5173 37.7415 87.5173Z" fill="#00C3F0"/>
<path d="M51.707 33.5174H51.4306L50.7759 20.4829H21.2155V33.5174H20.0518C18.5092 33.5174 17.2588 34.768 17.2588 36.3104V40.0345C17.2588 41.5771 18.5094 42.8275 20.0518 42.8275H21.8171L22.1196 44.7182C22.3472 46.1403 23.0823 47.4321 24.1889 48.3543L30.1677 53.3366C30.9708 54.0057 31.9833 54.3723 33.0289 54.3723H38.7303C39.7757 54.3723 40.7882 54.0057 41.5915 53.3366L47.5703 48.3543C48.6768 47.4323 49.4118 46.1405 49.6396 44.7182L49.942 42.8275H51.707C53.2495 42.8275 54.5 41.5769 54.5 40.0345V36.3104C54.5 34.7678 53.2493 33.5174 51.707 33.5174Z" fill="#F0C087"/>
<path d="M50.7759 20.4827H32.1552H21.2155V33.5171H20.0518C18.5092 33.5171 17.2588 34.7678 17.2588 36.3101V40.0343C17.2588 41.5768 18.5094 42.8273 20.0518 42.8273H21.8171L22.1196 44.7177C22.3472 46.14 23.0823 47.4316 24.1889 48.3538L30.1677 53.3362C30.9708 54.0053 31.9833 54.3719 33.0284 54.3719H35.3827L32.7283 46.409C32.3486 45.2699 32.155 44.0771 32.155 42.8762V31.6548C32.155 30.6264 32.9888 29.7926 34.0171 29.7926C34.0171 29.7926 35.8793 29.7926 36.6241 28.8978C37.7589 29.4781 39.0309 29.7926 40.3482 29.7926C41.6657 29.7926 42.9372 29.4781 44.0723 28.8978C45.2071 29.4781 46.4791 29.7926 47.7964 29.7926C47.9837 29.7926 48.1664 29.7799 48.3478 29.7593L51.2418 29.7629L50.7759 20.4827Z" fill="#E6AF78"/>
<path d="M58.2241 20.1104C58.2241 18.0472 56.8182 16.3278 54.9174 15.8136C55.1242 15.2991 55.2446 14.7403 55.2446 14.1516C55.2446 11.6834 53.2439 9.68268 50.7757 9.68268C50.6848 9.68268 50.6 9.7042 50.5103 9.70947C49.9022 7.96375 48.2596 6.7034 46.3068 6.7034C45.8271 6.7034 45.3723 6.79284 44.942 6.93775C43.9881 5.88623 42.6244 5.21376 41.0928 5.21376C40.6977 5.21376 40.3168 5.26607 39.947 5.34918C38.8809 4.34828 37.4567 3.72412 35.8791 3.72412C34.3015 3.72412 32.8772 4.34828 31.8111 5.34918C31.4414 5.26607 31.06 5.21376 30.6653 5.21376C29.2438 5.21376 27.9582 5.78604 27.0176 6.70868C26.9919 6.70825 26.9674 6.7034 26.9412 6.7034C24.9884 6.7034 23.3458 7.96396 22.7377 9.70947C22.648 9.7042 22.563 9.68268 22.4723 9.68268C20.0041 9.68268 18.0034 11.6834 18.0034 14.1516C18.0034 14.7401 18.124 15.2989 18.3303 15.8136C16.4298 16.3278 15.0241 18.0472 15.0241 20.1104C15.0241 21.2602 15.4705 22.2976 16.1838 23.0897C15.4705 23.8815 15.0241 24.9191 15.0241 26.0689C15.0241 27.7229 15.9335 29.1472 17.271 29.916C17.3372 31.9144 18.968 33.5174 20.9829 33.5174H22.6109C23.3391 33.5174 23.9605 32.9909 24.0803 32.2726L25.1198 26.0356C25.2316 26.0441 25.3381 26.0692 25.452 26.0692C27.0085 26.0692 28.376 25.2718 29.1761 24.0648C29.9764 25.2716 31.3437 26.0692 32.9002 26.0692C34.4567 26.0692 35.8242 25.2718 36.6243 24.0648C37.4246 25.2716 38.7919 26.0692 40.3484 26.0692C41.9049 26.0692 43.2724 25.2718 44.0725 24.0648C44.8728 25.2716 46.2401 26.0692 47.7966 26.0692C47.9101 26.0692 48.0171 26.0441 48.1289 26.0356L49.1684 32.2726C49.2882 32.9909 49.9096 33.5174 50.6377 33.5174H52.6381C54.6947 33.5174 56.3622 31.8499 56.3622 29.7933C56.3622 29.7547 56.3518 29.7188 56.3508 29.6804C57.4812 28.874 58.2243 27.5649 58.2243 26.0692C58.2243 24.9193 57.778 23.8817 57.0644 23.0899C57.7778 22.2976 58.2241 21.2602 58.2241 20.1104Z" fill="#694B4B"/>
<path d="M34.7887 22.8243C33.043 22.2162 31.7827 20.5736 31.7827 18.6207C31.7827 17.4709 32.229 16.4333 32.9424 15.6415C32.229 14.8496 31.7827 13.812 31.7827 12.6622C31.7827 10.599 33.1886 8.87964 35.0893 8.36538C34.8826 7.8509 34.7624 7.29213 34.7624 6.7034C34.7624 5.55548 35.2077 4.51936 35.9189 3.72813C35.9054 3.72813 35.8932 3.72412 35.8797 3.72412C34.3021 3.72412 32.8779 4.34828 31.8118 5.34918C31.442 5.26607 31.0606 5.21376 30.666 5.21376C29.2445 5.21376 27.9588 5.78604 27.0182 6.70868C26.9925 6.70825 26.968 6.7034 26.9419 6.7034C24.989 6.7034 23.3464 7.96396 22.7383 9.70947C22.6487 9.7042 22.5636 9.68268 22.4729 9.68268C20.0048 9.68268 18.004 11.6834 18.004 14.1516C18.004 14.7401 18.1247 15.2989 18.331 15.8136C16.4302 16.3278 15.0243 18.0472 15.0243 20.1104C15.0243 21.2602 15.4707 22.2976 16.1841 23.0897C15.4707 23.8815 15.0243 24.9191 15.0243 26.0689C15.0243 27.7229 15.9337 29.1472 17.2712 29.916C17.3375 31.9144 18.9682 33.5174 20.9831 33.5174H22.6111C23.3393 33.5174 23.9607 32.9909 24.0805 32.2726L25.12 26.0356C25.2318 26.0441 25.3383 26.0692 25.4522 26.0692C27.0087 26.0692 28.3762 25.2718 29.1763 24.0648C29.9766 25.2716 31.3439 26.0692 32.9004 26.0692C33.9283 26.0692 34.8552 25.6977 35.6095 25.1136C35.0992 24.5823 34.7626 23.8859 34.7626 23.0899C34.7622 22.9987 34.7807 22.9131 34.7887 22.8243Z" fill="#5A4146"/>
<path d="M32.1552 87.5173H37.7414C40.8266 87.5173 43.3277 90.0184 43.3277 93.1036V96.8277H32.1552V87.5173Z" fill="#E6AF78"/>
<path d="M102.914 83.7932H47.0518C43.9666 83.7932 41.4655 81.2921 41.4655 78.2069V44.6898C41.4655 41.6046 43.9666 39.1035 47.0518 39.1035H102.914C105.999 39.1035 108.5 41.6046 108.5 44.6898V78.2071C108.5 81.2923 105.999 83.7932 102.914 83.7932Z" fill="#D5DCED"/>
<path d="M86.1552 96.8274L82.8618 72.1283C82.615 70.2781 81.037 68.8965 79.1702 68.8965H70.7949C68.9283 68.8965 67.3501 70.2781 67.1033 72.1283L63.8102 96.8274V100.551H86.155V96.8274H86.1552Z" fill="#AFB9D2"/>
<path d="M74.9826 61.4482C77.0394 61.4482 78.7067 59.7809 78.7067 57.7241C78.7067 55.6673 77.0394 54 74.9826 54C72.9259 54 71.2585 55.6673 71.2585 57.7241C71.2585 59.7809 72.9259 61.4482 74.9826 61.4482Z" fill="white"/>
<path d="M106.638 104.276H2.36216C1.33384 104.276 0.5 103.442 0.5 102.414V98.6895C0.5 97.6612 1.33384 96.8274 2.36216 96.8274H106.638C107.666 96.8274 108.5 97.6612 108.5 98.6895V102.414C108.5 103.442 107.666 104.276 106.638 104.276Z" fill="#F5DCB4"/>
</g>
<defs>
<clipPath id="clip0_1614_74529">
<rect width="108" height="108" fill="white" transform="translate(0.5)"/>
</clipPath>
</defs>
</svg>
