<svg width="63" height="62" viewBox="0 0 63 62" fill="none" xmlns="http://www.w3.org/2000/svg">
<rect x="0.5" width="62" height="62" rx="7.05882" fill="#C3E7F7"/>
<g clip-path="url(#clip0_2602_33151)">
<path d="M43.6875 19.75H19.3125C17.7591 19.75 16.5 21.0091 16.5 22.5625V37.5625C16.5 39.1159 17.7591 40.375 19.3125 40.375H27.75V43.1875H26.3438C26.085 43.1875 25.875 43.3975 25.875 43.6562C25.875 43.915 26.085 44.125 26.3438 44.125H36.6562C36.915 44.125 37.125 43.915 37.125 43.6562C37.125 43.3975 36.915 43.1875 36.6562 43.1875H35.25V40.375H43.6875C45.2409 40.375 46.5 39.1159 46.5 37.5625V22.5625C46.5 21.0091 45.2409 19.75 43.6875 19.75ZM34.3125 43.1875H28.6875V40.375H34.3125V43.1875ZM45.5625 37.5625C45.5625 38.5984 44.7234 39.4375 43.6875 39.4375H19.3125C18.2766 39.4375 17.4375 38.5984 17.4375 37.5625V22.5625C17.4375 21.5266 18.2766 20.6875 19.3125 20.6875H43.6875C44.7234 20.6875 45.5625 21.5266 45.5625 22.5625V37.5625ZM40.6922 24.4656C39.9591 24.3212 39.3094 24.7469 39.0862 25.375H33.375V24.4375H29.625V25.375H23.9138C23.6906 24.7469 23.04 24.3212 22.3078 24.4656C21.7706 24.5716 21.3328 25.0019 21.2203 25.5381C21.0281 26.4484 21.7172 27.25 22.5938 27.25C23.205 27.25 23.7206 26.8572 23.9138 26.3125H29.625V26.5225C25.5112 27.3634 22.3641 30.8894 22.1381 35.1906C22.1241 35.4597 22.3378 35.6875 22.6078 35.6875C22.8544 35.6875 23.0616 35.4963 23.0738 35.2497C23.2697 31.4388 26.0119 28.3028 29.625 27.4788V28.1875H33.375V27.4778C36.9881 28.3028 39.7303 31.4387 39.9263 35.2487C39.9394 35.4962 40.1456 35.6875 40.3922 35.6875C40.6622 35.6875 40.8759 35.4597 40.8619 35.1906C40.6359 30.8894 37.4888 27.3634 33.375 26.5225V26.3125H39.0862C39.2803 26.8572 39.795 27.25 40.4062 27.25C41.2828 27.25 41.9719 26.4484 41.7806 25.5381C41.6672 25.0019 41.2294 24.5716 40.6922 24.4656ZM22.5938 26.3125C22.335 26.3125 22.125 26.1025 22.125 25.8438C22.125 25.585 22.335 25.375 22.5938 25.375C22.8525 25.375 23.0625 25.585 23.0625 25.8438C23.0625 26.1025 22.8525 26.3125 22.5938 26.3125ZM32.4375 27.25H30.5625V25.375H32.4375V27.25ZM40.4062 26.3125C40.1475 26.3125 39.9375 26.1025 39.9375 25.8438C39.9375 25.585 40.1475 25.375 40.4062 25.375C40.665 25.375 40.875 25.585 40.875 25.8438C40.875 26.1025 40.665 26.3125 40.4062 26.3125Z" fill="#0B1719"/>
</g>
<defs>
<clipPath id="clip0_2602_33151">
<rect width="30" height="30" fill="white" transform="translate(16.5 16)"/>
</clipPath>
</defs>
</svg>
