<svg width="24" height="24" viewBox="0 0 24 24" fill="none" xmlns="http://www.w3.org/2000/svg">
<path fill-rule="evenodd" clip-rule="evenodd" d="M14.7918 3.39666C15.5024 3.11402 16.263 2.97921 17.0274 3.00047C17.7918 3.02173 18.5438 3.19861 19.2375 3.52032C19.9309 3.84189 20.5516 4.30143 21.0615 4.87085C23.1252 7.16593 22.7668 10.6833 20.6599 12.8008L20.6586 12.8021L13.0648 20.3958L12.5345 19.8655L13.0623 20.3984C12.7796 20.6783 12.3979 20.8354 12.0001 20.8354C11.6023 20.8354 11.2206 20.6783 10.938 20.3984L10.9354 20.3958L3.1448 12.6052C2.60429 12.0643 2.17955 11.4187 1.89691 10.7082C1.61426 9.99766 1.47945 9.23698 1.50071 8.4726C1.52197 7.70823 1.69886 6.95621 2.02056 6.26251C2.34214 5.56908 2.80167 4.94846 3.3711 4.43855C5.66618 2.37477 9.18351 2.73319 11.301 4.8401L11.3044 4.84344L12.0004 5.54483L12.8931 4.6463L12.895 4.64436C13.4359 4.10386 14.0813 3.67931 14.7918 3.39666ZM12.0067 19.3326C12.0066 19.3327 12.0068 19.3326 12.0067 19.3326L19.5966 11.7428C19.5968 11.7426 19.597 11.7424 19.5971 11.7422C21.2208 10.1099 21.406 7.49684 19.9457 5.87334L19.9444 5.872C19.5704 5.45419 19.1152 5.11703 18.6064 4.88111C18.0977 4.64519 17.5462 4.51548 16.9857 4.49989C16.4252 4.48429 15.8673 4.58316 15.3463 4.79043C14.8256 4.99755 14.3526 5.30857 13.9562 5.70452C13.9559 5.70482 13.9556 5.70511 13.9553 5.70541L12.5322 7.13785C12.3914 7.27961 12.1998 7.35931 11.9999 7.35926C11.8001 7.35921 11.6086 7.27941 11.4678 7.13757L10.2414 5.90185C8.60903 4.27917 5.99674 4.09429 4.37358 5.55436L4.37224 5.55557C3.95443 5.92958 3.61727 6.38486 3.38135 6.89357C3.14544 7.40229 3.01572 7.95377 3.00013 8.51431C2.98454 9.07485 3.0834 9.63269 3.29067 10.1537C3.49795 10.6748 3.80928 11.1481 4.20565 11.5448L11.9935 19.3326C11.9934 19.3326 11.9936 19.3327 11.9935 19.3326C11.9953 19.3342 11.9978 19.3354 12.0001 19.3354C12.0025 19.3354 12.005 19.3342 12.0067 19.3326Z" fill="#DF1414"/>
</svg>
