<svg width="25" height="24" viewBox="0 0 25 24" fill="none" xmlns="http://www.w3.org/2000/svg">
<path d="M21.5563 4.86552C21.048 4.29503 20.4279 3.83505 19.7344 3.51413C19.041 3.19321 18.289 3.01818 17.5251 2.9999C16.7619 2.98317 16.0031 3.12068 15.2943 3.40421C14.5855 3.68773 13.9412 4.11142 13.4001 4.6499L12.5001 5.54052L11.797 4.84677C9.61258 2.65302 6.05008 2.46552 3.8657 4.44365C3.29723 4.95362 2.83874 5.57419 2.51829 6.26741C2.19783 6.96062 2.02214 7.71192 2.00196 8.47535C1.98178 9.23879 2.11753 9.99831 2.40091 10.7075C2.68429 11.4167 3.10934 12.0606 3.65008 12.5999L11.4407 20.3905C11.5793 20.5305 11.7443 20.6417 11.9261 20.7176C12.108 20.7934 12.3031 20.8325 12.5001 20.8325C12.6971 20.8325 12.8922 20.7934 13.074 20.7176C13.2558 20.6417 13.4208 20.5305 13.5595 20.3905L21.1532 12.7968C23.347 10.6124 23.5251 7.0499 21.5563 4.86552Z" fill="#DF1414"/>
</svg>
