<svg width="24" height="25" viewBox="0 0 24 25" fill="none" xmlns="http://www.w3.org/2000/svg">
<g id="Phosphor Icons Regular / HeartStraight">
<path id="Vector (Stroke)" fill-rule="evenodd" clip-rule="evenodd" d="M14.7913 3.89666C15.5019 3.61402 16.2625 3.47921 17.0269 3.50047C17.7913 3.52173 18.5433 3.69861 19.237 4.02032C19.9305 4.34189 20.5511 4.80143 21.061 5.37085C23.1248 7.66593 22.7663 11.1833 20.6594 13.3008L20.6581 13.3021L13.0643 20.8958L12.534 20.3655L13.0618 20.8984C12.7792 21.1783 12.3974 21.3354 11.9996 21.3354C11.6018 21.3354 11.2201 21.1783 10.9375 20.8984L10.9349 20.8958L3.14431 13.1052C2.60381 12.5643 2.17906 11.9187 1.89642 11.2082C1.61377 10.4977 1.47896 9.73698 1.50022 8.9726C1.52148 8.20823 1.69837 7.45621 2.02007 6.76251C2.34165 6.06908 2.80118 5.44846 3.37061 4.93855C5.66569 2.87477 9.18302 3.23319 11.3005 5.3401L11.3039 5.34344L11.9999 6.04483L12.8926 5.1463L12.8945 5.14436C13.4354 4.60386 14.0808 4.17931 14.7913 3.89666ZM12.0062 19.8326C12.0062 19.8327 12.0063 19.8326 12.0062 19.8326L19.5961 12.2428C19.5963 12.2426 19.5965 12.2424 19.5967 12.2422C21.2203 10.6099 21.4055 7.99684 19.9452 6.37334L19.944 6.372C19.5699 5.95419 19.1147 5.61703 18.606 5.38111C18.0972 5.14519 17.5458 5.01548 16.9852 4.99989C16.4247 4.98429 15.8668 5.08316 15.3458 5.29043C14.8251 5.49755 14.3521 5.80857 13.9557 6.20452C13.9554 6.20482 13.9551 6.20511 13.9548 6.20541L12.5317 7.63785C12.3909 7.77961 12.1993 7.85931 11.9994 7.85926C11.7996 7.85921 11.6081 7.77941 11.4673 7.63757L10.2409 6.40185C8.60854 4.77917 5.99625 4.59429 4.37309 6.05436L4.37175 6.05557C3.95395 6.42958 3.61678 6.88486 3.38087 7.39357C3.14495 7.90229 3.01523 8.45377 2.99964 9.01431C2.98405 9.57485 3.08291 10.1327 3.29019 10.6537C3.49746 11.1748 3.80879 11.6481 4.20517 12.0448L11.993 19.8326C11.993 19.8326 11.9931 19.8327 11.993 19.8326C11.9948 19.8342 11.9973 19.8354 11.9996 19.8354C12.002 19.8354 12.0045 19.8342 12.0062 19.8326Z" fill="#DF1414"/>
</g>
</svg>
