<svg width="20" height="20" viewBox="0 0 20 20" fill="none" xmlns="http://www.w3.org/2000/svg">
<g clip-path="url(#clip0_5803_44681)">
<path fill-rule="evenodd" clip-rule="evenodd" d="M10.0007 2.49992C5.85851 2.49992 2.50065 5.85778 2.50065 9.99992C2.50065 14.1421 5.85851 17.4999 10.0007 17.4999C14.1428 17.4999 17.5006 14.1421 17.5006 9.99992C17.5006 5.85778 14.1428 2.49992 10.0007 2.49992ZM0.833984 9.99992C0.833984 4.93731 4.93804 0.833252 10.0007 0.833252C15.0633 0.833252 19.1673 4.93731 19.1673 9.99992C19.1673 15.0625 15.0633 19.1666 10.0007 19.1666C4.93804 19.1666 0.833984 15.0625 0.833984 9.99992Z" fill="#222222"/>
<path fill-rule="evenodd" clip-rule="evenodd" d="M10.2158 6.687C9.82791 6.62046 9.42895 6.69336 9.08961 6.89279C8.75028 7.09222 8.49247 7.40531 8.36186 7.77661C8.20913 8.21076 7.73337 8.43891 7.29921 8.28618C6.86505 8.13345 6.63691 7.65769 6.78964 7.22353C7.05086 6.48094 7.56647 5.85476 8.24514 5.4559C8.92381 5.05704 9.72174 4.91124 10.4976 5.04432C11.2735 5.17741 11.9772 5.58078 12.4842 6.18301C12.991 6.78511 13.2685 7.54714 13.2674 8.33416C13.267 9.60946 12.3215 10.4516 11.6463 10.9018C11.2833 11.1438 10.9262 11.3217 10.6632 11.4387C10.5304 11.4976 10.4187 11.5424 10.3382 11.5731C10.2978 11.5884 10.2651 11.6004 10.2413 11.6088L10.2124 11.619L10.2032 11.6221L10.1999 11.6232L10.1986 11.6236C10.1984 11.6237 10.1976 11.624 9.93408 10.8334L10.1976 11.624C9.76098 11.7695 9.28905 11.5335 9.14351 11.0969C8.99807 10.6606 9.23362 10.189 9.66969 10.0431L9.66862 10.0435C9.66871 10.0435 9.66878 10.0434 9.66969 10.0431L9.68298 10.0385C9.6958 10.0339 9.71681 10.0263 9.74484 10.0156C9.80103 9.99419 9.88459 9.96083 9.98626 9.91564C10.192 9.82422 10.4599 9.68968 10.7218 9.51503C11.2965 9.13192 11.6007 8.72435 11.6007 8.3334L11.6007 8.33216C11.6013 7.93856 11.4626 7.55746 11.2091 7.25634C10.9556 6.95523 10.6038 6.75354 10.2158 6.687Z" fill="#222222"/>
<path fill-rule="evenodd" clip-rule="evenodd" d="M9.16602 14.1666C9.16602 13.7063 9.53911 13.3333 9.99935 13.3333H10.0077C10.4679 13.3333 10.841 13.7063 10.841 14.1666C10.841 14.6268 10.4679 14.9999 10.0077 14.9999H9.99935C9.53911 14.9999 9.16602 14.6268 9.16602 14.1666Z" fill="#222222"/>
</g>
<defs>
<clipPath id="clip0_5803_44681">
<rect width="20" height="20" fill="white"/>
</clipPath>
</defs>
</svg>
