<svg width="17" height="17" viewBox="0 0 17 17" fill="none" xmlns="http://www.w3.org/2000/svg">
<path id="Vector" d="M0.733725 7.76513C0.547894 7.6267 0.410049 7.43357 0.339518 7.21284C0.268986 6.99211 0.269304 6.75483 0.340429 6.53429C0.411554 6.31375 0.549919 6.12099 0.736122 5.98306C0.922325 5.84512 1.14703 5.76892 1.37872 5.76513L5.87872 5.59513C5.90085 5.59361 5.92206 5.58571 5.9398 5.57241C5.95755 5.5591 5.97106 5.54095 5.97872 5.52013L7.53372 1.32013C7.61185 1.10645 7.75376 0.921943 7.94022 0.791582C8.12669 0.661222 8.34871 0.591309 8.57622 0.591309C8.80374 0.591309 9.02576 0.661222 9.21223 0.791582C9.39869 0.921943 9.54059 1.10645 9.61872 1.32013L11.1687 5.53513C11.1764 5.55595 11.1899 5.5741 11.2076 5.58741C11.2254 5.60071 11.2466 5.60861 11.2687 5.61013L15.7687 5.78013C16.0004 5.78392 16.2251 5.86012 16.4113 5.99806C16.5975 6.13599 16.7359 6.32875 16.807 6.54929C16.8781 6.76983 16.8785 7.00711 16.8079 7.22784C16.7374 7.44857 16.5996 7.6417 16.4137 7.78013L12.8837 10.5551C12.8661 10.569 12.8529 10.5878 12.8457 10.6091C12.8386 10.6305 12.8379 10.6534 12.8437 10.6751L14.0587 14.9801C14.1217 15.1994 14.1156 15.4326 14.0413 15.6483C13.9669 15.8639 13.828 16.0514 13.6433 16.1853C13.4586 16.3191 13.2372 16.3929 13.0091 16.3964C12.7811 16.4 12.5575 16.3332 12.3687 16.2051L8.63872 13.7051C8.62035 13.6924 8.59855 13.6857 8.57622 13.6857C8.55389 13.6857 8.5321 13.6924 8.51372 13.7051L4.78372 16.2051C4.59752 16.3376 4.37471 16.4087 4.14622 16.4087C3.91774 16.4087 3.69492 16.3376 3.50872 16.2051C3.32401 16.0725 3.18492 15.886 3.1106 15.6711C3.03628 15.4562 3.03039 15.2235 3.09372 15.0051L4.31872 10.6851C4.32521 10.6634 4.32486 10.6403 4.3177 10.6188C4.31054 10.5973 4.29693 10.5786 4.27872 10.5651L0.733725 7.76513Z" fill="#FFC400"/>
</svg>
