<svg width="21" height="18" viewBox="0 0 21 18" fill="none" xmlns="http://www.w3.org/2000/svg">
<path d="M5.53294 1.63002C5.59105 1.57191 5.63714 1.50292 5.66859 1.427C5.70004 1.35108 5.71623 1.26971 5.71623 1.18753C5.71623 1.10536 5.70004 1.02398 5.66859 0.948063C5.63714 0.872141 5.59105 0.803157 5.53294 0.74505C5.47484 0.686942 5.40585 0.640849 5.32993 0.609401C5.25401 0.577954 5.17264 0.561768 5.09046 0.561768C5.00828 0.561768 4.92691 0.577954 4.85099 0.609401C4.77507 0.640849 4.70609 0.686942 4.64798 0.74505L2.59056 2.80372L1.78309 1.995C1.66574 1.87765 1.50657 1.81172 1.34061 1.81172C1.17465 1.81172 1.01548 1.87765 0.898126 1.995C0.780772 2.11235 0.714844 2.27152 0.714844 2.43748C0.714844 2.51966 0.73103 2.60103 0.762477 2.67695C0.793925 2.75287 0.840018 2.82186 0.898126 2.87997L2.14808 4.12992C2.20613 4.18812 2.2751 4.23429 2.35103 4.2658C2.42695 4.29731 2.50835 4.31353 2.59056 4.31353C2.67277 4.31353 2.75416 4.29731 2.83009 4.2658C2.90602 4.23429 2.97499 4.18812 3.03304 4.12992L5.53294 1.63002ZM9.1528 1.81251C8.90417 1.81251 8.66572 1.91128 8.48991 2.08708C8.31411 2.26289 8.21534 2.50134 8.21534 2.74997C8.21534 2.9986 8.31411 3.23705 8.48991 3.41286C8.66572 3.58867 8.90417 3.68743 9.1528 3.68743H19.7774C20.026 3.68743 20.2645 3.58867 20.4403 3.41286C20.6161 3.23705 20.7148 2.9986 20.7148 2.74997C20.7148 2.50134 20.6161 2.26289 20.4403 2.08708C20.2645 1.91128 20.026 1.81251 19.7774 1.81251H9.1528ZM9.1528 8.06226C8.90417 8.06226 8.66572 8.16103 8.48991 8.33684C8.31411 8.51265 8.21534 8.75109 8.21534 8.99972C8.21534 9.24835 8.31411 9.4868 8.48991 9.66261C8.66572 9.83842 8.90417 9.93719 9.1528 9.93719H19.7774C20.026 9.93719 20.2645 9.83842 20.4403 9.66261C20.6161 9.4868 20.7148 9.24835 20.7148 8.99972C20.7148 8.75109 20.6161 8.51265 20.4403 8.33684C20.2645 8.16103 20.026 8.06226 19.7774 8.06226H9.1528ZM8.21534 15.2495C8.21534 15.0008 8.31411 14.7624 8.48991 14.5866C8.66572 14.4108 8.90417 14.312 9.1528 14.312H19.7774C20.026 14.312 20.2645 14.4108 20.4403 14.5866C20.6161 14.7624 20.7148 15.0008 20.7148 15.2495C20.7148 15.4981 20.6161 15.7366 20.4403 15.9124C20.2645 16.0882 20.026 16.1869 19.7774 16.1869H9.1528C8.90417 16.1869 8.66572 16.0882 8.48991 15.9124C8.31411 15.7366 8.21534 15.4981 8.21534 15.2495ZM5.53294 8.50474C5.6503 8.38739 5.71623 8.22822 5.71623 8.06226C5.71623 7.8963 5.6503 7.73713 5.53294 7.61978C5.41559 7.50242 5.25642 7.4365 5.09046 7.4365C4.9245 7.4365 4.76533 7.50242 4.64798 7.61978L2.59056 9.67845L1.78309 8.86973C1.66574 8.75237 1.50657 8.68645 1.34061 8.68645C1.17465 8.68645 1.01548 8.75237 0.898126 8.86973C0.780772 8.98708 0.714844 9.14625 0.714844 9.31221C0.714844 9.47817 0.780772 9.63734 0.898126 9.75469L2.14808 11.0046C2.20613 11.0628 2.2751 11.109 2.35103 11.1405C2.42695 11.172 2.50835 11.1883 2.59056 11.1883C2.67277 11.1883 2.75416 11.172 2.83009 11.1405C2.90602 11.109 2.97499 11.0628 3.03304 11.0046L5.53294 8.50474ZM5.53294 13.8695C5.59115 13.9276 5.63732 13.9966 5.66883 14.0725C5.70034 14.1484 5.71655 14.2298 5.71655 14.312C5.71655 14.3942 5.70034 14.4756 5.66883 14.5515C5.63732 14.6275 5.59115 14.6964 5.53294 14.7545L3.03304 17.2544C2.97499 17.3126 2.90602 17.3588 2.83009 17.3903C2.75416 17.4218 2.67277 17.438 2.59056 17.438C2.50835 17.438 2.42695 17.4218 2.35103 17.3903C2.2751 17.3588 2.20613 17.3126 2.14808 17.2544L0.898126 16.0044C0.780772 15.8871 0.714844 15.7279 0.714844 15.562C0.714844 15.396 0.780772 15.2368 0.898126 15.1195C1.01548 15.0021 1.17465 14.9362 1.34061 14.9362C1.50657 14.9362 1.66574 15.0021 1.78309 15.1195L2.59056 15.9282L4.64798 13.8695C4.70603 13.8113 4.775 13.7652 4.85093 13.7336C4.92686 13.7021 5.00825 13.6859 5.09046 13.6859C5.17267 13.6859 5.25406 13.7021 5.32999 13.7336C5.40592 13.7652 5.47489 13.8113 5.53294 13.8695Z" fill="#222222"/>
</svg>
