<svg width="109" height="108" viewBox="0 0 109 108" fill="none" xmlns="http://www.w3.org/2000/svg">
<g id="student-svgrepo-com (1) 1" clip-path="url(#clip0_1614_74545)">
<path id="Vector" d="M54.5 5.58618C35.8696 5.58618 31.6348 24.2963 31.4623 47.6201C31.4551 48.5904 32.0252 49.4646 32.8994 49.8729C36.1915 51.4113 42.0416 52.6004 46.5863 53.307H62.4137C66.9582 52.6004 72.8085 51.4111 76.1006 49.8729C76.9743 49.4648 77.5449 48.5906 77.5378 47.6201C77.3652 24.2961 73.1304 5.58618 54.5 5.58618Z" fill="#694B4B"/>
<path id="Vector_2" d="M31.4623 47.6199C31.4551 48.5902 32.0252 49.4643 32.8994 49.8727C36.1915 51.4111 42.0416 52.6001 46.5863 53.3068H54.5V26.0688C54.5 26.0688 45.2453 26.5204 47.0518 26.0688C54.5 24.2067 69.3966 14.8963 60.7332 6.4107C58.8595 5.87197 56.7895 5.58594 54.5002 5.58594C35.8696 5.58615 31.6348 24.2961 31.4623 47.6199Z" fill="#5A4146"/>
<path id="Vector_3" d="M82.4743 96.8274V68.1458C82.4743 65.1391 80.6662 62.4269 77.8909 61.2705L64.753 55.7965C63.5266 55.2856 62.7278 54.0871 62.7278 52.7586V48.782H46.2722V52.7586C46.2722 54.0871 45.4733 55.2854 44.2469 55.7965L31.1091 61.2705C28.3334 62.4271 26.5257 65.1389 26.5257 68.1458V96.8274H82.4743Z" fill="#D29B6E"/>
<path id="Vector_4" d="M77.8909 61.2705L68.6552 57.4224C65.2551 61.5257 61.8841 64.6217 58.9491 66.8909H50.0509C47.1161 64.6214 43.7449 61.5255 40.3448 57.4224L31.1091 61.2705C28.3334 62.4269 26.5257 65.1389 26.5257 68.1458V96.8274H82.4745V68.1458C82.4743 65.1389 80.6662 62.4269 77.8909 61.2705Z" fill="#FFDC64"/>
<g id="Group">
<path id="Vector_5" d="M27.5945 64.3359C26.9189 65.467 26.5257 66.771 26.5257 68.1459V96.8275H37.7414V74.4827L27.5945 64.3359Z" fill="#FFC850"/>
<path id="Vector_6" d="M81.4055 64.3359C82.0811 65.467 82.4743 66.771 82.4743 68.1459V96.8275H71.2585V74.4827L81.4055 64.3359Z" fill="#FFC850"/>
</g>
<path id="Vector_7" d="M70.8329 28.3279L69.6251 41.6121C69.4278 43.7812 68.1706 45.7123 66.2665 46.7699L57.6965 51.531C55.7085 52.6355 53.2913 52.6355 51.3034 51.531L42.7335 46.7699C40.8296 45.7123 39.5722 43.7812 39.3749 41.6121L38.2089 28.7841C38.1184 27.7894 38.8261 26.9038 39.8183 26.788C44.2132 26.275 55.7565 24.6662 62.7428 21.2733C63.6264 20.844 64.6628 21.1902 65.1526 22.0415C65.9535 23.4335 67.4315 25.3804 69.856 26.5351C70.5268 26.8547 70.9002 27.5879 70.8329 28.3279Z" fill="#F0C087"/>
<path id="Vector_8" d="M106.638 102.414H2.36216C1.33384 102.414 0.5 101.58 0.5 100.552V96.8275C0.5 95.7992 1.33384 94.9653 2.36216 94.9653H106.638C107.666 94.9653 108.5 95.7992 108.5 96.8275V100.552C108.5 101.58 107.666 102.414 106.638 102.414Z" fill="#F5DCB4"/>
<path id="Vector_9" d="M38.2087 28.7843L39.3747 41.6123C39.5719 43.7814 40.8291 45.7123 42.7333 46.7701L51.3032 51.5312C52.0877 51.967 52.9435 52.1805 53.8088 52.272L51.3971 46.2434C50.9851 45.2132 50.7289 44.1277 50.6367 43.022L49.6115 30.722C49.533 29.7795 50.1713 28.9369 51.0971 28.7447C55.0642 27.922 59.3083 26.8034 62.8396 25.3144C64.0042 26.9245 65.7482 28.7038 68.2546 29.8975C68.757 30.1367 68.9956 30.2457 70.6458 30.3811L70.8325 28.3275C70.9 27.5841 70.5201 26.8522 69.8465 26.5305C67.4273 25.3754 65.952 23.4316 65.1523 22.0415C64.6625 21.1902 63.626 20.844 62.7424 21.2733C55.7561 24.6664 44.2132 26.275 39.8179 26.788C38.8261 26.904 38.1182 27.7894 38.2087 28.7843Z" fill="#E6AF78"/>
<path id="Vector_10" d="M37.4771 59.7984C40.6566 63.6353 44.1206 67.0128 47.7726 69.8371L48.7787 70.6152H50.0507H58.9489H60.2208L61.227 69.8371C64.8792 67.0131 68.3432 63.6355 71.5224 59.7984L72.25 58.9204L68.6547 57.4224C65.2546 61.5257 61.8836 64.6217 58.9487 66.8909H50.0505C47.1157 64.6214 43.7445 61.5255 40.3444 57.4224L36.7492 58.9204L37.4771 59.7984Z" fill="#FFC850"/>
<path id="Vector_11" d="M71.2586 94.9656H37.7414C35.6846 94.9656 34.0173 93.2984 34.0173 91.2415V68.8967C34.0173 66.8399 35.6846 65.1726 37.7414 65.1726H71.2588C73.3156 65.1726 74.9829 66.8399 74.9829 68.8967V91.2415C74.9827 93.2984 73.3154 94.9656 71.2586 94.9656Z" fill="#D5DCED"/>
<path id="Vector_12" d="M54.5 83.7929C56.5568 83.7929 58.2241 82.1256 58.2241 80.0688C58.2241 78.0121 56.5568 76.3447 54.5 76.3447C52.4432 76.3447 50.7759 78.0121 50.7759 80.0688C50.7759 82.1256 52.4432 83.7929 54.5 83.7929Z" fill="white"/>
</g>
<defs>
<clipPath id="clip0_1614_74545">
<rect width="108" height="108" fill="white" transform="translate(0.5)"/>
</clipPath>
</defs>
</svg>
