<svg width="62" height="62" viewBox="0 0 62 62" fill="none" xmlns="http://www.w3.org/2000/svg">
<rect width="62" height="62" rx="7.05882" fill="#C3E7F7"/>
<g clip-path="url(#clip0_2602_33113)">
<path d="M44.3316 28.5806C44.2 27.8534 44.0065 27.1334 43.7544 26.4298L45.2002 25.5952L42.7808 21.4048L41.3326 22.241C40.8521 21.6753 40.3252 21.1484 39.7595 20.6679L40.5956 19.2197L36.4053 16.8003L35.5706 18.2461C34.8666 17.9935 34.1466 17.8005 33.4194 17.6684V16H28.5806V17.6684C27.8534 17.8 27.1334 17.9935 26.4298 18.2456L25.5952 16.7998L21.4048 19.2192L22.241 20.6674C21.6753 21.1479 21.1484 21.6748 20.6679 22.2405L19.2192 21.4048L16.7998 25.5952L18.2456 26.4298C17.9935 27.1334 17.8005 27.8534 17.6684 28.5806H16V33.4194H17.6684C17.8 34.1466 17.9935 34.8666 18.2456 35.5702L16.7998 36.4048L19.2192 40.5952L20.6674 39.759C21.1479 40.3247 21.6748 40.8516 22.2405 41.3321L21.4044 42.7803L25.5947 45.1997L26.4294 43.7539C27.1329 44.006 27.8529 44.1995 28.5802 44.3311V46H33.4189V44.3316C34.1461 44.2 34.8661 44.0065 35.5697 43.7544L36.4044 45.2002L40.5947 42.7808L39.7585 41.3326C40.3242 40.8521 40.8511 40.3252 41.3316 39.7595L42.7798 40.5956L45.1992 36.4053L43.7534 35.5706C44.0055 34.8671 44.199 34.1471 44.3306 33.4198H46V33.4194V28.5806H44.3316ZM45.0323 32.4516H43.5037L43.4423 32.8648C43.3044 33.7953 43.0566 34.7176 42.7063 35.6069L42.5539 35.995L43.8777 36.759L42.4261 39.2727L41.1003 38.5077L40.8405 38.8334C40.2497 39.5742 39.5747 40.2497 38.8339 40.84L38.5082 41.0998L39.2732 42.4256L36.7595 43.8773L35.995 42.5534L35.6069 42.7058C34.7176 43.0561 33.7953 43.3034 32.8648 43.4418L32.4516 43.5037V45.0323H29.5484V43.5037L29.1352 43.4423C28.2047 43.3044 27.2824 43.0566 26.3931 42.7063L26.005 42.5539L25.2405 43.8777L22.7268 42.4261L23.4918 41.1003L23.1661 40.8405C22.4253 40.2497 21.7498 39.5747 21.1595 38.8339L20.8997 38.5082L19.5739 39.2732L18.1223 36.7595L19.4461 35.995L19.2937 35.6069C18.9434 34.7176 18.6961 33.7953 18.5577 32.8648L18.4963 32.4516H16.9677V29.5484H18.4963L18.5577 29.1352C18.6956 28.2047 18.9434 27.2824 19.2937 26.3931L19.4461 26.005L18.1223 25.2405L19.5739 22.7268L20.8997 23.4918L21.1595 23.1661C21.7503 22.4253 22.4253 21.7498 23.1661 21.1595L23.4918 20.8997L22.7268 19.5739L25.2405 18.1223L26.005 19.4461L26.3931 19.2937C27.2824 18.9434 28.2047 18.6961 29.1352 18.5577L29.5484 18.4963V16.9677H32.4516V18.4963L32.8648 18.5577C33.7953 18.6956 34.7176 18.9434 35.6069 19.2937L35.995 19.4461L36.7595 18.1223L39.2732 19.5739L38.5082 20.8997L38.8339 21.1595C39.5747 21.7503 40.2502 22.4253 40.8405 23.1661L41.1003 23.4918L42.4261 22.7268L43.8777 25.2405L42.5539 26.005L42.7063 26.3931C43.0566 27.2824 43.3039 28.2047 43.4423 29.1352L43.5037 29.5484H45.0323V32.4516Z" fill="#222222"/>
<path d="M31.4839 38.2581H30.5161V39.2258H31.4839V38.2581Z" fill="#222222"/>
<path d="M31.4839 42.1292H30.5161V43.0969H31.4839V42.1292Z" fill="#222222"/>
<path d="M21.8064 26.3312V36.6371L30.5161 40.5086V41.1613H31.4839V40.5081L40.1935 36.6366V26.3312L31 22.2449L21.8064 26.3312ZM33.9032 31C33.9032 31.946 33.4377 32.8363 32.6587 33.3812L32.4516 33.5254V34.3871H31.4839V32.3626C32.0456 32.1623 32.4516 31.63 32.4516 31C32.4516 30.1997 31.8003 29.5484 31 29.5484C30.1997 29.5484 29.5484 30.1997 29.5484 31C29.5484 31.63 29.9544 32.1623 30.5161 32.3626V34.3871H29.5484V33.5254L29.3413 33.3812C28.5623 32.8363 28.0968 31.946 28.0968 31C28.0968 29.3989 29.3989 28.0968 31 28.0968C32.6011 28.0968 33.9032 29.3989 33.9032 31ZM32.4516 35.3549V36.3226H29.5484V35.3549H32.4516ZM30.5161 31C30.5161 30.7329 30.7329 30.5162 31 30.5162C31.2671 30.5162 31.4839 30.7329 31.4839 31C31.4839 31.2671 31.2671 31.4839 31 31.4839C30.7329 31.4839 30.5161 31.2671 30.5161 31ZM30.5161 23.5189V27.1625C29.4744 27.2931 28.5618 27.8389 27.9463 28.6291L23.4816 26.6452L30.5161 23.5189ZM39.2258 36.0086L31 39.6637L22.7742 36.0081V27.3899L27.4469 29.4666C27.2432 29.9375 27.129 30.4557 27.129 31C27.129 32.1763 27.6671 33.2863 28.5806 34.0194V34.3871H27.6129V35.3549H28.5806V37.2904H33.4194V35.3549H34.3871V34.3871H33.4194V34.0194C34.3329 33.2858 34.871 32.1758 34.871 31C34.871 30.4557 34.7568 29.9375 34.5531 29.4666L39.2258 27.3899V36.0086ZM31.4839 23.5189L38.5184 26.6452L34.0537 28.6295C33.4382 27.8389 32.5256 27.2936 31.4839 27.1625V23.5189Z" fill="#222222"/>
</g>
<defs>
<clipPath id="clip0_2602_33113">
<rect width="30" height="30" fill="white" transform="translate(16 16)"/>
</clipPath>
</defs>
</svg>
