<svg width="32" height="32" viewBox="0 0 32 33" fill="none" xmlns="http://www.w3.org/2000/svg">
<circle cx="16" cy="16.8572" r="16" fill="#DDDCE3"/>
<path d="M11.8 6.85718H20.2C23.4 6.85718 26 9.45718 26 12.6572V21.0572C26 22.5954 25.3889 24.0707 24.3012 25.1584C23.2135 26.2461 21.7383 26.8572 20.2 26.8572H11.8C8.6 26.8572 6 24.2572 6 21.0572V12.6572C6 11.1189 6.61107 9.64367 7.69878 8.55596C8.78649 7.46825 10.2617 6.85718 11.8 6.85718ZM11.6 8.85718C10.6452 8.85718 9.72955 9.23646 9.05442 9.91159C8.37928 10.5867 8 11.5024 8 12.4572V21.2572C8 23.2472 9.61 24.8572 11.6 24.8572H20.4C21.3548 24.8572 22.2705 24.4779 22.9456 23.8028C23.6207 23.1276 24 22.212 24 21.2572V12.4572C24 10.4672 22.39 8.85718 20.4 8.85718H11.6ZM21.25 10.3572C21.5815 10.3572 21.8995 10.4889 22.1339 10.7233C22.3683 10.9577 22.5 11.2757 22.5 11.6072C22.5 11.9387 22.3683 12.2566 22.1339 12.4911C21.8995 12.7255 21.5815 12.8572 21.25 12.8572C20.9185 12.8572 20.6005 12.7255 20.3661 12.4911C20.1317 12.2566 20 11.9387 20 11.6072C20 11.2757 20.1317 10.9577 20.3661 10.7233C20.6005 10.4889 20.9185 10.3572 21.25 10.3572ZM16 11.8572C17.3261 11.8572 18.5979 12.384 19.5355 13.3216C20.4732 14.2593 21 15.5311 21 16.8572C21 18.1833 20.4732 19.455 19.5355 20.3927C18.5979 21.3304 17.3261 21.8572 16 21.8572C14.6739 21.8572 13.4021 21.3304 12.4645 20.3927C11.5268 19.455 11 18.1833 11 16.8572C11 15.5311 11.5268 14.2593 12.4645 13.3216C13.4021 12.384 14.6739 11.8572 16 11.8572ZM16 13.8572C15.2044 13.8572 14.4413 14.1732 13.8787 14.7359C13.3161 15.2985 13 16.0615 13 16.8572C13 17.6528 13.3161 18.4159 13.8787 18.9785C14.4413 19.5411 15.2044 19.8572 16 19.8572C16.7956 19.8572 17.5587 19.5411 18.1213 18.9785C18.6839 18.4159 19 17.6528 19 16.8572C19 16.0615 18.6839 15.2985 18.1213 14.7359C17.5587 14.1732 16.7956 13.8572 16 13.8572Z" fill="#5B5B5B"/>
</svg>
