<svg width="32" height="32" viewBox="0 0 32 33" fill="none" xmlns="http://www.w3.org/2000/svg">
<circle cx="16" cy="16.8572" r="16" fill="#DDDCE3"/>
<path d="M10.94 9.8572C10.9397 10.3876 10.7288 10.8962 10.3535 11.2711C9.97825 11.646 9.46944 11.8565 8.939 11.8562C8.40857 11.8559 7.89997 11.645 7.52508 11.2697C7.1502 10.8944 6.93974 10.3856 6.94 9.8552C6.94027 9.32477 7.15124 8.81617 7.5265 8.44128C7.90176 8.0664 8.41057 7.85594 8.941 7.8562C9.47144 7.85647 9.98004 8.06743 10.3549 8.44269C10.7298 8.81796 10.9403 9.32677 10.94 9.8572ZM11 13.3372H7V25.8572H11V13.3372ZM17.32 13.3372H13.34V25.8572H17.28V19.2872C17.28 15.6272 22.05 15.2872 22.05 19.2872V25.8572H26V17.9272C26 11.7572 18.94 11.9872 17.28 15.0172L17.32 13.3372Z" fill="#5B5B5B"/>
</svg>
