<svg width="35" height="45" viewBox="0 0 35 45" fill="none" xmlns="http://www.w3.org/2000/svg">
<path d="M17.5 34.125C16.3728 34.125 15.2918 33.6772 14.4948 32.8802C13.6978 32.0832 13.25 31.0022 13.25 29.875C13.25 27.5163 15.1412 25.625 17.5 25.625C18.6272 25.625 19.7082 26.0728 20.5052 26.8698C21.3022 27.6668 21.75 28.7478 21.75 29.875C21.75 31.0022 21.3022 32.0832 20.5052 32.8802C19.7082 33.6772 18.6272 34.125 17.5 34.125ZM30.25 40.5V19.25H4.75V40.5H30.25ZM30.25 15C31.3772 15 32.4582 15.4478 33.2552 16.2448C34.0522 17.0418 34.5 18.1228 34.5 19.25V40.5C34.5 41.6272 34.0522 42.7082 33.2552 43.5052C32.4582 44.3022 31.3772 44.75 30.25 44.75H4.75C3.62283 44.75 2.54183 44.3022 1.7448 43.5052C0.947766 42.7082 0.5 41.6272 0.5 40.5V19.25C0.5 16.8913 2.39125 15 4.75 15H6.875V10.75C6.875 7.93207 7.99442 5.22956 9.98699 3.23699C11.9796 1.24442 14.6821 0.125 17.5 0.125C18.8953 0.125 20.2769 0.399824 21.566 0.93378C22.8551 1.46774 24.0264 2.25037 25.013 3.23699C25.9996 4.22361 26.7823 5.3949 27.3162 6.68399C27.8502 7.97307 28.125 9.3547 28.125 10.75V15H30.25ZM17.5 4.375C15.8092 4.375 14.1877 5.04665 12.9922 6.24219C11.7966 7.43774 11.125 9.05925 11.125 10.75V15H23.875V10.75C23.875 9.05925 23.2034 7.43774 22.0078 6.24219C20.8123 5.04665 19.1908 4.375 17.5 4.375Z" fill="#222222"/>
</svg>
