<svg width="25" height="24" viewBox="0 0 25 24" fill="none" xmlns="http://www.w3.org/2000/svg">
<g clip-path="url(#clip0_4844_19140)">
<path d="M23.1653 10.0645C23.06 9.48271 22.9052 8.90671 22.7035 8.34387L23.8601 7.67613L21.9246 4.32387L20.7661 4.99277C20.3817 4.54026 19.9601 4.11871 19.5076 3.73432L20.1765 2.57574L16.8243 0.640258L16.1565 1.7969C15.5933 1.59484 15.0173 1.44039 14.4355 1.33471V0H10.5645V1.33471C9.98271 1.44 9.40671 1.59484 8.84387 1.79652L8.17613 0.639871L4.82387 2.57535L5.49277 3.73394C5.04026 4.11832 4.61871 4.53987 4.23432 4.99239L3.07535 4.32387L1.13987 7.67613L2.29652 8.34387C2.09484 8.90671 1.94039 9.48271 1.83471 10.0645H0.5V13.9355H1.83471C1.94 14.5173 2.09484 15.0933 2.29652 15.6561L1.13987 16.3239L3.07535 19.6761L4.23394 19.0072C4.61832 19.4597 5.03987 19.8813 5.49239 20.2657L4.82348 21.4243L8.17574 23.3597L8.84348 22.2031C9.40632 22.4048 9.98232 22.5596 10.5641 22.6649V24H14.4351V22.6653C15.0169 22.56 15.5929 22.4052 16.1557 22.2035L16.8235 23.3601L20.1757 21.4246L19.5068 20.2661C19.9594 19.8817 20.3809 19.4601 20.7653 19.0076L21.9239 19.6765L23.8594 16.3243L22.7027 15.6565C22.9044 15.0937 23.0592 14.5177 23.1645 13.9359H24.5V13.9355V10.0645H23.1653ZM23.7258 13.1613H22.503L22.4538 13.4919C22.3435 14.2363 22.1453 14.9741 21.865 15.6855L21.7431 15.996L22.8022 16.6072L21.6409 18.6182L20.5803 18.0062L20.3724 18.2667C19.8997 18.8594 19.3597 19.3997 18.7671 19.872L18.5066 20.0799L19.1186 21.1405L17.1076 22.3018L16.496 21.2427L16.1855 21.3646C15.4741 21.6449 14.7363 21.8427 13.9919 21.9534L13.6613 22.003V23.2258H11.3387V22.003L11.0081 21.9538C10.2637 21.8435 9.52594 21.6453 8.81445 21.365L8.504 21.2431L7.89239 22.3022L5.88142 21.1409L6.49342 20.0803L6.2329 19.8724C5.64026 19.3997 5.09987 18.8597 4.62761 18.2671L4.41974 18.0066L3.3591 18.6186L2.19781 16.6076L3.2569 15.996L3.13497 15.6855C2.85471 14.9741 2.6569 14.2363 2.54619 13.4919L2.49703 13.1613H1.27419V10.8387H2.49703L2.54619 10.5081C2.65652 9.76374 2.85471 9.02594 3.13497 8.31445L3.2569 8.004L2.19781 7.39239L3.3591 5.38142L4.41974 5.99342L4.62761 5.7329C5.10026 5.14026 5.64026 4.59987 6.2329 4.12761L6.49342 3.91974L5.88142 2.8591L7.89239 1.69781L8.504 2.7569L8.81445 2.63497C9.52594 2.35471 10.2637 2.1569 11.0081 2.04619L11.3387 1.99703V0.774194H13.6613V1.99703L13.9919 2.04619C14.7363 2.15652 15.4741 2.35471 16.1855 2.63497L16.496 2.7569L17.1076 1.69781L19.1186 2.8591L18.5066 3.91974L18.7671 4.12761C19.3597 4.60026 19.9001 5.14026 20.3724 5.7329L20.5803 5.99342L21.6409 5.38142L22.8022 7.39239L21.7431 8.004L21.865 8.31445C22.1453 9.02594 22.3431 9.76374 22.4538 10.5081L22.503 10.8387H23.7258V13.1613Z" fill="#222222"/>
<path d="M12.8871 17.8064H12.1129V18.5806H12.8871V17.8064Z" fill="#222222"/>
<path d="M12.8871 20.9033H12.1129V21.6775H12.8871V20.9033Z" fill="#222222"/>
<path d="M5.14516 8.26488V16.5097L12.1129 19.6068V20.129H12.8871V19.6064L19.8548 16.5093V8.26488L12.5 4.99585L5.14516 8.26488ZM14.8226 12C14.8226 12.7568 14.4502 13.469 13.827 13.9049L13.6613 14.0202V14.7097H12.8871V13.09C13.3365 12.9298 13.6613 12.504 13.6613 12C13.6613 11.3597 13.1403 10.8387 12.5 10.8387C11.8597 10.8387 11.3387 11.3597 11.3387 12C11.3387 12.504 11.6635 12.9298 12.1129 13.09V14.7097H11.3387V14.0202L11.173 13.9049C10.5498 13.469 10.1774 12.7568 10.1774 12C10.1774 10.7191 11.2191 9.6774 12.5 9.6774C13.7809 9.6774 14.8226 10.7191 14.8226 12ZM13.6613 15.4838V16.258H11.3387V15.4838H13.6613ZM12.1129 12C12.1129 11.7863 12.2863 11.6129 12.5 11.6129C12.7137 11.6129 12.8871 11.7863 12.8871 12C12.8871 12.2137 12.7137 12.3871 12.5 12.3871C12.2863 12.3871 12.1129 12.2137 12.1129 12ZM12.1129 6.01508V8.92991C11.2795 9.03443 10.5494 9.47108 10.057 10.1032L6.48529 8.51611L12.1129 6.01508ZM19.0806 16.0068L12.5 18.9309L5.91936 16.0064V9.11185L9.65755 10.7733C9.49458 11.1499 9.40323 11.5645 9.40323 12C9.40323 12.941 9.83368 13.829 10.5645 14.4155V14.7097H9.79033V15.4838H10.5645V17.0322H14.4355V15.4838H15.2097V14.7097H14.4355V14.4155C15.1663 13.8286 15.5968 12.9406 15.5968 12C15.5968 11.5645 15.5054 11.1499 15.3425 10.7733L19.0806 9.11185V16.0068ZM12.8871 6.01508L18.5147 8.51611L14.943 10.1036C14.4506 9.47108 13.7205 9.03482 12.8871 8.92991V6.01508Z" fill="#222222"/>
</g>
<defs>
<clipPath id="clip0_4844_19140">
<rect width="24" height="24" fill="white" transform="translate(0.5)"/>
</clipPath>
</defs>
</svg>
