<svg width="30" height="30" viewBox="0 0 30 30" fill="none" xmlns="http://www.w3.org/2000/svg">
<g id="management-gear-svgrepo-com 1" clip-path="url(#clip0_3828_35854)">
<g id="Group">
<g id="Group_2">
<g id="Group_3">
<path id="Vector" d="M28.3316 12.5806C28.2 11.8534 28.0065 11.1334 27.7544 10.4298L29.2002 9.59516L26.7808 5.40484L25.3326 6.24097C24.8521 5.67532 24.3252 5.14839 23.7595 4.6679L24.5956 3.21968L20.4053 0.800323L19.5706 2.24613C18.8666 1.99355 18.1466 1.80048 17.4194 1.66839V0H12.5806V1.66839C11.8534 1.8 11.1334 1.99355 10.4298 2.24565L9.59516 0.799839L5.40484 3.21919L6.24097 4.66742C5.67532 5.1479 5.14839 5.67484 4.6679 6.24048L3.21919 5.40484L0.799839 9.59516L2.24565 10.4298C1.99355 11.1334 1.80048 11.8534 1.66839 12.5806H0V17.4194H1.66839C1.8 18.1466 1.99355 18.8666 2.24565 19.5702L0.799839 20.4048L3.21919 24.5952L4.66742 23.759C5.1479 24.3247 5.67484 24.8516 6.24048 25.3321L5.40435 26.7803L9.59468 29.1997L10.4294 27.7539C11.1329 28.006 11.8529 28.1995 12.5802 28.3311V30H17.4189V28.3316C18.1461 28.2 18.8661 28.0065 19.5697 27.7544L20.4044 29.2002L24.5947 26.7808L23.7585 25.3326C24.3242 24.8521 24.8511 24.3252 25.3316 23.7595L26.7798 24.5956L29.1992 20.4053L27.7534 19.5706C28.0055 18.8671 28.199 18.1471 28.3306 17.4198H30V17.4194V12.5806H28.3316ZM29.0323 16.4516H27.5037L27.4423 16.8648C27.3044 17.7953 27.0566 18.7176 26.7063 19.6069L26.5539 19.995L27.8777 20.759L26.4261 23.2727L25.1003 22.5077L24.8405 22.8334C24.2497 23.5742 23.5747 24.2497 22.8339 24.84L22.5082 25.0998L23.2732 26.4256L20.7595 27.8773L19.995 26.5534L19.6069 26.7058C18.7176 27.0561 17.7953 27.3034 16.8648 27.4418L16.4516 27.5037V29.0323H13.5484V27.5037L13.1352 27.4423C12.2047 27.3044 11.2824 27.0566 10.3931 26.7063L10.005 26.5539L9.24048 27.8777L6.72677 26.4261L7.49177 25.1003L7.16613 24.8405C6.42532 24.2497 5.74984 23.5747 5.15952 22.8339L4.89968 22.5082L3.57387 23.2732L2.12226 20.7595L3.44613 19.995L3.29371 19.6069C2.94339 18.7176 2.69613 17.7953 2.55774 16.8648L2.49629 16.4516H0.967742V13.5484H2.49629L2.55774 13.1352C2.69564 12.2047 2.94339 11.2824 3.29371 10.3931L3.44613 10.005L2.12226 9.24048L3.57387 6.72677L4.89968 7.49177L5.15952 7.16613C5.75032 6.42532 6.42532 5.74984 7.16613 5.15952L7.49177 4.89968L6.72677 3.57387L9.24048 2.12226L10.005 3.44613L10.3931 3.29371C11.2824 2.94339 12.2047 2.69613 13.1352 2.55774L13.5484 2.49629V0.967742H16.4516V2.49629L16.8648 2.55774C17.7953 2.69564 18.7176 2.94339 19.6069 3.29371L19.995 3.44613L20.7595 2.12226L23.2732 3.57387L22.5082 4.89968L22.8339 5.15952C23.5747 5.75032 24.2502 6.42532 24.8405 7.16613L25.1003 7.49177L26.4261 6.72677L27.8777 9.24048L26.5539 10.005L26.7063 10.3931C27.0566 11.2824 27.3039 12.2047 27.4423 13.1352L27.5037 13.5484H29.0323V16.4516Z" fill="#222222"/>
<path id="Vector_2" d="M15.4839 22.2581H14.5161V23.2258H15.4839V22.2581Z" fill="#222222"/>
<path id="Vector_3" d="M15.4839 26.1292H14.5161V27.0969H15.4839V26.1292Z" fill="#222222"/>
<path id="Vector_4" d="M5.80645 10.3312V20.6371L14.5161 24.5086V25.1613H15.4839V24.5081L24.1935 20.6366V10.3312L15 6.24487L5.80645 10.3312ZM17.9032 15C17.9032 15.946 17.4377 16.8363 16.6587 17.3812L16.4516 17.5254V18.3871H15.4839V16.3626C16.0456 16.1623 16.4516 15.63 16.4516 15C16.4516 14.1997 15.8003 13.5484 15 13.5484C14.1997 13.5484 13.5484 14.1997 13.5484 15C13.5484 15.63 13.9544 16.1623 14.5161 16.3626V18.3871H13.5484V17.5254L13.3413 17.3812C12.5623 16.8363 12.0968 15.946 12.0968 15C12.0968 13.3989 13.3989 12.0968 15 12.0968C16.6011 12.0968 17.9032 13.3989 17.9032 15ZM16.4516 19.3549V20.3226H13.5484V19.3549H16.4516ZM14.5161 15C14.5161 14.7329 14.7329 14.5162 15 14.5162C15.2671 14.5162 15.4839 14.7329 15.4839 15C15.4839 15.2671 15.2671 15.4839 15 15.4839C14.7329 15.4839 14.5161 15.2671 14.5161 15ZM14.5161 7.51891V11.1625C13.4744 11.2931 12.5618 11.8389 11.9463 12.6291L7.48161 10.6452L14.5161 7.51891ZM23.2258 20.0086L15 23.6637L6.77419 20.0081V11.3899L11.4469 13.4666C11.2432 13.9375 11.129 14.4557 11.129 15C11.129 16.1763 11.6671 17.2863 12.5806 18.0194V18.3871H11.6129V19.3549H12.5806V21.2904H17.4194V19.3549H18.3871V18.3871H17.4194V18.0194C18.3329 17.2858 18.871 16.1758 18.871 15C18.871 14.4557 18.7568 13.9375 18.5531 13.4666L23.2258 11.3899V20.0086ZM15.4839 7.51891L22.5184 10.6452L18.0537 12.6295C17.4382 11.8389 16.5256 11.2936 15.4839 11.1625V7.51891Z" fill="#222222"/>
</g>
</g>
</g>
</g>
<defs>
<clipPath id="clip0_3828_35854">
<rect width="30" height="30" fill="white"/>
</clipPath>
</defs>
</svg>
