<svg width="25" height="24" viewBox="0 0 25 24" fill="none" xmlns="http://www.w3.org/2000/svg">
<g clip-path="url(#clip0_5931_27800)">
<path d="M17.3102 3.20654H16.1076C15.5416 3.20654 15.0677 3.60803 14.9555 4.14114C14.0323 4.603 9.50181 6.74814 3.53608 7.53334C3.20106 7.57745 2.91339 7.75951 2.72739 8.01653H1.67758C1.02831 8.01657 0.500122 8.54476 0.500122 9.19403V11.599C0.500122 12.2483 1.02831 12.7765 1.67758 12.7765H2.72748C2.91343 13.0335 3.20115 13.2156 3.53612 13.2597C3.59608 13.2676 3.65561 13.2759 3.71533 13.2841L5.56164 19.9309C5.70268 20.4386 6.16918 20.7932 6.69615 20.7932H8.89126C8.89168 20.7932 8.89206 20.7933 8.89248 20.7933C8.893 20.7933 8.89342 20.7932 8.89393 20.7932H9.2935C9.50101 20.7932 9.66929 20.625 9.66929 20.4174C9.66929 20.2098 9.50106 20.0416 9.2935 20.0416H9.17832L7.50156 14.0056C11.4441 14.9663 14.2508 16.2994 14.9555 16.6519C15.0677 17.185 15.5417 17.5865 16.1077 17.5865H17.3102C17.9594 17.5865 18.4876 17.0583 18.4876 16.4091V4.384C18.4876 3.73473 17.9594 3.20654 17.3102 3.20654ZM2.50431 12.0249H1.67758C1.44273 12.0249 1.25167 11.8338 1.25167 11.599V9.19398C1.25167 8.95914 1.44273 8.76807 1.67758 8.76807H2.50431V12.0249ZM8.39823 20.0416H6.69615C6.50556 20.0416 6.33686 19.9134 6.28586 19.7297L4.52879 13.4048C5.26867 13.5233 5.98309 13.6612 6.66775 13.8122L8.39823 20.0416ZM17.736 16.4091C17.736 16.6439 17.545 16.835 17.3101 16.835H16.1076C15.8728 16.835 15.6817 16.6439 15.6817 16.4091V16.4086C15.6817 16.4078 15.6817 16.4069 15.6817 16.406V7.59086C15.6817 7.38334 15.5135 7.21506 15.3059 7.21506C15.0984 7.21506 14.9301 7.38329 14.9301 7.59086V15.8041C13.4506 15.1015 9.13745 13.2389 3.63414 12.5146C3.41842 12.4862 3.25581 12.3045 3.25581 12.0919V8.70118C3.25581 8.48861 3.41847 8.30692 3.63414 8.27851C9.13745 7.5542 13.4506 5.69153 14.9301 4.98901V5.9875C14.9301 6.19501 15.0984 6.36329 15.3059 6.36329C15.5135 6.36329 15.6817 6.19506 15.6817 5.9875V4.38662C15.6817 4.38615 15.6817 4.38568 15.6817 4.38522V4.384C15.6817 4.14915 15.8728 3.95809 16.1076 3.95809H17.3101C17.545 3.95809 17.736 4.14915 17.736 4.384V16.4091Z" fill="#222222"/>
<path d="M24.1241 10.021H20.1158C19.9082 10.021 19.74 10.1892 19.74 10.3968C19.74 10.6043 19.9082 10.7726 20.1158 10.7726H24.1241C24.3316 10.7726 24.4999 10.6044 24.4999 10.3968C24.4999 10.1892 24.3317 10.021 24.1241 10.021Z" fill="#222222"/>
<path d="M23.2672 6.24028C23.1854 6.0495 22.9645 5.96119 22.7738 6.04294L22.3729 6.21473C22.1822 6.29648 22.0938 6.51741 22.1755 6.70814C22.2366 6.85064 22.3754 6.93595 22.5211 6.93595C22.5705 6.93595 22.6207 6.92616 22.669 6.90548L23.0698 6.73369C23.2606 6.65194 23.3489 6.43106 23.2672 6.24028Z" fill="#222222"/>
<path d="M21.6637 6.92729C21.5819 6.73655 21.361 6.64819 21.1703 6.72994L19.9678 7.24533C19.7771 7.32708 19.6887 7.548 19.7705 7.73874C19.8315 7.88119 19.9703 7.96655 20.116 7.96655C20.1654 7.96655 20.2156 7.95675 20.2639 7.93608L21.4663 7.42069C21.6571 7.33894 21.7455 7.11802 21.6637 6.92729Z" fill="#222222"/>
<path d="M23.0697 14.0595L22.6677 13.8872C22.477 13.8054 22.2561 13.8938 22.1743 14.0845C22.0926 14.2753 22.1809 14.4962 22.3717 14.5779L22.7737 14.7502C22.8219 14.7709 22.8721 14.7807 22.9215 14.7807C23.0674 14.7807 23.206 14.6953 23.2671 14.5528C23.3489 14.3621 23.2606 14.1412 23.0697 14.0595Z" fill="#222222"/>
<path d="M21.4658 13.3722L20.2638 12.8571C20.0731 12.7754 19.8521 12.8637 19.7704 13.0545C19.6887 13.2452 19.777 13.4661 19.9678 13.5479L21.1697 14.063C21.2179 14.0837 21.2681 14.0934 21.3175 14.0934C21.4634 14.0934 21.602 14.0081 21.6631 13.8656C21.7449 13.6749 21.6565 13.454 21.4658 13.3722Z" fill="#222222"/>
</g>
<defs>
<clipPath id="clip0_5931_27800">
<rect width="24" height="24" fill="white" transform="translate(0.5)"/>
</clipPath>
</defs>
</svg>
