<svg width="31" height="30" viewBox="0 0 31 30" fill="none" xmlns="http://www.w3.org/2000/svg">
<g id="marketing-speaker-svgrepo-com 1" clip-path="url(#clip0_3828_35823)">
<g id="Group">
<g id="Group_2">
<path id="Vector" d="M21.5125 4.0083H20.0094C19.3019 4.0083 18.7095 4.51016 18.5692 5.17654C17.4153 5.75387 11.7521 8.43529 4.29494 9.4168C3.87617 9.47193 3.51658 9.69951 3.28408 10.0208H1.97182C1.16023 10.0208 0.5 10.6811 0.5 11.4927V14.4989C0.5 15.3105 1.16023 15.9707 1.97182 15.9707H3.2842C3.51664 16.292 3.87629 16.5196 4.295 16.5747C4.36994 16.5846 4.44436 16.595 4.519 16.6053L6.82689 24.9137C7.0032 25.5484 7.58633 25.9916 8.24504 25.9916H10.9889C10.9895 25.9916 10.9899 25.9917 10.9904 25.9917C10.9911 25.9917 10.9916 25.9916 10.9923 25.9916H11.4917C11.7511 25.9916 11.9615 25.7813 11.9615 25.5219C11.9615 25.2624 11.7512 25.0521 11.4917 25.0521H11.3478L9.2518 17.5071C14.18 18.708 17.6884 20.3744 18.5693 20.815C18.7095 21.4814 19.3019 21.9833 20.0094 21.9833H21.5125C22.3241 21.9833 22.9844 21.323 22.9844 20.5115V5.48012C22.9844 4.66854 22.3241 4.0083 21.5125 4.0083ZM3.00523 15.0313H1.97182C1.67826 15.0313 1.43943 14.7924 1.43943 14.4989V11.4926C1.43943 11.199 1.67826 10.9602 1.97182 10.9602H3.00523V15.0313ZM10.3726 25.0521H8.24504C8.0068 25.0521 7.79592 24.8918 7.73217 24.6622L5.53584 16.7561C6.46068 16.9043 7.35371 17.0766 8.20953 17.2653L10.3726 25.0521ZM22.0449 20.5115C22.0449 20.805 21.806 21.0438 21.5125 21.0438H20.0094C19.7158 21.0438 19.477 20.805 19.477 20.5115V20.5109C19.477 20.5098 19.477 20.5088 19.477 20.5077V9.48869C19.477 9.2293 19.2667 9.01895 19.0072 9.01895C18.7478 9.01895 18.5375 9.22924 18.5375 9.48869V19.7553C16.6881 18.8771 11.2967 16.5488 4.41752 15.6433C4.14787 15.6079 3.94461 15.3807 3.94461 15.115V10.8766C3.94461 10.6109 4.14793 10.3838 4.41752 10.3483C11.2967 9.44287 16.6881 7.11453 18.5375 6.23639V7.48449C18.5375 7.74389 18.7478 7.95424 19.0072 7.95424C19.2667 7.95424 19.477 7.74395 19.477 7.48449V5.4834C19.477 5.48281 19.477 5.48223 19.477 5.48164V5.48012C19.477 5.18656 19.7158 4.94773 20.0094 4.94773H21.5125C21.806 4.94773 22.0449 5.18656 22.0449 5.48012V20.5115Z" fill="#222222"/>
</g>
</g>
<g id="Group_3">
<g id="Group_4">
<path id="Vector_2" d="M30.0303 12.5261H25.0198C24.7604 12.5261 24.55 12.7364 24.55 12.9959C24.55 13.2553 24.7603 13.4656 25.0198 13.4656H30.0303C30.2897 13.4656 30.5 13.2553 30.5 12.9959C30.5 12.7364 30.2897 12.5261 30.0303 12.5261Z" fill="#222222"/>
</g>
</g>
<g id="Group_5">
<g id="Group_6">
<path id="Vector_3" d="M28.9589 7.80041C28.8567 7.56194 28.5805 7.45155 28.3421 7.55373L27.841 7.76848C27.6026 7.87067 27.4921 8.14682 27.5943 8.38524C27.6707 8.56336 27.8441 8.67 28.0263 8.67C28.088 8.67 28.1508 8.65776 28.2111 8.63192L28.7122 8.41717C28.9506 8.31498 29.0611 8.03889 28.9589 7.80041Z" fill="#222222"/>
</g>
</g>
<g id="Group_7">
<g id="Group_8">
<path id="Vector_4" d="M26.9547 8.65929C26.8525 8.42087 26.5763 8.31042 26.3379 8.41261L24.8348 9.05685C24.5964 9.15904 24.4859 9.43519 24.5881 9.67361C24.6645 9.85167 24.8379 9.95837 25.0201 9.95837C25.0818 9.95837 25.1446 9.94613 25.2049 9.92029L26.708 9.27605C26.9464 9.17386 27.0569 8.89771 26.9547 8.65929Z" fill="#222222"/>
</g>
</g>
<g id="Group_9">
<g id="Group_10">
<path id="Vector_5" d="M28.7121 17.5745L28.2096 17.3592C27.9712 17.2569 27.6951 17.3674 27.5929 17.6058C27.4907 17.8443 27.6011 18.1204 27.8396 18.2226L28.3421 18.4379C28.4024 18.4638 28.4651 18.476 28.5269 18.476C28.7091 18.476 28.8825 18.3693 28.9588 18.1912C29.0611 17.9528 28.9507 17.6767 28.7121 17.5745Z" fill="#222222"/>
</g>
</g>
<g id="Group_11">
<g id="Group_12">
<path id="Vector_6" d="M26.7073 16.7152L25.2049 16.0713C24.9665 15.9691 24.6902 16.0795 24.5881 16.318C24.4859 16.5564 24.5964 16.8325 24.8348 16.9347L26.3372 17.5786C26.3975 17.6044 26.4602 17.6167 26.522 17.6167C26.7043 17.6167 26.8776 17.51 26.954 17.3319C27.0562 17.0935 26.9457 16.8174 26.7073 16.7152Z" fill="#222222"/>
</g>
</g>
</g>
<defs>
<clipPath id="clip0_3828_35823">
<rect width="30" height="30" fill="white" transform="translate(0.5)"/>
</clipPath>
</defs>
</svg>
