<svg width="26" height="28" viewBox="0 0 26 28" fill="none" xmlns="http://www.w3.org/2000/svg">
<path d="M5.70284 3.40829C5.51652 3.52877 5.38418 3.71682 5.33366 3.93287C5.28313 4.14893 5.31836 4.37616 5.43193 4.56677C5.5455 4.75739 5.72856 4.89654 5.94262 4.95495C6.15668 5.01337 6.38505 4.9865 6.5797 4.88L6.58741 4.87571L6.63884 4.84743C6.69113 4.82086 6.77599 4.77886 6.89599 4.72571C7.13599 4.62029 7.5157 4.47286 8.03942 4.32286C9.0877 4.02543 10.7223 3.71429 13.0006 3.71429C15.2788 3.71429 16.9134 4.02457 17.9617 4.32457C18.4863 4.47371 18.8651 4.62114 19.1051 4.72743C19.2099 4.77317 19.3128 4.82293 19.4137 4.87657L19.4223 4.88086C19.6173 4.99121 19.8477 5.02083 20.0643 4.96337C20.2808 4.90591 20.4663 4.76594 20.5809 4.57343C20.6955 4.38092 20.7302 4.15118 20.6776 3.93341C20.6249 3.71563 20.4891 3.52714 20.2991 3.40829L20.2974 3.40657H20.2957L20.2914 3.404L20.2811 3.39714C20.2383 3.37268 20.1948 3.34924 20.1508 3.32686C20.0338 3.2665 19.9149 3.2099 19.7943 3.15714C19.3514 2.96665 18.8964 2.80573 18.4323 2.67543C17.2306 2.33257 15.4366 2 13.0006 2C10.5646 2 8.77056 2.33257 7.56884 2.67543C6.96884 2.84686 6.51627 3.02171 6.2077 3.15714C6.04168 3.22992 5.87895 3.31 5.71999 3.39714L5.7097 3.404L5.70542 3.40571L5.7037 3.40657L5.70284 3.40829ZM5.71484 6.71429C4.91919 6.71429 4.15613 7.03036 3.59352 7.59297C3.03091 8.15557 2.71484 8.91864 2.71484 9.71429V18.2857C2.71484 19.0814 3.03091 19.8444 3.59352 20.407C4.15613 20.9696 4.91919 21.2857 5.71484 21.2857H14.2863C15.0819 21.2857 15.845 20.9696 16.4076 20.407C16.9702 19.8444 17.2863 19.0814 17.2863 18.2857V16.5474L21.3466 18.9491C21.5417 19.0644 21.7639 19.1261 21.9906 19.1279C22.2172 19.1296 22.4404 19.0714 22.6373 18.9592C22.8342 18.8469 22.998 18.6846 23.1119 18.4886C23.2259 18.2927 23.2861 18.0701 23.2863 17.8434V10.1549C23.2863 9.9363 23.2307 9.72133 23.1246 9.53025C23.0185 9.33918 22.8654 9.17831 22.6799 9.06283C22.4943 8.94736 22.2824 8.8811 22.0641 8.8703C21.8458 8.85951 21.6283 8.90454 21.4323 9.00114L17.2863 11.0454V9.71429C17.2863 8.91864 16.9702 8.15557 16.4076 7.59297C15.845 7.03036 15.0819 6.71429 14.2863 6.71429H5.71484ZM17.2863 12.956L21.572 10.844V17.0917L17.2863 14.5554V12.956ZM4.42913 9.71429C4.42913 9.37329 4.56459 9.04627 4.80571 8.80515C5.04682 8.56403 5.37385 8.42857 5.71484 8.42857H14.2863C14.6273 8.42857 14.9543 8.56403 15.1954 8.80515C15.4365 9.04627 15.572 9.37329 15.572 9.71429V18.2857C15.572 18.6267 15.4365 18.9537 15.1954 19.1949C14.9543 19.436 14.6273 19.5714 14.2863 19.5714H5.71484C5.37385 19.5714 5.04682 19.436 4.80571 19.1949C4.56459 18.9537 4.42913 18.6267 4.42913 18.2857V9.71429ZM5.40884 23.4157C5.3508 23.5123 5.31235 23.6193 5.29571 23.7307C5.27907 23.8422 5.28456 23.9558 5.31187 24.0651C5.33917 24.1744 5.38776 24.2772 5.45485 24.3678C5.52193 24.4583 5.60621 24.5347 5.70284 24.5926L5.70542 24.5943L5.7097 24.5969L5.71999 24.602C5.76255 24.6273 5.806 24.651 5.85027 24.6731C5.93427 24.7169 6.05256 24.7751 6.2077 24.8429C6.51627 24.9783 6.96799 25.1523 7.56884 25.3246C8.77056 25.6674 10.5646 26 13.0006 26C15.4366 26 17.2306 25.6674 18.4323 25.3246C19.0331 25.1531 19.4848 24.9783 19.7943 24.8429C19.9496 24.7749 20.102 24.7006 20.2511 24.62L20.2811 24.6029L20.2914 24.596L20.2957 24.5943L20.2974 24.5926H20.2991C20.4945 24.4762 20.6357 24.2869 20.6915 24.0665C20.7474 23.846 20.7134 23.6124 20.597 23.417C20.4806 23.2216 20.2914 23.0805 20.0709 23.0246C19.8504 22.9687 19.6168 23.0028 19.4214 23.1191L19.4146 23.1234C19.3134 23.1774 19.2102 23.2274 19.1051 23.2734C18.8651 23.3789 18.4863 23.5263 17.9617 23.6763C16.9134 23.9754 15.2788 24.2857 13.0006 24.2857C10.7223 24.2857 9.0877 23.9754 8.03942 23.6754C7.64997 23.5669 7.26826 23.4323 6.89684 23.2726C6.79182 23.2269 6.6886 23.1771 6.58741 23.1234L6.5797 23.1191C6.38491 23.004 6.1525 22.9706 5.93316 23.0262C5.71382 23.0817 5.52535 23.2218 5.40884 23.4157Z" fill="#222222"/>
</svg>
