<svg width="25" height="24" viewBox="0 0 25 24" fill="none" xmlns="http://www.w3.org/2000/svg">
<path d="M9.38151 4.22222H6.2704C5.02595 4.22222 4.40373 4.22222 3.92818 4.46444C3.51001 4.67743 3.17005 5.01739 2.95707 5.43556C2.71484 5.91111 2.71484 6.53333 2.71484 7.77778V18.4444C2.71484 19.6889 2.71484 20.3111 2.95707 20.7867C3.17011 21.2048 3.51006 21.5447 3.92818 21.7578C4.40262 22 5.02484 22 6.26707 22H16.9404C18.1826 22 18.8037 22 19.2782 21.7578C19.6971 21.5444 20.0371 21.2044 20.2504 20.7867C20.4926 20.3111 20.4926 19.69 20.4926 18.4478V15.3333M16.0482 5.33333L9.38151 12V15.3333H12.7148L19.3815 8.66667M16.0482 5.33333L19.3815 2L22.7148 5.33333L19.3815 8.66667M16.0482 5.33333L19.3815 8.66667" stroke="#222222" stroke-width="2" stroke-linecap="round" stroke-linejoin="round"/>
</svg>
