<svg width="25" height="24" viewBox="0 0 25 24" fill="none" xmlns="http://www.w3.org/2000/svg">
<path d="M16.625 7.3125V6.1875C16.625 6.08437 16.5406 6 16.4375 6H7.4375C7.33437 6 7.25 6.08437 7.25 6.1875V7.3125C7.25 7.41563 7.33437 7.5 7.4375 7.5H16.4375C16.5406 7.5 16.625 7.41563 16.625 7.3125ZM7.4375 9.375C7.33437 9.375 7.25 9.45937 7.25 9.5625V10.6875C7.25 10.7906 7.33437 10.875 7.4375 10.875H11.75C11.8531 10.875 11.9375 10.7906 11.9375 10.6875V9.5625C11.9375 9.45937 11.8531 9.375 11.75 9.375H7.4375ZM10.8125 19.9688H5.375V3.46875H18.5V11.5312C18.5 11.6344 18.5844 11.7188 18.6875 11.7188H20C20.1031 11.7188 20.1875 11.6344 20.1875 11.5312V2.53125C20.1875 2.11641 19.8523 1.78125 19.4375 1.78125H4.4375C4.02266 1.78125 3.6875 2.11641 3.6875 2.53125V20.9062C3.6875 21.3211 4.02266 21.6562 4.4375 21.6562H10.8125C10.9156 21.6562 11 21.5719 11 21.4688V20.1562C11 20.0531 10.9156 19.9688 10.8125 19.9688ZM21.2586 21.1758L19.0719 18.9891C19.5945 18.2977 19.9062 17.4352 19.9062 16.5C19.9062 14.2219 18.0594 12.375 15.7812 12.375C13.5031 12.375 11.6562 14.2219 11.6562 16.5C11.6562 18.7781 13.5031 20.625 15.7812 20.625C16.6203 20.625 17.3984 20.3742 18.05 19.9453L20.2695 22.1648C20.307 22.2023 20.3539 22.2188 20.4008 22.2188C20.4477 22.2188 20.4969 22.2 20.532 22.1648L21.2586 21.4383C21.2759 21.4211 21.2896 21.4006 21.299 21.3781C21.3083 21.3556 21.3132 21.3314 21.3132 21.307C21.3132 21.2826 21.3083 21.2585 21.299 21.236C21.2896 21.2134 21.2759 21.193 21.2586 21.1758ZM15.7812 19.125C14.3305 19.125 13.1562 17.9508 13.1562 16.5C13.1562 15.0492 14.3305 13.875 15.7812 13.875C17.232 13.875 18.4062 15.0492 18.4062 16.5C18.4062 17.9508 17.232 19.125 15.7812 19.125Z" fill="#222222" stroke="#222222" stroke-width="0.3"/>
</svg>
