<svg width="100" height="32" viewBox="0 0 100 32" fill="none" xmlns="http://www.w3.org/2000/svg">
<rect width="100" height="32" fill="#F5F5F5"/>
<g id="partners" clip-path="url(#clip0_1499_88214)">
<rect width="1920" height="3584" transform="translate(-717 -1677)" fill="white"/>
<g id="Frame 48097446">
<g id="Frame 48097331">
<g id="Frame 48097329">
<g id="Frame 48097328">
<g id="Frame 48096612">
<g id="Frame 48096612_2">
<g id="Frame 48097388">
<g id="Group 48095690">
<path id="Vector" fill-rule="evenodd" clip-rule="evenodd" d="M60.2662 28.8839V28.6702C60.3698 28.6527 60.4416 28.5788 60.4841 28.4523C60.5053 28.389 60.5164 28.3229 60.517 28.2562C60.517 28.2455 60.517 28.2365 60.516 28.228C60.5156 28.2184 60.5138 28.2089 60.5107 28.1998H60.2656V27.7097H60.7472V28.1637C60.7472 28.3423 60.7111 28.4991 60.6393 28.6341C60.567 28.7686 60.4426 28.852 60.2662 28.8839Z" fill="#C0C0C0"/>
<path id="Vector_2" fill-rule="evenodd" clip-rule="evenodd" d="M16.2034 0C7.36686 0 0.203125 7.16373 0.203125 16.0003C0.203125 24.8363 7.36686 32 16.2034 32C25.0399 32 32.2031 24.8363 32.2031 16.0003C32.2031 7.16373 25.0399 0 16.2034 0Z" fill="#C0C0C0"/>
<path id="Vector_3" fill-rule="evenodd" clip-rule="evenodd" d="M8.50205 12.9587C8.91879 13.3553 9.15055 13.9363 9.19786 14.7012H4.69773C4.79288 13.983 5.02464 13.4143 5.39353 12.9943C5.76243 12.5744 6.28229 12.3645 6.95311 12.3645C7.56918 12.3645 8.08532 12.5627 8.50205 12.9587ZM3.16845 11.5113C2.19624 12.534 1.71094 14.0032 1.71094 15.92C1.71094 17.9654 2.2494 19.4415 3.32633 20.3489C4.40325 21.2563 5.64602 21.7102 7.05464 21.7102C8.76145 21.7102 10.0887 21.1723 11.037 20.0948C11.6462 19.4182 11.9885 18.7516 12.0635 18.0941H9.10643C8.95015 18.4188 8.77102 18.6724 8.56744 18.8563C8.19482 19.1949 7.71057 19.3639 7.11523 19.3639C6.55285 19.3639 6.0718 19.2247 5.67313 18.9477C5.01613 18.5002 4.66743 17.7214 4.6265 16.611H12.2049C12.2181 15.6564 12.1878 14.9249 12.1134 14.4173C11.9848 13.5503 11.7036 12.7886 11.2704 12.1316C10.7893 11.3869 10.1796 10.8416 9.44184 10.496C8.70351 10.1505 7.87429 9.97778 6.95311 9.97778C5.40204 9.97725 4.14066 10.4886 3.16845 11.5113ZM26.5233 10.0283C27.0107 10.0283 27.4918 10.1234 27.9659 10.3127C28.4401 10.5024 28.8701 10.8341 29.256 11.3083C29.5675 11.6947 29.7774 12.1688 29.8859 12.7307C29.9534 13.1033 29.9874 13.6487 29.9874 14.3663L29.9672 21.345H27.0006V14.2945C27.0006 13.8746 26.9326 13.5296 26.7976 13.2585C26.5403 12.744 26.0661 12.4862 25.3751 12.4862C24.5762 12.4862 24.0239 12.8184 23.7193 13.4818C23.5636 13.8342 23.4855 14.2573 23.4855 14.7517V21.3445H20.5699V14.7517C20.5699 14.0952 20.5024 13.6173 20.3668 13.3191C20.1229 12.7844 19.6455 12.517 18.9343 12.517C18.1083 12.517 17.5528 12.7844 17.2684 13.3191C17.1127 13.6242 17.0351 14.0782 17.0351 14.6804V21.3445H14.0993V10.2919H16.9133V11.9073C17.2721 11.3316 17.6107 10.9218 17.9291 10.6784C18.491 10.2452 19.2192 10.0283 20.1133 10.0283C20.9595 10.0283 21.6436 10.2149 22.1651 10.5869C22.585 10.9325 22.9029 11.3758 23.1198 11.9174C23.4987 11.2673 23.9697 10.79 24.5321 10.4854C25.128 10.1803 25.7919 10.0283 26.5233 10.0283Z" fill="white"/>
<path id="Vector_4" fill-rule="evenodd" clip-rule="evenodd" d="M50.8183 8.261C49.8019 8.42684 49.4708 8.71601 49.1805 9.52344C47.7501 13.3724 46.0917 17.8008 44.8686 21.7933H44.5576C43.8321 19.6421 42.1327 15.2966 41.2407 13.0407L38.0488 21.7933H37.7378C36.6805 18.6279 34.5246 12.751 33.7368 10.6817C33.0729 8.96424 32.7832 8.36412 31.6016 8.26047V7.86605H36.6806V8.26047C35.7477 8.30193 35.3325 8.42631 35.3325 8.96424C35.3325 9.25394 35.4569 9.60582 35.5606 9.87426L38.5458 17.6546L40.7639 11.8192L40.0798 10.1225C39.3957 8.40505 39.0848 8.28067 37.986 8.25994V7.86552H43.5211V8.25994C42.879 8.25994 41.9248 8.3014 41.9248 9.0461C41.9248 9.39799 42.1736 9.853 42.4846 10.6599L45.2205 17.7163L47.8118 10.7014C47.9776 10.2671 48.1435 9.64623 48.1435 9.21142C48.1435 8.40399 47.4179 8.3216 46.7131 8.2594V7.86499H50.8177L50.8183 8.261ZM53.6201 19.0233C53.6201 19.6495 53.5579 19.8993 52.9163 20.213C52.7303 20.3166 52.0887 20.5877 51.6331 20.5877C50.8672 20.5877 50.267 19.9408 50.267 18.9606V18.9192C50.267 18.2101 50.4945 17.0422 53.6206 15.9988L53.6201 19.0233ZM56.8397 20.2135C56.6111 20.4006 56.3411 20.609 55.9063 20.609C55.3051 20.609 55.3051 20.0046 55.3051 19.3997V15.3413C55.3051 14.1065 55.3051 12.0441 52.2125 12.0441C49.8083 12.0441 48.834 13.509 48.834 14.3324C48.834 14.662 49.0833 15.2382 49.7254 15.2382C50.2649 15.2382 50.6583 14.7847 50.6583 14.3531C50.6583 14.1676 50.5546 13.8588 50.5546 13.5505C50.5546 12.9121 51.3413 12.5416 52.0259 12.5416C52.6468 12.5416 53.6206 12.768 53.6206 14.25V15.5055C50.2463 16.8344 48.4385 17.543 48.4385 19.6288C48.4385 21.0241 49.5191 21.7911 50.6402 21.7911C51.7782 21.7911 52.8754 20.9614 53.6413 20.2751C53.745 21.7699 54.6194 21.7911 54.9931 21.7911C55.3264 21.7911 55.969 21.7704 56.8402 20.7541L56.8397 20.2135ZM58.4662 14.6497C58.4662 13.4277 58.0718 13.407 57.7407 13.407C57.4499 13.407 57.2224 13.4484 57.0358 13.4899V13.1577C58.0671 12.8223 59.0859 12.4497 60.0901 12.0403L60.1938 12.0813V13.9119H60.2352C61.209 12.4518 61.9139 12.0403 62.7022 12.0403C63.407 12.0403 63.8211 12.472 63.8211 13.1508C63.8211 13.6648 63.5314 14.0555 63.0344 14.0555C62.3078 14.0555 62.101 13.3357 61.604 13.3357C61.1054 13.3357 60.1943 14.3728 60.1943 15.0362V19.7011C60.1943 21.1325 60.8992 21.216 61.9559 21.2575V21.5743H56.9944V21.2575C58.1345 21.0496 58.4668 20.9874 58.4668 19.8249L58.4662 14.6497ZM65.2116 15.1717C65.5439 13.3517 66.3523 12.793 67.4925 12.793C69.1297 12.793 69.3375 14.1788 69.4827 15.1717H65.2116ZM71.6599 18.1723C71.1826 18.9425 70.2917 20.3575 68.4467 20.3575C67.0784 20.3575 65.3987 19.5044 65.1505 15.8197H71.5977C71.3691 13.1242 69.8973 12.0441 67.9486 12.0441C66.2907 12.0441 63.7169 13.3102 63.7169 17.131C63.7169 20.087 65.2951 21.7906 67.5967 21.7906C70.5814 21.7906 71.7838 18.9638 71.9916 18.318L71.6599 18.1723ZM72.0628 11.1883C72.2707 10.981 72.5205 10.8778 72.8123 10.8778C73.1052 10.8778 73.3545 10.981 73.5618 11.1883C73.7686 11.395 73.8712 11.6449 73.8712 11.9372C73.8712 12.2296 73.7686 12.4794 73.5618 12.6862C73.4647 12.7864 73.3481 12.8657 73.2192 12.9191C73.0903 12.9724 72.9518 12.9988 72.8123 12.9966C72.5205 12.9966 72.2701 12.8935 72.0628 12.6862C71.856 12.4789 71.7524 12.2296 71.7524 11.9372C71.7524 11.6449 71.856 11.395 72.0628 11.1883ZM72.8442 12.6219V12.5405C72.7872 12.5447 72.7298 12.5402 72.6741 12.5272C72.6295 12.5124 72.6077 12.4783 72.6077 12.4247V11.9537C72.7677 11.9505 72.8745 11.9686 72.9266 12.0079C72.9797 12.0472 73.0106 12.1355 73.0201 12.2726C73.0287 12.4055 73.0441 12.4943 73.068 12.5389C73.1041 12.6096 73.177 12.6452 73.287 12.6452C73.4013 12.6452 73.4821 12.6011 73.5288 12.5134C73.5549 12.465 73.5724 12.3906 73.5799 12.2891H73.4959C73.4853 12.3805 73.4752 12.4411 73.4635 12.4714C73.4459 12.5166 73.4156 12.5389 73.3742 12.5389C73.3417 12.5389 73.3013 12.4518 73.2535 12.2769C73.2057 12.102 73.0978 11.9877 72.9287 11.9335V11.9223C73.0722 11.9074 73.186 11.8697 73.2716 11.8086C73.3572 11.7475 73.4002 11.6704 73.4002 11.5779C73.4002 11.4668 73.346 11.3791 73.2391 11.3164C73.1323 11.2531 72.993 11.2217 72.8208 11.2217H72.141V11.3009C72.2313 11.3009 72.2924 11.3084 72.3259 11.3233C72.3589 11.3382 72.3759 11.3695 72.3759 11.4179V12.4252C72.3759 12.4794 72.3605 12.5118 72.3281 12.524C72.2669 12.5389 72.2038 12.5449 72.141 12.5416V12.6229H72.8442V12.6219ZM71.9725 12.7776C72.2042 13.0088 72.4843 13.1247 72.8123 13.1247C73.1403 13.1247 73.4209 13.0088 73.6522 12.7776C73.885 12.5453 73.9998 12.2657 73.9998 11.9372C73.9998 11.6092 73.8844 11.3286 73.6522 11.0968C73.4204 10.8651 73.1403 10.7492 72.8123 10.7492C72.4843 10.7492 72.2037 10.8651 71.9725 11.0968C71.7412 11.3286 71.6248 11.6087 71.6248 11.9372C71.6222 12.0936 71.6517 12.2489 71.7115 12.3934C71.7713 12.538 71.8601 12.6687 71.9725 12.7776ZM72.6077 11.4174C72.6077 11.3701 72.6252 11.3392 72.6587 11.3238C72.7023 11.3067 72.749 11.2989 72.7958 11.3009C72.9069 11.3009 72.9877 11.3249 73.0398 11.3727C73.0908 11.4205 73.1158 11.4875 73.1158 11.5742C73.1158 11.7092 73.068 11.7964 72.9718 11.8357C72.9117 11.8607 72.791 11.8724 72.6082 11.8724V11.4174H72.6077ZM33.6135 25.3866L34.1147 26.8462H33.0803L33.6135 25.3866ZM32.5945 28.2001L32.9522 27.2109H34.2588L34.5937 28.2001H35.0843L33.8851 24.8954H33.3791L32.1352 28.2001H32.5945ZM35.9188 28.2001V25.5258L37.6129 28.2001H38.1147V24.8954H37.6894V27.5718L36.0198 24.8954H35.4915V28.2001H35.9188ZM39.8093 28.2001H40.2568V26.868L41.5055 24.8954H40.9808L40.032 26.4842L39.0826 24.8954H38.5612L39.8093 26.868V28.2001ZM43.5578 25.2808H44.3519C44.7128 25.2808 44.9754 25.394 45.1381 25.6204C45.3013 25.8469 45.3826 26.1642 45.3826 26.5746C45.3826 26.6804 45.3714 26.7957 45.3486 26.9201C45.3098 27.129 45.2465 27.3002 45.1578 27.433C45.0577 27.5907 44.907 27.7098 44.7304 27.7706C44.6326 27.803 44.5087 27.8184 44.3572 27.8184H43.5583L43.5578 25.2808ZM44.4423 28.2001C45.0089 28.2001 45.4086 27.9497 45.6409 27.4485C45.7762 27.1499 45.8439 26.8252 45.8392 26.4975C45.8392 26.043 45.7276 25.6699 45.5043 25.3791C45.2534 25.0565 44.901 24.8954 44.4471 24.8954H43.1086V28.2001H44.4423ZM48.8988 28.2001V27.8067H46.8933V26.6862H48.717V26.3035H46.8933V25.3005H48.8648V24.8954H46.4563V28.2001H48.8988ZM49.2523 24.8954H49.7472L50.6965 27.71L51.6342 24.8954H52.1354L50.9304 28.2001H50.4557L49.2523 24.8954ZM53.1124 28.2001V24.8954H52.6601V28.2001H53.1124ZM54.0772 25.3137C53.8199 25.6263 53.6897 26.026 53.6897 26.5129C53.6897 27.1545 53.8619 27.6292 54.2048 27.9375C54.4663 28.1703 54.7884 28.2851 55.1722 28.2851C55.6176 28.2851 55.9717 28.1437 56.2342 27.8604C56.4532 27.6249 56.5819 27.3331 56.6207 26.9855H56.1848C56.1402 27.2023 56.0716 27.3788 55.9802 27.5117C55.8079 27.7653 55.5565 27.8918 55.2264 27.8918C54.8682 27.8918 54.5981 27.7711 54.4179 27.5303C54.2372 27.2906 54.1468 26.9759 54.1468 26.5895C54.1468 26.1169 54.2473 25.7661 54.4477 25.5375C54.647 25.309 54.9107 25.1941 55.2355 25.1941C55.5023 25.1941 55.7101 25.2563 55.8574 25.3812C56.0046 25.5062 56.1035 25.6752 56.1534 25.8878H56.5893C56.5643 25.6077 56.4357 25.3563 56.205 25.1362C55.9733 24.9161 55.6485 24.8061 55.2301 24.8061C54.7406 24.8061 54.3563 24.9757 54.0772 25.3137ZM59.65 28.2001V27.8067H57.6434V26.6862H59.4682V26.3035H57.6434V25.3005H59.617V24.8954H57.207V28.2001H59.65ZM63.7382 25.3866L64.2394 26.8462H63.2045L63.7382 25.3866ZM62.7187 28.2001L63.0769 27.2109H64.384L64.7184 28.2001H65.2095L64.0103 24.8954H63.5048L62.2599 28.2001H62.7187ZM66.043 28.2001V25.5258L67.7376 28.2001H68.2388V24.8954H67.8141V27.5718L66.145 24.8954H65.6167V28.2001H66.043ZM69.9345 28.2001H70.3815V26.868L71.6296 24.8954H71.1055L70.1577 26.4842L69.2073 24.8954H68.6864L69.9345 26.868V28.2001ZM73.6394 28.2001V25.5258L75.334 28.2001H75.8353V24.8954H75.4095V27.5718L73.7415 24.8954H73.2131V28.2001H73.6394ZM79.0235 28.2001V27.8067H77.0179V26.6862H78.8417V26.3035H77.0179V25.3005H78.9905V24.8954H76.581V28.2001H79.0235ZM79.3339 24.8954H82.0156V25.2893H80.9015V28.2001H80.4481V25.2893H79.3339V24.8954ZM82.157 24.8954H82.6428L83.2658 27.5835L84.0132 24.8954H84.499L85.2453 27.5835L85.8683 24.8954H86.3584L85.4914 28.2001H85.021L84.2582 25.4604L83.4912 28.2001H83.0208L82.157 24.8954ZM87.3439 27.5202C87.1579 27.2688 87.0659 26.9605 87.0659 26.5942C87.0659 26.1376 87.1738 25.7905 87.3896 25.5561C87.6054 25.3217 87.885 25.2042 88.2263 25.2042C88.5782 25.2042 88.8567 25.3228 89.0597 25.5593C89.2623 25.7969 89.3638 26.1095 89.3638 26.498C89.3638 26.8653 89.2756 27.1907 89.1001 27.4729C88.9237 27.7552 88.6382 27.8966 88.2438 27.8966C87.8287 27.896 87.5283 27.77 87.3439 27.5202ZM86.9346 25.4179C86.7124 25.7358 86.6024 26.1185 86.6024 26.565C86.6024 27.0594 86.731 27.4692 86.9904 27.7934C87.2822 28.1288 87.6809 28.2968 88.1896 28.2968C88.7344 28.2968 89.1528 28.1049 89.4478 27.7206C89.6971 27.3948 89.8225 26.9844 89.8225 26.4906C89.8225 26.0351 89.7136 25.6608 89.4946 25.3685C89.2144 24.9937 88.7823 24.8066 88.1986 24.8066C87.6405 24.8061 87.219 25.0097 86.9346 25.4179ZM90.858 25.2808H91.9514C92.104 25.2808 92.2267 25.3026 92.3176 25.3483C92.4888 25.4333 92.5738 25.5944 92.5738 25.8288C92.5738 26.0478 92.5127 26.1993 92.3899 26.2833C92.2682 26.3673 92.1024 26.4087 91.8924 26.4087H90.8575L90.858 25.2808ZM90.858 28.2001V26.783H91.8775C92.0604 26.783 92.1943 26.8026 92.2794 26.843C92.4298 26.9169 92.5101 27.062 92.5201 27.2778L92.5473 27.828C92.5536 27.9577 92.5606 28.0438 92.5701 28.0895C92.5767 28.1276 92.5885 28.1647 92.6052 28.1995H93.1543V28.1257C93.0857 28.0954 93.0368 28.0278 93.0102 27.9231C92.99 27.8307 92.9795 27.7365 92.9789 27.6419L92.9635 27.1986C92.955 27.0067 92.9188 26.8675 92.8545 26.7824C92.7774 26.6887 92.6766 26.6173 92.5627 26.5756C92.7099 26.4986 92.8242 26.397 92.9061 26.2716C92.9869 26.1462 93.0283 25.984 93.0283 25.7858C93.0283 25.4068 92.8726 25.1463 92.5621 25.0049C92.399 24.9321 92.1917 24.8949 91.9392 24.8949H90.4099V28.1995L90.858 28.2001ZM93.6816 28.2001V24.8954H94.118V26.5071L95.7291 24.8954H96.3468L94.9733 26.2275L96.3851 28.2001H95.803L94.6474 26.5422L94.118 27.0487V28.2001H93.6816ZM97.3105 24.2262H98.3151V24.3734H97.8979V25.4647H97.7278V24.3734H97.3105V24.2262ZM98.465 25.4647V24.2262H98.7058L99.062 25.2739L99.4149 24.2262H99.6525V25.4647H99.4925V24.7338L99.4947 24.6084C99.4957 24.5504 99.4968 24.4866 99.4968 24.4202L99.1428 25.4647H98.9769L98.6208 24.4202V24.4574L98.6229 24.5967C98.625 24.6589 98.625 24.7046 98.625 24.7338V25.4647H98.465Z" fill="#C0C0C0"/>
</g>
</g>
</g>
</g>
</g>
</g>
</g>
</g>
</g>
<defs>
<clipPath id="clip0_1499_88214">
<rect width="1920" height="3584" fill="white" transform="translate(-717 -1677)"/>
</clipPath>
</defs>
</svg>
