<svg width="18" height="19" viewBox="0 0 18 19" fill="none" xmlns="http://www.w3.org/2000/svg">
<g id="ep:success-filled">
<path id="Vector" d="M9.125 1.625C11.2467 1.625 13.2816 2.46785 14.7819 3.96815C16.2821 5.46844 17.125 7.50327 17.125 9.625C17.125 11.7467 16.2821 13.7816 14.7819 15.2819C13.2816 16.7821 11.2467 17.625 9.125 17.625C7.00327 17.625 4.96844 16.7821 3.46815 15.2819C1.96785 13.7816 1.125 11.7467 1.125 9.625C1.125 7.50327 1.96785 5.46844 3.46815 3.96815C4.96844 2.46785 7.00327 1.625 9.125 1.625ZM8.12843 11.2033L6.35129 9.425C6.28758 9.36129 6.21194 9.31075 6.1287 9.27627C6.04546 9.24179 5.95624 9.22405 5.86614 9.22405C5.77604 9.22405 5.68683 9.24179 5.60359 9.27627C5.52034 9.31075 5.44471 9.36129 5.381 9.425C5.25233 9.55367 5.18005 9.72818 5.18005 9.91014C5.18005 10.0921 5.25233 10.2666 5.381 10.3953L7.64386 12.6581C7.70739 12.7222 7.78296 12.773 7.86623 12.8077C7.94949 12.8424 8.0388 12.8602 8.129 12.8602C8.2192 12.8602 8.30851 12.8424 8.39177 12.8077C8.47504 12.773 8.55061 12.7222 8.61414 12.6581L13.2999 7.97129C13.3644 7.90784 13.4158 7.83224 13.451 7.74885C13.4862 7.66545 13.5045 7.57591 13.5049 7.4854C13.5054 7.39488 13.4879 7.30517 13.4534 7.22146C13.419 7.13774 13.3684 7.06166 13.3044 6.99762C13.2404 6.93358 13.1644 6.88283 13.0807 6.84831C12.997 6.81379 12.9074 6.79618 12.8168 6.7965C12.7263 6.79681 12.6368 6.81504 12.5533 6.85014C12.4699 6.88524 12.3942 6.93651 12.3307 7.001L8.12843 11.2033Z" fill="#222222"/>
</g>
</svg>
