<svg width="25" height="21" viewBox="0 0 25 21" fill="none" xmlns="http://www.w3.org/2000/svg">
<g clip-path="url(#clip0_3913_696)">
<path d="M24.7493 11.581H18.8073C18.9089 6.80831 20.1372 6.26654 21.6798 6.11191L22.2747 6.03063L22.2747 0.782541L21.589 0.82304C19.5745 0.947948 17.3474 1.34818 15.8615 3.36977C14.559 5.14195 13.9848 8.03722 13.9848 12.4817L13.9848 20.7174H24.7493V11.581Z" fill="#3D3D3D"/>
<path d="M11.0152 20.7174L11.0152 11.581H5.15251C5.25409 6.80831 6.44264 6.26654 7.98532 6.11191L8.54062 6.03063V0.782541L7.8945 0.82304C5.88004 0.947948 3.63297 1.34818 2.14709 3.36977C0.844706 5.14195 0.250676 8.03722 0.250676 12.4817L0.250676 20.7174H11.0152Z" fill="#3D3D3D"/>
</g>
<defs>
<clipPath id="clip0_3913_696">
<rect width="24.4986" height="19.9349" fill="white" transform="matrix(-1 0 0 -1 24.7493 20.7174)"/>
</clipPath>
</defs>
</svg>
