<svg width="25" height="24" viewBox="0 0 25 24" fill="none" xmlns="http://www.w3.org/2000/svg">
<path d="M12.5 13.03C13.4858 13.03 14.285 12.2308 14.285 11.245C14.285 10.2591 13.4858 9.45996 12.5 9.45996C11.5142 9.45996 10.715 10.2591 10.715 11.245C10.715 12.2308 11.5142 13.03 12.5 13.03Z" fill="#222222"/>
<path d="M7.502 14.794L7.107 14.693C4.173 13.952 2.49 12.692 2.49 11.241C2.49 9.78899 4.174 8.52999 7.107 7.78899L7.502 7.68899L7.613 8.07999C7.90954 9.10368 8.28948 10.1014 8.749 11.063L8.834 11.241L8.749 11.419C8.289 12.382 7.908 13.38 7.613 14.404L7.502 14.794ZM6.925 8.69899C4.696 9.32699 3.327 10.285 3.327 11.241C3.327 12.195 4.695 13.154 6.925 13.781C7.198 12.913 7.528 12.064 7.91 11.241C7.52523 10.4166 7.19616 9.56738 6.925 8.69899ZM17.497 14.794L17.387 14.402C17.0897 13.3781 16.7094 12.3801 16.25 11.418L16.165 11.241L16.25 11.062C16.71 10.101 17.089 9.10199 17.387 8.07799L17.497 7.68799L17.892 7.78799C20.827 8.52899 22.509 9.78799 22.509 11.241C22.509 12.693 20.826 13.952 17.892 14.693L17.497 14.794ZM17.087 11.241C17.487 12.107 17.82 12.959 18.074 13.781C20.304 13.154 21.673 12.195 21.673 11.241C21.673 10.285 20.305 9.32799 18.074 8.69899C17.8013 9.56711 17.4716 10.4163 17.087 11.241Z" fill="#222222"/>
<path d="M6.919 8.695L6.809 8.305C5.983 5.397 6.233 3.314 7.496 2.588C8.731 1.873 10.718 2.718 12.799 4.853L13.083 5.145L12.799 5.436C12.0599 6.20469 11.3843 7.03207 10.779 7.91L10.666 8.072L10.47 8.088C9.40558 8.1716 8.34975 8.34183 7.313 8.597L6.919 8.695ZM8.501 3.166C8.277 3.166 8.079 3.215 7.912 3.311C7.084 3.788 6.938 5.449 7.508 7.691C8.399 7.494 9.298 7.353 10.204 7.274C10.7285 6.53005 11.3007 5.8209 11.917 5.151C10.614 3.884 9.384 3.166 8.501 3.166ZM16.498 20.15C15.31 20.15 13.784 19.254 12.2 17.628L11.917 17.337L12.2 17.047C12.9392 16.2771 13.6151 15.4487 14.221 14.57L14.333 14.41L14.527 14.391C15.5918 14.3089 16.648 14.1393 17.685 13.884L18.08 13.784L18.191 14.175C19.013 17.081 18.764 19.167 17.503 19.893C17.1968 20.0665 16.8499 20.1553 16.498 20.15ZM13.083 17.33C14.385 18.597 15.616 19.316 16.498 19.316C16.723 19.316 16.921 19.266 17.087 19.171C17.916 18.693 18.063 17.029 17.491 14.787C16.601 14.985 15.701 15.127 14.793 15.206C14.2707 15.9511 13.6994 16.6607 13.083 17.33Z" fill="#222222"/>
<path d="M18.08 8.69495L17.685 8.59595C16.6481 8.33998 15.5918 8.16974 14.527 8.08695L14.333 8.06995L14.221 7.90795C13.6159 7.02953 12.94 6.20211 12.2 5.43395L11.917 5.14295L12.2 4.85295C14.28 2.71895 16.266 1.87395 17.503 2.58795C18.765 3.31495 19.016 5.39795 18.191 8.30495L18.08 8.69495ZM14.793 7.27395C15.747 7.35895 16.651 7.50195 17.491 7.69095C18.062 5.44895 17.916 3.78795 17.087 3.30995C16.263 2.83295 14.712 3.56295 13.083 5.15095C13.699 5.82095 14.271 6.52895 14.793 7.27395ZM8.501 20.1499C8.14913 20.155 7.80226 20.0663 7.496 19.8929C6.233 19.1669 5.983 17.0819 6.808 14.1749L6.916 13.7839L7.311 13.8839C8.275 14.1269 9.337 14.2979 10.469 14.3909L10.663 14.4099L10.776 14.5699C11.38 15.4479 12.056 16.2769 12.796 17.0469L13.08 17.3369L12.796 17.6279C11.213 19.2549 9.687 20.1499 8.501 20.1499ZM7.508 14.7879C6.938 17.0299 7.084 18.6939 7.912 19.1719C8.737 19.6419 10.283 18.9169 11.917 17.3299C11.301 16.6598 10.7288 15.9507 10.204 15.2069C9.29709 15.1267 8.39647 14.9868 7.508 14.7879Z" fill="#222222"/>
<path d="M12.5 15.313C11.813 15.313 11.108 15.284 10.4 15.225L10.204 15.208L10.091 15.046C9.69176 14.4719 9.31611 13.8817 8.965 13.277C8.61649 12.6706 8.29256 12.0504 7.994 11.418L7.91 11.241L7.994 11.062C8.293 10.43 8.616 9.80996 8.965 9.20396C9.312 8.60796 9.691 8.01196 10.091 7.43396L10.204 7.27396L10.4 7.25596C11.7969 7.13896 13.2011 7.13896 14.598 7.25596L14.792 7.27496L14.905 7.43496C15.7048 8.58372 16.4072 9.79727 17.005 11.063L17.088 11.242L17.005 11.419C16.4089 12.6855 15.7064 13.8992 14.905 15.047L14.792 15.209L14.598 15.226C13.892 15.283 13.186 15.313 12.5 15.313ZM10.666 14.409C11.901 14.502 13.099 14.502 14.333 14.409C15.0219 13.4002 15.6343 12.3412 16.165 11.241C15.6361 10.1397 15.0237 9.08062 14.333 8.07296C13.1125 7.97896 11.8865 7.97896 10.666 8.07296C9.97474 9.08026 9.36226 10.1394 8.834 11.241C9.36588 12.3406 9.97821 13.3995 10.666 14.409Z" fill="#222222"/>
</svg>
