<svg width="30" height="30" viewBox="0 0 30 30" fill="none" xmlns="http://www.w3.org/2000/svg">
<g id="react-svgrepo-com (1) 1">
<path id="Vector" d="M15 16.2875C16.2323 16.2875 17.2313 15.2885 17.2313 14.0562C17.2313 12.8239 16.2323 11.825 15 11.825C13.7677 11.825 12.7688 12.8239 12.7688 14.0562C12.7688 15.2885 13.7677 16.2875 15 16.2875Z" fill="#222222"/>
<path id="Vector_2" d="M8.7525 18.4926L8.25875 18.3664C4.59125 17.4401 2.4875 15.8651 2.4875 14.0514C2.4875 12.2364 4.5925 10.6626 8.25875 9.73636L8.7525 9.61136L8.89125 10.1001C9.26193 11.3797 9.73685 12.6268 10.3113 13.8289L10.4175 14.0514L10.3113 14.2739C9.73625 15.4776 9.26 16.7251 8.89125 18.0051L8.7525 18.4926ZM8.03125 10.8739C5.245 11.6589 3.53375 12.8564 3.53375 14.0514C3.53375 15.2439 5.24375 16.4426 8.03125 17.2264C8.3725 16.1414 8.785 15.0801 9.2625 14.0514C8.78154 13.0209 8.37021 11.9593 8.03125 10.8739ZM21.2463 18.4926L21.1088 18.0026C20.7371 16.7227 20.2618 15.4753 19.6875 14.2726L19.5813 14.0514L19.6875 13.8276C20.2625 12.6264 20.7363 11.3776 21.1088 10.0976L21.2463 9.61011L21.74 9.73511C25.4088 10.6614 27.5113 12.2351 27.5113 14.0514C27.5113 15.8664 25.4075 17.4401 21.74 18.3664L21.2463 18.4926ZM20.7338 14.0514C21.2338 15.1339 21.65 16.1989 21.9675 17.2264C24.755 16.4426 26.4663 15.2439 26.4663 14.0514C26.4663 12.8564 24.7563 11.6601 21.9675 10.8739C21.6266 11.959 21.2145 13.0205 20.7338 14.0514Z" fill="#222222"/>
<path id="Vector_3" d="M8.02375 10.8687L7.88625 10.3812C6.85375 6.74625 7.16625 4.1425 8.745 3.235C10.2887 2.34125 12.7725 3.3975 15.3737 6.06625L15.7287 6.43125L15.3737 6.795C14.4498 7.75586 13.6054 8.79008 12.8487 9.8875L12.7075 10.09L12.4625 10.11C11.132 10.2145 9.81219 10.4273 8.51625 10.7462L8.02375 10.8687ZM10.0012 3.9575C9.72125 3.9575 9.47375 4.01875 9.265 4.13875C8.23 4.735 8.0475 6.81125 8.76 9.61375C9.87375 9.3675 10.9975 9.19125 12.13 9.0925C12.7856 8.16257 13.5009 7.27612 14.2712 6.43875C12.6425 4.855 11.105 3.9575 10.0012 3.9575ZM19.9975 25.1875C18.5125 25.1875 16.605 24.0675 14.625 22.035L14.2712 21.6712L14.625 21.3087C15.549 20.3463 16.3939 19.3109 17.1512 18.2125L17.2912 18.0125L17.5337 17.9887C18.8647 17.8861 20.185 17.6741 21.4812 17.355L21.975 17.23L22.1137 17.7187C23.1412 21.3512 22.83 23.9587 21.2537 24.8662C20.871 25.0832 20.4374 25.1941 19.9975 25.1875ZM15.7287 21.6625C17.3562 23.2462 18.895 24.145 19.9975 24.145C20.2787 24.145 20.5262 24.0825 20.7337 23.9637C21.77 23.3662 21.9537 21.2862 21.2387 18.4837C20.1262 18.7312 19.0012 18.9087 17.8662 19.0075C17.2134 19.9389 16.4993 20.8259 15.7287 21.6625Z" fill="#222222"/>
<path id="Vector_4" d="M21.975 10.8688L21.4812 10.7451C20.1851 10.4251 18.8648 10.2123 17.5337 10.1088L17.2912 10.0876L17.1512 9.88506C16.3949 8.78704 15.55 7.75275 14.625 6.79256L14.2712 6.42881L14.625 6.06631C17.225 3.39881 19.7075 2.34256 21.2537 3.23506C22.8312 4.14381 23.145 6.74756 22.1137 10.3813L21.975 10.8688ZM17.8662 9.09256C19.0587 9.19881 20.1887 9.37756 21.2387 9.61381C21.9525 6.81131 21.77 4.73506 20.7337 4.13756C19.7037 3.54131 17.765 4.45381 15.7287 6.43881C16.4987 7.27631 17.2137 8.16131 17.8662 9.09256ZM10.0012 25.1876C9.56141 25.1938 9.12782 25.083 8.74499 24.8663C7.16624 23.9588 6.85374 21.3526 7.88499 17.7188L8.01999 17.2301L8.51374 17.3551C9.71874 17.6588 11.0462 17.8726 12.4612 17.9888L12.7037 18.0126L12.845 18.2126C13.6 19.3101 14.445 20.3463 15.37 21.3088L15.725 21.6713L15.37 22.0351C13.3912 24.0688 11.4837 25.1876 10.0012 25.1876ZM8.75999 18.4851C8.04749 21.2876 8.22999 23.3676 9.26499 23.9651C10.2962 24.5526 12.2287 23.6463 14.2712 21.6626C13.5012 20.8249 12.7859 19.9385 12.13 19.0088C10.9964 18.9086 9.87058 18.7336 8.75999 18.4851Z" fill="#222222"/>
<path id="Vector_5" d="M15 19.1411C14.1412 19.1411 13.26 19.1049 12.375 19.0311L12.13 19.0099L11.9887 18.8074C11.4897 18.0898 11.0201 17.3521 10.5812 16.5961C10.1456 15.8382 9.7407 15.063 9.3675 14.2724L9.2625 14.0511L9.3675 13.8274C9.74125 13.0374 10.145 12.2624 10.5812 11.5049C11.015 10.7599 11.4887 10.0149 11.9887 9.29239L12.13 9.09239L12.375 9.06989C14.1211 8.92364 15.8764 8.92364 17.6225 9.06989L17.865 9.09364L18.0062 9.29364C19.006 10.7296 19.884 12.2465 20.6312 13.8286L20.735 14.0524L20.6312 14.2736C19.8861 15.8568 19.008 17.374 18.0062 18.8086L17.865 19.0111L17.6225 19.0324C16.74 19.1036 15.8575 19.1411 15 19.1411ZM12.7075 18.0111C14.2512 18.1274 15.7487 18.1274 17.2912 18.0111C18.1524 16.7502 18.9178 15.4265 19.5812 14.0511C18.9202 12.6746 18.1546 11.3507 17.2912 10.0911C15.7656 9.97364 14.2332 9.97364 12.7075 10.0911C11.8434 11.3503 11.0778 12.6742 10.4175 14.0511C11.0823 15.4257 11.8478 16.7493 12.7075 18.0111Z" fill="#222222"/>
</g>
</svg>
