<svg width="62" height="62" viewBox="0 0 62 62" fill="none" xmlns="http://www.w3.org/2000/svg">
<rect width="62" height="62" rx="7.05882" fill="#C3E7F7"/>
<path d="M31 32.2875C32.2323 32.2875 33.2313 31.2885 33.2313 30.0562C33.2313 28.8239 32.2323 27.825 31 27.825C29.7677 27.825 28.7688 28.8239 28.7688 30.0562C28.7688 31.2885 29.7677 32.2875 31 32.2875Z" fill="#222222"/>
<path d="M24.7525 34.4926L24.2588 34.3664C20.5913 33.4401 18.4875 31.8651 18.4875 30.0514C18.4875 28.2364 20.5925 26.6626 24.2588 25.7364L24.7525 25.6114L24.8913 26.1001C25.2619 27.3797 25.7369 28.6268 26.3113 29.8289L26.4175 30.0514L26.3113 30.2739C25.7363 31.4776 25.26 32.7251 24.8913 34.0051L24.7525 34.4926ZM24.0313 26.8739C21.245 27.6589 19.5338 28.8564 19.5338 30.0514C19.5338 31.2439 21.2438 32.4426 24.0313 33.2264C24.3725 32.1414 24.785 31.0801 25.2625 30.0514C24.7815 29.0209 24.3702 27.9593 24.0313 26.8739ZM37.2463 34.4926L37.1088 34.0026C36.7371 32.7227 36.2618 31.4753 35.6875 30.2726L35.5813 30.0514L35.6875 29.8276C36.2625 28.6264 36.7363 27.3776 37.1088 26.0976L37.2463 25.6101L37.74 25.7351C41.4088 26.6614 43.5113 28.2351 43.5113 30.0514C43.5113 31.8664 41.4075 33.4401 37.74 34.3664L37.2463 34.4926ZM36.7338 30.0514C37.2338 31.1339 37.65 32.1989 37.9675 33.2264C40.755 32.4426 42.4663 31.2439 42.4663 30.0514C42.4663 28.8564 40.7563 27.6601 37.9675 26.8739C37.6266 27.959 37.2145 29.0205 36.7338 30.0514Z" fill="#222222"/>
<path d="M24.0237 26.8687L23.8862 26.3812C22.8537 22.7462 23.1662 20.1425 24.745 19.235C26.2887 18.3412 28.7725 19.3975 31.3737 22.0662L31.7287 22.4312L31.3737 22.795C30.4498 23.7559 29.6054 24.7901 28.8487 25.8875L28.7075 26.09L28.4625 26.11C27.132 26.2145 25.8122 26.4273 24.5162 26.7462L24.0237 26.8687ZM26.0012 19.9575C25.7212 19.9575 25.4737 20.0187 25.265 20.1387C24.23 20.735 24.0475 22.8112 24.76 25.6137C25.8737 25.3675 26.9975 25.1912 28.13 25.0925C28.7856 24.1626 29.5009 23.2761 30.2712 22.4387C28.6425 20.855 27.105 19.9575 26.0012 19.9575ZM35.9975 41.1875C34.5125 41.1875 32.605 40.0675 30.625 38.035L30.2712 37.6712L30.625 37.3087C31.549 36.3463 32.3939 35.3109 33.1512 34.2125L33.2912 34.0125L33.5337 33.9887C34.8647 33.8861 36.185 33.6741 37.4812 33.355L37.975 33.23L38.1137 33.7187C39.1412 37.3512 38.83 39.9587 37.2537 40.8662C36.871 41.0832 36.4374 41.1941 35.9975 41.1875ZM31.7287 37.6625C33.3562 39.2462 34.895 40.145 35.9975 40.145C36.2787 40.145 36.5262 40.0825 36.7337 39.9637C37.77 39.3662 37.9537 37.2862 37.2387 34.4837C36.1262 34.7312 35.0012 34.9087 33.8662 35.0075C33.2134 35.9389 32.4993 36.8259 31.7287 37.6625Z" fill="#222222"/>
<path d="M37.975 26.8688L37.4812 26.7451C36.1851 26.4251 34.8648 26.2123 33.5338 26.1088L33.2913 26.0876L33.1512 25.8851C32.3949 24.787 31.55 23.7528 30.625 22.7926L30.2713 22.4288L30.625 22.0663C33.225 19.3988 35.7075 18.3426 37.2537 19.2351C38.8312 20.1438 39.145 22.7476 38.1137 26.3813L37.975 26.8688ZM33.8663 25.0926C35.0588 25.1988 36.1887 25.3776 37.2387 25.6138C37.9525 22.8113 37.77 20.7351 36.7337 20.1376C35.7037 19.5413 33.765 20.4538 31.7288 22.4388C32.4988 23.2763 33.2137 24.1613 33.8663 25.0926ZM26.0013 41.1876C25.5614 41.1938 25.1278 41.083 24.745 40.8663C23.1663 39.9588 22.8538 37.3526 23.885 33.7188L24.02 33.2301L24.5138 33.3551C25.7188 33.6588 27.0463 33.8726 28.4613 33.9888L28.7038 34.0126L28.845 34.2126C29.6 35.3101 30.445 36.3463 31.37 37.3088L31.725 37.6713L31.37 38.0351C29.3913 40.0688 27.4838 41.1876 26.0013 41.1876ZM24.76 34.4851C24.0475 37.2876 24.23 39.3676 25.265 39.9651C26.2963 40.5526 28.2288 39.6463 30.2713 37.6626C29.5012 36.8249 28.786 35.9385 28.13 35.0088C26.9964 34.9086 25.8706 34.7336 24.76 34.4851Z" fill="#222222"/>
<path d="M31 35.1411C30.1412 35.1411 29.26 35.1049 28.375 35.0311L28.13 35.0099L27.9887 34.8074C27.4897 34.0898 27.0201 33.3521 26.5812 32.5961C26.1456 31.8382 25.7407 31.063 25.3675 30.2724L25.2625 30.0511L25.3675 29.8274C25.7412 29.0374 26.145 28.2624 26.5812 27.5049C27.015 26.7599 27.4887 26.0149 27.9887 25.2924L28.13 25.0924L28.375 25.0699C30.1211 24.9236 31.8764 24.9236 33.6225 25.0699L33.865 25.0936L34.0062 25.2936C35.006 26.7296 35.884 28.2465 36.6312 29.8286L36.735 30.0524L36.6312 30.2736C35.8861 31.8568 35.008 33.374 34.0062 34.8086L33.865 35.0111L33.6225 35.0324C32.74 35.1036 31.8575 35.1411 31 35.1411ZM28.7075 34.0111C30.2512 34.1274 31.7487 34.1274 33.2912 34.0111C34.1524 32.7502 34.9178 31.4265 35.5812 30.0511C34.9202 28.6746 34.1546 27.3507 33.2912 26.0911C31.7656 25.9736 30.2332 25.9736 28.7075 26.0911C27.8434 27.3503 27.0778 28.6742 26.4175 30.0511C27.0823 31.4257 27.8478 32.7493 28.7075 34.0111Z" fill="#222222"/>
</svg>
