<svg width="9" height="10" viewBox="0 0 9 10" fill="none" xmlns="http://www.w3.org/2000/svg">
<path d="M0.188822 0.688822C0.248525 0.628968 0.319449 0.58148 0.397533 0.549079C0.475617 0.516678 0.559326 0.5 0.643866 0.5C0.728405 0.5 0.812114 0.516678 0.890198 0.549079C0.968282 0.58148 1.03921 0.628968 1.09891 0.688822L4.50017 4.09137L7.90143 0.688822C7.96118 0.629065 8.03213 0.581663 8.1102 0.549322C8.18828 0.516982 8.27196 0.500337 8.35647 0.500337C8.44098 0.500337 8.52466 0.516982 8.60274 0.549322C8.68082 0.581663 8.75176 0.629065 8.81151 0.688822C8.87127 0.748579 8.91867 0.819521 8.95101 0.897598C8.98336 0.975674 9 1.05936 9 1.14387C9 1.22838 8.98336 1.31206 8.95101 1.39013C8.91867 1.46821 8.87127 1.53915 8.81151 1.59891L5.40897 5.00017L8.81151 8.40143C8.87127 8.46118 8.91867 8.53213 8.95101 8.6102C8.98336 8.68828 9 8.77196 9 8.85647C9 8.94098 8.98336 9.02466 8.95101 9.10274C8.91867 9.18082 8.87127 9.25176 8.81151 9.31151C8.75176 9.37127 8.68082 9.41867 8.60274 9.45101C8.52466 9.48336 8.44098 9.5 8.35647 9.5C8.27196 9.5 8.18828 9.48336 8.1102 9.45101C8.03213 9.41867 7.96118 9.37127 7.90143 9.31151L4.50017 5.90897L1.09891 9.31151C1.03915 9.37127 0.96821 9.41867 0.890134 9.45101C0.812057 9.48336 0.728375 9.5 0.643866 9.5C0.559356 9.5 0.475674 9.48336 0.397598 9.45101C0.319521 9.41867 0.248579 9.37127 0.188822 9.31151C0.129065 9.25176 0.0816626 9.18082 0.0493223 9.10274C0.0169819 9.02466 0.000336506 8.94098 0.000336506 8.85647C0.000336506 8.77196 0.0169819 8.68828 0.0493223 8.6102C0.0816626 8.53213 0.129065 8.46118 0.188822 8.40143L3.59137 5.00017L0.188822 1.59891C0.128968 1.53921 0.0814802 1.46828 0.0490789 1.3902C0.0166777 1.31211 0 1.22841 0 1.14387C0 1.05933 0.0166777 0.975617 0.0490789 0.897533C0.0814802 0.819449 0.128968 0.748525 0.188822 0.688822Z" fill="#5B5B5B"/>
</svg>
