<svg width="32" height="33" viewBox="0 0 32 33" fill="none" xmlns="http://www.w3.org/2000/svg">
<rect width="32" height="33" fill="#F5F5F5"/>
<g id="Graphic design offline Course" clip-path="url(#clip0_1499_88214)">
<rect width="1920" height="6487" transform="translate(-384 -3899)" fill="white"/>
<g id="Frame 48097196">
<g id="Frame 48097168">
<g id="Frame 48097167">
<g id="Frame 48097166">
<g id="Frame 48097165">
<g id="Frame 48097164">
<g id="Frame 48096702">
<g id="Frame 48096701">
<g id="Frame 48096700">
<g id="Frame 48096984">
<g id="Frame 48096106">
<g id="Frame 48096105">
<g id="Frame 48097172">
<g id="Component 93" filter="url(#filter0_d_1499_88214)">
<rect x="-24" y="-23.5674" width="590" height="80" rx="13" fill="white" shape-rendering="crispEdges"/>
<g id="Frame 48095621">
<g id="carbon:result-new">
<path id="Vector" d="M26 30.4326C28.2091 30.4326 30 28.6418 30 26.4326C30 24.2235 28.2091 22.4326 26 22.4326C23.7909 22.4326 22 24.2235 22 26.4326C22 28.6418 23.7909 30.4326 26 30.4326Z" fill="#222222"/>
<path id="Vector_2" d="M10 13.4326H12V15.4326H10V13.4326ZM10 18.4326H12V20.4326H10V18.4326ZM10 23.4326H12V25.4326H10V23.4326ZM14 13.4326H22V15.4326H14V13.4326ZM14 18.4326H22V20.4326H14V18.4326ZM14 23.4326H18V25.4326H14V23.4326Z" fill="#222222"/>
<path id="Vector_3" d="M7 28.4326V7.43262H10V10.4326H22V7.43262H25V18.4326H27V7.43262C27 6.90218 26.7893 6.39348 26.4142 6.0184C26.0391 5.64333 25.5304 5.43262 25 5.43262H22V4.43262C22 3.90218 21.7893 3.39348 21.4142 3.0184C21.0391 2.64333 20.5304 2.43262 20 2.43262H12C11.4696 2.43262 10.9609 2.64333 10.5858 3.0184C10.2107 3.39348 10 3.90218 10 4.43262V5.43262H7C6.46957 5.43262 5.96086 5.64333 5.58579 6.0184C5.21071 6.39348 5 6.90218 5 7.43262V28.4326C5 28.9631 5.21071 29.4718 5.58579 29.8468C5.96086 30.2219 6.46957 30.4326 7 30.4326H18V28.4326H7ZM12 4.43262H20V8.43262H12V4.43262Z" fill="#222222"/>
</g>
</g>
</g>
</g>
</g>
</g>
</g>
</g>
</g>
</g>
</g>
</g>
</g>
</g>
</g>
</g>
</g>
<defs>
<filter id="filter0_d_1499_88214" x="-28" y="-25.5674" width="598" height="88" filterUnits="userSpaceOnUse" color-interpolation-filters="sRGB">
<feFlood flood-opacity="0" result="BackgroundImageFix"/>
<feColorMatrix in="SourceAlpha" type="matrix" values="0 0 0 0 0 0 0 0 0 0 0 0 0 0 0 0 0 0 127 0" result="hardAlpha"/>
<feOffset dy="2"/>
<feGaussianBlur stdDeviation="2"/>
<feComposite in2="hardAlpha" operator="out"/>
<feColorMatrix type="matrix" values="0 0 0 0 0 0 0 0 0 0 0 0 0 0 0 0 0 0 0.12 0"/>
<feBlend mode="normal" in2="BackgroundImageFix" result="effect1_dropShadow_1499_88214"/>
<feBlend mode="normal" in="SourceGraphic" in2="effect1_dropShadow_1499_88214" result="shape"/>
</filter>
<clipPath id="clip0_1499_88214">
<rect width="1920" height="6487" fill="white" transform="translate(-384 -3899)"/>
</clipPath>
</defs>
</svg>
