<svg width="24" height="25" viewBox="0 0 24 25" fill="none" xmlns="http://www.w3.org/2000/svg">
<path fill-rule="evenodd" clip-rule="evenodd" d="M10.875 4.25C6.93997 4.25 3.75 7.43997 3.75 11.375C3.75 15.31 6.93997 18.5 10.875 18.5C14.81 18.5 18 15.31 18 11.375C18 7.43997 14.81 4.25 10.875 4.25ZM2.25 11.375C2.25 6.61154 6.11154 2.75 10.875 2.75C15.6385 2.75 19.5 6.61154 19.5 11.375C19.5 16.1385 15.6385 20 10.875 20C6.11154 20 2.25 16.1385 2.25 11.375Z" fill="#5B5B5B"/>
<path fill-rule="evenodd" clip-rule="evenodd" d="M15.9135 16.4135C16.2064 16.1206 16.6813 16.1206 16.9742 16.4135L21.5304 20.9698C21.8233 21.2627 21.8233 21.7375 21.5304 22.0304C21.2375 22.3233 20.7627 22.3233 20.4698 22.0304L15.9135 17.4742C15.6206 17.1813 15.6206 16.7064 15.9135 16.4135Z" fill="#5B5B5B"/>
</svg>
