<svg width="19" height="19" viewBox="0 0 19 19" fill="none" xmlns="http://www.w3.org/2000/svg">
<path d="M12.1266 10.846L11.9426 9.81001L16.4326 5.31901L13.5816 2.46701L9.08955 6.95701L8.05455 6.77301C7.13587 6.6083 6.18952 6.70142 5.32055 7.04201L11.8586 13.579C12.1986 12.7103 12.2914 11.7643 12.1266 10.846ZM7.87655 12.45L2.17055 18.154C1.98145 18.3431 1.72498 18.4493 1.45755 18.4493C1.19013 18.4493 0.933652 18.3431 0.744553 18.154C0.555454 17.9649 0.449219 17.7084 0.449219 17.441C0.449219 17.1736 0.555454 16.9171 0.744553 16.728L6.44955 11.024L2.17055 6.74501C2.97477 5.93955 3.96203 5.34075 5.04797 4.99979C6.13392 4.65882 7.28626 4.58581 8.40655 4.78701L12.1536 1.04001C12.3409 0.85263 12.5632 0.703992 12.808 0.602581C13.0528 0.501171 13.3151 0.448975 13.5801 0.448975C13.845 0.448975 14.1073 0.501171 14.3521 0.602581C14.5969 0.703992 14.8192 0.85263 15.0066 1.04001L17.8586 3.89301C18.2367 4.27125 18.4491 4.78418 18.4491 5.31901C18.4491 5.85383 18.2367 6.36676 17.8586 6.74501L14.1116 10.492C14.3127 11.6123 14.2397 12.7646 13.8988 13.8506C13.5578 14.9365 12.959 15.9238 12.1536 16.728L7.87655 12.45Z" fill="#222222"/>
</svg>
