<svg width="25" height="24" viewBox="0 0 25 24" fill="none" xmlns="http://www.w3.org/2000/svg">
<g clip-path="url(#clip0_4844_19179)">
<path d="M12.1 8C10.116 8 8.5 9.616 8.5 11.6C8.5 13.584 10.116 15.2 12.1 15.2C14.084 15.2 15.7 13.584 15.7 11.6C15.7 9.616 14.084 8 12.1 8ZM12.1 8.8C13.652 8.8 14.9 10.048 14.9 11.6C14.9 13.152 13.652 14.4 12.1 14.4C10.548 14.4 9.3 13.152 9.3 11.6C9.3 10.048 10.548 8.8 12.1 8.8ZM12.1 0C11.8784 0 11.7 0.1784 11.7 0.4V1.62C6.5024 1.828 2.3272 6.0024 2.12 11.2H0.9C0.6784 11.2 0.5 11.3784 0.5 11.6C0.5 11.8216 0.6784 12 0.9 12H2.12C2.328 17.1976 6.5024 21.3728 11.7 21.58V22.8C11.7 23.0216 11.8784 23.2 12.1 23.2C12.3216 23.2 12.5 23.0216 12.5 22.8V21.58C17.6976 21.372 21.8728 17.1976 22.08 12H23.3C23.5216 12 23.7 11.8216 23.7 11.6C23.7 11.3784 23.5216 11.2 23.3 11.2H22.08C21.872 6.0024 17.6976 1.8272 12.5 1.62V0.4C12.5 0.1784 12.3216 0 12.1 0ZM11.7 2.42V3.6C11.7 3.8216 11.8784 4 12.1 4C12.3216 4 12.5 3.8216 12.5 3.6V2.42C17.2648 2.624 21.076 6.436 21.28 11.2H20.1C19.8784 11.2 19.7 11.3784 19.7 11.6C19.7 11.8216 19.8784 12 20.1 12H21.28C21.076 16.7648 17.264 20.576 12.5 20.78V19.6C12.5 19.3784 12.3216 19.2 12.1 19.2C11.8784 19.2 11.7 19.3784 11.7 19.6V20.78C6.9352 20.576 3.124 16.764 2.92 12H4.1C4.3216 12 4.5 11.8216 4.5 11.6C4.5 11.3784 4.3216 11.2 4.1 11.2H2.92C3.124 6.4352 6.936 2.624 11.7 2.42Z" fill="#222222"/>
</g>
<defs>
<clipPath id="clip0_4844_19179">
<rect width="24" height="24" fill="white" transform="translate(0.5)"/>
</clipPath>
</defs>
</svg>
