<svg width="63" height="62" viewBox="0 0 63 62" fill="none" xmlns="http://www.w3.org/2000/svg">
<rect x="0.5" width="62" height="62" rx="7.05882" fill="#C3E7F7"/>
<g clip-path="url(#clip0_2602_33125)">
<path d="M31 26C28.52 26 26.5 28.02 26.5 30.5C26.5 32.98 28.52 35 31 35C33.48 35 35.5 32.98 35.5 30.5C35.5 28.02 33.48 26 31 26ZM31 27C32.94 27 34.5 28.56 34.5 30.5C34.5 32.44 32.94 34 31 34C29.06 34 27.5 32.44 27.5 30.5C27.5 28.56 29.06 27 31 27ZM31 16C30.723 16 30.5 16.223 30.5 16.5V18.025C24.003 18.285 18.784 23.503 18.525 30H17C16.723 30 16.5 30.223 16.5 30.5C16.5 30.777 16.723 31 17 31H18.525C18.785 37.497 24.003 42.716 30.5 42.975V44.5C30.5 44.777 30.723 45 31 45C31.277 45 31.5 44.777 31.5 44.5V42.975C37.997 42.715 43.216 37.497 43.475 31H45C45.277 31 45.5 30.777 45.5 30.5C45.5 30.223 45.277 30 45 30H43.475C43.215 23.503 37.997 18.284 31.5 18.025V16.5C31.5 16.223 31.277 16 31 16ZM30.5 19.025V20.5C30.5 20.777 30.723 21 31 21C31.277 21 31.5 20.777 31.5 20.5V19.025C37.456 19.28 42.22 24.045 42.475 30H41C40.723 30 40.5 30.223 40.5 30.5C40.5 30.777 40.723 31 41 31H42.475C42.22 36.956 37.455 41.72 31.5 41.975V40.5C31.5 40.223 31.277 40 31 40C30.723 40 30.5 40.223 30.5 40.5V41.975C24.544 41.72 19.78 36.955 19.525 31H21C21.277 31 21.5 30.777 21.5 30.5C21.5 30.223 21.277 30 21 30H19.525C19.78 24.044 24.545 19.28 30.5 19.025Z" fill="#222222"/>
</g>
<defs>
<clipPath id="clip0_2602_33125">
<rect width="30" height="30" fill="white" transform="translate(16.5 16)"/>
</clipPath>
</defs>
</svg>
