<svg width="128" height="129" viewBox="0 0 128 129" fill="none" xmlns="http://www.w3.org/2000/svg">
<g clip-path="url(#clip0_1613_74515)">
<path d="M64 128.5C99.3462 128.5 128 99.8462 128 64.5C128 29.1538 99.3462 0.5 64 0.5C28.6538 0.5 0 29.1538 0 64.5C0 99.8462 28.6538 128.5 64 128.5Z" fill="#E9E8ED"/>
<path d="M114 56.9841C114 56.8231 113.365 56.5371 112.779 56.4211L67.097 50.5401C65.416 50.2121 62.644 50.1771 60.963 50.5051L15.228 56.3011C14.655 56.4141 14 56.5571 14 56.7391V57.2511V57.5001V57.7641V58.0121V58.2961V58.4401V58.5261V58.8091V58.8831V58.9511V59.3201V59.3941V59.5001L40.095 123.867C47.482 126.846 55.546 128.5 64 128.5C92.594 128.5 116.8 109.745 125.009 83.8691L114 56.9841Z" fill="#DDDCE3"/>
<path d="M32 55.5V83.5C33.097 89.5 47.085 94.4 64 94.4C80.915 94.4 94.749 89.5 95.846 83.5H96V55.5H32Z" fill="#2D424D"/>
<path d="M93 55.5V83.5C91.937 89.5 78.643 94.029 62.443 94.314C62.959 94.322 63.478 94.364 64 94.364C80.915 94.364 94.902 89.5 96 83.5V55.5H93Z" fill="#253740"/>
<path d="M112 56.4999V57.7589L66.919 52.0299C65.238 51.7029 62.803 51.7029 61.123 52.0299L17 57.6049V57.4999H14V58.2959V58.4399V58.8829C14 59.0759 14.591 59.2719 15.108 59.4479L52.446 70.6669C54.067 71.2229 56.775 71.3419 58.438 70.9339L112.801 59.1819C113.37 59.0409 113.999 58.8789 113.999 58.7119V58.4399V58.2659V57.4999L112 56.4999Z" fill="#1E2C33"/>
<path d="M114 56.7081C114 56.5471 113.365 56.3981 112.779 56.2841L67.097 50.4711C65.416 50.1431 62.644 50.1431 60.963 50.4711L15.228 56.2841C14.655 56.3961 14 56.5571 14 56.7381V57.5001C14 57.6931 14.591 57.7141 15.108 57.8911L52.446 69.1101C54.067 69.6661 56.775 69.7861 58.438 69.3781C58.438 69.3781 113.999 57.6681 113.999 57.5021L114 56.7081Z" fill="#2D424D"/>
<path d="M78.5 95.8129C77.641 95.8129 77 95.1169 77 94.2559V66.5679L59.497 60.6949C58.681 60.4229 58.299 59.5409 58.571 58.7239C58.843 57.9069 59.757 57.4649 60.57 57.7399L79.096 63.9689C79.733 64.1819 81 64.8289 81 65.4989V94.4989C81 95.3589 79.359 95.8129 78.5 95.8129Z" fill="#FFD464"/>
<path d="M83 97.5001C83 97.5001 83 94.8111 83 94.2561C83 92.1061 81.15 90.3611 79 90.3611C76.85 90.3611 75 92.1051 75 94.2561C75 94.8111 75 97.5001 75 97.5001H83Z" fill="#E16B5A"/>
<path d="M83 97.5H75V106.5H83V97.5Z" fill="#FFD464"/>
<path d="M77 97.5H76V106.5H77V97.5Z" fill="#FFE399"/>
<path d="M79 97.5H78V106.5H79V97.5Z" fill="#FFE399"/>
<path d="M81 97.5H80V106.5H81V97.5Z" fill="#FFE399"/>
</g>
<defs>
<clipPath id="clip0_1613_74515">
<rect width="128" height="128" fill="white" transform="translate(0 0.5)"/>
</clipPath>
</defs>
</svg>
