<svg width="31" height="30" viewBox="0 0 31 30" fill="none" xmlns="http://www.w3.org/2000/svg">
<g id="target-svgrepo-com 1" clip-path="url(#clip0_3828_35871)">
<path id="Vector" d="M15 10C12.52 10 10.5 12.02 10.5 14.5C10.5 16.98 12.52 19 15 19C17.48 19 19.5 16.98 19.5 14.5C19.5 12.02 17.48 10 15 10ZM15 11C16.94 11 18.5 12.56 18.5 14.5C18.5 16.44 16.94 18 15 18C13.06 18 11.5 16.44 11.5 14.5C11.5 12.56 13.06 11 15 11ZM15 0C14.723 0 14.5 0.223 14.5 0.5V2.025C8.003 2.285 2.784 7.503 2.525 14H1C0.723 14 0.5 14.223 0.5 14.5C0.5 14.777 0.723 15 1 15H2.525C2.785 21.497 8.003 26.716 14.5 26.975V28.5C14.5 28.777 14.723 29 15 29C15.277 29 15.5 28.777 15.5 28.5V26.975C21.997 26.715 27.216 21.497 27.475 15H29C29.277 15 29.5 14.777 29.5 14.5C29.5 14.223 29.277 14 29 14H27.475C27.215 7.503 21.997 2.284 15.5 2.025V0.5C15.5 0.223 15.277 0 15 0ZM14.5 3.025V4.5C14.5 4.777 14.723 5 15 5C15.277 5 15.5 4.777 15.5 4.5V3.025C21.456 3.28 26.22 8.045 26.475 14H25C24.723 14 24.5 14.223 24.5 14.5C24.5 14.777 24.723 15 25 15H26.475C26.22 20.956 21.455 25.72 15.5 25.975V24.5C15.5 24.223 15.277 24 15 24C14.723 24 14.5 24.223 14.5 24.5V25.975C8.544 25.72 3.78 20.955 3.525 15H5C5.277 15 5.5 14.777 5.5 14.5C5.5 14.223 5.277 14 5 14H3.525C3.78 8.044 8.545 3.28 14.5 3.025Z" fill="#222222"/>
</g>
<defs>
<clipPath id="clip0_3828_35871">
<rect width="30" height="30" fill="white" transform="translate(0.5)"/>
</clipPath>
</defs>
</svg>
