<svg width="20" height="20" viewBox="0 0 20 20" fill="none" xmlns="http://www.w3.org/2000/svg">
<path fill-rule="evenodd" clip-rule="evenodd" d="M10 3.6C6.46538 3.6 3.6 6.46538 3.6 10C3.6 13.5346 6.46538 16.4 10 16.4C13.5346 16.4 16.4 13.5346 16.4 10C16.4 6.46538 13.5346 3.6 10 3.6ZM2 10C2 5.58172 5.58172 2 10 2C14.4182 2 18 5.58172 18 10C18 14.4182 14.4182 18 10 18C5.58172 18 2 14.4182 2 10ZM9.86272 5.80589C10.3046 5.80589 10.6627 6.16406 10.6627 6.60589V10.5796L13.4842 11.6522C13.8973 11.8092 14.1048 12.2713 13.9478 12.6842C13.7908 13.0973 13.3287 13.3048 12.9158 13.1478L9.57848 11.8792C9.268 11.7611 9.06272 11.4635 9.06272 11.1314V6.60589C9.06272 6.16406 9.42088 5.80589 9.86272 5.80589Z" fill="#222222"/>
</svg>
