<svg width="62" height="62" viewBox="0 0 62 62" fill="none" xmlns="http://www.w3.org/2000/svg">
<rect width="62" height="62" rx="7.05882" fill="#C3E7F7"/>
<g clip-path="url(#clip0_2602_33068)">
<path d="M43.6064 23.3407C43.8708 23.3407 44.0851 23.1265 44.0851 22.862V20.7872H45.5213C45.7857 20.7872 46 20.573 46 20.3085V16.4787C46 16.2143 45.7857 16 45.5213 16H41.6915C41.4271 16 41.2128 16.2143 41.2128 16.4787V17.9149H20.7872V16.4787C20.7872 16.2143 20.5729 16 20.3085 16H16.4787C16.2143 16 16 16.2143 16 16.4787V20.3085C16 20.573 16.2143 20.7872 16.4787 20.7872H17.9149V41.2128H16.4787C16.2143 41.2128 16 41.427 16 41.6915V45.5213C16 45.7857 16.2143 46 16.4787 46H20.3085C20.5729 46 20.7872 45.7857 20.7872 45.5213V44.0851H41.2128V45.5213C41.2128 45.7857 41.4271 46 41.6915 46H45.5213C45.7857 46 46 45.7857 46 45.5213V41.6915C46 41.427 45.7857 41.2128 45.5213 41.2128H44.0851V24.7769C44.0851 24.5125 43.8708 24.2982 43.6064 24.2982C43.342 24.2982 43.1277 24.5125 43.1277 24.7769V41.2128H41.6915C41.4271 41.2128 41.2128 41.427 41.2128 41.6915V43.1277H20.7872V41.6915C20.7872 41.427 20.5729 41.2128 20.3085 41.2128H18.8723V20.7872H20.3085C20.5729 20.7872 20.7872 20.573 20.7872 20.3085V18.8723H41.2128V20.3085C41.2128 20.573 41.4271 20.7872 41.6915 20.7872H43.1277V22.862C43.1277 23.1264 43.342 23.3407 43.6064 23.3407ZM42.1702 42.1702H45.0426V45.0426H42.1702V42.1702ZM19.8298 45.0426H16.9574V42.1702H19.8298V45.0426ZM19.8298 19.8298H16.9574V16.9574H19.8298V19.8298ZM42.1702 16.9574H45.0426V19.8298H42.1702V16.9574Z" fill="#222222"/>
<path d="M39.617 22.862C39.617 22.5976 39.4027 22.3833 39.1383 22.3833H22.8617C22.5973 22.3833 22.383 22.5976 22.383 22.862V30.9999C22.383 31.2644 22.5973 31.4787 22.8617 31.4787H39.1383C39.4027 31.4787 39.617 31.2644 39.617 30.9999V22.862ZM23.3404 23.6366L29.9295 26.931L23.3404 30.2254V23.6366ZM24.8897 23.3407H37.1103L31 26.3958L24.8897 23.3407ZM31 27.4662L37.1104 30.5212H24.8897L31 27.4662ZM32.0705 26.931L38.6596 23.6366V30.2254L32.0705 26.931Z" fill="#222222"/>
<path d="M30.0426 38.6597H22.8617C22.5973 38.6597 22.383 38.8739 22.383 39.1384C22.383 39.4028 22.5973 39.6171 22.8617 39.6171H30.0426C30.307 39.6171 30.5213 39.4028 30.5213 39.1384C30.5213 38.8739 30.307 38.6597 30.0426 38.6597Z" fill="#222222"/>
<path d="M39.1383 38.6597H31.9574C31.693 38.6597 31.4787 38.8739 31.4787 39.1384C31.4787 39.4028 31.693 39.6171 31.9574 39.6171H39.1383C39.4027 39.6171 39.617 39.4028 39.617 39.1384C39.617 38.8739 39.4027 38.6597 39.1383 38.6597Z" fill="#222222"/>
<path d="M30.0426 36.625H22.8617C22.5973 36.625 22.383 36.8393 22.383 37.1037C22.383 37.3682 22.5973 37.5824 22.8617 37.5824H30.0426C30.307 37.5824 30.5213 37.3682 30.5213 37.1037C30.5213 36.8393 30.307 36.625 30.0426 36.625Z" fill="#222222"/>
<path d="M39.1383 36.625H31.9574C31.693 36.625 31.4787 36.8393 31.4787 37.1037C31.4787 37.3682 31.693 37.5824 31.9574 37.5824H39.1383C39.4027 37.5824 39.617 37.3682 39.617 37.1037C39.617 36.8393 39.4027 36.625 39.1383 36.625Z" fill="#222222"/>
<path d="M30.0426 34.5903H22.8617C22.5973 34.5903 22.383 34.8046 22.383 35.0691C22.383 35.3335 22.5973 35.5478 22.8617 35.5478H30.0426C30.307 35.5478 30.5213 35.3335 30.5213 35.0691C30.5213 34.8046 30.307 34.5903 30.0426 34.5903Z" fill="#222222"/>
<path d="M39.1383 34.5903H31.9574C31.693 34.5903 31.4787 34.8046 31.4787 35.0691C31.4787 35.3335 31.693 35.5478 31.9574 35.5478H39.1383C39.4027 35.5478 39.617 35.3335 39.617 35.0691C39.617 34.8046 39.4027 34.5903 39.1383 34.5903Z" fill="#222222"/>
<path d="M39.1383 32.5557H22.8617C22.5973 32.5557 22.383 32.7699 22.383 33.0344C22.383 33.2988 22.5973 33.5131 22.8617 33.5131H39.1383C39.4027 33.5131 39.617 33.2988 39.617 33.0344C39.617 32.7699 39.4027 32.5557 39.1383 32.5557Z" fill="#222222"/>
</g>
<defs>
<clipPath id="clip0_2602_33068">
<rect width="30" height="30" fill="white" transform="translate(16 16)"/>
</clipPath>
</defs>
</svg>
