<svg width="25" height="24" viewBox="0 0 25 24" fill="none" xmlns="http://www.w3.org/2000/svg">
<g clip-path="url(#clip0_4844_19014)">
<path d="M22.5851 5.8726C22.7966 5.8726 22.9681 5.70117 22.9681 5.48962V3.82979H24.117C24.3285 3.82979 24.5 3.65837 24.5 3.44681V0.382979C24.5 0.171421 24.3285 0 24.117 0H21.0532C20.8417 0 20.6702 0.171421 20.6702 0.382979V1.53191H4.32979V0.382979C4.32979 0.171421 4.15831 0 3.94681 0H0.882979C0.671472 0 0.5 0.171421 0.5 0.382979V3.44681C0.5 3.65837 0.671472 3.82979 0.882979 3.82979H2.03191V20.1702H0.882979C0.671472 20.1702 0.5 20.3416 0.5 20.5532V23.617C0.5 23.8286 0.671472 24 0.882979 24H3.94681C4.15831 24 4.32979 23.8286 4.32979 23.617V22.4681H20.6702V23.617C20.6702 23.8286 20.8417 24 21.0532 24H24.117C24.3285 24 24.5 23.8286 24.5 23.617V20.5532C24.5 20.3416 24.3285 20.1702 24.117 20.1702H22.9681V7.02153C22.9681 6.80997 22.7966 6.63855 22.5851 6.63855C22.3736 6.63855 22.2021 6.80997 22.2021 7.02153V20.1702H21.0532C20.8417 20.1702 20.6702 20.3416 20.6702 20.5532V21.7021H4.32979V20.5532C4.32979 20.3416 4.15831 20.1702 3.94681 20.1702H2.79787V3.82979H3.94681C4.15831 3.82979 4.32979 3.65837 4.32979 3.44681V2.29787H20.6702V3.44681C20.6702 3.65837 20.8417 3.82979 21.0532 3.82979H22.2021V5.48962C22.2021 5.70112 22.3736 5.8726 22.5851 5.8726ZM21.4362 20.9362H23.734V23.234H21.4362V20.9362ZM3.56383 23.234H1.26596V20.9362H3.56383V23.234ZM3.56383 3.06383H1.26596V0.765957H3.56383V3.06383ZM21.4362 0.765957H23.734V3.06383H21.4362V0.765957Z" fill="#222222"/>
<path d="M19.3932 5.48967C19.3932 5.27811 19.2217 5.10669 19.0102 5.10669H5.98894C5.77743 5.10669 5.60596 5.27811 5.60596 5.48967V12C5.60596 12.2116 5.77743 12.383 5.98894 12.383H19.0102C19.2217 12.383 19.3932 12.2116 19.3932 12V5.48967ZM6.37191 6.10933L11.6432 8.74483L6.37191 11.3803V6.10933ZM7.61128 5.87265H17.3878L12.4996 8.31666L7.61128 5.87265ZM12.4996 9.173L17.3879 11.617H7.61128L12.4996 9.173ZM13.356 8.74483L18.6272 6.10933V11.3804L13.356 8.74483Z" fill="#222222"/>
<path d="M11.7336 18.1277H5.98894C5.77743 18.1277 5.60596 18.2991 5.60596 18.5107C5.60596 18.7222 5.77743 18.8936 5.98894 18.8936H11.7336C11.9451 18.8936 12.1166 18.7222 12.1166 18.5107C12.1166 18.2991 11.9451 18.1277 11.7336 18.1277Z" fill="#222222"/>
<path d="M19.0102 18.1277H13.2655C13.054 18.1277 12.8825 18.2991 12.8825 18.5107C12.8825 18.7222 13.054 18.8936 13.2655 18.8936H19.0102C19.2217 18.8936 19.3932 18.7222 19.3932 18.5107C19.3932 18.2991 19.2217 18.1277 19.0102 18.1277Z" fill="#222222"/>
<path d="M11.7336 16.5H5.98894C5.77743 16.5 5.60596 16.6714 5.60596 16.883C5.60596 17.0945 5.77743 17.266 5.98894 17.266H11.7336C11.9451 17.266 12.1166 17.0945 12.1166 16.883C12.1166 16.6714 11.9451 16.5 11.7336 16.5Z" fill="#222222"/>
<path d="M19.0102 16.5H13.2655C13.054 16.5 12.8825 16.6714 12.8825 16.883C12.8825 17.0945 13.054 17.266 13.2655 17.266H19.0102C19.2217 17.266 19.3932 17.0945 19.3932 16.883C19.3932 16.6714 19.2217 16.5 19.0102 16.5Z" fill="#222222"/>
<path d="M11.7336 14.8723H5.98894C5.77743 14.8723 5.60596 15.0437 5.60596 15.2553C5.60596 15.4669 5.77743 15.6383 5.98894 15.6383H11.7336C11.9451 15.6383 12.1166 15.4669 12.1166 15.2553C12.1166 15.0437 11.9451 14.8723 11.7336 14.8723Z" fill="#222222"/>
<path d="M19.0102 14.8723H13.2655C13.054 14.8723 12.8825 15.0437 12.8825 15.2553C12.8825 15.4669 13.054 15.6383 13.2655 15.6383H19.0102C19.2217 15.6383 19.3932 15.4669 19.3932 15.2553C19.3932 15.0437 19.2217 14.8723 19.0102 14.8723Z" fill="#222222"/>
<path d="M19.0102 13.2446H5.98894C5.77743 13.2446 5.60596 13.4161 5.60596 13.6276C5.60596 13.8392 5.77743 14.0106 5.98894 14.0106H19.0102C19.2217 14.0106 19.3932 13.8392 19.3932 13.6276C19.3932 13.4161 19.2217 13.2446 19.0102 13.2446Z" fill="#222222"/>
</g>
<defs>
<clipPath id="clip0_4844_19014">
<rect width="24" height="24" fill="white" transform="translate(0.5)"/>
</clipPath>
</defs>
</svg>
